<svg id="Art" xmlns="http://www.w3.org/2000/svg" viewBox="0 0 216 216"><defs><style>.cls-1{fill:#c06b13;}</style></defs><path class="cls-1" d="M173,138.31l-.06-.51,0-.5.06-.51-.1-.51,0-.51v-.5l.12-.51v-.51l0-.51-.09-.51.06-.51.06-.51-.07-.51,0-.51.12-.51,0-.51,0-.52.07-.51-.11-.51v-1l.06-.52.06-.51-.07-.53V125l-.07-.53.09-.54,0-.53-.11-.54.08-.5v-.51l-.08-.5,0-.51v-.5l.12-.51-.09-.5.06-.5,0-.51.07-.5,0-.51,0-.5v-1.51l-.05-.5.06-.51,0-.5,0-.51,0-.5,0-.51,0-.5-.11-.51.05-.5.06-.51v-.5l0-.5v-.51l0-.5-.1-.5.1-.5v-1.51l0-.51-.14-.5.08-.51-.08-.5.06-.51.06-.5,0-.5-.1-.5,0-.51,0-.5,0-.5.05-.5-.06-.51.09-.5-.11-.51.08-.5.07-.5v-.51l0-.51-.07-.5,0-.51.09-.5.05-.51-.05-.5,0-.51,0-.5,0-.51.05-.5-.08-.51,0-.51-.07-.5.09-.51v-.5l0-.51,0-.5,0-.51,0-.51,0-.5-.05-.51,0-.5L173,85v-.5l0-.51,0-.51-.16-.5.12-.51-.06-.5.07-.51,0-.51.05-.51,0-.51-.05-.51v-.5l0-.51,0-.51V77.4l.05-.51,0-.52H173l0-.06.08.06-.11-.49.07-.48,0-.48v-.48l0-.49-.13-.48L173,73l-.11-.48,0-.48.1-.49.06-.48-.13-.48,0-.47-.11-.48-.34-.36-.21-.43-.37-.31-.29-.38-.45-.2-.62-.31-.07,0,0-.06L170,67.3l-.47-.19-.39-.33-.51-.13-.4-.3-.49-.16-.42-.28-.32-.19a11.75,11.75,0,0,1-.13,4.71l.1.11.42.3.19.48.28.44.08.5v.51l.06.5,0,.51-.06.5v.51l0,.5,0,.51,0,.5-.07.5.06.51.07.51-.12.5.08.51-.08.5,0,.51.09.5,0,.51,0,.5v.51l-.06.5.1.51-.12.5,0,.5,0,.51-.09.5,0,.51v1l0,.5v1l-.07.5.13.51-.14.5.15.51-.08.5v.1h0l0,.22,0,.17.1.5-.1.51,0,.5,0,.51.12.5V94l-.12.5.06.51,0,.5-.06.51.1.5,0,.51v.5l-.08.34,0,.22v.45l0,.5.09.5-.06.51-.06.5.07.51,0,.5-.1.42V102l0,.12,0,.39,0,.51-.07.51.11.5v1.1l-.05.34v.08l-.06.5.07.51v1l.07.51-.09.51,0,.5.11.51-.08.51v.5l.08.51,0,.51v.51l-.12.5.09.51-.06.5,0,.51-.07.5,0,.51,0,.51v1.52l.05.51-.06.51,0,.51,0,.51,0,.51,0,.51,0,.5.11.51-.05.52-.06.51v1.58l.11.53-.07.53,0,.54V126l0,.54.13.5-.13.5.11.51,0,.5-.1.5-.06.51.1.5-.05.5,0,.51.14.5-.08.5.07.51-.1.5.07.51,0,.5,0,.5v.5l-.1.5.06.51-.11.5.13.5-.07.51.09.5,0,.51,0,.5v1.52l.07.51-.07.5,0,.51v.51l0,.51-.11.49,0,.53-.31.41-.24.44-.25.44-.4.31-.41.31-.5.14-.43.25-.39.34-.48.16-.47.2-.41.29-.46.21-.45.23-.42.26-.46.22-.44.22-.38.35-.45.22-.47.16-.39.34-.47.17-.43.27-.43.24-.47.19-.41.3-.43.26-.47.17-.43.27-.48.17-.42.28-.43.26-.43.27-.47.18-.4.32-.5.13-.45.24-.39.33-.48.17-.42.27-.4.32-.48.17-.47.18-.39.33-.44.25-.47.18-.45.23-.39.33-.49.17-.46.21-.43.26-.41.3-.45.23-.48.17-.38.35-.52.11-.39.34-.46.21-.43.25-.47.21-.46.21-.38.35-.49.17-.42.28-.46.21-.47.19-.4.33-.46.21-.44.24-.45.22-.43.25-.42.29-.46.22-.43.26-.49.16-.39.34-.45.23-.45.23-.45.24-.5.14-.38.36-.5.15-.42.29-.46.21-.42.3-.5.15-.43.27-.44.26-.48.21,0,.12-.09.12,0-.1-.43.26-.45.25-.48.17-.4.34-.46.22-.45.24-.46.22-.45.23-.49.18-.43.28-.4.33-.47.2-.49.17-.43.28-.43.3-.44.26,0-.06h0l-.47.22-.4.34-.47.19-.41.33-.51.12-.43.29-.42.3-.44.25-.45.25-.47.19-.46.23-.43.28-.47.2-.42.3-.49.17-.43.28-.46.22-.43.29-.49.18-.43.28-.44.27-.5.16-.44.26-.4.33-.5.16-.47.23-.41.32-.45.26-.48.28-.54.14-.56,0-.54-.1-.53-.13-.49-.23-.48-.18-.36-.37-.46-.21-.45-.21-.42-.28-.44-.24-.49-.14-.4-.32-.48-.16-.44-.25-.4-.31-.43-.26-.45-.22-.49-.15-.43-.25-.41-.3-.42-.28-.44-.24-.5-.13-.42-.27-.46-.21-.43-.26-.44-.25-.43-.25-.47-.19-.38-.35-.48-.15-.43-.27-.4-.31-.49-.16-.41-.27-.42-.27-.48-.17-.42-.25-.42-.28-.44-.24-.47-.18-.43-.24-.39-.33-.5-.12-.42-.27-.4-.3-.5-.14-.43-.25-.45-.23-.43-.26-.43-.26-.4-.32-.46-.2-.42-.28-.45-.23-.49-.14-.38-.35-.48-.17-.47-.18-.38-.36-.49-.14-.41-.28-.42-.29-.46-.2-.41-.3-.45-.22-.46-.2-.45-.23-.46-.21-.39-.34-.45-.22-.48-.17-.46-.21-.44-.24-.39-.33-.46-.22-.41-.3-.5-.13-.39-.33-.47-.19-.47-.19-.44-.26-.43-.25-.43-.26-.44-.25-.41-.31-.47-.2-.45-.21-.46-.21-.4-.32-.42-.27-.47-.18-.44-.25-.43-.26-.48-.18-.41-.3-.49-.16-.44-.24-.41-.31-.47-.2-.42-.29-.45-.24-.49-.16-.37-.37-.49-.15-.44-.26-.41-.32-.49-.16-.43-.28,0,0-.11.16,0-.19h0l-.44-.24-.43-.24L58.6,151l-.38-.36-.49-.13-.41-.27-.42-.27-.45-.21-.43-.26-.45-.21-.42-.27-.46-.2-.41-.29-.46-.2-.4-.32-.49-.14-.45-.22-.4-.3-.45-.22-.43-.26-.46-.21-.45-.22-.39-.33-.44-.24-.4-.31-.3-.4-.3-.41-.21-.47-.06-.51v-.5l0-.5,0-.5v-.5l0-.49-.05-.5.07-.51,0-.5v-.5l0-.5,0-.5.11-.5-.05-.5,0-.5v-.5l0-.5,0-.5-.1-.5,0-.5,0-.5.15-.5-.1-.5,0-.5-.05-.5.06-.5-.06-.5.09-.51-.07-.5v-.5l0-.5.12-.51-.09-.5.08-.5-.07-.5v-.51l0-.51.08-.5-.07-.47,0-.46.13-.47-.06-.47,0-.47,0-.5,0-.51v-.5l-.06-.5,0-.51,0-.5.11-.51-.08-.5v-.51l.06-.5,0-.51-.05-.5v-.51l0-.51,0-.5.07-.5-.06-.51,0-.5,0-.51v-.5l.06-.51-.1-.5,0-.51.1-.5.05-.51-.11-.5.1-.51-.1-.5,0-.51v-.5l0-.51,0-.51.08-.5-.08-.51,0-.5,0-.5-.09-.5.06-.51v-.5l.05-.5v-.51l0-.51-.08-.5v-.51l-.06-.5v-.51l.09-.5.06-.5-.05-.51-.06-.5.06-.5-.07-.51.07-.5-.06-.5-.05-.51.1-.5,0-.51-.1-.5v-.51l0-.51,0-.51,0-.5L48.16,91l0-.5V90l.12-.5V89l-.09-.5V88l0-.51,0-.51.11-.5V86l-.07-.5,0-.51v-.51l0-.51.1-.5,0-.51.05-.51,0-.5-.08-.51v-.5l.12-.51-.06-.51,0-.5-.08-.51,0-.51,0-.51v-.51l.05-.51,0-.51-.1-.5,0-.4-.1-1.22h0V73.8l0-.52.13-.51-.08-.51.21-.47.1-.5.27-.42.35-.37.39-.32.4-.31.48-.16.37-.36.51-.11.41-.29.43-.26.41-.29.46-.21.41-.29.44-.24.47-.19.43-.25.44-.24.46-.21.44-.26.48-.16L56.9,66l.46-.21.44-.22.45-.23.43-.27.44-.23.43-.25.47-.2.39-.33.48-.15.46-.21.44-.24.45-.23.37-.37.44-.23.45-.22.48-.18.41-.29.47-.18.43-.27.42-.26.46-.22.4-.31.44-.24.45-.23.45-.23.49-.14.39-.34.45-.23.44-.23.42-.29.5-.12.4-.33.49-.14.4-.31.41-.29.47-.19.44-.24.46-.2.4-.3.48-.17.45-.22.41-.28.4-.31.48-.16.4-.31.44-.24.48-.16.43-.25.44-.25.4-.31.47-.19.47-.18.41-.29.41-.3.49-.15.46-.22.37-.36.45-.23.51-.12.39-.32.48-.17.45-.24.42-.27.43-.25.42-.28.43-.27.47-.17.42-.29.48-.16.39-.34.5-.13.45-.24.41-.3.47-.19.45-.22.44-.25.41-.3.41-.29.44-.24.46-.22.49-.16.41-.29.41-.3.46-.21.47-.2.46-.21.41-.3.45-.24.48-.17.44-.25.43-.26.42-.28.43-.26.47-.18.41-.31.46-.21.47-.19.38-.36.45-.23L101,42l.5-.13.4-.34.43-.26.48-.19.45-.23.43-.27.48-.18.39-.34.45-.25.51-.11.41-.33.43-.28.55-.1.51-.18.54-.12.55,0,.53.17.47.28.48.17.42.29.42.27.46.2.46.21.44.24.45.23.4.32.47.17.43.27.46.22.41.3.43.26.44.24.46.22.45.23.42.27.47.18.46.22.43.26.47.18.44.25.42.29.4.31.46.21.45.21.45.22.42.28.49.16.4.31.48.16.39.36.43.25.47.18.47.2.42.29.43.25.43.26.49.16.45.23.41.3.43.27.46.21.46.19.41.31.49.15.37.37.47.19.44.25.42.28.48.16.44.26.48.17.42.27.4.32.45.21.43.25.5.14.42.26.31.25c.12-.47.27-1,.48-1.58A19.36,19.36,0,0,1,137,50V50l.18-.42-.41-.21-.43-.27-.43-.27-.5-.14-.4-.31-.47-.2-.43-.28-.42-.28-.48-.16-.43-.27-.44-.24-.44-.26-.45-.23-.47-.19-.42-.26-.46-.22-.4-.32-.49-.15-.44-.25-.44-.26-.44-.24-.39-.34-.51-.12-.4-.34-.47-.19-.42-.28-.48-.18-.39-.33-.47-.21-.45-.23L123.5,42l-.46-.22-.49-.16-.43-.28-.45-.22-.45-.24-.41-.31-.49-.15-.44-.26-.44-.25-.44-.26-.43-.26-.41-.31-.46-.2-.49-.16-.42-.28-.41-.31-.47-.21-.47-.19-.46-.23-.38-.34-.46-.23-.44-.26-.5-.16-.42-.29-.49-.16-.38-.36-.48-.2-.47-.19-.46-.24-.45-.24-.42-.29-.46-.23-.5-.1-.49-.12-.5.06h-.52l-.48.18-.47.19-.41.29-.48.17-.42.28-.43.26-.48.16-.44.25-.39.33-.49.16-.45.22-.4.31-.44.25-.41.3-.44.24-.45.23-.47.2-.44.24-.45.23-.41.3-.51.11-.43.27-.42.27-.47.2-.44.24-.39.34-.48.16-.4.32-.44.24-.49.16-.45.22-.43.26-.39.33-.45.23-.47.19-.46.2-.44.24-.39.34-.46.22-.42.27L89,44l-.45.23-.45.23-.42.29-.5.13-.4.33-.46.21-.47.17-.4.33-.46.21-.46.2-.4.32-.46.22-.46.2-.44.24-.41.3-.45.23-.49.16-.37.35-.46.21-.47.17-.38.35-.45.23-.43.25-.45.22L78,50l-.48.16-.42.28-.46.2-.44.25-.39.34-.5.13-.4.31-.42.3-.51.12-.39.34-.46.2-.47.2-.42.28-.47.18-.44.26-.42.27-.43.26-.43.27-.49.14-.43.26-.41.32-.42.26-.44.25-.5.15-.43.27-.47.18-.39.35-.49.15-.42.3-.41.29-.45.22-.46.23-.45.23-.45.22-.48.18-.42.29-.43.27-.43.27-.48.16-.46.22-.42.3-.45.23-.45.23-.41.3L58,60.8l-.39.32-.45.23-.48.18-.42.28-.47.2-.44.24-.4.33-.51.12-.4.33-.46.22-.48.17-.4.33-.47.21-.47.2-.38.36-.47.21-.46.22L50,65.2l-.46.23-.41.32-.51.13,0,.12,0,0-.48.22-.44.28-.47.23-.44.27-.48.23-.44.29-.49.19L45,68l-.46.18-.29.39-.3.36-.32.35-.2.43-.18.45-.06.47v.47l-.1.5,0,.5,0,.5,0,.5.05.5,0,.5-.06.5,0,.5-.05.51,0,.5v1l0,.5-.07.51,0,.5,0,.5,0,.5,0,.51-.11.5.05.5,0,.5v.5l0,.5,0,.51.1.5,0,.5v.5l-.14.5.09.5,0,.51.06.5-.07.5.06.5-.09.51.07.5v1l-.12.51.09.49-.07.5.07.5v.5l0,.5-.08.51.07.5,0,.5-.13.5.06.51,0,.5,0,.5,0,.5v.5l.06.5,0,.5,0,.5-.1.5.07.5v.5l-.06.51,0,.5,0,.5v.5l0,.51,0,.5-.07.5.06.51,0,.5,0,.5v.5l-.07.5.1.51,0,.5-.1.5,0,.51.11.5-.11.51.1.5,0,.5v.51l0,.5,0,.51-.08.5.08.5,0,.51,0,.5.09.5-.07.5v.51l-.05.5v.51l0,.5.07.5v.51l.06.51v.5l-.08.51-.07.51.05.5.07.51-.07.5.08.51-.08.51.06.51.05.47-.1.46,0,.47.1.47v1l0,.51,0,.5.06.5,0,.51v.5l-.12.51v.5l.08.51,0,.5,0,.51,0,.51-.11.5v.51l.08.5,0,.51v.51l0,.5-.1.51,0,.5,0,.51,0,.5.08.5v.51l-.12.51.06.5,0,.51.08.5,0,.51,0,.51v.51l0,.51,0,.5.1.51-.07.51,0,.51.06.51,0,.51,0,.51-.11.49.21.44.07.48.3.38.25.4.3.37.35.33L45,148l.4.32.51.12.37.36.47.2.45.22.47.18.43.27.47.2.44.24.41.29.45.23.44.24.43.27.45.23.4.32.5.13.42.28.44.26.43.25.46.22.44.25.45.22.42.29.49.16.4.32.42.28.45.23.44.25.51.12.44.25.43.26.41.31.47.18.41.3.46.22.46.21.42.27.49.16.44.25.43.25.44.25.39.35.5.13.44.26.43.25.47.19.38.36.49.16.39.34.49.17.47.19.41.29.45.24.42.28.48.18.4.32.44.26.47.19.47.18.41.32.48.16.44.25.4.32.45.23.45.23.48.17.41.29.41.29.46.2.48.17.39.33.43.27.5.12.44.25.38.36.48.16.41.31.43.25.47.2.45.24.47.2.45.22.41.31.47.19.4.32.5.15.39.34.44.25.47.18.42.29.43.26.44.24.48.18.47.19.44.24.44.27.39.33.48.19.48.18.43.27.42.29.43.27.47.19.45.24.4.31.45.24.46.22.46.2.46.23.42.3.48.17.42.28.42.29.51.14.44.25.45.23.39.35.5.15.45.22.41.3.44.25.46.22.41.31.5.15.45.23.38.37.49.17.47.2.38.36.47.21.49.17.46.23.43.27.42.3.48.17.43.3.43.28.47.2.47.18.48.14.5.07.5.08.49-.14.49-.12.45-.22.48-.18.45-.23.45-.24.43-.26.44-.25.46-.21.41-.3.44-.26.45-.23L114,179l.45-.24.47-.19.49-.17.42-.28.44-.26.43-.27.47-.19.4-.33.48-.17.41-.32.5-.13.46-.22.41-.3.42-.29.47-.19.45-.23.45-.22.4-.32.44-.25.48-.18.46-.22.43-.28.42-.28.48-.18.4-.33.52-.11.42-.3.46-.23.47-.2.4-.32.46-.24.41-.31.47-.21.49-.17,0-.06-.07-.1.08-.13.14.11v.1l.41-.29.43-.25.47-.16.41-.3.46-.2.41-.29.47-.17.46-.21.39-.31.49-.16.37-.37.51-.12.42-.27.39-.32.48-.17.44-.23.43-.25.45-.22.4-.3.47-.17.43-.26.43-.26.46-.2.44-.24.4-.31.49-.14.4-.32.42-.27.49-.15.41-.31.47-.18.45-.22.41-.29.47-.17.43-.27.41-.3.44-.23.46-.22.44-.24.42-.28.48-.15.4-.32.44-.24.43-.25.48-.19.41-.28.49-.15.44-.24.41-.28.44-.25.45-.21.44-.24.46-.22.45-.22.44-.24.44-.24.43-.28.42-.27.46-.22.43-.26.43-.27.49-.15.38-.35.49-.17.45-.23.46-.22.44-.25-.06-.11,0,.08.46-.19.37-.35.48-.17.39-.32.45-.2.46-.19.41-.3.44-.21.46-.18.44-.24.42-.26.42-.26.45-.21.47-.17.41-.29.41-.29.49-.14.4-.31.47-.16.43-.26.4-.32.42-.26.47-.18.43-.25.47-.19.39-.33.5-.13.42-.28.38-.29.42-.24.3-.38.27-.4.23-.42.11-.47.11-.46,0-.48.07-.5-.13-.51.14-.51-.15-.51.08-.5.07-.51-.1-.51.1-.51,0-.51,0-.51-.12-.51v-.51ZM121.63,45h0v0l-.11.07Zm-45.56,9.3h0l0,0ZM74.52,56h0v.06l-.15.07Zm-4.34-1.19.06,0,0,.06L70.1,55V54.8ZM69.84,58l.11.07,0,.06-.06,0h-.12Zm-1,.5h0l0,0ZM68.1,55.7l.1,0v.13H68l.08-.11Zm-.12.48h0l-.06.07Zm-.65,4h0v.07l-.15.07Zm-.45-.54h0ZM63,59l.06,0,0,0-.12.08V59Zm-.21,3.26,0,0,0,0-.1-.17.19.07ZM62.2,59.1l.08,0v.07l-.15.11,0-.17Zm-1.29.77.09.05v.13h-.17l.09-.11Zm-.12.48h0l-.06.07Zm-1.1,3.49h0Zm-2.6.49.08.09H57Zm-.23,1.12h0v0l-.13.08Zm-.15-2v0l0,0H56.6ZM55.78,63,56,62.9l.18.07.15.05v.14l-.22.12-.1,0-.19-.14-.18,0Zm-.78.3.08,0v.07l-.15.11,0-.16Zm-.56-.39h0v0l-.13,0ZM49.89,68.5l.09.1h-.21Zm-.22,1.12h0v0l-.12.07Zm-.12-1.94h-.14l.11-.08,0,0Zm-1-.54.23-.07.18.07.15,0v.14l-.22.12h-.11l-.18-.15-.18-.05Zm-4.06,74.12h0v0l.1-.07Zm2.37-8.73h0l.15,0Zm.72,4.21v0l0,.14h-.09Zm-.18,9h.07l0,.05-.18-.08Zm.26,1.57h-.08l-.21-.12-.15-.05.08-.17.27,0,.19.07,0,.11.15.14Zm.47-1.8h0l0,0,.12.06Zm.31,4,0,0v0l.12-.07Zm.23-1.07,0,0,0-.11.19.11Zm1.94.83.19-.1h0v0Zm1.91.63h0v0Zm6.36,3.32-.07,0-.11,0,0-.08.16-.11Zm53.55,22.66h0v-.05l.12-.07Zm1.72,2.39,0,.09-.11,0-.07-.15.1-.12.19.08Zm.45-2.64.19-.1h0v0Zm.27,2.36v0l0,0Zm1.42-4.57,0,0v0l.12-.07Zm.21,2.84v0l0,.05Zm1.51-.44,0,.09-.11,0-.08-.15.11-.12.18.09Zm.46-2.64.18-.1h0v0Zm.27,2.36v0l0,0Zm1.62-1.73v0l0,.05Zm5.13-5.29,0,0,0-.08.16-.06v.19Zm4.22-.83-.06,0-.23-.09,0-.15h.18l.11.1.1,0Zm.4-1.2h-.05v-.07l.14-.07Zm1.7-.32,0,0-.05-.1.13-.06,0,.15Zm.86,2.4h0l.09,0Zm.2-1.75-.06,0v-.15l.14,0v.14Zm.7-1.58-.06,0-.23-.09,0-.15h.18l.11.1.11.05Zm.42.19h0Zm0-1.4-.05,0V164l.15-.07Zm1.69-.31,0,0-.06-.11.13-.05,0,.14Zm1.07.64-.07.06v-.15l.13-.05v.14Zm1.11-1.39Zm4.64-3.44h0v0l.12-.07Zm1.72,2.4,0,.09-.11,0-.07-.15.1-.12.19.09Zm.45-2.64.19-.11h0v0Zm.27,2.36v0l0,0ZM146.6,160v0l0,0Zm9-7.73,0,0,0-.08.16-.06v.18Zm4.22-.83-.06,0-.23-.09,0-.15h.18l.11.11.1.05Zm.4-1.21h-.05v-.06l.14-.08Zm1.7-.31,0,0-.05-.1.13,0,0,.14Zm1.06.64-.06.05v-.14l.13,0,0,.14Zm1.12-1.39ZM168,90.46v0l0-.07.17-.07Zm.41-1,0,.06v-.12l.15-.06Zm.25-4.13h0v.13l0-.12Zm.26,15.16,0,.09-.11,0-.08-.15.11-.12.18.09Zm.08-9.55,0-.06-.16-.1H169l.07.13v0Zm.58-1.82-.09.13h0v-.07Zm-.09,2.22.05.05,0,0,0,0-.1-.09Zm-.11,6.5.18-.1h0v0Zm.27,2.37v0l0,0ZM170,80.25l-.1,0,0-.07-.08-.23.08-.15.11.08.17.17Zm.54-10.83h.07l-.05,0-.18-.09Zm-.06,1.29.23-.07.18.07.15.05v.14l-.22.12h-.11l-.18-.15-.18,0Zm-.15,31.35h.15l0,.13Zm.49-1.11-.14,0v0l0,0,.12-.08Zm0-18.3-.23-.11-.06-.08-.05-.15h.19l.08.06.09.23Zm.28-11.08-.07.05-.1-.05,0-.08.17-.1Zm.14,26.86h0l0,0Zm.05-27.18.1-.08v0l0,0Zm.94-1.33,0,0,0,.05-.09-.14Zm-.05,11.47-.14.08.07-.11h.06Zm-.62-8.18h0v0l.13-.07Zm.09-1,.12-.1.09.1h-.21Zm.16,5.58.09-.09v.1ZM172,91.31h0v0l.13,0Zm.1-9.09.18.06,0,0-.06,0Zm.52,9.5-.1,0,0,0,.06-.11.14.06Zm0-9.37-.12-.17v-.07l.07,0,.07.05.12.1Z"/><polygon class="cls-1" points="147.39 147.71 144.25 148.18 141.12 148.2 137.98 148.25 134.84 147.79 131.7 147.91 128.56 148.37 125.43 148.1 122.28 148.2 119.13 147.73 115.97 148.08 112.8 148.04 112.87 148.52 115.93 148.42 119.08 148.98 122.21 148.8 125.34 149.06 128.49 148.58 131.63 148.81 134.76 149.04 137.89 148.46 141.04 149.03 144.19 148.47 147.35 149.06 150.51 148.79 150.5 148.16 147.39 147.71"/><polygon class="cls-1" points="114.32 143.31 117.56 143.22 120.82 143.78 124.08 143.6 124.02 143.13 120.83 143.11 117.59 142.53 114.33 142.57 111.09 142.97 111.1 143.47 114.32 143.31"/><polygon class="cls-1" points="128.73 153.9 131.43 153.87 131.38 153.54 128.74 153.18 126.04 153.26 123.32 153.63 120.67 153.53 120.66 153.78 123.31 154.35 126.02 154.31 128.73 153.9"/><polygon class="cls-1" points="152.18 125.88 149 125.48 145.78 125.7 145.79 126.06 149 125.99 152.26 126.36 152.18 125.88"/><polygon class="cls-1" points="57.93 99.24 57.99 99.79 61.19 99.83 64.36 99.65 64.4 99.48 61.19 99.65 57.93 99.24"/><polygon class="cls-1" points="149.43 135.99 152.63 136.03 152.74 135.24 149.43 135.54 146.19 135.58 146.25 135.9 149.43 135.99"/><polygon class="cls-1" points="157.04 134.84 160.01 135 162.95 134.66 162.96 133.94 159.96 134.24 156.98 134.06 157.04 134.84"/><polygon class="cls-1" points="139.62 152.7 139.62 153.81 142.8 153.68 143.54 153.44 144.34 152.62 141.97 152.67 139.62 152.7"/><polygon class="cls-1" points="160.12 141.03 157.27 140.91 154.39 140.97 151.52 140.99 148.63 141.24 145.72 141.08 145.7 142.06 148.61 141.58 151.47 141.63 154.34 141.7 157.22 142.13 160.1 142.05 163.05 142.11 163.01 141.03 160.12 141.03"/><polygon class="cls-1" points="159.78 124.96 156.56 124.58 156.55 125.53 159.8 125.44 163.03 125.76 162.76 125.22 163.02 124.48 159.78 124.96"/><polygon class="cls-1" points="118.97 117.89 119.07 117.43 115.79 117.39 112.58 117.69 112.5 118.48 115.8 118.3 118.97 117.89"/><polygon class="cls-1" points="66.61 95.83 63.29 95.44 63.3 96.65 66.61 96.53 69.88 96.45 69.79 96 66.61 95.83"/><polygon class="cls-1" points="154.48 116.96 151.45 116.6 148.34 117.04 145.22 116.34 142.11 116.32 139 116.51 135.9 116.93 132.78 116.5 129.65 117.04 126.52 116.8 123.32 116.4 123.35 117.52 126.45 117.45 129.52 117.04 132.6 117.22 135.68 117.61 138.75 117.44 141.82 117.01 144.9 117.48 147.99 117.52 151.08 117.42 154.22 117.75 154.48 116.96"/><polygon class="cls-1" points="140.26 121.31 137.5 120.77 134.56 121.34 131.67 121.21 131.58 121.87 134.43 121.41 137.25 121.78 140.16 121.34 140.03 122.47 140.26 121.31"/><polygon class="cls-1" points="129.33 157.53 125.87 157.4 125.74 158.22 128.88 157.94 131.96 157.62 135.01 157.71 135.47 157.39 132.85 156.96 129.33 157.53"/><polygon class="cls-1" points="136.2 156.88 135.47 157.39 136.37 157.54 136.2 156.88"/><polygon class="cls-1" points="117.44 165.31 114.42 165.64 111.4 165.55 108.39 165.72 105.39 165.72 102.36 165.13 99.34 165.71 96.3 165.58 93.28 165.19 93.91 165.28 94.61 165.93 97.75 166.3 100.91 166.35 104.06 166.22 107.21 166.41 110.38 165.92 113.55 165.8 116.73 165.98 119.89 165.83 120.57 165.84 120.49 165.03 117.44 165.31"/><polygon class="cls-1" points="97.51 161.24 100.52 161.43 103.53 160.94 106.56 160.82 109.59 161 112.55 160.86 112.68 160.1 109.49 160.51 106.35 160.41 103.21 160.54 100.08 160.52 96.95 160.66 93.81 160.14 90.66 160.02 87.5 160.57 84.34 160.42 84.68 160.62 85.29 161.01 85.48 160.83 88.48 160.95 91.5 161.32 94.5 161.37 97.51 161.24"/><polygon class="cls-1" points="112.32 170.06 112.2 170.13 112.46 170.15 112.32 170.06"/><polygon class="cls-1" points="106.04 170.26 102.81 170.15 99.64 170.28 99.52 171.12 102.46 170.9 105.34 170.71 108.22 170.66 111.09 170.59 111.48 170.58 112 170.25 112.2 170.13 109.25 169.84 106.04 170.26"/><polygon class="cls-1" points="93.9 146.8 97.02 147.32 100.2 147.44 100.1 146.55 97.22 146.01 94.3 146.19 91.37 146.53 90.97 146.54 91.22 146.92 93.9 146.8"/><polygon class="cls-1" points="69.38 146.97 72.2 146.92 74.81 147.03 74.8 146.63 74.86 146.54 73.77 146.74 73.74 146.77 73.61 146.74 70.82 146.64 69.47 146.63 69.38 146.97 69.38 146.97"/><polygon class="cls-1" points="59.79 146.89 59.84 146.9 62.92 146.83 66.01 147 68.68 146.98 68.68 146.62 67.87 146.61 64.92 146.12 63.6 146.25 63.6 146.26 63.36 146.27 63.36 146.5 62.78 146.51 62.59 146.34 61.97 146.4 59 146.07 59.15 146.47 59.79 146.89"/><polygon class="cls-1" points="75.64 147.09 75.64 147.09 78.4 147.36 81.5 146.95 84.58 147.05 85.29 146.66 85.37 147.02 87.68 146.92 89.77 146.93 88.93 146.61 88.43 146.63 85.5 146.25 82.57 146.25 79.62 146.53 76.69 146.21 76.02 146.33 75.86 146.49 75.64 147.09"/><polygon class="cls-1" points="81.04 152.12 81.07 151.58 77.7 151.48 74.32 151.39 70.93 151.28 67.5 150.95 68.06 151.83 68.73 152.26 69.06 151.95 72.06 151.92 75.05 152.52 78.06 152.4 81.04 152.12"/><polygon class="cls-1" points="98.28 151.08 95.3 151.03 92.3 150.77 89.27 150.97 89.33 151.74 92.09 152.01 94.88 151.76 97.69 151.63 100.49 151.54 103.23 151.48 104.23 151.15 101.27 151.1 98.28 151.08"/><polygon class="cls-1" points="107.37 139.84 110.38 139.77 113.4 140.13 116.43 140.17 116.73 139.68 113.74 139.22 110.69 139.25 107.65 139.43 104.59 139.1 101.52 139.43 98.45 139.51 95.31 139.13 95.4 140.03 98.13 140.28 98.13 140.27 98.91 140.26 101.37 140.05 104.36 139.93 107.37 139.84"/><polygon class="cls-1" points="88.43 156.18 91.46 156.1 94.5 156.49 97.52 156.07 98.51 155.36 95.58 155.67 92.7 155.11 89.81 155.11 86.94 155.29 84.04 155.75 81.14 155.61 78.24 155.45 75.32 155.44 76.4 155.92 76.35 156.39 79.37 156.36 82.39 156.19 85.4 156.51 88.43 156.18"/><polygon class="cls-1" points="106.54 127.01 103.38 127.18 100.15 126.87 100.23 127.84 103.34 127.79 106.48 128.09 109.61 128.19 112.75 127.86 115.89 128.23 119.03 127.67 122.17 127.66 125.3 128.03 128.45 127.82 131.6 127.62 134.76 127.74 137.95 128.01 137.88 127.39 134.8 126.83 131.66 126.84 128.52 127.01 125.39 127.48 122.24 127.33 119.11 127.17 115.97 127.16 112.84 127.44 109.69 126.98 106.54 127.01"/><polygon class="cls-1" points="108.24 122.05 104.99 122.1 101.74 121.81 98.4 121.71 98.44 122.89 101.72 122.62 104.97 122.54 108.23 122.55 111.56 123.04 111.5 121.91 108.24 122.05"/><polygon class="cls-1" points="113.42 132.95 116.14 133.45 118.86 133.19 118.78 132.69 116.15 132.75 113.44 132.72 110.73 132.31 107.97 132.21 108.04 133.02 110.72 132.94 113.42 132.95"/><polygon class="cls-1" points="141.07 132.59 141.92 132.23 139.05 132.09 136.06 132.14 133.08 132.06 130.08 131.75 127.02 131.69 127.16 132.37 129.87 132.31 132.66 132.35 135.47 132.76 138.27 132.86 141.07 132.59"/><polygon class="cls-1" points="128.98 136.69 132.15 136.65 135.25 136.69 136.34 136.05 133.38 136.63 130.5 136.42 127.63 136.09 124.77 136.24 121.89 136.07 119 136.46 116.11 136.33 113.28 136.57 113.25 136.87 116.37 136.82 119.51 136.91 122.66 137.21 125.81 137.27 128.98 136.69"/><polygon class="cls-1" points="100.45 107.57 97.31 107.24 94.18 107.39 91.04 107.22 87.9 107.61 84.76 107.48 81.62 107.73 78.49 107.58 75.34 107.62 72.19 107.54 69.03 107.24 65.84 107.17 65.95 107.8 69 108.43 72.14 108.03 75.27 108.28 78.4 108.12 81.55 107.84 84.69 108.07 87.82 107.92 90.95 107.98 94.1 108.2 97.25 108.14 100.42 107.97 103.63 108.4 103.5 107.77 100.45 107.57"/><polygon class="cls-1" points="70.65 101.96 67.39 102.36 64.11 102.11 64.17 102.77 67.38 103.08 70.63 102.83 73.88 102.61 77.13 102.92 77.17 102.11 73.9 102.61 70.65 101.96"/><polygon class="cls-1" points="81.79 113.32 84.53 113.48 84.47 112.78 81.8 112.57 79.1 113 76.38 112.31 73.72 112.83 73.64 113.47 76.37 113.23 79.08 113.01 81.79 113.32"/><polygon class="cls-1" points="101.72 112.56 98.73 111.88 95.74 112.4 92.72 112.09 92.82 112.6 95.52 112.76 98.32 112.94 101.12 112.65 103.93 113.21 106.79 113.22 107.62 112.35 104.7 112.14 101.72 112.56"/><polygon class="cls-1" points="85.17 116.98 88.31 117.55 91.47 117.56 94.63 117.11 97.8 117.33 100.91 116.91 101.94 116.46 99.03 116.36 96.16 116.72 93.29 116.48 90.42 116.61 87.54 116.63 84.66 116.58 81.77 116.75 78.95 116.87 78.91 117.09 82.02 117.27 85.17 116.98"/><path class="cls-1" d="M163.11,112.84l.23-1v-.59l-.28-1.14.05-.42.12-1.46-.62-.1.26-1.31,0-.78.15-1.34-.24-1,0-1v-1.29l.18-.38.11-.69.11-.89-.24-.17.05-2.07,0-.37-.55-.92.1-1,.21-1.29-.07-.28.47-.28,0-1-.13-.78v-.27l-.3-.52-.2-.49.14-.81-.17-.82.56-.27,0-1.25-.2-1,.17-.81-.43-1,.28-.52.1-1.3-.19-.29-.19-1,.39-.5-.33-.36.14-1.75-.25-.24.51-.79-.1-.65,0-.93-.15-.79L163,72.1l-.12.57-.2-.52-1.38-1.7.69-3.31.06-3.27.14-.11-1.88-.52L160,60.7l.2-1.31-.85-2-1.25-2.91-1.22-.93-.19.32-.79,1.45L155,57.91l-.54,1.8-1,1.57-.77,2.44-.27,2.72-.31,1-.43,1.78.4-1.89-.2-4.11-.72-3.07-1.36-2.52-.1-.3-.43-2.7L148,51l-1.48-2.43L145.4,46.5l-1,.71-1,1.43-.48-.18-.65,2.66-.6,1.76-.42,2,.12,2.33-.6,1.84-1.57,1.3-.77,2.78.62,3,.37,3-1.36,2.26-1.58,2.1.56,2.71-2.81.49-2.95.1-3-.13-2.94.48-3,.21-3,.07-3,.36-3,.29-2.84,1h-.07l0,0-.11.36-1,0-.34-.22-1.51.21-1,.18.14.24-.44,1.42-.12.12-.36-.11-.24-.47.05-1-1,.18-3,.44-2.91.73L96,81.77l-2.79,1.17-.77.22-.08.43L92,84h-.35l-.23-.11v-.39l-1.06.3v.11h-.15L90,84l-.33.16-2.12.15.43.41.49,1.05-1.3.5h-.35l-.25-.83.17-1.27-.25-.09-3.2.1-3.2-.58-3.24.4-3.19-.45L70.5,83.2l-3-1.06-2.78-.25L62,81.11l-2.77-.22-2.79-.33-2-2.35-2.73-1-.17.11.08.28-.18.53.12.79L52,80l-.26.46L52,81.78l-.08.27-.14.81-.51.71.59.59v.52l-.26,1.55,0,.62v.48l-.3.52.37,1.8-.46.34.79,1-.79.95.35.3,3.05-.52,2.91-1.09L60.4,89.2l3.11-.49,3.06-.6,3.08-.56,3-.94,3.12-.31,3.15-.58L76.25,87l-2.38,1.57-1.55,2.33-.46,2.7L73,95.94l2.35,1.76,2.8,1,2.57,1.55,2.83.9,3,.36,2.81.94,3,.27L95.08,104l3,.1,2.84.9,3,.32,2.94.33,2.86.85,2.9.69,3,0,2.83,1.15,3,.12,2.9.77,2.94.36,3,.24,3,.71,3.05.34,3,.55,3,.73,3,.5,3.05.44,2.9,1.11,3.11.21,2.88,1.1,2.77,1.34L163,118l.26-.16-.44-.52.13-1.62-.33-1.08.23-.49-.08-.47.13-.27ZM88.18,94.16l-.12.12h-.47l-.24-.23.22-.83H88l.36.35V94Zm-.28-2.35-.47.13-.36-.23-.13-.47v-.35l.35-.24,1,0,.36.23Zm2.87-3.94-.71-.11-.24-.11.11-.36.47-.24,1.06.09.24.47Zm2.88,3-.94,0-.36-.7V90l.58-.25,1,.81Zm11.29-7.29,0,.59h-.48v-.58Zm-4.28-1.8,1.89.19,1.07.34-.79,1.9-1.06,0-.93.49-.12.24-.47-.35.44-1.18Zm-4,22-.48-.11-.14-.94.23-.6.47.23.13.35-.22.71ZM97,89.16l-.34.47-.11.24-.83-.22.1-1.06.47-.25L97,87.27l-.38-.93-.71-.58-.25-.7,1.28-.85.59.1,0,1.77,1.07.57-.22.95-1.4,1Zm2.29,2.19-.47.13-.47-.23-.13-.12.46-1.06.84.8ZM100.2,88l0-.94.11-.24.47.11,1.32.92-.34.71-.35.13Zm1.22,2.34h-.35l.23-.47.81-.38-.11.36Zm2,5.37-.58.72v.24l-.83-.22.69-1.31L104.2,94h.47l.49.7V95Zm10.78-3h-.48v-.47h.48Zm-7.15-9.64v.71h-.47v-.71Zm.28,8.13-.71-.1-.48-.58v-.24l1,.1.48.34ZM109.66,96l-.94,0-.47-.22-.37-.58V95l.35-.24,1.65.08.13.94Zm.29-3.42-.48-.22.23-.6.48.35Zm.8-7.32-.81.61-1.29.49-.2,1.77-.34.6-.12.12-1.91-1,1-1.32,0-1.29,1.06,0,1.64-.62,1.06.22Zm1.53.09-.85-1.52v-.35l1.17-.61.94.33-.21.83.74,1.87-.23.24-1.08-.8Zm1,14.35,0-.82.82,0,0,.83Zm.86-3.67-.11.24L113.2,96l.11-.59.46-.36v-.24l.49.23ZM117,79.57l.23-.24.71.22.37.81V81l-1.4.74h-.23l-.12-.35.68-.72Zm0,3.77.6.11.48.69-.11.48-.58.36-.2,1.42-.12.12-.83-.22Zm-.37,5.07h.24v-.24h.58v.24h.24V89h-.24v.23h-.58L116.6,89Zm1.75,4.45-.36-.23-.47.24.15,1.41-.12.24-.83-.45.1-.95.58-.48.33-1,.46-.6.83-.25.94.1.12.35L119.27,93Zm1.69,8-.48-.23-.36-.58v-.24l.58-.25.47.11.62.94Zm1.74-18.66-.82,0-1-.81-.24-.47.1-.35.48-.25.94.34.61.69v.71Zm19.16-8.63.93-.61v.59l-.68,1.07-.11.24h-.36l-.12-.35Zm-15.56,5.73.35-.12.6.22-.23.48h-.82l-.13-.11Zm-1.92,10.41-.46.25h-.23l0-1.06.22-.36.61.7Zm.19-8.61,0-.58.6.1.12.35-.22.36h-.36Zm2,5.38-1.17.5-.47-.23,0-1.17.94-.26,1,.1.71.46.13.47Zm2.3,2.91-.12.12-.47-.11L127.2,89l.34-.83H128Zm2.92-1.13-.92,1-.22.59V90l-.83-.22v-.47l1.26-2,.83.33Zm-.32-4.35-.84-.45-.71-.11h-.23v-.47l-.61-1.29.34-.59.47.1.85,1.17h.47l1.19.56,0,.83ZM131,78.7l-.25-.12.71-.36,1.18.33-.22.35L132,79Zm2.41,2.78-.23.24-.48-.11-.6-.69.22-.48.48-.13.73.93Zm2.27,7.26-.47.13-.84-.34-.24-.7v-.24l.35-.24,1.77.2v.59ZM137,79.29l-.11.23-.36-.22-.14-.83-1.65-.32.58-.72.47.23,1.28-.61.36.34,0,1.29Zm2.11,11.38-.35.25-1.06,0-.13-.59,1.75-1,.13.59Zm1.4-6.74-.48-.23-.13-.35.57-1.42-.62-1.29.56-1.78,1.32,1.27-.23.48.29,2.82-1.17.38Zm.73,1.4-.24-.11v-.6l.58-.71.83.22.81-.49.95.22-.33.83-2,.75Zm4.12,5.22-.48-.11-.24-.47-2.61-1-.14-.47,2.72.18.85,1.28v.35Zm.59-5.32-.46.25h-.23l0-.82.82-.25Zm0-5.65-.84-.81-1.18-.1-.13-.7.82-.25.48.22,1-.49,0-1.06.58-.6H147l.29,2.7-.69.84v.24Zm1.34,2.09-.36-.23-.13-.82.69-.6h.59Zm2.5-4.64-.47.12-1-.22-.85-1.16v-.23l1.4-.86h.71l.37.94,0,.94Zm-.69-4.82-.12-.47.95.33.48.46v.24Zm1.4,4.92h.71l-.12.47-.11.24h-.47Zm1,7.76h-.6l-.23-.11v-.24l.35-.24.71.22Zm.61-4.61.6.23-.23.35-.11.12-.49-.22ZM152,83.7l.23-.71.82,0,.25.47v.24Zm1.46-9.81h-.59l-.23-.11v-.24l.34-.24.72.22Zm1.45,7.63h-.59l.11-.59.58-.24.35.22Z"/><polygon class="cls-1" points="51.8 92.41 51.62 92.26 51.6 92.27 51.8 92.41"/><polygon class="cls-1" points="51.64 110.18 51.93 110.27 51.96 110.05 51.64 110.18"/><polygon class="cls-1" points="51.51 137.96 51.66 138.08 51.68 137.53 51.51 137.96"/><path class="cls-1" d="M62.66,143.73l-.53-.15.76-3,.6.11.48.69-.11.48-.58.36-.2,1.42,0,0,.58,0,3.12-.21,3.09-.44h.05v-.15l.94-.26,1,.1.22.15,1-.08,3.1-.35,3.1-.32,3-.68,2.95-1,1-.29.36-.91-.62-1.29.56-1.77,1.32,1.27-.23.47.18,1.75.44-.14,2.85-1.2,2.55-1.74,2.37-1.87,2.08-2.17.64-1.43,0,0v-.23l.24-.17.41-.9-.55-3.05-2.76-1.54-2.76-1.44-2.86-1.26-3-1-3-.86-3-.91-3-.9-3-.74-3-.76-2.85-1.26-3.09-.57-2.88-1.24-3-.91-3-1.06-2.9-1.22-2.67-.81-.16,1.13.07.65-.34,1.07.41.54,0,.25-.48,1.31-.06.76.2.61,0,.75.1,1.56.5.8-.56.77.38.28.07.52-.34,1.32-.28.48.51.73,0,1.12-.19.27v.53l.18,1.14.3,1-.38.5.18.77,0,.82.17,1.26-.5.51L52,132l-.24.47.1.19v.59l-.09,1.07.22.74-.42.44.22.93.52-.12.48.82-.44,1.42-.12.12-.33-.1L52,139l-.29.5.06.49-.2.53.25,1.08.1.51-.5.83,1.35.4.06.22.23.06,0-1.19,1.06,0,1.64-.62,1.06.21-.1.47-.81.61-1.29.5v.08l2.84.16,3.12,0Zm33.25-14.37.48.46v.23l-1.31-.56L95,129Zm-1,2.61.71,0,.37.94,0,.94-.23.48-.47.13-1-.22-.85-1.16v-.24Zm-4.31,3,.49.23,1-.49,0-1.07.58-.6h.23l.29,2.7-.69.84v.24h-.59l-.84-.81L89.91,136l-.13-.71Zm-3.72-4.16.92-.62v.6l-.68,1.07-.11.24h-.36l-.12-.35Zm-5.58,3.88.47.22,1.28-.61.36.35,0,1.29-.46.6-.11.24-.36-.23-.14-.83-1.65-.32Zm-1.81,3.8-.12.24-.23.24-.48-.1-.6-.7.22-.48.48-.12Zm-2.07-3,1.18.33-.22.36-.48.13L77,136l-.25-.11Zm-3,2.77.47.11.85,1.16h.47l1.19.57,0,.82-.94.25-.84-.45-.71-.1h-.23v-.47l-.61-1.28Zm-3.1-1.71.35-.12.6.22-.23.48-.82,0-.13-.12Zm-1.25,2h-.36l-.12-.23,0-.59.6.1.12.35Zm-1.53-5.86.82-.13.94.45-.33.83-.82.61-.7-.11-.24-.34,0-.95Zm-2.74,5.13.48-.25.94.33.61.7v.71l-.12.11-.82,0-1-.8-.24-.47Zm-1.89-6.69.72.58-.11.59-.11.24h-.47l-.38-1.28Zm-1,5.68.23-.24.71.22.37.82v.58l-1.4.74h-.23l-.12-.36.68-.71Zm-10.41,4.21v-.71H53v.7Zm3.93-4.32-1,0-.36-.23.11-.35.94-.26.37.47Zm3.31,6.65-1.08-.8h-.47l-.85-1.51v-.36l1.17-.61.94.33-.21.83.74,1.87Zm-.21-10.72.33-.83.71-.25.25.82-.35.24Z"/></svg>