<?xml version="1.0" encoding="utf-8"?>
<!-- Generator: Adobe Illustrator 23.0.2, SVG Export Plug-In . SVG Version: 6.00 Build 0)  -->
<svg version="1.1" id="Layer_1" xmlns="http://www.w3.org/2000/svg" xmlns:xlink="http://www.w3.org/1999/xlink" x="0px" y="0px"
	 viewBox="0 0 610 610" style="enable-background:new 0 0 610 610;" xml:space="preserve">
<style type="text/css">
	.st0{fill:#00B189;}
	.st1{fill:#BF90C1;}
	.st2{fill:#FFFFFF;}
</style>
<polygon class="st0" points="474,489.56 474.32,490 474.31,489.57 "/>
<polygon class="st0" points="493.54,474.85 493.6,474.89 493.87,474.64 "/>
<polygon class="st0" points="451.75,491.79 452.07,491.69 451.74,491.69 "/>
<polygon class="st0" points="431.38,510.13 431.41,510.25 431.35,509.81 "/>
<polygon class="st0" points="436.67,500.42 436.72,500.08 436.4,499.79 "/>
<polygon class="st0" points="444.92,510.64 444.95,510.57 445.18,510.87 444.94,510.4 "/>
<polygon class="st0" points="442.2,504.03 442.56,503.65 442.16,503.71 "/>
<polygon class="st0" points="65.11,434.08 65.32,434.16 65.27,434.08 "/>
<g>
	<path class="st1" d="M346.92,122.99l-0.27,0.24l0.3-0.21l-0.02-0.06L346.92,122.99z M214.29,149.96l0.08-0.07l0.02-0.03
		L214.29,149.96z M197.01,151.74l0.36-0.24l0.07-0.15l-0.19,0.07l-0.25-0.14L197.01,151.74z M191.26,154.03l-0.25,0.33l0.48,0.02
		l-0.02-0.36l-0.28-0.15L191.26,154.03z M209.89,154.85l-0.27,0.37l0.43-0.21l-0.02-0.2L209.89,154.85z M190.85,155.26l-0.16,0.2
		L190.85,155.26L190.85,155.26z M196.15,160.91h0.37l0.17-0.06l-0.11-0.18l-0.33-0.22L196.15,160.91z M193.36,162.01l0.08-0.07
		l0.02-0.03L193.36,162.01z M176.08,163.79l0.36-0.24l0.07-0.15l-0.19,0.07l-0.25-0.13L176.08,163.79z M173.78,164.1l0.44-0.32
		l0.03-0.2l-0.24,0.1l-0.36-0.06L173.78,164.1z M187.53,165.36l0.02,0.01l0.1-0.03L187.53,165.36z M170.33,166.09l-0.25,0.33
		l0.48,0.02l-0.02-0.36l-0.28-0.15L170.33,166.09z M188.96,166.9l-0.27,0.37l0.43-0.21l-0.02-0.19L188.96,166.9z M169.93,167.31
		l-0.16,0.2l0.18-0.21L169.93,167.31z M175.5,172.84l0.1,0.09l0.12-0.05l0.05-0.31l-0.56-0.2L175.5,172.84z M151.45,174.61
		l-0.36,0.12l0.39-0.04l0.02-0.09L151.45,174.61z M155.36,174.86l-0.4,0.3l0.52,0.13l0.53,0.43l0.3,0.04l0.64-0.35l0.03-0.4
		l-0.43-0.15l-0.53-0.21L155.36,174.86z M152.86,176.15l0.44-0.32l0.03-0.2l-0.24,0.1l-0.36-0.06L152.86,176.15z M157.74,176.42
		l0.43,0.01l-0.15-0.14l0.04-0.08L157.74,176.42z M166.6,177.42l0.02,0.01l0.1-0.03L166.6,177.42z M457.68,178.21l0.15-0.14
		l-0.22,0.01l-0.46-0.11L457.68,178.21z M158.79,179.08l0.43-0.02l0.17,0.01l-0.24-0.27L158.79,179.08z M158.5,182.04l-0.27,0.3
		l0.36-0.21l-0.02-0.13L158.5,182.04z M457.44,181.81l-0.4,0.3l0.52,0.13l0.53,0.43l0.3,0.04l0.64-0.35l0.03-0.4l-0.43-0.15
		l-0.53-0.21L457.44,181.81z M459.82,183.37l0.43,0.01l-0.15-0.15l0.04-0.08L459.82,183.37z M460.87,186.02l0.44-0.03l0.17,0.01
		l-0.24-0.27L460.87,186.02z M134.43,186.91l-0.4,0.3l0.52,0.13l0.53,0.43l0.3,0.04l0.64-0.35l0.03-0.4l-0.43-0.15l-0.53-0.21
		L134.43,186.91z M467.78,188.13l-0.06,0.08l0.2-0.2L467.78,188.13z M136.81,188.48l0.43,0.01l-0.15-0.14l0.04-0.09L136.81,188.48z
		 M472.37,190.16l0.08-0.07l0.02-0.03L472.37,190.16z M137.86,191.13l0.44-0.02l0.17,0.01l-0.24-0.27L137.86,191.13z M489.39,193.64
		l0.15-0.14l-0.21,0l-0.46-0.11L489.39,193.64z M137.58,194.09l-0.27,0.3l0.36-0.21l-0.02-0.13L137.58,194.09z M494.08,195.19
		l0.13-0.12l0.08-0.13l-0.48-0.15L494.08,195.19z M489.16,197.23l-0.4,0.3l0.52,0.13l0.53,0.43l0.31,0.04l0.64-0.35l0.03-0.4
		l-0.43-0.15l-0.53-0.21L489.16,197.23z M491.54,198.79l0.43,0.01l-0.15-0.14l0.04-0.08L491.54,198.79z M490.57,199.5l-0.07,0.22
		l0.3,0.13l0.21-0.13l0.04-0.54L490.57,199.5z M492.59,201.45l0.43-0.03l0.17,0.01l-0.24-0.27L492.59,201.45z M492.25,204.35
		l0.02,0.13l0.07-0.04l0.27-0.3L492.25,204.35z M493.07,217.58l0.26,0.02l0-0.28L493.07,217.58z M487.13,223.99l0.23,0.66l0.13,0.2
		l0.27-0.08l0.43-0.5l-0.51-0.49l-0.31-0.23L487.13,223.99z M493.94,228l-0.23,0.31l0.41-0.24l-0.02-0.11L493.94,228z M494,230.83
		l0.15-0.06l0.09-0.11l-0.55-0.17L494,230.83z M494.72,230.35l0.35,0.51l0.36-0.21l-0.34-0.3l-0.21-0.12l-0.19-0.06L494.72,230.35z
		 M489.35,231.18l0.17,0.23l0.65,0.32l0.08-0.11l-0.27-0.66l-0.22-0.19l-0.57-0.01L489.35,231.18z M483.84,239.45l0.12,0.36
		l-0.04-0.38l-0.09-0.02L483.84,239.45z M486.06,250.57l0.02,0.19l0.14-0.03l0.27-0.37L486.06,250.57z M483.01,251.15l0.02,0.35
		l0.04-0.16l0.38-0.36L483.01,251.15z M481.8,254.19l0.09,0.19l0.01-0.1l0.4-0.3L481.8,254.19z M484.68,255.42l0.11,0.19l0.2,0.03
		l-0.01-0.11l-0.22-0.37l-0.54-0.03L484.68,255.42z M493.38,256.67l-0.02,0.09l0.05-0.01l0.36-0.12L493.38,256.67z M485.87,256.9
		l0.29,0.26l0.16-0.13l0.06-0.13l-0.15-0.15L485.87,256.9z M494.8,257.84l0.14,0.15l0.27-0.07l0.2-0.23l-0.42-0.17L494.8,257.84z
		 M486.44,275.26l-0.54,0.29l0.57-0.22l-0.02-0.07H486.44z M491.31,277.41l0.08-0.07l0.02-0.03L491.31,277.41z M486.69,282.38
		l0.03,0.03l-0.06-0.13L486.69,282.38z M483.94,282.91l0.21,0.43l0.32,0.11l0.11-0.26l0.2-0.38l-0.54-0.25L483.94,282.91z
		 M489.86,284.32l-0.15,0.12l0.04,0.1l0.39,0.05l0.07-0.49L489.86,284.32z M489.32,288.19l-0.15-0.38l-0.43-0.03L489.32,288.19z
		 M129.42,375.82l-0.07,0.01l0.16-0.02l0.36-0.1L129.42,375.82z M131.62,387.96l-0.33,0.28l0.27,0.03l0.08-0.39L131.62,387.96z
		 M122.58,400.99l0.02,0.06l0-0.04l0.27-0.24L122.58,400.99z M133.28,413.36l-0.06,0.03l0.34,0.08l-0.36-0.18L133.28,413.36z
		 M131.15,414.17l0.15-0.14l-0.21,0.01l-0.46-0.11L131.15,414.17z M130.8,417.61l-0.24,0.48l0.45,0.14l0.58,0.35l0.25,0.02
		l0.83-0.13l-0.44-0.39l-0.11-0.32l-0.54-0.21L130.8,417.61z M134.68,421.94l0.11-0.06l0.5,0.05l-0.57-0.31L134.68,421.94z
		 M470.44,423.73l0.02,0l-0.01,0L470.44,423.73z M140.98,423.97l-0.55,0.29l0.57-0.22l-0.02-0.07L140.98,423.97z M134.01,424.88
		l0.02,0.13l0.07-0.03l0.27-0.3L134.01,424.88z M463.81,425.49l0.15,0.3l0.15,0.09l0.18-0.13l-0.1-0.41L463.81,425.49z
		 M145.94,426.08l0.03,0.03l-0.06-0.13L145.94,426.08z M459.01,426.63l0.02,0.19l0.14-0.03l0.27-0.37L459.01,426.63z M467,427.48
		l0.03,0.42l0.18-0.16l0.21-0.01l-0.03-0.41L467,427.48z M457.16,430.09l0.67,0.26l0.17-0.08l0.22-0.16l-0.3-0.15l-0.33-0.3h-0.52
		L457.16,430.09z M445.51,432.38l0.13,0.23l0.08,0.06l0.3,0.07l-0.02-0.52L445.51,432.38z M164.05,435.45l-0.07,0.22l0.3,0.13
		l0.21-0.13l0.04-0.54L164.05,435.45z M414.59,452.91l-0.54,0.29l0.57-0.22l-0.02-0.07H414.59z M407.63,453.82l0.02,0.13l0.07-0.03
		l0.26-0.3L407.63,453.82z M419.56,455.02l0.03,0.03l-0.06-0.13L419.56,455.02z M414.84,460.03l0.03,0.03l-0.06-0.13L414.84,460.03z
		 M412.09,460.56l0.21,0.43l0.32,0.11l0.11-0.26l0.2-0.38l-0.54-0.25L412.09,460.56z M394.23,463.85l0.02,0l-0.01-0.01
		L394.23,463.85z M387.6,465.62l0.15,0.3l0.14,0.09l0.18-0.13l-0.1-0.41L387.6,465.62z M382.8,466.76l0.02,0.19l0.13-0.03l0.27-0.37
		L382.8,466.76z M390.79,467.61l0.02,0.42l0.18-0.15l0.22-0.02l-0.03-0.4L390.79,467.61z M380.95,470.22l0.67,0.26l0.17-0.08
		l0.22-0.16l-0.3-0.15l-0.33-0.3l-0.52,0L380.95,470.22z M382.99,470.94l0.02,0l-0.01-0.01L382.99,470.94z M376.36,472.7l0.15,0.3
		l0.14,0.09l0.18-0.13l-0.1-0.41L376.36,472.7z M371.56,473.84l0.02,0.19l0.13-0.03l0.27-0.37L371.56,473.84z M379.55,474.69
		l0.03,0.42l0.18-0.16l0.22-0.02l-0.03-0.4L379.55,474.69z M369.71,477.3l0.67,0.26l0.17-0.08l0.22-0.16l-0.3-0.15l-0.33-0.3h-0.52
		L369.71,477.3z M358.06,479.59l0.13,0.23l0.08,0.05l0.3,0.07l-0.02-0.52L358.06,479.59z M379.16,480.01l0,0.02l0.25-0.14
		L379.16,480.01z M338.38,493.04l-0.54,0.29l0.57-0.22l-0.02-0.07L338.38,493.04z M331.42,493.95l0.02,0.13l0.07-0.03l0.26-0.3
		L331.42,493.95z M343.35,495.15l0.03,0.03l-0.06-0.13L343.35,495.15z M338.63,500.16l0.03,0.03l-0.06-0.13L338.63,500.16z
		 M327.14,500.12l-0.54,0.29l0.57-0.22l-0.02-0.07L327.14,500.12z M320.18,501.03l0.02,0.13l0.07-0.03l0.27-0.3L320.18,501.03z
		 M335.88,500.68l0.21,0.43l0.33,0.11l0.11-0.26l0.2-0.38l-0.54-0.25L335.88,500.68z M332.11,502.23l0.03,0.03l-0.06-0.13
		L332.11,502.23z M167.86,431.01l1.25,0.8l1.43,0.47l1.19,0.91l1.27,0.76l1.43,0.45l1.1,1.07l1.43,0.46l1.31,0.69l1.22,0.83
		l1.36,0.58l1.19,0.89l1.28,0.72l1.42,0.46l1.2,0.85l1.39,0.53l1.27,0.74l1.26,0.74l1.38,0.52l1.23,0.78l1.16,0.91l1.32,0.63
		l1.33,0.61l1.37,0.55l1.18,0.9l1.27,0.73l1.26,0.74l1.26,0.74l1.26,0.74l1.37,0.55l1.38,0.54l1.14,0.96l1.46,0.38l1.19,0.88
		l1.32,0.62l1.14,0.96l1.3,0.67l1.32,0.62l1.4,0.48l1.32,0.64l1.13,0.99l1.34,0.6l1.3,0.66l1.34,0.6l1.31,0.64l1.19,0.86l1.34,0.58
		l1.21,0.82l1.21,0.81l1.43,0.41l1.09,1.03l1.36,0.54l1.4,0.47l1.1,1.02l1.44,0.41l1.3,0.67l1.22,0.81l1.35,0.58l1.16,0.93
		l1.26,0.74l1.25,0.75l1.3,0.66l1.25,0.74l1.45,0.38l1.18,0.87l1.22,0.78l1.45,0.37l1.14,0.93l1.26,0.71l1.37,0.51l1.27,0.69
		l1.21,0.8l1.24,0.74l1.39,0.47l1.21,0.79l1.22,0.79l1.41,0.45l1.17,0.89l1.23,0.78l1.41,0.45l1.1,1.02l1.36,0.55l1.26,0.73
		l1.27,0.72l1.25,0.75l1.34,0.59l1.24,0.77l1.44,0.4l1.28,0.69l1.22,0.81l1.2,0.85l1.26,0.73l1.43,0.43l1.3,0.65l1.25,0.74
		l1.16,0.91l1.27,0.71l1.4,0.47l1.16,0.91l1.44,0.4l1.27,0.7l1.22,0.8l1.33,0.6l1.31,0.63l1.07,1.07l1.37,0.51l1.44,0.67l1.54,0.38
		l1.58,0.28l1.61-0.09l1.57-0.4l1.39-0.82l1.31-0.74l1.22-0.91l1.35-0.66l1.45-0.47l1.18-0.95l1.29-0.76l1.44-0.48l1.29-0.76
		l1.24-0.83l1.42-0.51l1.25-0.83l1.34-0.66l1.26-0.8l1.42-0.5l1.23-0.86l1.37-0.58l1.24-0.81l1.33-0.65l1.39-0.55l1.28-0.73
		l1.29-0.72l1.23-0.85l1.24-0.84l1.5-0.36l1.18-0.93l1.38-0.57l1.16-0.97l1.34-0.66l0.11,0.03l0.13,0.18l1.28-0.75l1.24-0.85
		l1.25-0.81l1.42-0.51l1.37-0.58l1.17-0.94l1.24-0.82l1.42-0.5l1.33-0.66l1.33-0.66l1.32-0.69l1.33-0.64l1.15-0.97l1.41-0.51
		l1.31-0.7l1.27-0.75l0.13,0.28l0.26-0.36l-0.11-0.34l1.4-0.6l1.29-0.75l1.26-0.8l1.45-0.44l1.2-0.86l1.35-0.61l1.22-0.84l1.45-0.42
		l1.1-1.05l1.46-0.4l1.3-0.69l1.31-0.67l1.31-0.65l1.14-0.98l1.42-0.47l1.26-0.76l1.33-0.61l1.2-0.84l1.26-0.74l1.31-0.64l1.29-0.68
		l1.33-0.62l1.17-0.93l1.37-0.57l1.34-0.61l1.23-0.81l1.4-0.49l1.13-0.99l1.33-0.62l1.35-0.6l1.26-0.74l1.35-0.59l1.12-1l1.5-0.3
		l1.11-1.01l1.39-0.5l1.31-0.65l1.19-0.87l1.27-0.75l1.34-0.61l1.41-0.49l1.15-0.95l1.3-0.67l1.38-0.52l1.28-0.71l1.14-0.96
		l1.37-0.53l1.39-0.49l1.17-0.9l1.23-0.78l1.39-0.51l1.14-0.95l1.3-0.67l1.45-0.38l1.16-0.92l1.38-0.53l1.24-0.78l1.26-0.75
		l1.22-0.82l1.39-0.5l1.24-0.77l1.39-0.49l1.24-0.75l1.19-0.86l1.35-0.55l1.28-0.69l1.23-0.77l1.38-0.5l1.12-0.97l1.39-0.48
		l1.3-0.64l1.1-1l1.29-0.65l1.32-0.61l1.24-0.77l1.3-0.66l1.33-0.61l1.21-0.84l1.35-0.57l1.41-0.46l1.11-1.01l1.28-0.7l1.44-0.41
		l1.18-0.89l1.18-0.89l0.72-1.29l0.69-1.25l0.92-1.2l-0.1-1.52l0.33-1.42l-0.15-1.47l0.02-1.47l0.09-1.47l0.21-1.47l-0.21-1.46
		l0.01-1.46l0.01-1.46l0.03-1.46l0.07-1.46l0.12-1.46l-0.26-1.46l0.2-1.46l-0.37-1.45l0.31-1.45l-0.18-1.46l0.3-1.45l-0.02-1.45
		l-0.07-1.45l-0.06-1.44l-0.21-1.45l0.3-1.45l-0.21-1.45l0.24-1.46l-0.42-1.45l0.15-1.45l0.13-1.45l-0.28-1.45l0.17-1.45l0.28-1.46
		l-0.08-1.46l-0.31-1.46l0.37-1.45l-0.38-1.45l0.07-1.55l-0.03-1.55l0.12-1.54l0.18-1.54l-0.3-1.53l-0.03-1.54l-0.05-1.54l0.05-1.49
		l0.16-1.47l0.14-1.48l-0.31-1.48l0.1-1.47l-0.08-1.47l0.15-1.47l0.09-1.47l-0.13-1.47l0.15-1.47l-0.12-1.47l-0.05-1.46l0.04-1.46
		l0-1.46l-0.07-1.47l-0.11-1.46l0.22-1.46l-0.07-1.46l0.17-1.45l-0.26-1.46l0.36-1.46l-0.02-1.46l-0.04-1.47l-0.24-1.47l0-1.46
		l0.24-1.46l-0.33-1.46l0.09-1.46l0.26-1.46l-0.21-1.47l0.01-1.46l0.01-1.46l-0.2-1.46l0.19-1.46l0.16-1.46l0.01-1.46l-0.05-1.46
		l-0.31-1.46l0.21-1.46l-0.14-1.46l-0.07-1.46l0.34-1.46l-0.09-1.46l-0.2-1.46l0.18-1.45l0.17-1.46l-0.26-1.45l-0.07-1.46l0-1.45
		l0.33-1.45l0.02-1.45l-0.1-1.45l-0.3-1.45l0.17-1.46l-0.06-1.46l-0.16-1.46l0.34-1.46l0.04-1.46l-0.37-1.46l0.07-1.46l-0.04-1.46
		l0.28-1.45l-0.3-1.45l0.22-1.45l0.21-1.45l-0.43-1.46l0.41-1.46l-0.39-1.46l0.2-1.46l-0.02-1.46l0.04-1.46l-0.13-1.46l0.04-1.46
		l-0.02-1.46l-0.1-1.46l0.26-1.46l-0.13-1.46l-0.13-1.46l0.36-1.46l-0.3-1.46l0.18-1.46l-0.04-1.46l0.17-1.46l-0.07-1.46l-0.26-1.46
		l-0.06-1.46l0.24-1.46l-0.23-1.46l0.33-1.46l-0.19-1.46l-0.17-1.46l0.21-1.46l0.11-1.46l-0.1-1.46l-0.07-1.46v-1.46l0.17-1.46
		l0.07-1.45l-0.18-1.46l0.02-1.46l-0.23-1.46l-0.81-1.25l-0.54-1.38l-1.23-0.87l-0.97-1.07l-1.1-1.01l-1.48-0.41l-1.33-0.68
		l-1.27-0.77l-1.28-0.74l-1.18-0.92l-1.48-0.37l-1.15-0.98l-1.36-0.6l-1.33-0.65l-1.26-0.77l-1.36-0.6l-1.35-0.6l-1.3-0.69
		l-1.29-0.7l-1.27-0.76l-1.27-0.75l-1.29-0.7l-1.25-0.76l-1.3-0.68l-1.36-0.55l-1.29-0.7l-1.15-0.95l-1.36-0.57l-1.21-0.85
		l-1.31-0.68l-1.29-0.69l-1.43-0.46l-1.16-0.93l-1.36-0.58l-1.3-0.71l-1.26-0.76l-1.28-0.72l-1.39-0.51l-1.33-0.62l-1.19-0.88
		l-1.37-0.55l-1.26-0.75l-1.2-0.86l-1.4-0.51l-1.15-0.96l-1.35-0.6l-1.41-0.48l-1.14-0.98l-1.41-0.47l-1.28-0.71l-1.23-0.8
		l-1.32-0.63l-1.32-0.63l-1.19-0.88l-1.39-0.51l-1.26-0.75l-1.3-0.66l-1.28-0.71l-1.18-0.89l-1.42-0.46l-1.34-0.6l-1.1-1.05
		l-1.5-0.31l-1.15-0.94l-1.42-0.47l-1.23-0.79l-1.19-0.87l-1.37-0.54l-1.21-0.82l-1.38-0.51l-1.16-0.91l-1.3-0.65l-1.37-0.53
		l-1.16-0.91l-1.23-0.77l-1.44-0.39l-1.26-0.72l-1.31-0.62l-1.16-0.91l-1.23-0.79l-1.4-0.49l-1.27-0.73l-1.41-0.46l-1.22-0.82
		l-1.27-0.72l-1.37-0.55l-1.08-1.08l-1.43-0.44l-1.19-0.87l-1.36-0.57l-1.34-0.6l-1.25-0.76l-1.19-0.87l-1.3-0.68l-1.42-0.44
		l-1.26-0.76l-1.26-0.74l-1.22-0.82l-1.35-0.57l-1.38-0.52l-1.26-0.74l-1.11-1.02l-1.41-0.47l-1.17-0.9l-1.42-0.44l-1.21-0.82
		l-1.32-0.63l-1.32-0.62l-1.34-0.59l-1.17-0.91l-1.21-0.84l-1.28-0.7l-1.38-0.53l-1.26-0.74l-1.31-0.65l-1.38-0.52l-1.23-0.78
		l-1.3-0.67l-1.33-0.62l-1.29-0.7l-1.26-0.75l-1.2-0.86l-1.31-0.65l-1.25-0.76l-1.39-0.51l-1.17-0.9l-1.3-0.67l-1.28-0.7l-1.33-0.61
		l-1.34-0.58l-1.24-0.78l-1.2-0.84l-1.39-0.49l-1.38-0.81l-1.54-0.48l-1.61-0.07l-1.57,0.36l-1.48,0.51l-1.6,0.29l-1.24,0.82
		l-1.18,0.94l-1.51,0.33l-1.29,0.72l-1.14,0.98l-1.4,0.5l-1.25,0.79l-1.32,0.67l-1.38,0.54l-1.27,0.75l-1.14,0.98l-1.47,0.38
		l-1.27,0.73l-1.31,0.67l-1.12,1.02l-1.36,0.57l-1.35,0.59l-1.17,0.9l-1.36,0.54l-1.26,0.74l-1.22,0.81l-1.26,0.75l-1.28,0.72
		l-1.4,0.5l-1.29,0.69l-1.2,0.86l-1.33,0.62l-1.36,0.56l-1.34,0.61l-1.2,0.87l-1.21,0.85l-1.42,0.45l-1.32,0.63l-1.29,0.69
		l-1.2,0.84l-1.18,0.88l-1.28,0.7l-1.32,0.64l-1.36,0.56l-1.2,0.86l-1.3,0.68l-1.45,0.4l-1.14,0.96l-1.41,0.47l-1.2,0.84l-1.39,0.5
		l-1.24,0.77l-1.21,0.83l-1.28,0.7l-1.22,0.8l-1.29,0.67l-1.39,0.5l-1.16,0.91l-1.47,0.35l-1.3,0.67l-1.1,1.03l-1.32,0.63
		l-1.43,0.43l-1.18,0.89l-1.22,0.82l-1.37,0.54l-1.37,0.53l-1.16,0.91l-1.27,0.72l-1.26,0.72l-1.4,0.47l-1.28,0.68l-1.15,0.91
		l-1.39,0.47l-1.17,0.87l-1.19,0.83l-1.31,0.63l-1.39,0.48l-1.17,0.87l-1.33,0.58l-1.28,0.69l-1.36,0.55l-1.21,0.83l-1.16,0.91
		l-1.44,0.41l-1.15,0.94l-1.47,0.35l-1.2,0.84l-1.3,0.66l-1.3,0.66l-1.12,0.99l-1.45,0.4l-1.3,0.67l-1.31,0.66l-1.29,0.69
		l-1.16,0.92l-1.33,0.61l-1.24,0.77l-1.24,0.76l-1.37,0.53l-1.2,0.85l-1.38,0.51l-1.31,0.63l-1.29,0.68l-1.09,1.05l-1.3,0.66
		l-1.27,0.72l-1.34,0.58l-1.41,0.46l-1.14,0.95l-1.36,0.55l-1.25,0.75l-1.29,0.67l-1.24,0.77l-1.3,0.65l-1.3,0.66l-1.34,0.59
		l-1.12,0.99l-1.41,0.47l-1.27,0.72l-1.33,0.61l-1.29,0.69l-1.27,0.72l-1.35,0.57l-1.28,0.69l-1.21,0.82l-1.33,0.61l-1.19,0.85
		l-1.25,0.74l-1.2,0.83l-1.48,0.32l-1.08,1.06l-1.4,0.46l-1.16,0.88l-1.13,0.91l-1,1.07l-0.81,1.23l-0.28,1.45l-0.6,1.35l0.22,1.47
		l-0.39,1.48l0.08,1.48l-0.05,1.48l0.16,1.48l0.06,1.47l-0.21,1.47l0.3,1.47l-0.11,1.47l-0.16,1.47l0.03,1.47l0.15,1.47l-0.12,1.47
		l0.24,1.46l-0.14,1.46l0.16,1.47l-0.33,1.47l-0.03,1.46l0.24,1.46l0.07,1.45l-0.14,1.46l0.05,1.47l-0.28,1.46l0.12,1.47l0.01,1.46
		l0.09,1.46l0.21,1.46l0.04,1.46l-0.32,1.46l-0.07,1.46l0.08,1.47l0.05,1.46l0.24,1.46l0.01,1.46l-0.34,1.46l-0.03,1.46l0.13,1.46
		l0.16,1.46l-0.13,1.46l-0.06,1.46l-0.03,1.46l-0.03,1.47l0.27,1.46l-0.11,1.46l-0.29,1.46l0.14,1.45l0.17,1.46l-0.21,1.45
		l0.21,1.46l-0.18,1.45l0.19,1.45l0.15,1.45l-0.19,1.45l-0.24,1.45l0,1.46l0.16,1.46l0.01,1.46l0.21,1.46l-0.06,1.46l0,1.46
		l-0.15,1.46v1.46l-0.2,1.45l0.26,1.45l-0.12,1.45l-0.13,1.45l0.23,1.46l-0.24,1.46l0.12,1.46l0.12,1.46l0,1.46l-0.11,1.46
		l0.29,1.46l-0.31,1.46l0.32,1.46l-0.13,1.46l-0.3,1.46l0.15,1.46l0.3,1.46l-0.19,1.46v1.46l-0.11,1.46l0.08,1.46l0.19,1.46
		l-0.21,1.46l-0.09,1.46l0.08,1.46l0.01,1.46l0.14,1.46l-0.05,1.46l-0.18,1.46l-0.03,1.46l0.22,1.46l-0.3,1.46l0.11,1.46l0.06,1.46
		l0.19,1.46l-0.01,1.45l-0.12,1.46l0.05,1.45l-0.04,1.35l0.18,1.35l-0.4,1.35l0.16,1.35l0.2,1.34l-0.24,1.46l0.07,1.46l-0.01,1.46
		l0.2,1.46l-0.23,1.45l0.28,1.45l-0.36,1.45l0.05,1.46l0.01,1.45l0.22,1.45l-0.28,1.45l0.19,1.45l-0.2,1.45l0.15,1.45l-0.12,1.45
		l0.29,1.45l-0.42,1.44l0.04,1.44l0.07,1.44l0.29,1.45l-0.06,1.44l-0.07,1.45l0,1.45l-0.08,1.45l0.15,1.44l-0.33,1.44l0.11,1.44
		l0.13,1.44l0.05,1.45l0.12,1.45l-0.21,1.45l0.13,1.44l-0.05,1.44l0.04,1.44l0.08,1.44l-0.13,1.44l0,1.45l0.18,1.46l0.61,1.35
		l0.88,1.18l0.86,1.18l1.17,0.88l1.27,0.69l1.15,0.94l1.31,0.66l1.33,0.6l1.26,0.74l1.3,0.65l1.17,0.88l1.31,0.64l1.43,0.41
		l1.15,0.92l1.35,0.56l1.19,0.86l1.33,0.57l1.23,0.77l1.31,0.62l1.25,0.74l1.32,0.61l1.22,0.77l1.2,0.8l1.43,0.37l1.08,1.02
		l1.38,0.47l1.25,0.71l1.28,0.67l-0.11,0.02l0.04,0.55l0.33-0.47L167.86,431.01z M327.39,507.24l0.03,0.03l-0.06-0.13L327.39,507.24
		z M324.64,507.77l0.21,0.43l0.32,0.11l0.11-0.26l0.2-0.38l-0.54-0.25L324.64,507.77z M306.33,518.11l-1.44-0.18l-1.39-0.41
		l-1.37-0.52l-1.37-0.6l-1.27-0.8l-1.23-0.86l-1.42-0.51l-1.21-0.87l-1.26-0.78l-1.33-0.66l-1.42-0.5l-1.36-0.59l-1.12-1.03
		l-1.36-0.6l-1.43-0.47l-1.09-1.07l-1.31-0.68l-1.46-0.43l-1.19-0.9l-1.34-0.61l-1.27-0.73l-1.2-0.85l-1.32-0.65l-1.44-0.42
		l-1.12-1.02l-1.32-0.67l-1.28-0.73l-1.47-0.39l-1.22-0.84l-1.24-0.81l-1.41-0.5l-1.21-0.86l-1.32-0.66l-1.36-0.58l-1.32-0.65
		l-1.31-0.68l-1.18-0.9l-1.29-0.7l-1.38-0.54l-1.25-0.77l-1.22-0.84l-1.25-0.79l-1.39-0.53l-1.38-0.55l-1.16-0.95l-1.26-0.76
		l-1.29-0.71l-1.37-0.55l-1.39-0.51l-1.29-0.69l-1.26-0.75l-1.21-0.84l-1.38-0.53l-1.28-0.71l-1.12-0.99l-1.44-0.43l-1.16-0.93
		l-1.37-0.55l-1.19-0.9l-1.33-0.63l-1.37-0.57l-1.3-0.69l-1.35-0.59l-1.28-0.72l-1.18-0.89l-1.41-0.48l-1.1-1.04l-1.27-0.71
		l-1.47-0.36l-1.24-0.76l-1.14-0.96l-1.39-0.5l-1.35-0.57l-1.2-0.85l-1.19-0.85l-1.4-0.48l-1.29-0.67l-1.31-0.67l-1.17-0.92
		l-1.28-0.71l-1.41-0.48l-1.17-0.91l-1.39-0.51l-1.37-0.56l-1.26-0.76l-1.18-0.91l-1.39-0.52l-1.23-0.8l-1.29-0.7l-1.21-0.84
		l-1.37-0.56l-1.41-0.48l-1.13-0.99l-1.43-0.45l-1.1-1.05l-1.37-0.55l-1.27-0.73l-1.27-0.73l-1.45-0.4l-1.12-1l-1.28-0.72
		l-1.27-0.74l-1.29-0.7l-1.41-0.47l-1.24-0.78l-1.33-0.62l-1.32-0.63l-1.2-0.86l-1.37-0.54l-1.19-0.88l-1.25-0.76l-1.28-0.71
		l-1.48-0.34l-1.27-0.73l-1.3-0.67l-1.23-0.81l-1.16-0.93l-1.43-0.44l-1.22-0.84l-1.32-0.65l-1.27-0.73l-1.33-0.62l-1.27-0.74
		l-1.27-0.73l-1.23-0.8l-1.45-0.4l-1.17-0.92l-1.3-0.67l-1.24-0.78l-1.29-0.7l-1.3-0.67l-1.22-0.82l-1.28-0.7l-1.35-0.57l-1.24-0.78
		l-1.37-0.54l-1.31-0.64l-1.36-0.55l-1.08-1.07l-1.48-0.33l-1.16-0.92l-1.23-0.64l-1.02-0.94l-0.86-1.07l-0.73-1.15l-0.88-1.1
		l-0.2-1.39l-0.61-1.29l0.29-1.4l-0.08-1.48l0.05-1.48l-0.16-1.47l-0.06-1.47l0.21-1.46l-0.31-1.47l0.11-1.47l0.16-1.47l-0.02-1.47
		l-0.15-1.46l0.12-1.47l-0.24-1.46l0.14-1.46l-0.16-1.46l0.33-1.47l0.04-1.46l-0.24-1.46l-0.07-1.45l0.14-1.45l-0.06-1.46l0.28-1.46
		l-0.11-1.46l-0.01-1.46l-0.09-1.46l-0.21-1.46l-0.03-1.46l0.32-1.46l0.07-1.46l-0.08-1.46l-0.05-1.46l-0.24-1.46l-0.01-1.46
		l0.34-1.46l0.03-1.46l-0.14-1.46l-0.16-1.45l0.13-1.46l0.06-1.46l0.03-1.46l0.03-1.35l-0.27-1.35l0.1-1.35l0.29-1.35l-0.14-1.34
		l-0.17-1.47l0.21-1.47l-0.21-1.47l0.18-1.47l-0.19-1.46l-0.14-1.46l0.19-1.46l0.24-1.46l0-1.46l-0.16-1.46l-0.01-1.46l-0.21-1.46
		l0.06-1.45l0.01-1.45l0.15-1.46v-1.46l0.2-1.45l-0.26-1.45l0.12-1.45l0.12-1.46l-0.23-1.45l0.24-1.46l-0.12-1.46l-0.12-1.46l0-1.45
		l0.11-1.45l-0.29-1.45l0.31-1.45l-0.32-1.46l0.12-1.46l0.3-1.46l-0.15-1.45l-0.3-1.45l0.19-1.45l0-1.45l0.11-1.45l-0.09-1.45
		l-0.19-1.45l0.21-1.45l0.08-1.45l-0.08-1.46l-0.01-1.45l-0.14-1.45l0.05-1.45l0.18-1.45l0.03-1.45l-0.22-1.45l0.3-1.44l-0.11-1.44
		l-0.06-1.45l-0.18-1.45l0-1.44l0.13-1.45l-0.05-1.45l0.04-1.45l-0.17-1.45l0.4-1.45l-0.16-1.45l-0.2-1.45l0.24-1.45l-0.07-1.45
		l0.01-1.44l-0.2-1.44l0.23-1.44l-0.28-1.44l0.36-1.45l-0.05-1.45l-0.01-1.45l-0.22-1.45l0.28-1.45l-0.19-1.45l0.2-1.45l-0.15-1.45
		l0.12-1.45l-0.29-1.45l0.42-1.45l-0.04-1.45l-0.07-1.45l-0.29-1.45l0.06-1.45l0.07-1.45l0-1.45l0.08-1.45l-0.15-1.45l0.33-1.45
		l-0.12-1.45l-0.13-1.45l-0.05-1.45l-0.12-1.45l0.21-1.45l-0.13-1.45l0.05-1.45l-0.04-1.45l-0.08-1.45l0.13-1.45l0.1-1.45l0.16-1.45
		l-0.06-1.45l-0.15-1.44l0.09-1.45l-0.11-1.44l-0.11-1.45l0.29-1.45l0.05-1.36l0.17-1.36l0.5-1.28l0.58-1.25l0.95-1l0.87-1.04
		l0.85-1.14l1.32-0.52l1.27-0.86l1.44-0.56l1.28-0.84l1.38-0.65l1.3-0.79l1.37-0.67l1.29-0.81l1.39-0.63l0.07,0.13l-0.13-0.34
		l1.49-0.38l1.19-0.93l1.32-0.68l1.3-0.72l1.33-0.63l1.35-0.6l1.11-1.05l1.38-0.57l1.35-0.6l1.17-0.94l1.41-0.5l1.33-0.65l1.16-0.95
		l1.49-0.34l1.17-0.94l1.29-0.72l1.36-0.57l1.22-0.82l1.39-0.5l1.29-0.68l1.16-0.93l1.37-0.55l1.2-0.87l1.32-0.66l1.32-0.66
		l1.19-0.87l1.34-0.61l1.41-0.48l1.26-0.77l1.25-0.78l1.21-0.85l1.4-0.5l1.31-0.67l1.31-0.65l1.31-0.65l1.32-0.65l1.21-0.85
		l1.2-0.86l1.44-0.43l1.12-1.02l1.39-0.52l1.25-0.77l1.44-0.43l1.27-0.72l1.25-0.77l1.17-0.91l1.25-0.75l1.44-0.4l1.23-0.79
		l1.26-0.73l1.23-0.79l1.26-0.75l1.38-0.53l1.23-0.81l1.36-0.57l1.36-0.58l1.14-0.98l1.48-0.36l1.21-0.85l1.17-0.92l1.47-0.37
		l1.13-0.98l1.27-0.72l1.34-0.58l1.22-0.81l1.41-0.46l1.31-0.64l1.31-0.64l1.26-0.72l1.3-0.65l1.1-1l1.37-0.51l1.33-0.6l1.1-1.01
		l1.42-0.46l1.3-0.67l1.19-0.87l1.29-0.69l1.35-0.58l1.32-0.64l1.17-0.91l1.34-0.59l1.34-0.6l1.15-0.94l1.4-0.5l1.33-0.61l1.15-0.94
		l1.46-0.37l1.21-0.85l1.31-0.66l1.3-0.67l1.32-0.64l1.23-0.8l1.33-0.62l1.12-0.99l1.28-0.69l1.35-0.58l1.37-0.54l1.3-0.66
		l1.14-0.96l1.26-0.74l1.31-0.65l1.4-0.48l1.29-0.68l1.16-0.92l1.41-0.47l1.13-0.99l1.29-0.69l1.34-0.58l1.24-0.79l1.25-0.76
		l1.49-0.32l1.19-0.87l1.3-0.67l1.28-0.71l1.36-0.57l1.31-0.66l1.29-0.7l1.19-0.87l1.27-0.72l1.18-0.89l1.31-0.65l1.42-0.45
		l1.15-0.93l1.26-0.75l1.41-0.46l1.26-0.74l1.22-0.82l1.39-0.5l1.22-0.81l1.37-0.56l1.39-0.52l1.49,0.03l1.47-0.18l1.44,0.34
		l1.45,0.29l1.32,0.65l1.23,0.86l1.33,0.68l1.32,0.69l1.39,0.56l1.38,0.56l1.11,1.04l1.43,0.48l1.23,0.84l1.44,0.44l1.27,0.75
		l1.33,0.66l1.13,1l1.32,0.65l1.38,0.56l1.36,0.6l1.19,0.9l1.23,0.82l1.42,0.46l1.35,0.58l1.18,0.89l1.27,0.74l1.27,0.74l1.29,0.72
		l1.27,0.76l1.44,0.43l1.19,0.89l1.29,0.7l1.32,0.65l1.24,0.8l1.43,0.46l1.34,0.63l1.23,0.82l1.32,0.66l1.34,0.61l1.15,0.96
		l1.38,0.53l1.24,0.79l1.37,0.56l1.15,0.97l1.49,0.34l1.13,1l1.29,0.7l1.28,0.73l1.27,0.74l1.44,0.41l1.16,0.92l1.32,0.63l1.24,0.78
		l1.37,0.55l1.31,0.65l1.26,0.75l1.28,0.71l1.24,0.77l1.42,0.46l1.22,0.82l1.24,0.79l1.36,0.58l1.18,0.9l1.45,0.4l1.25,0.77
		l1.23,0.8l1.32,0.64l1.23,0.8l1.45,0.39l1.07,1.08l1.46,0.37l1.18,0.89l1.25,0.74l1.38,0.51l1.31,0.64l1.23,0.77l1.17,0.9
		l1.42,0.43l1.27,0.71l1.19,0.87l1.3,0.68l1.44,0.42l1.2,0.85l1.18,0.9l1.41,0.48l1.34,0.6l1.19,0.88l1.43,0.44l1.28,0.71l1.12,1.01
		l1.41,0.47l1.2,0.86l1.34,0.61l1.32,0.65l1.36,0.57l1.19,0.89l1.33,0.62l1.18,0.89l1.32,0.63l1.38,0.53l1.21,0.83l1.29,0.69
		l1.33,0.61l1.18,0.88l1.44,0.41l1.17,0.9l1.26,0.75l1.46,0.38l1.27,0.73l1.25,0.77l1.33,0.62l1.27,0.72l1.24,0.78l1.37,0.55
		l1.22,0.82l1.16,0.93l1.46,0.38l1.29,0.68l1.13,0.98l1.34,0.6l1.24,0.79l1.42,0.46l1.32,0.65l1.1,1.05l1.5,0.31l1.18,0.88
		l1.36,0.56l1.28,0.71l1.24,0.77l1.19,0.88l1.39,0.51l1.28,0.7l1.28,0.7l1.27,0.72l1.25,0.75l1.23,0.8l1.41,0.46l1.19,0.87
		l1.46,0.37l1.14,0.96l1.37,0.54l1.13,0.94l0.09,0.16l0.21-0.09l1.81,0.91l1.29,0.56l0.86,1.11l1.08,0.88l0.58,1.26l1,1.05
		l0.32,1.37l0.15,1.38l0.37,1.37l-0.17,1.4l-0.28,1.4l0.08,1.4l0.31,1.39l-0.37,1.39l0.38,1.39l-0.07,1.39l0.03,1.39l-0.12,1.39
		l-0.18,1.39l0.3,1.41l-0.21-0.17l0.12,0.17l-0.19-0.01l0.1,1.48l-0.15,1.48l-0.02,1.47l0.06,1.47l0.13,1.46l0,1.47l0.14,1.47
		l0.06,1.47l-0.15,1.46l0.13,1.47l-0.19,1.47l0.17,1.46l-0.35,1.46l0.45,1.46l-0.12,1.47l0.07,1.46l-0.03,1.46l-0.34,1.45l0.05,1.45
		l0.14,1.46l0.09,1.46l-0.09,1.46l-0.06,1.46l0.07,1.46l0.14,1.46l-0.01,1.46l-0.27,1.46l0.22,1.46l-0.12,1.46l0.24,1.47l-0.15,1.46
		l-0.06,1.46l0.13,1.46l-0.06,1.46l0.15,1.46l-0.15,1.46l-0.27,1.46l0.11,1.46l0.22,1.46l0.07,1.46l0.02,1.46l-0.2,1.46l-0.21,1.46
		l0.29,1.46l-0.24,1.45l0.16,1.45l-0.14,1.45l0.12,1.45l0.06,1.45l-0.14,1.45l0.3,1.45l-0.09,1.45l-0.18,1.45l-0.16,1.45l0.23,1.46
		l-0.22,1.46l0.4,1.46l-0.09,1.46l0.03,1.46l0.03,1.45l-0.03,1.45l-0.28,1.45l0.28,1.45l-0.08,1.45l0.05,1.45l0.08,1.46l-0.01,1.46
		l-0.16,1.46l-0.13,1.46l0.3,1.46l-0.09,1.46l0.08,1.46l-0.14,1.46l-0.1,1.46l0.13,1.46l-0.15,1.45l0.12,1.46l0.04,1.45l-0.04,1.45
		l0.01,1.45l0.07,1.45l0.1,1.46l-0.22,1.45l0.07,1.46l-0.17,1.46l0.26,1.46l-0.36,1.46l0.02,1.46l0.04,1.46l0.24,1.46l0,1.46
		l-0.24,1.46l0.33,1.55l-0.09,1.55l-0.26,1.54l0.21,1.54l-0.01,1.53l-0.01,1.54l0.2,1.54l-0.19,1.49l-0.16,1.49l-0.01,1.48
		l0.05,1.48l0.31,1.47l-0.21,1.48l0.13,1.47l0.08,1.48l-0.34,1.47l0.08,1.47l0.2,1.48l-0.18,1.47l-0.16,1.47l0.26,1.47l0.06,1.48
		l0,1.47l-0.33,1.46l-0.02,1.46l0.1,1.46l0.3,1.47l-0.18,1.47l0.07,1.47l0.16,1.47l-0.34,1.47l-0.04,1.47l0.37,1.47l-0.07,1.47
		l0.05,1.47l-0.28,1.47l0.3,1.47l-0.22,1.47l-0.21,1.47l0.43,1.47l-0.41,1.46l0.39,1.46l-0.2,1.46l-0.07,1.38l-0.31,1.34l-0.34,1.34
		l-0.67,1.22l-0.78,1.15l-0.87,1.1l-1.24,0.69l-1.1,0.85l-1.22,0.81l-1.46,0.38l-1.14,0.95l-1.36,0.53l-1.25,0.72l-1.35,0.54
		l-1.24,0.75l-1.15,0.92l-1.24,0.74l-1.39,0.48l-1.16,0.89l-1.43,0.39l-1.18,0.85l-1.19,0.84l-1.37,0.51l-1.32,0.59l-1.22,0.77
		l-1.23,0.74l-1.26,0.68l-1.34,0.53l-1.29,0.63l-1.18,0.84l-1.33,0.57l-1.33,0.58l-1.13,0.93l-1.39,0.47l-1.08,1.03l-1.35,0.54
		l-0.13-0.22l0.17,0.31l-1.28,0.73l-1.34,0.64l-1.32,0.66l-1.41,0.47l-1.11,1.03l-1.44,0.42l-1.23,0.79l-1.26,0.75l-1.33,0.62
		l-1.24,0.79l-1.23,0.8l-1.28,0.7l-1.29,0.69l-1.32,0.64l-1.32,0.64l-1.29,0.69l-1.32,0.62l-1.27,0.7l-1.2,0.83l-1.28,0.68
		l-1.42,0.43l-1.21,0.82l-1.37,0.54l-1.27,0.71l-1.28,0.69l-1.15,0.93l-1.41,0.45l-1.22,0.81l-1.29,0.69l-1.32,0.63l-1.3,0.66
		l-1.18,0.87l-1.24,0.76l-1.38,0.51l-1.2,0.84l-1.31,0.63l-1.37,0.52l-1.18,0.88l-1.42,0.43l-1.23,0.79l-1.17,0.91l-1.43,0.41
		l-1.16,0.91l-1.29,0.67l-1.33,0.58l-1.24,0.75l-1.24,0.75l-1.37,0.51l-1.17,0.87l-1.3,0.63l-1.26,0.72l-1.28,0.67l-1.39,0.49
		l-1.14,0.92l-1.23,0.78l-1.47,0.34l-1.07,1.07l-1.42,0.44l-1.16,0.92l-1.33,0.59l-1.37,0.51l-1.19,0.84l-1.34,0.56l-1.17,0.87
		l-1.39,0.47l-1.24,0.73l-1.19,0.85l0.02-0.29l-0.4-0.32l-0.25,0.37l0.21,0.27l0.06,0.18l-1.43,0.49l-1.37,0.61l-1.2,0.9l-1.32,0.67
		l-1.17,0.94l-1.37,0.57l-1.32,0.68l-1.22,0.85l-1.51,0.32l-1.16,0.95l-1.4,0.52l-1.23,0.83l-1.24,0.79l-1.34,0.63l-1.4,0.52
		l-1.29,0.72l-1.16,0.95l-1.33,0.63l-1.31,0.65l-1.36,0.57l-1.22,0.82l-1.2,0.87l-1.32,0.65l-1.48,0.38l-1.18,0.92l-1.41,0.49
		l-1.16,0.95l-1.36,0.57l-1.26,0.76l-1.26,0.77l-1.24,0.8l-1.41,0.48l-1.37,0.55l-1.3,0.69l-1.2,0.86l-1.32,0.65l-1.27,0.74
		l-1.2,0.87l-1.34,0.6l-1.28,0.72l-1.26,0.77l-1.3,0.69l-1.32,0.65l-1.38,0.53l-1.31,0.64l-1.42,0.33l-1.43,0.41L306.33,518.11z"/>
	<g>
		<g>
			<polygon class="st1" points="419.32,191.3 307.89,273.76 307.39,274.13 306.9,273.76 195.47,191.3 188.85,186.41 193.75,193.02 
				276.21,304.45 276.57,304.95 276.2,305.44 193.75,416.87 188.85,423.48 195.47,418.59 306.89,336.14 307.39,335.77 
				307.89,336.13 419.32,418.59 425.93,423.48 421.04,416.88 338.58,305.44 338.21,304.95 338.58,304.45 421.04,193.02 
				425.93,186.41 			"/>
		</g>
		<g>
			<polygon class="st2" points="308.54,302.98 409.63,201.9 308.54,276.7 			"/>
			<polygon class="st2" points="410.44,407.18 335.63,306.1 309.35,306.1 			"/>
			<polygon class="st2" points="305.43,303.8 204.34,202.71 279.14,303.79 			"/>
			<polygon class="st2" points="205.15,407.99 306.24,333.19 306.24,306.91 			"/>
		</g>
	</g>
	<g>
		<g>
			<polygon class="st1" points="275.97,336.37 96.29,309.52 65.66,304.92 96.3,300.38 275.97,273.53 304.42,83.1 307.39,63.22 
				311.96,93.85 338.81,273.52 529.24,301.98 549.11,304.95 518.49,309.52 338.81,336.37 307.39,546.64 			"/>
			<path class="st2" d="M307.39,83.55l1.6,10.75l27.06,181.07l0.12,0.8l0.81,0.12l181.06,27.06l10.75,1.6l-10.75,1.6l-181.06,27.06
				l-0.81,0.12l-0.12,0.8l-27.06,181.08l-1.6,10.73l-1.6-10.73l-27.06-181.08l-0.12-0.8l-0.81-0.12L96.74,306.55l-10.75-1.61
				l10.75-1.59l181.06-27.06l0.81-0.12l0.12-0.8L305.79,94.3L307.39,83.55 M307.39,42.89l-5.93,39.77l-1.6,10.75l-26.52,177.48
				L95.85,297.41L85.11,299l-39.77,5.9l39.76,5.97l10.75,1.61l177.48,26.52l26.52,177.49l1.6,10.73l5.93,39.7l5.93-39.7l1.6-10.73
				l26.52-177.49l177.48-26.52l10.75-1.6l39.77-5.93l-39.77-5.93l-10.75-1.6l-177.48-26.52L314.93,93.41l-1.6-10.75L307.39,42.89
				L307.39,42.89z"/>
		</g>
		<g>
			<polygon class="st2" points="310.29,304.19 499.1,304.19 334.84,279.64 			"/>
			<polygon class="st2" points="308.14,496.66 332.68,332.4 308.14,307.85 			"/>
			<polygon class="st2" points="306.63,302.04 306.63,113.23 282.09,277.49 			"/>
			<polygon class="st2" points="115.68,305.7 279.93,330.25 304.48,305.7 			"/>
		</g>
	</g>
	<g>
		<polygon class="st1" points="307.34,65.04 274.89,121.25 307.34,106.15 339.79,121.25 		"/>
		<path class="st2" d="M261.29,136.33l9.94-4.63c0.39-2.79,1.08-5.48,2.25-8.03C269.7,128.03,265.58,132.22,261.29,136.33z"/>
		<path class="st2" d="M339.6,120.63c3.57,4.59,6.84,9.18,9.99,13.94l9.65,4.49l-12.58-21.78l-32.45-56.21l-6.88-11.91l-6.88,11.91
			l-32.45,56.21l-12.58,21.78l5.86-2.73c4.28-4.11,8.4-8.3,12.2-12.66c0.48-1.04,1.05-2.06,1.71-3.05
			c-0.66,0.99-1.22,2.01-1.71,3.05c0.85-0.97,1.68-1.95,2.49-2.94l-1.1,0.51l32.45-56.21l32.45,56.21l-1.44-0.67
			c0.61,3.13,1.12,6.29,1.57,9.49l9.68,4.5C346.44,129.81,343.17,125.22,339.6,120.63z"/>
	</g>
	<g>
		<path class="st1" d="M59.5,280.37l0.72,1.39l0.72,2.19v0.73l0.36,0.66l0.18,0.86l-0.12,0.46l0.6,0.33l0.06,0.73l0.48,1.53v1.33
			l0.24,0.2l0.36,1.13l0.18,0.27l0.06,0.86l0.78,1.99l0.06,0.46l0.24,0.33l0.72,2.99l0.96,2.99l0.48,2.46l0.36,0.4l0.12,1.46
			l0.54,1.39l0.42,0.46h0.36l1.08-0.73l0.06-0.4l-0.18-1l0.48-0.6l0.12-1.46l0.36,0.07l0.42-0.4l-0.48-0.66l1.56-6.44l0.78-1.66
			l-0.12-0.33v-0.46l0.54-0.27l-0.06-0.73l-0.24-0.6l0.24-0.33l0.42-1.59l0.24-0.33l-0.36-0.46l0.78-0.66l-0.12-0.93l0.66-0.13
			l-0.12-0.27l-0.54-0.33l0.36-0.6l0.3,0.07l-0.18-0.33l0.12-1.06l-0.06-0.4l0.24-0.13h0.36l0.24-1l0.3-0.13l-0.24-0.33l-0.06-0.4
			l0.12-0.73l-0.06-0.46l0.36-0.13l0.06-0.73l0.42-0.2l0.6-0.53l0.66,0.46l0.24-0.73l1.32-0.13l0.48,0.53l0.3,0.07l0.72-0.33
			l0.3-0.27l2.16,0.2l0.54,0.33l0.18,0.33l0.54-0.6l0.42,0.6l0.18-0.2l0.06-0.4l0.42,0.13l0.24,0.33l0.36-0.46l1.26,0.33l0.48-0.07
			v0.4l0.66,0.33l-0.3,0.86l0.18,0.13l0.36-0.07l0.06,0.4l-0.3,0.8l-0.24,0.33l0.06,0.53l-0.3,0.73l-0.72,0.66l0.54,0.53l-0.3,0.73
			l-0.24,1.2l-0.54-0.33v0.33l0.3,0.27v0.53l-0.42,1v0.8l-0.66,0.46l0.3,0.86l-0.54,0.4v0.53l0.24,0.33l-0.36,0.53l-0.42,0.07
			l0.42,0.73l-1.02,1.73l0.24,0.13h0.36l-0.42,1.2l-0.6,0.46l0.3,0.73l-0.06,0.73l-0.24,0.73l-0.78,1.26l0.36,0.73l-0.3,0.13
			l-0.3,1.06l-0.3,0.07v0.86l-0.24,0.07l-0.06,0.2l-0.48,0.33l0.54,0.93v0.53l-0.66,0.6l0.24,0.4l-0.24,0.27l-0.3,1.26l-0.24,0.27
			l0.24,0.4l-0.36,0.73l0.12,0.6l-0.3,0.6l-0.24,1.66l-0.24,0.73l-0.54,0.46l0.3,0.27l-0.42,0.6l0.06,0.86l-0.18,0.6v0.4l-0.54,0.07
			v0.46l0.3,0.53l-0.36,1.39l-0.06,0.8l-0.48,0.6l-0.12,0.46l0.18,0.8l-0.6,0.73l0.24,0.4l-0.78,2.12l-0.54,3.12l-0.54,0.27
			l0.06,0.46l-0.36,0.86v0.33l0.18,0.4l-0.6,0.6l-0.3,0.13l-0.42-0.13l0.12,0.13l-0.78,0.66l-0.36,0.07l-0.9-0.2l-0.42,0.2
			l-0.42-0.07l-0.72-0.4l-0.6,0.33h-0.78l-0.6-0.33l-0.36,0.2h-0.78l-0.72-0.4l-0.24-0.27v0.73l-0.66,0.07l-1.44-0.13l-0.9,0.2
			l-0.3-0.66l-1.32-0.46v-0.53l-0.36-0.6l0.36-0.6l-0.78-1.59l0.12-0.6l-0.66-1.26l-0.24-0.73l-0.12-0.86l-0.36-0.33l0.12-0.86
			l-0.3-0.07l-0.48-0.53v-0.86l-0.18-0.27l0.18-0.6l-0.48-1.39l-0.36-0.2l-0.9-3.05l-0.48-2.46l-0.6-1.39l-0.18-0.8l0.12-0.66
			l-0.48-0.6l-0.42-0.8l-0.06-0.4l0.18-0.4l-0.42-0.6l-0.66-2.39l-0.48-0.6l-0.72-0.2l-0.84,1.33l-0.54,0.53v0.86l-0.54,2.06
			l-0.42,0.27v0.33l0.24,0.46l-0.24,0.4v0.46l-0.36,0.53v0.6l-0.3,0.4l0.12,0.46l-0.36,0.46l-0.24,1.59l-0.3,0.4l-0.66,3.19
			l-0.54,1.53l-0.12,0.66l-0.6,0.93L48.21,323l0.12,0.4l-0.36,0.73l-0.12,0.73l-0.18,0.4l-0.3,0.07l-0.18-0.33l-0.12,0.33l0.36,0.53
			l-0.18,0.4l-0.3,0.27v1.2l-0.42,0.46l-0.12,1.53l-0.36,0.53l-0.06,0.33l-0.54-0.13l0.18,0.4v0.33l-0.54,0.53l-0.66,0.27l-3.3,0.27
			l-0.24-0.2l-0.72-0.13l-1.5,0.46l-0.72-0.2h-0.78l-0.3-0.13l-0.72,0.2l-1.8-0.33h-0.78l-0.48-0.53l-0.66-1.26l-0.6-1.93l0.06-0.93
			l-0.54-0.53l-0.06-0.8l-1.08-4.45l0.06-0.4l-0.72-1.39l-0.12-0.8l0.06-0.73l0.18-0.33l-0.6-1.06l-0.36-0.33l-0.06-1.59l-0.3-0.46
			l0.24-0.4l-0.48-0.53l-0.6-2.26h0.48l0.06-0.4l-0.78-0.33l-0.18-1.46l0.3-0.13l-0.84-1.33l-0.12-0.8l0.18-0.46l-0.66-0.73
			l0.12-0.86l-0.48-0.73l-0.06-0.8l-0.36-1.53l-0.12-1l-0.36-0.6l-0.24-0.73l-0.06-0.86l-0.6-1.33l-0.18-0.73l0.12-0.8l-0.54-1.59
			l-0.78-3.52h0.66L23,290l-0.84-0.53l-0.24-1.06l0.12-0.27l-0.24-0.27l-0.3-0.8l0.12-0.93l-0.24-0.13h-0.36l-0.06-1.26l-0.36-0.66
			l0.3-0.4l-0.48-0.6l-0.12-0.33l-0.06-0.86l0.12-0.86h0.6l-0.36-0.66l0.72-0.2h1.44l0.6-0.13l0.66,0.33l0.66-0.27l1.62-0.2
			l0.72,0.13l0.66,0.33l0.24,0.27l0.3-0.2l-0.06-0.4l0.78,0.27l0.66-0.4l1.92,0.07l0.66,0.33l0.18,0.33l-0.66,0.27l0.24,0.27
			l0.6-0.13l0.6,0.46l0.42,0.8l0.06,0.4l-0.18,0.8l0.72,1.46l0.18,1.26l-0.12,0.33l0.48,0.6l-0.24,0.73l0.72,1.46l0.06,0.8
			l-0.12,0.33l0.36,0.66l0.06,0.8l-0.3,0.6l0.06,0.4l0.18,0.27l0.66,0.2l0.72,3.25l0.24,1.66l0.48,1.86l0.3,0.6l-0.12,0.6l0.24,0.2
			l0.36,0.73l0.18,0.8l-0.06,0.73l-0.18,0.27l0.36,0.2l0.18,0.73l0.42,0.93l-0.06,0.46l0.78,1.13l0.24,0.73l0.48-0.07l0.3-0.2
			l-0.12-0.53l1.08-3.05l0.48-0.6l-0.12-0.46l0.6-2.26l0.42-0.6l-0.12-0.46l0.12-0.86l0.54-0.13l-0.12-0.4v-0.73l0.72-2.32l0.24-1.2
			l-0.06-0.4l0.54-0.86l-0.12-0.53l0.06-0.4l0.36-0.73v-0.53l0.78-1.33l0.18-0.6l-0.06-0.66l0.6-1.53l-0.06-0.4l0.6-1l-0.12-0.46
			l0.12-0.8l0.96-2.52l0.6,0.13l-0.12-0.73l0.36-0.27l0.18-0.4l0.54,0.13l0.3-0.27l0.66-0.27l0.66-0.07l1.62,0.27l0.78-0.4l0.6,0.2
			l2.28-0.13l1.02,0.07l0.84,0.46l0.3-0.07L59.5,280.37z M22.94,281.17l0.12,0.33l0.3-0.13v-0.2l-0.3-0.13L22.94,281.17z
			 M24.5,285.55l-0.06-0.4l-0.3-0.07l0.06,0.33L24.5,285.55z M25.16,289.87l0.12-0.4l-0.12-0.33L24.92,289l-0.24,0.27l0.12,0.4
			L25.16,289.87z M25.58,294.25l0.3-0.13v-0.33l-0.3-0.13l-0.06,0.27L25.58,294.25z M26.36,291.2v-0.46l-0.3-0.27l-0.12,0.33
			l0.12,0.27L26.36,291.2z M26.72,288.01l-0.24,0.86l0.3,0.27v-0.4l0.42-0.8l0.36-0.2l-0.06-0.4l-0.36-0.07l-0.36,0.13l0.36,0.6
			H26.72z M26.9,283.56l0.12-0.27l-0.24-0.2l-0.06,0.33L26.9,283.56z M26.9,281.63l0.42-0.13l0.18-0.46l-0.36-0.07l-0.3,0.27
			L26.9,281.63z M28.04,285.82l-0.54-0.13l0.18,0.33L28.04,285.82z M28.46,297.9l-0.06-0.33l-0.3-0.27h-0.6l0.54,0.53L28.46,297.9z
			 M28.16,284.56l0.24-0.27l0.06-0.33l-0.12-0.33l-0.66-0.27l-0.06,0.27l0.3,0.73L28.16,284.56z M27.8,291.93l0.3-0.13l0.12-0.33
			l-0.36-0.13l-0.24,0.27L27.8,291.93z M28.16,290.33v-0.46H27.8l0.06,0.33L28.16,290.33z M28.04,303.94h0.3l-0.06-0.27l-0.24-0.13
			V303.94z M28.7,296.11l-0.06-0.46l-0.3-0.13l-0.12,0.27l0.12,0.27L28.7,296.11z M28.22,299.49h0.3l0.18-0.2l-0.3-0.07
			L28.22,299.49z M28.7,288.27H29v-0.33l-0.18-0.2L28.7,288.27z M28.82,293.98l0.12,0.33l0.3,0.27l0.36,0.07v-0.33l-0.24-0.33
			l-0.36-0.2L28.82,293.98z M28.82,306.27l0.42,0.13V306L28.82,306.27z M28.94,303.48l0.18,0.2l0.24-0.33l-0.12-0.13L28.94,303.48z
			 M29,292.92l0.24,0.2l0.54-0.07v-1l-0.3-0.13l-0.3,0.66L29,292.92z M29.36,287.28l0.12-0.6h-0.36v0.4L29.36,287.28z M30.38,296.71
			l-0.06-0.93l-0.24,0.13l-0.3-0.2l-0.18,0.33l0.36,0.6L30.38,296.71z M30.38,298.9l0.18-0.6l-0.96-0.4l0.06,0.4l0.42,0.46
			L30.38,298.9z M30.26,283.56v-0.4l-0.12-0.27l-0.36-0.07l0.12,0.73H30.26z M29.9,281.9l0.36,0.07l-0.12-0.33L29.9,281.9z
			 M29.9,300.62l0.36,0.4l-0.36-0.66V300.62z M30.14,302.95h0.24l-0.18-0.27l-0.18,0.13L30.14,302.95z M30.38,305.4l0.24,0.2
			l0.72,0.07v-0.53l-0.24-0.27h-0.3l-0.3,0.2L30.38,305.4z M31.1,317.02l0.12-0.33l-0.06-0.33l-0.36-0.13l-0.12,0.33l0.12,0.33
			L31.1,317.02z M30.92,291.66l0.3-0.13l-0.06-0.27l-0.36-0.07L30.92,291.66z M31.58,289.87l-0.24-0.4h-0.42l0.12,0.4l0.3,0.13
			L31.58,289.87z M30.92,309.92h0.18l0.12-0.33h-0.18L30.92,309.92z M31.04,295.71l0.3,0.2l0.18,0.33l0.36,0.07v-2.39h-0.42
			l-0.3,1.53L31.04,295.71z M31.34,298.3v-0.4l-0.3-0.33v0.86L31.34,298.3z M31.82,321.01v-0.53l-0.6-0.13l0.06,0.33l0.24,0.2
			L31.82,321.01z M31.34,307.13l0.3,0.13l0.24-0.13l-0.12-0.46l-0.3,0.07L31.34,307.13z M32,300.29l-0.06-0.46l-0.36-0.07l0.12,0.4
			L32,300.29z M31.7,302.22l0.3,0.13l-0.18-0.4L31.7,302.22z M31.88,304.28h0.24v-0.2h-0.24V304.28z M32.54,286.02L32,285.95
			l0.06,0.33h0.3L32.54,286.02z M32.54,304.81l-0.06-0.4h-0.24l0.06,0.33L32.54,304.81z M32.78,316.29l0.18-0.2l0.06-0.4l-0.36-0.07
			l-0.12,0.33L32.78,316.29z M32.66,294.98l0.3-0.07l0.72,0.2v-0.46l-0.18-0.27l-0.36-0.13l-0.24,0.4L32.66,294.98z M33.14,303.48
			l0.06-0.4l-0.12-0.27l-0.42-0.13l0.18,0.66L33.14,303.48z M32.78,314.37l0.06,0.46l0.3,0.4l0.42-0.46v-0.4l-0.36-0.13
			L32.78,314.37z M33.14,322.6l0.12-0.66H32.9l-0.06,0.46L33.14,322.6z M33.32,298.7l0.18,0.73l0.18,0.27l0.42,0.2l-0.12-1.2
			l-0.3-0.07L33.32,298.7z M33.32,319.75l0.3-0.13l-0.06-0.2L33.32,319.75z M33.56,313.37l0.42-0.13l0.12-0.33l-0.24-0.33l-0.42-0.2
			l0.12,0.6V313.37z M34.7,317.82l0.18-0.27v-0.4l-0.18-0.2l-0.42,0.2l-0.18-0.33h-0.3l0.06,0.46l0.6,0.33L34.7,317.82z
			 M34.46,304.21l0.3-0.13l0.12-0.33l-0.06-0.33l-0.24-0.27l-0.36-0.07v0.46L34.46,304.21z M34.22,307.4v0.46l0.12,0.33l0.36,0.13
			l0.66-0.6L35,307.06L34.82,307l-0.3,0.13L34.22,307.4z M34.34,319.28l0.3,0.13l0.24-0.2l0.12-0.33l-0.42,0.13L34.34,319.28z
			 M34.34,321.34l0.06,0.4l0.6,0.2l-0.06-0.46l-0.24-0.2L34.34,321.34z M34.58,309.72l0.3,0.13l-0.18-0.4L34.58,309.72z M35,312.18
			l0.72-0.07l0.3-0.2l0.12-0.27l-0.12-0.2l-0.72,0.07l-0.6-0.2l0.06,0.46L35,312.18z M34.7,320.61H35l0.12-0.27l-0.3,0.07
			L34.7,320.61z M35.12,306.27h0.24V306h-0.24V306.27z M35.55,309.45l-0.18,0.27h0.42l0.24-0.27l-0.18-0.27l-0.3-0.13V309.45z
			 M36.15,316.82l-0.12-0.4l-0.6-0.2l0.12,0.46l0.24,0.2L36.15,316.82z M35.55,313.97l0.18,0.33l0.3,0.07l0.36-0.2l0.18-0.33
			l-0.66,0.13H35.55z M35.55,320.61l0.06,0.4l0.18,0.2l1.2-0.2l-0.54-0.4l-0.24,0.4v-0.33l-0.18-0.2l-0.18,0.07L35.55,320.61z
			 M36.03,303.21v-0.53l-0.12,0.33L36.03,303.21z M36.33,312.18v0.33l0.42-0.07l0.12-0.4h-0.3L36.33,312.18z M36.99,319.48
			l-0.54-0.33l0.12,0.4l0.24,0.13L36.99,319.48z M36.81,325.79h0.3l0.36-0.8l-0.36,0.13l-0.18,0.27L36.81,325.79z M38.25,313.37
			l-0.06-0.33l-0.18-0.13h-0.36l0.24,0.46H38.25z M38.43,324.66h0.6l0.12-0.46l-0.06-0.4l-0.42,0.07l-0.18,0.33L38.43,324.66z
			 M38.91,316.69l-0.36-0.13l0.12,0.27L38.91,316.69z M39.09,322.07l0.12-0.27l-0.18-0.2l-0.12,0.27L39.09,322.07z M39.69,314.83
			l-0.36-0.2v0.27L39.69,314.83z M40.47,321.01l0.42-0.27l-0.3-0.07L40.47,321.01z M40.89,327.85v-0.46h-0.36l0.06,0.33
			L40.89,327.85z M41.13,324.79h0.3v-0.4h-0.24L41.13,324.79z M41.13,325.66h0.18v-0.27h-0.18V325.66z M41.31,312.24h0.24l-0.12-0.2
			l-0.24,0.13L41.31,312.24z M41.91,315.1l0.24-0.13l0.24-0.33v-0.33l-0.18-0.2l-0.12,0.66L41.91,315.1z M42.87,313.37l0.12-0.33
			l-0.24-0.13L42.87,313.37z M44.31,319.48h0.24v-0.2h-0.24V319.48z M46.23,305.8l0.06-0.33l-0.18-0.2l-0.12,0.33L46.23,305.8z
			 M46.65,304.08v-0.46l-0.24-0.27l-0.12,0.6L46.65,304.08z M46.65,305.8l0.3,0.46l0.12-0.33l-0.18-0.27L46.65,305.8z M47.07,308.46
			l0.12-0.27l-0.12-0.73l-0.3,0.13l-0.12,0.4l0.12,0.33L47.07,308.46z M47.43,304.41l0.42,0.13l-0.18-0.46L47.43,304.41z
			 M47.67,302.62l0.06,0.46l0.3-0.13l0.18-0.33l-0.3-0.13L47.67,302.62z M48.63,290.73l-0.06-0.4h-0.36l0.12,0.33L48.63,290.73z
			 M49.17,295.38h0.24l-0.12-0.27l-0.18,0.13L49.17,295.38z M49.17,300.03l0.24-0.2l0.12-0.46l-0.24-0.2l-0.06,0.4L49.17,300.03z
			 M49.65,286.02h0.3l-0.3-0.2V286.02z M50.07,290.73l0.06-0.33l-0.18,0.07L50.07,290.73z M50.07,301.89l0.24-0.2l-0.24-0.2V301.89z
			 M50.07,306.4h0.9v-0.6l-0.42,0.07l-0.3,0.2L50.07,306.4z M50.61,299.16l0.3-0.2l-0.3-0.2V299.16z M51.09,288.47l-0.36,0.13
			l0.18,0.2L51.09,288.47z M51.21,291.53h0.42l-0.18-0.86l-0.24-0.2l-0.12,0.33l0.06,0.33L51.21,291.53z M51.28,294.65l0.6,0.2
			l0.18-0.27l-0.06-0.33l-0.54,0.13L51.28,294.65z M51.39,284.56h0.48v-0.2l-0.24-0.13L51.39,284.56z M51.63,289.73l0.12-0.53
			l-0.3,0.2L51.63,289.73z M52.54,297.7l-0.12-0.33l-0.36-0.2l0.12,0.4L52.54,297.7z M52.18,287.15h0.24v-0.27h-0.24V287.15z
			 M52.66,289.73v-0.6H52.3l-0.12,0.33l0.12,0.33L52.66,289.73z M53.2,294.12l0.24-0.2l-0.12-0.4l-0.12,0.27V294.12z M53.44,283.49
			h0.42l-0.42-0.27V283.49z M53.86,282.23H53.5l0.18,0.2L53.86,282.23z M53.74,287.74l0.36,0.13l-0.24-0.33L53.74,287.74z
			 M53.74,296.44h0.24v-0.2h-0.24V296.44z M53.74,300.76l0.36,0.13l-0.24-0.4L53.74,300.76z M54.4,287.01l-0.12-0.6h-0.3l0.06,0.46
			L54.4,287.01z M54.4,293.12l0.24-0.27l0.24-0.66l-0.36-0.07l-0.3,0.2l-0.18,0.33v0.27L54.4,293.12z M54.16,285.29h0.42l1.26,0.73
			l0.3-0.53l0.06-0.4l-0.96-0.07l-0.3,0.13l-0.12-0.33l-0.42-0.13l-0.18,0.27L54.16,285.29z M54.76,299.03l0.06-0.4l-0.24-0.33
			l-0.42-0.13v0.33l0.3,0.33L54.76,299.03z M54.88,289.14l-0.06-0.33l-0.18-0.2l-0.06,0.33L54.88,289.14z M55.18,283.56v-0.4
			l-0.42-0.2l0.06,0.46L55.18,283.56z M55.18,295.58l0.42-1.06l-0.36-0.13l-0.3,0.27l-0.12,0.4l0.06,0.4L55.18,295.58z M55.18,299.3
			l0.12,0.4l0.42,0.46l0.24-0.66l-0.24-0.6l-0.3,0.2L55.18,299.3z M55.84,293.52l-0.12-0.46l-0.3,0.07l0.12,0.33L55.84,293.52z
			 M55.54,301.35h0.18l0.12-0.27l-0.3-0.07V301.35z M55.84,288.01l0.24-0.2l-0.24-0.2V288.01z M55.84,292.19l0.36,0.07l0.66-0.4
			l0.18-0.33l-0.3-0.27l-0.6,0.13l-0.24,0.33L55.84,292.19z M56.38,298.3l0.12-0.4l-0.3-0.2l-0.12,0.4L56.38,298.3z M56.98,294.85
			l-0.36-0.66l-0.3-0.2l0.06,0.46l0.24,0.27L56.98,294.85z M56.86,288.34h0.18l-0.12-0.2l-0.18,0.13L56.86,288.34z M57.16,287.15
			h0.24l-0.12-0.27l-0.24,0.13L57.16,287.15z M57.82,285.15l0.12-0.33l-0.42-0.53l-0.36-0.07l0.06,0.53l0.24,0.27L57.82,285.15z
			 M57.52,300.89l0.18-0.2l0.06-0.4l-0.18-0.33l-0.3-0.07l-0.12,0.73L57.52,300.89z M57.82,297.1v-0.46l-0.12-0.2l0.06-0.33
			l-0.36,0.13l-0.06,0.33l0.18,0.33L57.82,297.1z M57.52,288.61l0.3,0.8l0.3,0.2h0.3l-0.36-1.13l-0.3,0.07L57.52,288.61z
			 M57.64,299.03l0.3-0.2L58,298.1l-0.18-0.27l-0.24,0.33l-0.06,0.4L57.64,299.03z M57.76,291.53l0.48-0.33l0.18-0.86l-0.36-0.13
			l-0.42,1.06L57.76,291.53z M58.48,293.52h0.48l0.24-0.2l0.06-0.4l-0.66,0.13l-0.3-0.13l0.06,0.33L58.48,293.52z M58.72,287.61
			l0.06-0.33l-0.3-0.27l-0.06,0.4L58.72,287.61z M58.48,295.71h0.36v-0.33l-0.24-0.13L58.48,295.71z M58.48,307.4h0.36l-0.12-0.53
			l-0.18,0.2L58.48,307.4z M59.08,289.6l-0.12-0.27l-0.24-0.13l0.06,0.33L59.08,289.6z M59.38,298.3l0.24-0.2l0.24-0.66l-0.42-0.13
			l-0.3,0.07l-0.18,0.2l-0.06,0.33l0.12,0.27L59.38,298.3z M59.2,285.95l0.18-0.4l-0.24-0.13l-0.18,0.27L59.2,285.95z M59.26,299.63
			l0.36,0.07l0.24-0.27l-0.6-0.4V299.63z M59.86,316.23l-0.36-0.27l0.06,0.33L59.86,316.23z M59.74,290.07l0.12-0.13l-0.24-0.2
			L59.74,290.07z M60.28,300.36v-0.33l-0.36,0.13L60.28,300.36z M60.28,292.39h0.36l-0.12-0.27l-0.24-0.07V292.39z M60.4,294.12
			v0.27l0.3,0.13v-0.53L60.4,294.12z M60.7,311.05h0.24v-0.27H60.7V311.05z M60.7,312.91l0.42-0.2l0.06-0.46l-0.36,0.2L60.7,312.91z
			 M60.7,318.75h0.24l-0.12-0.33L60.7,318.75z M60.94,296.44l0.12,0.33l-0.24,0.07l0.06,0.33l0.24,0.27h0.36l-0.18-0.46l0.12-0.4
			l-0.06-0.27L60.94,296.44z M61.72,303.55l-0.06-0.46l-0.36-0.13l0.06,0.53L61.72,303.55z M61.3,317.29l0.24-0.13l0.06-0.33
			l-0.3-0.13V317.29z M61.72,315.83l0.18-0.2v-0.8l-0.3-0.13l-0.24,0.66l0.06,0.33L61.72,315.83z M61.72,301.22l0.36,0.13l0.24-0.4
			l-0.24-0.33l-0.24,0.27L61.72,301.22z M61.84,319.61h0.42l0.12-0.33l-0.12-0.4l-0.36,0.13l-0.12,0.33L61.84,319.61z M61.84,305.67
			l0.36-0.07l0.18-0.33l-0.36,0.13L61.84,305.67z M61.96,307.26l0.12,0.4l0.42,0.2v-0.73h-0.3L61.96,307.26z M61.96,317.42h0.3
			l-0.12-0.4L61.96,317.42z M62.38,306.27l0.12-0.13l-0.24-0.27L62.38,306.27z M62.38,312.18l0.42,0.07l0.12-0.46l-0.18-0.33
			l-0.24,0.27L62.38,312.18z M62.92,310.45l0.12-0.6h-0.42l-0.06,0.4L62.92,310.45z M62.92,321.8l-0.06-0.33l-0.24-0.13l-0.06,0.33
			L62.92,321.8z M63.28,316.82l-0.18-0.6l-0.3-0.13l-0.06,0.33l0.12,0.33L63.28,316.82z M62.8,323.33l0.06,0.27l0.12-0.4l-0.18-0.27
			V323.33z M63.04,314.5l0.36-0.13l0.18-0.27l-0.36,0.07L63.04,314.5z M63.4,320.74l0.3-0.13v-0.4l-0.36,0.13L63.4,320.74z
			 M63.7,313.24l0.36,0.13l0.06-0.46l-0.3-0.27l-0.06,0.27L63.7,313.24z M63.82,307.26l0.36-0.2l0.06-0.4l-0.3-0.13l-0.18,0.33
			L63.82,307.26z M63.82,319.41l0.3-0.07l0.12-0.2l-0.3-0.07L63.82,319.41z M63.94,322.93v0.46l0.12,0.27l0.9-0.27l0.3,0.27
			l-0.3-0.66v-0.53l-0.36-0.13l-0.24,0.53L63.94,322.93z M64.06,317.55l0.24,0.07l0.18-0.2l-0.24-0.07L64.06,317.55z M64.18,309.19
			l0.78,0.13l0.3-0.13l-0.12-0.46l-0.36-0.07l-0.36,0.2L64.18,309.19z M64.48,320.61l0.12,0.4v-0.4l0.12-0.27l-0.42-0.07l-0.12,0.2
			l0.18,0.07L64.48,320.61z M64.6,307.4h0.36V307l-0.24-0.27L64.6,307.4z M64.72,321.34l0.3,0.2h0.24l0.24-0.33l-0.54-0.33
			l-0.36,0.13L64.72,321.34z M64.84,314.23l0.42-0.13l0.12-0.46h-0.36l-0.18,0.2V314.23z M64.84,318.02l0.42,0.07l0.24,0.27
			l0.42,0.07l0.18-0.33l-0.12-0.46l-0.36-0.2l-0.18,0.33l-0.36,0.07L64.84,318.02z M64.96,316.09l0.84,0.33l0.36-0.2l-0.18-0.73
			l-0.24-0.2l-0.72-0.07v0.46L64.96,316.09z M65.62,311.78l-0.06-0.46l-0.3-0.13l-0.12,0.27l0.12,0.27L65.62,311.78z M65.26,320.34
			l0.54-0.4l0.66-0.2l-0.48-0.4l-0.36-0.07l-0.24,0.66L65.26,320.34z M65.8,326.12v-0.46l-0.3,0.27L65.8,326.12z M66.28,310.58
			v-0.46l-0.36-0.27l-0.12,0.33l0.18,0.27L66.28,310.58z M66.58,323.07l0.12-0.4l-0.48-0.53l-0.42-0.07l0.18,0.73l0.24,0.2
			L66.58,323.07z M66.04,324.26l0.42-0.07l-0.12-0.4l-0.3-0.13L65.92,324L66.04,324.26z M66.04,316.96l0.3-0.07l0.12-0.2l-0.42-0.13
			V316.96z M66.28,314.63l0.24,0.2l0.06,0.4l0.84,0.27l0.6,0.46l0.24-1.13l-0.6-0.33l-0.3,0.2l-0.24-0.73l-0.3-0.2l-0.36,0.6
			L66.28,314.63z M66.4,308.86l0.24,0.07l0.18-0.2l-0.3-0.13L66.4,308.86z M67.48,312.38l-0.3-0.2l-0.3,0.07l-0.42,0.66v0.46
			l0.72,0.2l0.3-0.07l-0.06-0.73L67.48,312.38z M66.82,324.39l0.06,0.4l0.18,0.2l0.06,0.4l-0.36,1.46l0.06,0.4l0.3-0.27l0.3-0.66
			l0.06-0.86l0.36-0.66l-0.48-0.6l-0.3-0.13L66.82,324.39z M67.24,318.02l0.78-0.33l-0.06-0.86l-0.48-0.4h-0.36L67,317.29l0.12,0.4
			L67.24,318.02z M67.6,313.37l0.18,0.33l0.6,0.46v0.53l0.66-0.33l-0.18-1.06l-0.18-0.2l-0.18,0.33h-0.54L67.6,313.37z M67.6,322.93
			v0.4l0.18,0.27l0.3,0.07l0.3-0.13l0.42,0.6l0.36,0.2h0.3l0.24-0.27l-0.3-0.27l-0.36-0.73h-0.42l-0.66-0.33L67.6,322.93z
			 M67.9,321.74l0.12,0.46l0.42-0.13l0.12-0.33l-0.3-0.13L67.9,321.74z M68.27,319.75l0.24-0.13l-0.12-0.6h-0.36v0.46L68.27,319.75z
			 M68.03,326.12l0.24,0.2l0.6,0.13l0.72-0.07l0.36,0.6l0.72,0.13l0.24-0.27l-1.26-0.66l-0.42-0.6l-0.06-0.46l-0.78,0.27l-0.24,0.33
			L68.03,326.12z M68.27,317.89l0.6,0.46l0.42-0.07v-0.6h-0.72L68.27,317.89z M68.27,327.71l0.54,0.13l0.12-0.4l-0.12-0.4l-0.3-0.2
			l-0.18,0.4L68.27,327.71z M68.39,311.91l0.12,0.6h0.36l0.24-0.2l0.24-0.66l-0.66,0.13L68.39,311.91z M69.05,316.69l0.12,0.6
			l0.84-0.46l-0.6-0.2L69.05,316.69z M69.71,328.31v-0.4l-0.12-0.27l-0.3-0.07l-0.06,0.4l0.12,0.27L69.71,328.31z M69.29,314.37
			l0.36,0.13l0.3-0.27l-0.24-0.2h-0.24L69.29,314.37z M69.35,329.44l0.12,0.33h0.36l-0.06-0.33l-0.3-0.13L69.35,329.44z
			 M69.83,316.23l0.06-0.33l-0.42-0.2l0.06,0.4L69.83,316.23z M69.47,318.42l0.12,0.4l0.3,0.07l0.24,0.27v0.4l-0.48,0.53l-0.18,0.4
			l0.24,0.2v0.66h0.42l0.24-0.13l-0.12-1.46l0.54-0.13l0.42,0.66l0.72,0.2l0.12-0.27v-0.46l-1.14-0.33l-0.9-1.13h-0.3L69.47,318.42z
			 M69.71,322.67l0.36-0.07l0.3,0.13v0.6l0.66,0.2l0.24,0.27l-0.06-0.46l-0.36-0.46l-0.06-0.53l-0.54-0.27l-0.66-0.13l0.06,0.4
			L69.71,322.67z M69.95,325.12l0.6,0.4l0.36-0.13l-0.3-0.73l0.54-0.07l0.12-0.33h-0.36l-0.18-0.13l-0.48-0.07l-0.24,0.73
			L69.95,325.12z M70.13,313.77l0.36-0.07l0.3-0.53v-0.4l-0.3,0.07l-0.3,0.53L70.13,313.77z M70.49,311.18l0.72-0.2l0.18-0.33h-0.6
			l-0.24,0.2L70.49,311.18z M70.79,316.56l-0.18,1.2l0.12,0.4l0.36-0.2l0.3-0.66l-0.12-0.86l0.54-0.46l-0.54-0.8l-0.3-0.07
			l-0.42,0.33v0.73L70.79,316.56z M71.15,329.44v-0.27l-0.3,0.07L71.15,329.44z M71.45,314.7l0.3-0.13l0.18-0.33v-0.4l-0.18-0.27
			l-0.36-0.07l0.06,0.73V314.7z M71.39,321.6l0.3,0.6l0.48-0.27v0.73l0.3,0.13l0.24-0.13l-0.12-0.86l-1.02-0.73l-0.12,0.27
			L71.39,321.6z M71.81,312.64h1.08l0.24-0.27l-0.24-0.2l-0.3-0.66l-0.24-0.2l-0.3,0.27l-0.3,0.66L71.81,312.64z M71.93,306.4
			l0.3-0.2v-0.27l-0.3-0.27L71.81,306L71.93,306.4z M72.05,319.28h-0.12l0.24,0.13L72.05,319.28z M71.93,324.19l0.66,0.07l0.24-0.2
			l-0.3-0.2l-0.42-0.07L71.93,324.19z M71.93,325.66l0.24,0.33l0.3-0.2l-0.24-0.2L71.93,325.66z M72.59,325.12l-0.06-0.33l-0.18-0.2
			l-0.3-0.07v0.4l0.18,0.2H72.59z M72.17,318.55l0.18,0.2l0.36-0.2l-0.3-0.27L72.17,318.55z M72.23,310.78h0.48l-0.48-0.2V310.78z
			 M72.71,314.37l0.06,0.8l0.24,0.2l0.3-0.13l0.12-0.2l0.06-0.8l0.24-0.2l0.18-0.73l-0.12-0.4h-0.3l-0.18,1.26l-0.24,0.27
			L72.71,314.37z M72.83,323.2h0.18l-0.12-0.27l-0.18,0.13L72.83,323.2z M72.83,316.96l0.66,0.2l0.54,0.4v-0.86l-0.36-0.07l-0.3,0.2
			l-0.48-0.6l-0.12,0.27L72.83,316.96z M73.13,326.72l-0.12-0.6l-0.18,0.4L73.13,326.72z M73.49,319.41l-0.06-0.4l-0.24-0.33
			l-0.3-0.13l0.18,0.73L73.49,319.41z M73.13,301.49l0.54-0.27l-0.12-0.4l-0.42-0.07l-0.18,0.33L73.13,301.49z M73.01,321.01
			l0.6,0.2v-0.73l-0.42,0.13L73.01,321.01z M74.03,306.73l-0.24-0.33l-0.42-0.13l-0.18,0.4l0.18,0.33l0.36,0.07L74.03,306.73z
			 M73.25,304.81l0.06,0.33l0.18,0.2l0.36,0.07l0.3-0.13l-0.06-0.4l-0.18-0.2l-0.24,0.13H73.25z M73.61,311.31l0.18,0.33l0.36,0.13
			l0.3-1.13h-0.36L73.61,311.31z M74.27,289.93l-0.48-0.6l-0.06,0.4l0.18,0.33L74.27,289.93z M73.91,308.72l-0.18,0.46v0.4
			l0.12,0.27l0.66,0.33h0.84l-0.12-0.33l-0.6-0.27l-0.3,0.27v-0.4l0.24-0.4l-0.24-0.27L73.91,308.72z M73.79,318.75h0.24v-0.2h-0.24
			V318.75z M74.45,302.95l-0.18-0.73h-0.36l-0.06,0.46l0.24,0.33L74.45,302.95z M74.69,316.69l0.18-0.33l-0.12-0.27l-0.6-0.4
			l0.06,0.46l0.18,0.33L74.69,316.69z M74.15,321.6l0.3,0.13l0.66-1.53l-0.6,0.33l-0.3,0.66L74.15,321.6z M74.27,307.26l0.3-0.07
			l0.24-0.66l-0.42,0.07l-0.18,0.33L74.27,307.26z M74.33,302.35l0.24,0.13l0.3-0.13l0.12-0.4l-0.06-0.33l-0.36-0.13l-0.18,0.46
			L74.33,302.35z M74.33,314.1l0.36-0.07l0.24-0.27h-0.42L74.33,314.1z M74.45,300.16l0.36-0.13l0.66,0.13v-0.46l-0.18-0.27
			l-0.36-0.13l-0.3,0.13l-0.18,0.27V300.16z M74.57,311.31l0.18,0.66l0.48,0.46l0.36,0.07l-0.12-0.46v-0.73l0.42-1.13l-0.42,0.07
			l-0.54,0.93L74.57,311.31z M74.57,313.64l0.42-0.2l0.24-0.4h-0.36l-0.24,0.2L74.57,313.64z M74.69,322.07l0.24,0.33l0.18-0.33
			H74.69z M75.23,314.1l0.12-0.27l-0.24-0.2l-0.06,0.27L75.23,314.1z M75.11,304.94l0.24,0.33l0.36-0.13l0.3-0.73l-0.24-0.2
			l-0.48,0.4L75.11,304.94z M75.23,316.23l0.42-0.13l0.06-0.4l-0.36,0.2L75.23,316.23z M75.77,320.48v-0.66l-0.3-0.07l-0.12,0.33
			l0.06,0.33L75.77,320.48z M75.47,308.13l-0.06,0.33l0.18,0.4l0.54-0.2l0.12-0.33l-0.42-0.27L75.47,308.13z M75.47,296.84h0.42
			l-0.24-0.33L75.47,296.84z M75.59,302.08h0.3l0.12-0.2h-0.42V302.08z M75.77,294.98l0.36-0.07l0.18-0.2l0.18-0.73l-0.36-0.07
			l-0.3,0.27l-0.18,0.4L75.77,294.98z M75.77,317.02h0.36v-0.33h-0.36V317.02z M75.89,306.67l0.36-0.13l0.24-0.4L76.01,306
			l-0.18,0.33L75.89,306.67z M75.89,302.95h0.36v-0.33h-0.36V302.95z M76.01,309.59l0.48-0.13l-0.12-0.33l-0.36-0.07V309.59z
			 M76.13,314.5l0.3,0.53l0.36,0.07l0.12-0.6l-0.42-0.13L76.13,314.5z M76.37,313.37l0.84-0.73l-0.3-0.4l-0.66,0.4l-0.06,0.33
			L76.37,313.37z M76.49,292.06l0.84-0.13l-0.18-0.33l-0.66-0.27l-0.12,0.33L76.49,292.06z M77.03,307.26l-0.12-0.4l-0.36-0.13
			l-0.06,0.4l0.24,0.27L77.03,307.26z M76.91,311.05l0.18-0.33l-0.18-0.27l-0.42-0.13v0.4l0.12,0.27L76.91,311.05z M76.55,298.76
			l0.06,0.46l0.24,0.33l0.36,0.07l0.24-0.86l-0.66-0.07L76.55,298.76z M76.67,301.49l0.12-0.2l0.36-0.07l-0.18-0.73l-0.42-0.13v0.86
			L76.67,301.49z M76.91,303.55l0.42,0.53l0.6-1.13l-0.36-0.13l-0.54,0.4L76.91,303.55z M76.91,317.29l0.54-0.13l-0.12-0.33
			l-0.3,0.13L76.91,317.29z M77.15,289.14l0.3,1.33l0.24-0.2l0.24-1.06l-0.42-0.2L77.15,289.14z M77.33,287.61v0.27l0.24-0.13
			l-0.12-0.2L77.33,287.61z M77.81,297.84l-0.12-0.33l-0.36-0.07l0.12,0.46L77.81,297.84z M77.57,314.37l0.3,0.13l0.24-0.13
			l0.12-0.4l-0.3-0.13l-0.24,0.2L77.57,314.37z M77.69,308.13h0.3l-0.3-0.27V308.13z M78.65,286.75l-0.48-0.4l-0.36-0.07l0.18,0.33
			l0.36,0.2L78.65,286.75z M77.99,296.24l0.42,0.13l0.36-0.07l-0.12-0.4l-0.54-0.53l-0.06,0.4L77.99,296.24z M78.11,312.51h0.78
			l-0.06-0.4l-0.48-0.46l-0.18,0.33L78.11,312.51z M78.23,297.9l0.24,0.73l0.66,0.27v-0.4l-0.18-0.4l-0.36-0.27L78.23,297.9z
			 M78.59,300.36l0.18-0.6v-0.46l-0.36,0.07l-0.18,0.4l0.06,0.4L78.59,300.36z M79.01,311.05l0.06-0.4l-0.36-0.6l-0.24-0.2
			l-0.06,0.33l0.3,0.66L79.01,311.05z M78.89,302.62l0.54-0.2l0.12-0.33l-0.3-0.13L78.89,302.62z M79.25,297.3l0.24-0.2l-0.24-0.27
			V297.3z M79.37,307.46l0.3-0.13l0.12-0.27v-0.4l-0.36,0.13l-0.18,0.27L79.37,307.46z M79.37,299.89l0.24,0.4l0.3-0.27l-0.3-0.2
			L79.37,299.89z M79.43,295.84l1.14-0.33l-0.06-0.53l-0.24-0.2l-0.18-0.4l0.12-0.86l0.24-0.73l-0.42-0.4l-0.18,0.8l-0.12,1.46
			l-0.18,0.73L79.43,295.84z M79.43,300.89l0.24,0.46l0.24-0.13l0.12-0.33l-0.3-0.13L79.43,300.89z M79.79,304.81h0.24l0.06-0.27
			l-0.3-0.13V304.81z M80.09,297.3l0.36-0.07l0.06-0.33l-0.18-0.2l-0.18,0.2L80.09,297.3z M80.21,285.82l0.18,0.33l0.36-0.07
			l0.06-0.4h-0.36L80.21,285.82z M80.33,290.07l0.42,0.53l0.36,0.13l0.48-0.46l0.06-0.33h-1.08L80.33,290.07z M80.99,291.66
			l-0.42-0.33l-0.12,0.4l0.3,0.2L80.99,291.66z M80.81,301.62l0.18-0.4l-0.54-0.2l0.12,0.4L80.81,301.62z M80.87,288.47l0.66-0.33
			l0.12-0.4l-0.12-0.4l-0.3,0.07l-0.3,0.27l-0.12,0.4L80.87,288.47z M80.87,301.02l0.36-0.27h-0.24L80.87,301.02z M80.99,294.38
			l0.66,0.33l0.54-0.4l0.12-0.33l-0.54-0.46l-0.06,0.46l-0.24,0.2h-0.3L80.99,294.38z M81.65,292.06l0.24-0.2l-0.24-0.2V292.06z
			 M82.13,291.2l0.3-0.07l0.12-0.2l-0.42-0.13V291.2z M82.43,304.94h0.24v0.2h-0.24V304.94z M83.21,286.41h0.36l0.24-0.2l0.06-0.27
			l-0.3-0.13l-0.54,0.46l-0.18,0.8l0.18,0.27l0.18,0.07V286.41z M83.99,284.22l0.36-0.07l0.06-0.46h-0.42V284.22z M86.76,285.82H87
			v-0.27h-0.24V285.82z"/>
	</g>
	<g>
		<path class="st1" d="M559.57,300.62l-0.13,0.27l0.27,0.27h0.4l0.46-0.4l0.07-0.46l1.73-0.13l0.27,0.13l0.2,0.33l0.73-0.27
			l1.26-0.2l0.2,0.27l0.07,0.4l0.2,0.2l0.33-0.2l0.2-0.4l0.33,0.2l1.46-0.4h0.73l1.26,0.27l0.46-0.07l0.27-0.27l1.39,0.27l1.53-0.13
			l0.86,0.13l0.4-0.27l1,0.33l0.33-0.2l0.2,0.27l0.27,0.07l0.86-0.13l0.8,0.86l-0.13,0.4l0.13,1.2l-0.07,0.4l-0.2,0.27l0.27,0.27
			l0.07,0.8l-0.46,1.13l0.46,0.66V307l-0.33,0.07l-0.27-0.27l-0.33,0.07l0.13,0.4l0.8,0.27l-0.33,1l0.27,0.73l-0.13,1.53l-0.53,1.53
			l-1.53,0.27h-3.85l-0.86-0.93l-0.13,0.33l0.13,0.33l-0.13,0.2l-0.93-0.2l-0.33,0.2l-1,0.07l-0.4,0.2l-0.33-0.27l-0.33-0.66
			l-0.33-0.2l-0.07,0.33l0.27,0.27l-0.07,0.27l-1.39,0.13l-0.33-0.13l-0.4-0.6l-0.33-0.13l-0.07,0.27l0.2,0.33l-0.13,0.27
			l-2.12-0.13l-0.2-0.73l-0.8,0.13l-0.27-0.07l-0.07-0.4l-0.33,0.07l-0.13,0.27l0.2,0.27l0.33,0.13l0.2,0.27l-0.8,0.27h-0.46
			l-0.86-0.27l-0.2-0.27l-1.59,0.4l-1.46,1.06l0.07-0.4l-0.4-0.66l-0.66-0.4l0.13-0.86l0.2-0.27l-0.2-0.4l-0.86-0.93l-0.27,0.13
			l0.46,0.46v0.4l0.4,0.13l-0.27,1.2l-0.6,0.13v0.46l0.27,0.13l0.73-0.13l0.33,0.13l-0.46,1.26l-0.33-0.13l-0.13-0.27l-0.4,0.4
			l0.66,0.27l0.2,0.33v0.46h-0.4l-0.46-0.46l-0.33,0.13l-0.13,0.2l0.46,0.6l0.27,0.8l-0.66-0.2l-0.46,0.07l0.6,0.53l0.13,0.46
			l0.73-0.4l0.46,0.6l1.33,1.13l0.2,0.86l0.33-0.2l0.13-0.4l0.33,0.2l-0.07,0.4l-0.4,0.73l0.66,0.46l0.07,0.4l0.53-0.6l-0.73-0.53
			l0.46-0.73l0.4-0.27l0.2,0.66l0.33-0.27l1.53-0.27h1.33l-0.2,0.33l0.2,0.8l0.8-0.6l0.07-0.4l0.46,0.13l0.66-0.4l0.86,0.86
			l0.33,0.13l0.13-0.4l-0.46-0.6l1.86,0.27v-0.33l0.4,0.07l0.8,0.66l0.13-0.27l-0.13-0.46h0.46l0.53,0.33l0.13,0.4h0.73l0.13-0.66
			l0.8-0.07l0.4,0.93l1.2-0.86l0.27,0.2l0.07,0.4l0.2,0.2l0.73-0.8l0.33-0.2l0.27,0.13l0.13,0.33l0.73-0.27v0.53l0.27,0.27l0.33-0.2
			l0.13-0.46l0.8,0.33l0.33-0.07l0.2-0.4l0.46,0.2l0.66-0.4l1.13,0.4l0.6-0.27l0.66,0.33h0.53l-0.07,0.33l-0.4,0.6l0.13,0.33
			l0.53-0.46l0.2-0.66l0.46,0.6l0.4,1.13l-0.2,0.8l-0.2,0.27l0.2,0.4l0.66,0.46l-0.46,0.73l0.2,0.4l-0.13,1.06l0.27,0.66l-0.13,0.73
			l-0.2,0.27l0.33,0.8l-0.13,0.4l-0.46,0.13l0.13,0.33h0.4l-0.07,0.4l0.13,0.6l-0.33,0.53l0.13,0.46l-0.4,0.6l-0.6,0.46l-0.73,0.33
			l-0.86,0.2h-0.86l-1.33-0.27l-0.4,0.2l-0.86,0.13l-2.06-0.13l-0.6,0.33l-0.66-0.33l-1.26-0.27l-0.86,0.2l-0.33,0.27l-0.73-0.27
			h-0.8l-1.26,0.27l-0.07-0.46l-0.53-0.66l-0.4,0.13l0.07,0.46l0.2,0.27l-0.66,0.13l-3.19-0.13l-0.66,0.27l-1.26-0.13l-0.33,0.13
			l-0.8-0.27l-0.8-0.07l-2.52,0.27l-1.53-0.07l-0.4-0.13l-0.33,0.2l-0.86,0.07l-1.13-0.13l-0.27,0.13l-0.2-0.53l-0.66,0.53h-0.46
			l-0.6-0.27l-0.86,0.2l-0.4-0.2l-0.6,0.27l-0.86-0.2l-1.06,0.33l-1.39-0.53l-1.33,0.13l-0.66-0.33l-0.46-0.53l-0.33-0.73l0.33-0.2
			l0.53-0.07l0.2-0.33l-1.06-0.27l0.2-0.33l0.13-0.73l-0.46-1.99v-0.4l0.4-0.46l-0.4-0.73l0.13-0.66l-0.13-2.39l0.27-1.26l-0.4-0.73
			l0.33-0.2l0.07-0.73l-0.2-1.2l0.2-0.33l-0.2-0.33v-1.46l0.2-0.73l0.07-1.26l-0.33-0.86l0.33-0.2l0.4-0.66l-0.73-0.13v-0.46l0.46-1
			v-0.46l-0.33-0.6l0.07-1.66l-0.13-2.39l0.2-1.13l-0.27-1.66l0.27-1.13l-0.2-0.4l-0.07-2.66l0.2-0.33l0.07-0.73l-0.27-1.33
			l0.4-0.13l0.33,0.07l0.4-0.13l-0.27-0.4l-0.73-0.46l-0.07-2.59l-0.2-0.73l0.4-0.6l-0.27-0.73l0.07-0.93l0.2-0.33l-0.27-1.46
			l0.4-2.32l-0.2-0.27l-0.07-0.8l0.27-0.66l-0.2-0.66v-0.86l0.46-1.2l0.53-0.46l5.44-0.2l3.52,0.33l0.6-0.4l0.66,0.13l3.12-0.07
			l1.73,0.13l0.8,0.2l1.53-0.33l0.66,0.13l0.33,0.2l0.4-0.27l0.73,0.27l0.8-0.2h2.32l0.8,0.2l1.33-0.4l2.32,0.2l0.66-0.2l0.2,0.2
			l0.73,0.07l0.27,0.33l0.4,0.2l0.2-0.66l0.8-0.13l1.59,0.27l2.06-0.27l0.73,0.4l0.4,0.07l1.46-0.46l0.4,0.46l0.07,0.4h0.53
			l0.33-0.2l0.46,0.66l0.66,0.4l-0.07,0.46l0.13,1.66l-0.33,0.73l0.27,0.6l-0.27,0.73l0.27,0.8l-0.13,1.66l-0.27,0.73l0.6,1.13
			l-0.53,1.86l-0.4,0.66l-0.66,0.4v-0.6l-0.2,0.73l-0.4,0.13l-0.93-0.07l-0.27-0.2l-0.6,0.27l-1.66,0.13l-1.59-0.27l-0.73,0.33
			l-2.99-0.2l-0.4-0.13l-0.4,0.07l-0.27,0.27l-0.73-0.33l-1.73,0.07l-0.73-0.2l-0.6,0.27l-0.86-0.2l-1.66,0.2l-0.8-0.07l-0.33-0.2
			l-0.73,0.33h-0.46l-0.8-0.33l-0.33-0.27l-0.33,0.2l-1.59,0.07l-0.33,0.27l-0.2-0.86h-0.53l0.13,0.73l-0.33-0.13l-0.8,0.6h-0.46
			l-0.13,0.46l-0.73,1l0.27,0.46l-0.13,0.8l0.13,0.33l-0.07,0.4l-0.46,0.46l-0.07,0.4l0.2,0.33l0.4,0.13v0.4l0.33,0.73l1,1.06
			l0.6,0.13l0.27-0.2l0.93,0.4L559.57,300.62z M544.7,291.79h-0.33l0.13,0.2L544.7,291.79z M544.7,296.71l0.73,0.13l-0.07-0.4
			l-0.2-0.27l-0.33-0.07l-0.07,0.27L544.7,296.71z M544.96,289.34h0.27l-0.13-0.2l-0.27,0.13L544.96,289.34z M544.96,313.37h0.4
			l0.27-0.2l0.07-0.4l-0.4-0.07l-0.27,0.2L544.96,313.37z M544.96,315.36l0.33-0.07l0.13-0.33h-0.46V315.36z M545.3,295.11
			l0.53-1.06l-0.6-0.13l-0.2,0.93L545.3,295.11z M545.3,321.47h0.27v-0.2h-0.27V321.47z M545.43,301.35l0.53-0.46l-0.27-0.4
			l-0.33,0.6L545.43,301.35z M545.43,319.75h0.4l-0.07-0.33l-0.2-0.13L545.43,319.75z M545.56,299.16l0.6,0.27l0.13-0.86l-0.33-0.13
			l-0.2,0.4L545.56,299.16z M545.56,305.67l1.13,0.46v-0.46l-0.27-0.33h-0.6L545.56,305.67z M545.83,285.22l0.07-0.33l-0.2-0.2
			l-0.07,0.33L545.83,285.22z M546.09,293.52l-0.07-0.4l-0.33-0.07l0.07,0.4L546.09,293.52z M545.69,309.85v0.2l0.27-0.13l-0.13-0.2
			L545.69,309.85z M545.96,291.59l0.33,0.2h0.53l-0.2-0.4l-0.4-0.13L545.96,291.59z M546.09,303.74l0.46-0.07l0.33-0.73l-0.4-0.13
			l-0.33,0.2l-0.2,0.33L546.09,303.74z M545.96,312.18h0.2v-0.27h-0.2V312.18z M546.09,324.33l0.27-0.13l0.07-0.33l-0.27-0.2
			l-0.07,0.27V324.33z M546.29,290.13l0.53,0.07l-0.2-0.27v-0.73l0.2-0.33h-0.53l-0.07,0.46l0.13,0.33L546.29,290.13z
			 M546.42,284.09h0.27v-0.27h-0.27V284.09z M546.42,304.54h0.4v-0.33h-0.27L546.42,304.54z M547.16,322.47l-0.33-0.53l-0.4-0.07
			l0.33,0.66L547.16,322.47z M546.56,314.97h0.46l0.6-0.46l0.4-0.13l-0.07-0.8l-0.27-0.2l-1.06,1.2L546.56,314.97z M547.02,308.39
			l0.13-0.73l-0.33-0.13l-0.2,0.33l0.07,0.33L547.02,308.39z M547.02,293.05l-0.2,0.66l0.07,0.33h0.46l0.33,0.13l0.33-0.07
			l0.13-0.86l-0.13-0.33l-0.6,0.13H547.02z M546.89,308.99h0.27l-0.13-0.27l-0.2,0.13L546.89,308.99z M546.89,295.71l0.07,0.33
			l0.73,0.07l-0.27-0.6l-0.2,0.2H546.89z M547.16,302.35l0.2-1.39l-0.2-0.33l-0.27,0.13l0.13,0.53l-0.13,0.73L547.16,302.35z
			 M547.29,310.05v-0.33h-0.4l0.07,0.27L547.29,310.05z M547.02,326.12l0.27,0.2l0.2,0.4l0.27,0.2l0.27-0.27l-0.33-0.2l-0.13-0.33
			l0.13-0.46l-0.53-0.13l-0.07,0.27L547.02,326.12z M547.29,318.82l1.2-0.66l-0.07-0.33l-0.46,0.07l-0.33,0.27l-0.13,0.33
			L547.29,318.82z M548.42,299.03l0.2-0.2l-0.27-0.4l-0.66-0.6l-0.07,0.33l0.13,0.46l0.27,0.27L548.42,299.03z M547.75,305.27
			l0.13-0.33l-0.2-0.27l-0.07,0.4L547.75,305.27z M548.02,307.53l-0.13-0.53l-0.07,0.33L548.02,307.53z M547.89,291.46l0.73,0.27
			l0.27-0.4l-0.46-0.66l-0.4-0.2l-0.13,0.27V291.46z M547.89,292.59h0.4l-0.4-0.27V292.59z M548.48,317.55v-0.8l-0.2-0.27l-0.4,0.07
			l0.27,0.8L548.48,317.55z M548.28,325.19l-0.13-0.27l-0.27-0.13l0.07,0.33L548.28,325.19z M548.02,302.35v0.4l0.2,0.27l0.27,0.07
			l0.53-0.86h-0.66L548.02,302.35z M548.15,305.94l0.53-0.33l0.33-0.07l0.73,0.53l0.46-0.53l-0.73-0.2h-0.66l-0.4-0.13l-0.13,0.4
			L548.15,305.94z M548.48,323.33v-0.4l-0.33-0.07l0.07,0.33L548.48,323.33z M548.28,289.47l0.66,0.13l0.2-0.27l-0.66-0.13
			L548.28,289.47z M548.42,307.53l0.33-0.2l0.53-0.07l0.13-1l-0.13-0.2l-0.86,0.8l-0.13,0.33L548.42,307.53z M548.42,294.65v0.46
			l0.33,0.66l0.27,0.2l0.73-1.13v-0.46l-0.93,0.27H548.42z M548.42,308.99l0.13,0.46l0.33,0.4l0.33,0.13l0.07-0.53l-0.4-0.2l0.6-0.4
			v-0.46h-0.6l-0.13,0.4L548.42,308.99z M548.48,292.46l0.2,0.33l0.66,0.13l-0.13-0.4l-0.33-0.2L548.48,292.46z M549.15,313.9
			l0.66-0.27l0.2-0.27l-0.27-0.2l-0.86,0.2l-0.27-0.33l0.13,0.33l0.27,0.2L549.15,313.9z M548.75,301.62l0.33-0.13l0.07-0.4
			l-0.27-0.2l-0.2,0.33L548.75,301.62z M549.35,320.01l-0.53,0.66v0.33l0.33,0.27l0.2-0.8l0.27-0.2l0.73,0.27l0.8-0.13l0.46-0.53
			l-0.53-0.2l-0.13,0.33l-0.33,0.13l-0.8-0.13H549.35z M550.87,299.3l-0.6-0.4l-0.4-0.07l-0.66,0.53l-0.2,0.33l0.86,0.13l0.46-0.07
			l0.6-0.33l1.13-0.27l0.27-0.27l-0.27-0.4l-0.33-0.07l-0.66,0.53L550.87,299.3z M549.15,325.06l-0.07,0.4l0.2,0.66l0.33,0.07
			l0.6-0.4l-0.2-0.33v-0.53l-0.13-0.4l-0.33,0.33L549.15,325.06z M549.15,311.78l0.46,0.66l0.4,0.2l-0.13-1.13l0.13-0.33l-0.73,0.27
			L549.15,311.78z M549.15,326.85l0.46,0.13v-0.46l-0.33,0.13L549.15,326.85z M549.35,303.94l0.93,0.13l-0.07-0.6l-0.46,0.2
			L549.35,303.94z M549.35,317.09h0.4v-0.4h-0.27L549.35,317.09z M549.88,293.52v-0.33l-0.4,0.13L549.88,293.52z M549.48,318.42
			l0.4,0.07l0.33-0.33l0.13-0.46l-0.4-0.07l-0.33,0.33L549.48,318.42z M549.48,319.68l0.33-0.27l-0.2-0.27L549.48,319.68z
			 M550.34,297.7v-0.46l-0.46-0.13l-0.27,0.2l0.27,0.46L550.34,297.7z M549.88,316.69l0.8,0.27l0.33,0.27l0.13,0.33l-0.07,0.4h0.33
			l0.66-0.27l0.07-0.33l0.4-0.27l0.27-0.4l-0.66-0.07l-1.2,0.2l-0.6-1.06l-0.27-0.2l-0.46-0.07l0.07,0.46l0.27,0.33L549.88,316.69z
			 M549.74,302.95h0.46l-0.07-0.33l-0.4-0.13V302.95z M549.88,290l0.86,0.13l0.33-0.27l-0.27-0.27l-0.4-0.13l-0.33,0.13L549.88,290z
			 M550.08,314.5h0.46l0.66-0.27l-0.07-0.4l-0.27-0.07l-0.2,0.33l-0.33,0.13L550.08,314.5z M550.08,324.46l0.27-0.07l0.13-0.33h-0.4
			V324.46z M550.08,329.57l0.53-0.13l-0.2-0.33l-0.33,0.07V329.57z M550.74,284.69l-0.13-0.33h-0.4l0.13,0.4L550.74,284.69z
			 M550.21,291.06l0.86-0.13l-0.2-0.33l-0.33-0.07l-0.27,0.13L550.21,291.06z M550.21,322.34l0.2,0.27v0.46l0.33,0.13l0.27-0.27
			l0.33-0.86l-0.4-0.07l-0.4,0.13L550.21,322.34z M550.48,294.05l-0.13,0.2l0.4,0.07l0.2,0.66l0.86-0.07v-0.4l-0.2-0.27v-0.33
			l0.33-0.07l0.13-0.33l-0.33-0.27l-0.33,0.07l-0.66,0.53L550.48,294.05z M550.34,296.71l1.06-0.4l0.2-0.33l-1-0.27l-0.2,0.66
			L550.34,296.71z M550.48,310.92h0.27l-0.13-0.2l-0.27,0.13L550.48,310.92z M550.61,305.4l0.27-0.2l0.07-0.4l-0.33,0.13l-0.2,0.27
			L550.61,305.4z M551.07,289v-0.66l-0.33-0.2l0.07,0.73L551.07,289z M551.21,300.76v-0.73h-0.33l-0.13,0.33l0.07,0.33
			L551.21,300.76z M550.74,313.5l0.6-0.13l-0.07-0.73l-0.33-0.13l-0.2,0.6V313.5z M550.74,321.34l0.4-0.07l0.13-0.33l-0.2-0.2
			l-0.2,0.33L550.74,321.34z M550.94,292.59l0.53-0.07l0.33-0.2v-0.46l-0.33-0.53l-0.46,0.53l-0.13,0.33L550.94,292.59z
			 M550.87,304.21l0.4-0.07l0.2-0.33l-0.53-0.07L550.87,304.21z M550.87,308.86l0.27-0.13l0.07-0.33l-0.33,0.07V308.86z
			 M551.21,326.78l-0.33,0.2l1-0.07l0.66-0.86l-0.8,0.2L551.21,326.78z M550.94,324.06l0.4,0.66l0.2,0.66l-0.07,0.33l-0.27,0.33
			h0.27l0.4-0.66l0.33-0.13l-0.2-0.4l-0.07-0.8l-0.66-0.07L550.94,324.06z M551.21,319.28l0.46,0.27l0.13-1.33l-0.13-0.2l-0.4,0.8
			L551.21,319.28z M552.2,298.1l0.13-0.86h-0.73v0.4l0.27,0.27L552.2,298.1z M551.94,291.33l0.13-0.46h-0.4l0.07,0.33L551.94,291.33
			z M552.53,303.21l0.07-0.46l-0.27-1.26l-0.27-0.33l-0.27,0.73l0.2,0.93l0.2,0.27L552.53,303.21z M551.94,307.53v0.2l0.27-0.13
			l-0.13-0.2L551.94,307.53z M552.07,314.5h0.27l0.13-0.6h-0.4l-0.13,0.33L552.07,314.5z M552.07,323.6h0.46l1.13,0.53l0.46-0.07
			l-0.27-0.33l0.07-0.66l-0.33,0.2h-1.26L552.07,323.6z M552.47,308.59l-0.33,0.4l0.2,0.73l0.27-0.27l0.46-0.13l0.07,0.4l0.2,0.2
			l0.46,0.07l-0.13-0.4l-0.86-0.8L552.47,308.59z M552.2,310.45l0.33,0.4l0.13-0.4H552.2z M552.2,315.7l0.4-0.13l0.33-0.8h-0.46
			l-0.2,0.46L552.2,315.7z M552.2,320.48l0.6,0.13l-0.13-0.4l-0.33-0.2L552.2,320.48z M552.2,321.27v0.8l0.73,0.13l0.27-0.13
			l-0.13-0.27l0.2-0.33v-0.33l-0.33-0.2l-0.33,0.13L552.2,321.27z M553.26,289l-0.73-0.2l-0.2,0.33l0.33,0.13l0.4,0.73l0.07-0.4
			l0.2-0.27L553.26,289z M552.33,293.65l1.2,0.27l0.27,0.2l-0.4,0.53l0.4-0.07l0.6,0.4l0.4-0.07l-0.53-1.06v-0.46l-0.46,0.07
			l-0.33-0.2l-0.4-0.6l-0.46,0.66L552.33,293.65z M552.33,296.51l0.66-0.2l0.07-0.33l-0.6,0.2L552.33,296.51z M553.06,301.02
			l-0.07-0.46l-0.27-0.2l-0.4-0.07l0.07,0.53l0.27,0.2H553.06z M552.33,311.58l0.07,0.33l0.2,0.13l0.33-0.13l0.27,0.86l-0.27,0.13
			h-0.4l0.13,0.4l0.53,0.6l0.66-1.46l0.07-0.73l-0.53-0.53l-0.13,0.4l-0.6,0.13L552.33,311.58z M552.53,291.33l0.27,0.4l0.46,0.07
			l-0.07-0.4l-0.27-0.2L552.53,291.33z M552.53,319.28l0.2,0.4l0.27,0.13l0.33-0.07l0.2-0.33l-0.66-0.33L552.53,319.28z
			 M552.93,297.7l0.33-0.27h-0.2L552.93,297.7z M553.2,306.8l0.07-0.46l-0.33-0.27v0.46L553.2,306.8z M552.93,311.05l0.46-0.2h-0.33
			L552.93,311.05z M553.66,286.08l-0.6-0.13l0.27,0.33L553.66,286.08z M553.26,314.63v-0.33l-0.2-0.2v0.4L553.26,314.63z
			 M553.79,318.15l-0.33-0.46l-0.4-0.13v0.4l0.27,0.33l0.33,0.07L553.79,318.15z M553.2,299.16l0.4,0.46l-0.07,0.4l0.73,0.33
			l0.66-0.27l0.2-0.33l-0.46-0.07l-1.13-0.53H553.2z M553.2,302.02l0.27,0.73l0.66,0.4l0.4-0.07l-0.33-0.66l0.07-0.53h-0.8
			L553.2,302.02z M553.4,325.52l0.4-0.07l0.07-0.27l-0.33-0.13L553.4,325.52z M554.66,322.87l-0.33-0.66l-0.33-0.13h-0.46l0.07,0.4
			l0.27,0.33l0.4,0.2L554.66,322.87z M553.66,290.86l0.86-0.13l-0.13-0.73l-0.46,0.13l-0.2,0.33L553.66,290.86z M553.79,306.53
			l0.4,2.12l0.2,0.27l0.27,0.07l-0.33-0.73l0.27-0.13l0.2-0.4l-0.53-0.6l0.27-0.27l0.33,0.13h0.8l0.07,0.4l0.27,0.27l0.2-0.33
			l0.07-0.86l-0.13-0.33l-2.06,0.2L553.79,306.53z M554.06,328.44l0.4,0.07l0.33-0.13l-0.07-0.4l-0.93-0.33L554.06,328.44z
			 M553.93,321.27l0.4,0.07l0.66-0.33l-0.13-0.33l-0.27-0.13l-0.33,0.07l-0.27,0.27L553.93,321.27z M554.06,287.74l0.2,0.27
			l0.4,0.13l-0.2-0.46L554.06,287.74z M554.26,289.47l0.27-0.46h-0.46L554.26,289.47z M554.06,313.24l0.33,0.13l0.27-0.2l-0.4-0.13
			L554.06,313.24z M554.06,330.04h0.33l-0.33-0.2V330.04z M554.39,293.32l0.2-0.27l0.8,0.13l0.46-0.53l-0.13-0.33l-0.33,0.07
			l-0.27,0.27l-0.27-0.27l-0.46-0.2l-0.07,0.86L554.39,293.32z M554.39,287.15l0.33,0.2l0.46-0.07l0.33-0.27l-1-0.33L554.39,287.15z
			 M555.26,304.21l-0.86,0.27l0.2,0.27l0.8-0.07v-0.4l0.6-0.93l-0.33-0.4l-0.4,0.73V304.21z M554.66,294.12h0.33l-0.2-0.46
			L554.66,294.12z M554.66,318.29l0.13,0.33l0.46,0.07l-0.13-0.53L554.66,318.29z M554.79,321.87h0.2l-0.13-0.27l-0.2,0.13
			L554.79,321.87z M554.79,327.12h0.8v0.07l0.13,0.46l0.66-0.13l0.33-0.66l-0.33-0.27h-0.33l-0.33,0.2l-0.07,0.2l-0.66-0.33
			L554.79,327.12z M554.99,290.73l0.27,0.73l-0.27,0.73l0.33-0.13l0.4-0.46l-0.2-0.4l0.2-1.06l-0.33-0.13l-0.2,0.33L554.99,290.73z
			 M554.99,296.84v0.27l0.4,0.13l-0.13-0.53L554.99,296.84z M555.12,308.59l1-0.2l-0.13-0.46l-0.33-0.13l-0.4,0.07l-0.27,0.33
			L555.12,308.59z M555.12,325.66l0.6-0.13l-0.2-1l-0.27,0.13l-0.27,0.66L555.12,325.66z M555.72,320.74l-0.46,0.13l-0.13,0.46
			l0.46,0.07l0.2-0.27L555.72,320.74z M555.26,305.4l0.6,0.13l-0.07-0.33l-0.53-0.4V305.4z M555.26,329.57l0.46-0.2l0.86,0.07
			l-0.13-0.46l-0.27-0.07l-0.73,0.4L555.26,329.57z M555.39,301.29l0.53-0.07l0.66-0.46l-0.4-0.13l-0.73,0.27L555.39,301.29z
			 M555.72,314.1h0.4l0.13,0.4l-0.07,0.86l-0.33,1.13l-0.27-0.2l-0.13-0.33l0.33-1.46L555.72,314.1z M555.99,323.07l0.13-0.33
			l-0.2-0.2l-0.4-0.07l0.07,0.46L555.99,323.07z M555.52,324.06l0.4-0.2l0.13-0.33l-0.2-0.33l-0.2,0.4L555.52,324.06z
			 M555.59,327.12l0.07-0.13l0.27,0.13H555.59z M555.65,289.6l0.2,0.27l0.53,0.07l0.33-0.2l-0.33-0.4l-0.4,0.07L555.65,289.6z
			 M555.85,301.89l-0.2,0.73l0.73,0.07l-0.13,0.27l0.46,0.13l-0.27-1l0.6-0.4l0.2-0.33l-0.27-0.2l-0.27,0.13v0.33l-0.33,0.33
			L555.85,301.89z M555.65,309.12v0.2l0.33,0.13l-0.13-0.46L555.65,309.12z M556.38,321.87l-0.07-0.33l-0.66-0.07l0.07,0.33
			l0.33,0.2L556.38,321.87z M555.85,293.78h0.27v-0.27h-0.27V293.78z M555.85,310.18h0.4l-0.07-0.33l-0.2-0.13L555.85,310.18z
			 M556.12,285.68l0.27-0.27l-0.4-0.2l-0.07,0.27L556.12,285.68z M557.11,320.41l-1-0.66l0.07,0.4l0.27,0.27l0.33,0.07
			L557.11,320.41z M556.38,309.12l0.6,0.13l-0.07-0.33l-0.33-0.07L556.38,309.12z M556.45,286.15l0.33,0.27l0.33-0.13l-0.33-0.33
			L556.45,286.15z M556.58,300.49l0.13-0.33l-0.27-0.27l0.07,0.4L556.58,300.49z M556.45,311.65l0.4,0.27l0.07-0.4l-0.33-0.33
			L556.45,311.65z M556.45,323.93l0.07,0.46l0.27,0.27l0.4,0.07l0.8-0.2l0.2-0.27v-0.33l-0.33,0.07l-0.93-0.2L556.45,323.93z
			 M556.58,326.25l0.33-0.07l0.2-0.27l-0.2-0.2l-0.33-0.07l-0.13,0.33L556.58,326.25z M556.58,291.79l0.33,0.53l0.33,0.13l0.73-1.13
			l-0.8,0.13l-0.27,0.2L556.58,291.79z M556.72,303.74l0.27,0.33v0.93l0.33,0.27l-0.6,0.2l-0.13,0.33l0.73,0.6l0.27-0.4l0.07-0.4
			l-0.2-0.4h0.4l0.2,0.2l0.07-0.33l-0.4-0.6l0.13-0.4l-0.86-0.73L556.72,303.74z M556.72,284.69l0.4,0.2l0.46-0.2l-0.07-0.33
			l-0.27-0.13h-0.4L556.72,284.69z M556.85,307.99l0.33-0.07l0.07-0.4h-0.4V307.99z M556.85,322.34l0.33-0.2l0.13-0.4l-0.07-0.86
			l-0.2,0.2l-0.2,0.8V322.34z M559.64,301.89l-0.13,0.33l-0.33,0.13l-1.93-0.33l-0.13,0.33l0.73,0.4l-0.27,0.2l0.27,0.13l0.27-0.07
			l0.2,0.33l1-0.27l-0.07,0.46l0.2,0.2v-0.8l1.53-0.8l0.27-0.27l-0.4-0.07l-0.73,0.13L559.64,301.89z M557.25,310.18l0.4,0.07
			l0.93,0.66l0.07-0.4l-0.4-0.6l-0.8-0.33l-0.07,0.33L557.25,310.18z M557.31,289.47l0.4-0.27l0.8-0.13l0.4-0.2l-0.4-0.07l-0.6-0.33
			l-0.46-0.07l-0.07,0.73L557.31,289.47z M557.98,291.2l-0.33-0.6l-0.33-0.13v0.33l0.27,0.27L557.98,291.2z M557.58,282.63
			l0.27,0.13l0.13-0.27l-0.27-0.13L557.58,282.63z M557.58,321.87l0.4,0.6l0.07,0.73l0.73,0.33l0.07,0.27l0.73-0.13v0.53l0.27-0.27
			v-0.4l-0.66-1.66l-0.73,0.33l-0.53-0.46L557.58,321.87z M558.04,306.86v-0.33h-0.33L558.04,306.86z M557.85,328.84l0.4-0.2
			l0.13-0.33l-0.2-0.33l-0.46,0.53L557.85,328.84z M557.85,308.52l0.33-0.4h-0.4L557.85,308.52z M557.85,287.15l0.4-0.07l0.07-0.4
			l-0.33-0.13l-0.13,0.27V287.15z M559.17,306.13l-0.46-0.33l0.2,0.73l-0.86,0.73l0.4,0.2l0.73-0.33l0.6,0.33l1.13-0.2l-0.46-0.73
			l0.2-0.33l-0.33-0.8l-0.73,0.53L559.17,306.13z M558.71,327.38l-0.27-1l0.6-0.4l0.13-0.33l-0.8,0.27l-0.33,0.66v0.4l0.27,0.27
			L558.71,327.38z M558.58,301.89l0.27-0.6l-0.4-0.13l-0.2,0.4L558.58,301.89z M558.31,290.86l0.2,0.4l0.4,0.2l0.27-0.6l-0.4-0.13
			L558.31,290.86z M558.71,284.95l0.13-0.6h-0.4v0.4L558.71,284.95z M558.71,304.47l0.27-0.2l-0.27-0.2V304.47z M558.91,310.05
			l1.26,0.27v-0.46l-0.46-0.13l-0.27-0.73l-0.27-0.27l-0.13,0.33v0.66L558.91,310.05z M559.31,288.01v0.73l0.4-0.07l0.33-0.8h-0.46
			L559.31,288.01z M559.44,325.92l0.13-0.27h0.33l-0.07-0.46l-0.27-0.13l-0.2,0.46L559.44,325.92z M560.5,311.91l-0.2-0.4
			l-0.33-0.27l-0.07,0.07l0.2,0.4L560.5,311.91z M560.43,286.55l0.33-0.33l0.13-0.4l-0.33-0.2l-0.33,0.13l-0.2,0.33l0.07,0.27
			L560.43,286.55z M560.17,309.32h0.33v-0.33h-0.2L560.17,309.32z M560.5,305.21l0.53-0.27l-0.33-0.73l-0.27-0.27l-0.13,0.4
			l0.13,0.4L560.5,305.21z M560.5,310.18l0.33,0.2l0.33-0.07l-0.13-0.33h-0.33L560.5,310.18z M560.63,324.79l0.53,0.13l0.07-0.4
			l-0.46-0.07L560.63,324.79z M561.03,290.2l-0.27,0.13h0.46l-0.07-0.33l-0.27-0.13L561.03,290.2z M561.16,303.94l-0.13-1.06
			l-0.27,0.4v0.33L561.16,303.94z M560.77,308.52l0.27,0.6l0.33,0.13v-0.46l-0.2-0.4L560.77,308.52z M561.16,323.2l-0.07-0.4
			l-0.2-0.2l0.07,0.33L561.16,323.2z M561.03,329.84l0.33-0.13v-0.27l-0.33-0.13V329.84z M561.5,289.14l-0.07-0.4l-0.2-0.2
			l-0.07,0.4L561.5,289.14z M561.76,320.14l-0.6-0.4l0.07,0.53l0.27,0.13L561.76,320.14z M561.23,326.98l0.4,0.4l0.73-0.33
			l0.27-0.27l-0.33-0.27h-0.4l-0.4,0.2L561.23,326.98z M561.76,301.35l0.13-0.27l-0.13-0.27l-0.4-0.07l0.07,0.4L561.76,301.35z
			 M562.76,305.54l-0.2-0.4l-0.33-0.2l-0.46,1.06l-0.4,0.13l0.2,0.33v1.39l0.2,0.33l0.33,0.2l0.07-0.4l-0.27-0.73l0.6-1.46
			l0.46,0.13l1,0.73l0.27-0.6l-0.33-0.33l-0.2-0.93l-0.53,0.6L562.76,305.54z M561.5,323.8l0.33,0.13l0.2-0.33h-0.4L561.5,323.8z
			 M561.9,292.32l0.2-0.53l-0.33,0.2L561.9,292.32z M561.9,321.34l0.66,0.07l0.2-0.27l-0.86-0.27V321.34z M562.36,303.74h0.4
			l-0.13-0.86l0.6,0.07l-0.53-0.6l-0.46-0.13l-0.2,0.8l0.07,0.4L562.36,303.74z M562.36,289.73l0.27,0.2l0.4,0.07l0.4-0.13
			l0.27-0.27l-0.2-0.4l-0.33-0.27l-0.66,0.27L562.36,289.73z M563.36,309.59l-0.13-0.73l-0.27-0.13l-0.2,0.4v0.33l0.13,0.2
			L563.36,309.59z M562.76,310.72h0.2l0.13-0.4h-0.33V310.72z M563.36,321.74l-0.2-0.4l-0.4,0.13l0.2,0.2L563.36,321.74z
			 M563.62,288.54l0.13-0.33l-0.27-1.53l0.27-0.27l0.07-0.33h-0.46l-0.27,1.39l0.2,0.73L563.62,288.54z M563.22,308.52l0.4-0.33
			l0.8,0.33l0.13-0.27v-0.4h-1.2L563.22,308.52z M563.62,328.24l-0.13-0.27l-0.27-0.13l0.07,0.33L563.62,328.24z M563.82,326.12
			l-0.13-0.33l-0.33-0.13l0.13,0.53L563.82,326.12z M564.09,311.91l-0.46-0.13l0.2,0.27L564.09,311.91z M563.62,323.8l0.2,0.33
			l0.53,0.07l-0.07-0.4l-0.33-0.13L563.62,323.8z M564.42,285.22l0.53-0.13l-0.33-0.66l-0.27-0.2l-0.13,0.33l0.07,0.33
			L564.42,285.22z M564.22,304.47l0.33,0.07l0.2,0.27l0.33,0.13l-0.13-0.73l0.33-0.2l0.27,0.07l-0.27,0.6l0.73,0.86l0.53-1
			l-0.27-0.2v-0.6l-0.33,0.2l-0.66-0.6l-0.33,0.2l-0.73-0.2V304.47z M564.22,330.3l0.27,0.13l0.33-0.13l-0.27-0.33L564.22,330.3z
			 M564.42,309.32l0.07,0.86l-0.13,0.4l0.46,0.27v-1.66l0.27-0.33l-0.4,0.07l-0.07,0.33L564.42,309.32z M564.55,302.75l0.53,0.33
			l0.33-0.2l0.13-0.4l-0.33-0.13l-0.4,0.13L564.55,302.75z M564.82,306.67l0.46,0.66l0.13,0.4l0.13-0.73l0.27-0.33l-0.66-0.13
			L564.82,306.67z M565.55,288.27l0.2-0.86l-0.13-0.4l-0.33-0.2l-0.13,0.93l0.07,0.33L565.55,288.27z M565.41,327.12h0.27v-0.27
			h-0.27V327.12z M566.14,311.58l0.46-0.07l0.13-0.27l-0.07-0.33h-0.53V311.58z M566.28,289.27h0.53l0.2-0.73l-0.2-0.13l-0.4,0.46
			L566.28,289.27z M566.41,309.85l0.4-0.13l0.2-0.86l-0.27-0.27l-0.46-0.07l0.13,0.86V309.85z M566.28,319.68l0.53-0.27h-0.4
			L566.28,319.68z M566.41,302.08l0.27,0.13l0.2-0.13l-0.27-0.2L566.41,302.08z M567.27,283.83l-0.13-0.33l-0.6-0.27l0.13,0.46
			l0.27,0.2L567.27,283.83z M567.01,286.55l0.33,0.13l0.27-0.13l-0.13-0.33l-0.33-0.13L567.01,286.55z M567.27,285.42h0.27
			l-0.13-0.2l-0.27,0.13L567.27,285.42z M567.14,288.27l0.4-0.07l0.07-0.33l-0.33-0.13L567.14,288.27z M567.14,306.07h0.46l0.33-0.2
			l0.07-0.46l-0.73,0.27L567.14,306.07z M568,304.54l0.2-0.33l0.07-0.46l-0.73-0.13l0.2,0.73L568,304.54z M567.54,310.18l1.06,0.13
			l0.13-0.33l-0.07-0.4l-0.2-0.27l-0.07,0.4l-0.66,0.27L567.54,310.18z M567.61,288.87v0.33l0.66,0.33l0.33-0.07l-0.07-0.33
			l-0.6-0.4L567.61,288.87z M567.74,284.69h0.4l-0.07-0.33l-0.33-0.13V284.69z M567.87,290.73h0.4v-0.4h-0.4V290.73z M568.14,307.73
			v0.53l0.46,0.6l-0.13,0.27l0.27,0.13l0.4-1.39l-0.33-0.2h-0.33L568.14,307.73z M568.73,303.08l0.13-0.33l-0.6-0.13l0.13,0.33
			L568.73,303.08z M568.87,301.29l-0.13-0.33l-0.27,0.07L568.87,301.29z M569.33,285.42l-0.13,0.46l0.27,0.2l0.27-1.13l-0.73-0.13
			l0.07,0.4L569.33,285.42z M569,304.94l0.46,0.66l0.53,0.07l0.13-0.66l-0.13-0.33l-0.73,0.13L569,304.94z M569.46,312.31l0.13-0.53
			l-0.6-0.2l0.13,0.46L569.46,312.31z M569,327.38h0.33v-0.4h-0.2L569,327.38z M569.13,307.26l0.33-0.07l0.13-0.33l-0.4-0.07
			L569.13,307.26z M569.6,288.61h0.27l-0.13-0.2l-0.27,0.13L569.6,288.61z M569.6,302.75l0.27,0.8l0.2,0.27l0.4,0.13l0.13-1.53
			l-0.13-0.2l-0.13,0.33l-0.33,0.13L569.6,302.75z M569.6,309.45l0.46-0.07l0.13-0.27l-0.46-0.13L569.6,309.45z M570,311.45
			l-0.07-0.4l-0.33-0.13l0.13,0.33L570,311.45z M570.19,289.73l0.27-0.27l-0.2-0.4l-0.4-0.2l-0.13,0.4l0.13,0.33L570.19,289.73z
			 M569.86,323.66h0.4l0.07-0.33L570,323.2L569.86,323.66z M570.06,288.14l0.4,0.13l0.13-0.4l-0.33-0.07L570.06,288.14z
			 M570.46,327.85l0.6,0.13l0.07-0.27l-0.13-0.33l-0.4-0.13l-0.07,0.27L570.46,327.85z M570.59,287.15l0.4-0.07l0.33-0.6l-0.13-0.33
			l-0.27-0.2l-0.27,0.27l-0.07,0.4V287.15z M570.59,307.53l0.27-0.2l-0.13-0.33L570.59,307.53z M570.59,326.98l0.4-0.07l0.2-0.33
			l0.13-0.93l-0.4-0.13l-0.07,1.13L570.59,326.98z M571.59,284.82l0.13-0.33l-0.2-0.27l-0.33-0.13v0.4L571.59,284.82z
			 M572.32,288.87v-0.4l-0.2-0.33l-0.33-0.13l-0.13,0.33l0.07,0.33l0.2,0.2H572.32z M571.79,308.59h0.27v-0.2h-0.27V308.59z
			 M572.05,302.95h0.27l0.07-0.2l-0.33-0.13V302.95z M572.19,287.54l0.27,0.13l0.27-0.13l0.07-0.4h-0.46L572.19,287.54z
			 M572.19,326.85l0.2,0.33l0.86,0.46l0.73-0.13l-0.66-0.6l-0.27-0.4l-0.53,0.07L572.19,326.85z M572.52,307l0.4-0.13l0.13-0.4
			l-0.2-0.33l-0.46-0.07l-0.13,0.33l0.13,0.33L572.52,307z M572.32,321.14h0.33l-0.33-0.27V321.14z M572.32,324.92h0.33v-0.4h-0.33
			V324.92z M573.05,331.63v-0.27l-0.13,0.07L573.05,331.63z M573.38,283.96l0.53-0.2l-0.13-0.33l-0.27-0.2l-0.2,0.4L573.38,283.96z
			 M573.65,287.88l0.46-0.07l0.13-0.4h-0.33L573.65,287.88z M573.65,307.73l0.27,0.27h0.4l0.4-0.2l0.07-0.4l-0.4-0.13l-0.46,0.13
			L573.65,307.73z M573.98,284.49l0.27,0.13l0.27-0.07l-0.2-0.33L573.98,284.49z M574.38,287.01l0.4-0.2l-0.13-0.33l-0.66-0.2v0.46
			L574.38,287.01z M574.51,319.88l0.13-0.33l-0.27-0.27l-0.13,0.4L574.51,319.88z M574.38,290.47l0.27,0.07l0.2-0.2l-0.27-0.07
			L574.38,290.47z M574.38,330.57l0.46-0.07l0.13-0.33l-0.46-0.13L574.38,330.57z M574.84,306.53v-0.46l-0.33,0.2L574.84,306.53z
			 M574.98,324.46l0.13-0.27v-0.4h-0.46l0.07,0.4L574.98,324.46z M574.98,328.24l0.27,0.27l0.8-0.07l0.33-0.2l-0.33-0.13l-0.66,0.13
			H574.98z M575.71,322.87l-0.2-0.4l-0.4-0.27l-0.07,0.33l0.2,0.27L575.71,322.87z M575.71,302.95l0.07-0.27l-0.27-0.27l-0.4-0.07
			l0.2,0.46L575.71,302.95z M575.71,280.57h0.4l-0.4-0.27V280.57z M576.7,312.04l-0.33-0.6l-0.07,0.27l0.13,0.4L576.7,312.04z
			 M576.37,327.12l0.2,0.33l0.33-0.2l-0.2-0.27L576.37,327.12z M577.17,303.81l0.33-0.07v-0.27l-0.33-0.13V303.81z M577.56,322.07
			v-0.33l-0.27-0.13l0.07,0.33L577.56,322.07z M577.43,284.56l0.27,0.13l0.13-0.2l-0.27-0.13L577.43,284.56z M577.7,286.55
			l0.46-0.13l-0.13-0.33l-0.33-0.13l-0.13,0.33L577.7,286.55z M578.16,324.46v-0.4h-0.33l0.07,0.33L578.16,324.46z M578.16,330.44
			l0.4,0.27l0.13-0.33l-0.07-0.33l-0.33-0.07L578.16,330.44z M578.43,328.58l0.4-0.07l-0.07-0.27h-0.33V328.58z M579.16,320.28h0.4
			l-0.07-0.4l-0.33-0.13V320.28z M580.29,325.26l-0.13-0.27l-0.4-0.07l0.07,0.33H580.29z M580.35,323.33l-0.33-0.13l0.13,0.27
			L580.35,323.33z M581.15,325.92l0.27-0.13l0.07-0.4h-0.33V325.92z"/>
	</g>
	<g>
		<polygon class="st1" points="307.34,544.96 339.79,488.75 307.34,503.85 274.89,488.75 		"/>
		<path class="st2" d="M353.38,473.67l-9.94,4.63c-0.39,2.79-1.08,5.48-2.25,8.03C344.98,481.97,349.1,477.78,353.38,473.67z"/>
		<path class="st2" d="M275.07,489.37c-3.57-4.59-6.84-9.18-9.99-13.94l-9.65-4.49l12.58,21.78l32.45,56.21l6.88,11.91l6.88-11.91
			l32.45-56.21l12.58-21.78l-5.86,2.73c-4.28,4.11-8.4,8.3-12.2,12.66c-0.48,1.04-1.05,2.06-1.71,3.05
			c0.66-0.99,1.22-2.01,1.71-3.05c-0.85,0.97-1.68,1.95-2.49,2.94l1.1-0.51l-32.45,56.21l-32.45-56.21l1.44,0.67
			c-0.61-3.13-1.12-6.29-1.57-9.49l-9.68-4.5C268.24,480.19,271.51,484.78,275.07,489.37z"/>
	</g>
	<g>
		<path class="st2" d="M176.2,231.67h0.84v0.94h-0.84V231.67z M189.02,184.63l1.68-0.63l-0.63,0.94L189.02,184.63z M193.01,354.29
			h0.84v1.25h-0.84V354.29z M201.84,307.25v1.25l-1.05-0.94L201.84,307.25z M215.92,235.12l-0.63,0.94l-1.05-0.62l0.63-0.95
			L215.92,235.12z M218.65,552.16h1.05l-0.63,0.94L218.65,552.16z M356.79,463.25l-1.89,2.2l-1.26-0.32l-1.89-1.88l-0.63-1.26
			l0.21-2.2l2.52-0.94l1.89,1.26l0.63,1.57L356.79,463.25z M219.28,416.06l1.05-0.32l1.05,0.94l-1.05,1.26L219.28,416.06z
			 M221.38,292.19h1.05l-0.42,2.51l-0.63-0.62V292.19z M227.06,412.61l0.42,1.26l-0.84,0.63v-1.26L227.06,412.61z M298.2,509.2
			l0.63,0.95l0.21,1.57l-1.05-0.94L298.2,509.2z M229.16,247.04l0.84,0.94l-0.84,0.94V247.04z M229.16,467.81h1.05v1.57h-1.05
			V467.81z M230.63,367.14h1.05v1.57L230.63,367.14z M231.68,452.12l1.26,2.2l-1.05,0.63l-0.84-0.63L231.68,452.12z M234.2,305.68
			l1.89,0.62l-0.63,1.26h-1.05L234.2,305.68z M236.52,363.37h1.47l-0.42,1.57l-0.84,0.32L236.52,363.37z M240.3,348.96h1.26
			l-0.21,1.88l-1.05,0.63V348.96z M241.56,226.34l0.63,2.2h-1.05L241.56,226.34z M243.03,292.82l0.84,0.63l-0.42,1.25l-0.84-0.62
			L243.03,292.82z M244.92,368.71l1.26-0.31l1.05,1.57v1.57l-1.26-0.32l-0.42-1.25L244.92,368.71z M250.81,199.68l-1.05,0.63
			l-0.42-1.26L250.81,199.68z M249.33,465.29l2.31-0.62v0.31L249.33,465.29z M249.97,346.13h1.26v1.88h-1.26V346.13z M251.86,376.23
			l-0.42,1.57l-1.05,0.63l-0.21-1.57l0.63-0.94L251.86,376.23z M253.12,464.35l-1.47,0.32l0.63-0.95L253.12,464.35z M254.17,221.63
			l0.63,0.31l0.84,1.41l-0.63,1.57l-0.74,0.16l-0.32-0.78l0.11-1.57L254.17,221.63z M255.01,351.46l0.42,1.57l-1.05-0.63
			L255.01,351.46z M263.2,258.01l-2.31-1.89l-0.63-1.57l0.21-1.57l1.47-0.62l1.05,0.62l0.84,3.45L263.2,258.01z M301.24,486.68
			l0.84,0.94l-0.84,0.95V486.68z M269.09,457.45l0.84,1.57l-0.84,1.26V457.45z M273.29,374.98l0.84,0.63l-0.42,1.26l-0.84-0.63
			L273.29,374.98z M274.76,238.57h1.26v1.57h-1.26V238.57z M276.44,251.11l-0.21,1.88l-1.05,0.32l-0.42-1.57L276.44,251.11z
			 M275.18,303.16l1.26,0.32l0.42,1.57l-1.05-0.63L275.18,303.16z M275.18,394.74l1.26,0.63l-0.84,0.63L275.18,394.74z
			 M277.08,248.91l1.26,0.31l0.84,0.95l0.21,1.57l-0.63,1.25l-1.47-2.2L277.08,248.91z M279.81,380.31l-0.21,1.89l-1.47,0.31
			l-0.63-1.57l1.05-0.63H279.81z M281.91,169.57l0.63,1.26l-0.42,0.63L281.91,169.57z M282.54,419.2l0.84,2.82l-0.84-0.62V419.2z
			 M283.8,189.96h0.84v0.94h-0.84V189.96z M288.42,240.14l1.26,0.63l-0.42,1.25h-0.84V240.14z M290.74,252.99h0.84v1.26h-0.84
			V252.99z M292,336.4h0.63v0.95H292V336.4z M293.47,544.63h1.47l0.84,1.26l-0.42,1.88l-1.26-0.94L293.47,544.63z M293.89,292.19
			l1.05,0.32l0.63,0.94l0.21,1.88h-1.26l-0.63-1.25V292.19z M294.94,226.97l0.84,0.94l-0.42,1.25L294.94,226.97z M297.67,434.25
			l-0.21,1.26l-0.84,0.31L297.67,434.25z M297.67,201.57h0.84v0.94h-0.84V201.57z M298.09,212.85l1.68-0.31v1.57l-1.05-0.63
			L298.09,212.85z M300.82,346.76h0.84v1.25h-0.84V346.76z M303.55,288.12l-0.42,3.45l-0.84,0.32l-1.05-0.63l0.21-1.89l0.84-0.94
			L303.55,288.12z M303.55,460.91l0.63-0.63l0.63,0.94h-0.84L303.55,460.91z M297.62,92.14l1.68,1.26l0.21,0.78l-0.31,1.1
			l-1.47-1.57l-0.21-0.63L297.62,92.14z M307.34,295.64l1.89,1.88l0.21,1.88l-0.84,0.95l-3.57-0.63l0.63-1.57l1.47-0.32
			L307.34,295.64z M307.13,229.78l-1.26-0.31l-0.42-1.57h1.26L307.13,229.78z M312.17,334.99h-2.73l0.21-1.57l1.05-0.62l1.26,0.31
			L312.17,334.99z M314.9,236.68l1.05,1.26h-1.05V236.68z M314.9,244.21l0.84,0.94l-0.21,1.57l-0.63-0.94V244.21z M315.11,300.98
			l1.26,0.31l0.42,1.57h-1.26L315.11,300.98z M317.22,257.07h0.84l-0.21,2.19L317.22,257.07z M318.69,323.55l-1.47-0.63l0.84-0.94
			L318.69,323.55z M320.16,463.1v1.88l-1.05,0.31l-0.42-1.57L320.16,463.1z M321,389.1l1.26-0.63l-0.63,1.57L321,389.1z
			 M323.73,179.1l1.05,0.63l0.21,1.88h-1.26V179.1z M325.62,517.66l0.21,1.89l-0.63,1.57l-1.47-1.26l0.42-1.88L325.62,517.66z
			 M327.51,273.06l-0.21,1.57l-1.26,0.32l0.42-1.57L327.51,273.06z M330.04,112.69l-0.56,2.72l-0.98-2.3l-0.98,0.21l-0.7,0.63
			l-1.12-0.21l-0.7-1.88l0.14-1.05l0.98-0.42l1.54,0.21l1.54,1.25L330.04,112.69z M331.5,340.49h0.84v0.94h-0.84V340.49z
			 M317.53,83.8l0.63,0.63v1.88h-1.05L317.53,83.8z M332.98,333.9l1.26,1.26l-0.63,1.25l-1.26,0.63l0.21-1.88L332.98,333.9z
			 M352.32,304.89l-1.05-0.63v-0.31L352.32,304.89z M336.55,496.03l-0.21,1.89l-1.05,0.62l-0.21-1.88L336.55,496.03z M340.33,285.92
			h1.26l-0.63,0.94L340.33,285.92z M341.59,274.32l0.84,1.57l-0.42,1.88l-0.84-1.25L341.59,274.32z M343.48,483.48l-0.21,1.88
			l-1.26,0.32l-0.21-1.89L343.48,483.48z M342.43,498.85l0.63,1.25l-0.63,0.32V498.85z M342.64,269.61l2.73,1.25l0.42,1.89h-1.05
			l-1.47-1.26L342.64,269.61z M343.06,452.12h1.68v4.7l-1.47-0.62l-0.42-2.2L343.06,452.12z M344.33,262.09h0.84l-1.26,1.26
			L344.33,262.09z M347.48,430.17l1.05-0.63l1.05,0.94l0.21,1.89l-1.47-0.63L347.48,430.17z M348.95,168.94h0.84v1.26h-0.84V168.94z
			 M349.37,237.94h0.84l-1.26,1.25L349.37,237.94z M348.95,365.89l1.47,0.31l0.42,1.88l-1.05,0.63l-0.63-0.94L348.95,365.89z
			 M353.15,322.3l-0.42,1.57h-1.05l-0.42-1.57l0.84-0.31L353.15,322.3z M354.83,242.64l1.47,0.31l-0.21,2.2l-0.63,1.57l-1.47,0.32
			l-0.21-1.57l0.42-1.26L354.83,242.64z M355.25,480.98l1.26,0.94l0.63,1.88l-1.26,0.63l-1.05-0.63v-1.25L355.25,480.98z
			 M356.73,254.25h1.05l0.21,1.88l-0.42,1.57l-0.84-1.25V254.25z M357.78,157.34h0.84v1.26h-0.84V157.34z M360.3,337.97l0.84,0.63
			l0.21,1.26l-0.84-0.32L360.3,337.97z M362.82,434.88l1.26-0.63l-0.42,1.57L362.82,434.88z M368.7,476.27l-0.21,1.57l-1.05,0.31
			l-0.63-1.26l0.84-0.31L368.7,476.27z M367.23,531.46l1.05,1.26h-1.05V531.46z M367.65,223.51h0.63v0.94h-0.63V223.51z
			 M369.54,303.16l1.05,1.26h-1.05V303.16z M372.28,450.87l-0.63,1.25l-1.05-0.63l0.63-0.94L372.28,450.87z M371.85,285.92
			l1.26,0.31l0.21,1.89l-1.26-0.32L371.85,285.92z M374.59,433.62l1.05,1.26h-1.05V433.62z M308.81,527.52l1.05,0.63l0.63,1.25
			l-0.21,1.57l-1.26-0.63l-0.63-1.25L308.81,527.52z M376.9,511.08l1.05-0.63l-0.42,1.57L376.9,511.08z M377.74,252.99h0.63v1.26
			h-0.63V252.99z M378.37,380.31l0.84,1.89l-0.84-0.63V380.31z M380.05,401.64h0.63v1.26h-0.63V401.64z M389.72,355.54l-0.63,1.57
			l-1.05,0.32l-2.31-1.57l0.42-1.89l1.26-0.63l1.26,0.95L389.72,355.54z M390.77,313.2l0.42,2.2l-0.63-0.94L390.77,313.2z
			 M391.61,338.6h1.26v1.89h-1.26V338.6z M394.34,471.25h0.84v1.26h-0.84V471.25z M405.27,442.72l0.84,1.26l-0.21,1.88l-1.05-0.94
			L405.27,442.72z M405.9,314.77l0.84,0.95l-0.84,0.94V314.77z M406.74,333.27l1.26,0.32l0.63,1.25l-0.42,1.57l-1.05-0.94
			L406.74,333.27z M410.73,289.36l0.63,1.26l-0.42,0.63L410.73,289.36z M416.83,342.68l1.26,0.31l0.42,1.26l-0.42,0.94l-1.26,0.31
			V342.68z M423.13,373.41h0.63v1.26h-0.63V373.41z M427.76,324.8h0.63v0.95h-0.63V324.8z"/>
	</g>
	<polygon class="st0" points="74.95,214.15 74.86,214.25 74.92,214.2 	"/>
	<polygon class="st0" points="107.64,195.18 107.56,195.28 107.61,195.24 	"/>
	<polygon class="st0" points="121.92,194.65 121.83,194.59 121.34,194.07 121.74,194.62 	"/>
	<polygon class="st0" points="79.8,213.18 79.61,213.18 79.85,213.35 	"/>
	<polygon class="st0" points="113.96,196.95 113.79,197.54 114.11,197.55 	"/>
	<polygon class="st0" points="527.54,230.07 527.67,230.2 527.26,230.66 527.76,230.15 	"/>
	<polygon class="st0" points="89.22,213.62 89.14,213.56 88.65,213.03 89.05,213.58 	"/>
	<polygon class="st0" points="126.17,182.89 126.14,183 126.41,183.09 	"/>
	<polygon class="st0" points="50.61,240.66 50.32,240.36 50.63,241 	"/>
	<polygon class="st0" points="548.6,245.52 548.66,244.92 548.59,245.21 	"/>
	<polygon class="st0" points="93.48,201.86 93.45,201.97 93.72,202.06 	"/>
	<polygon class="st0" points="83.3,221.69 83.01,221.39 83.32,222.03 	"/>
	<polygon class="st0" points="539.8,247.16 538.48,247.39 539.91,247.39 540.07,247.15 539.88,247.34 	"/>
	<polygon class="st0" points="103.98,205.25 103.71,205.2 103.9,205.63 	"/>
	<polygon class="st0" points="47.11,232.14 46.92,232.14 47.16,232.32 	"/>
	<polygon class="st0" points="563.51,398.09 563.81,398.45 563.63,397.96 	"/>
	<polygon class="st0" points="564.51,306.04 564.41,305.69 564.53,306.2 	"/>
	<polygon class="st0" points="565.84,245.86 565.69,245.74 565.51,245.57 565.71,245.95 	"/>
	<polygon class="st0" points="568.53,296.58 568.31,296.6 568.69,296.76 	"/>
	<polygon class="st0" points="569.32,384.1 569.71,384.06 570.12,384.04 569.31,384.04 	"/>
	<polygon class="st0" points="572.72,403.79 572.88,403.8 572.88,403.8 	"/>
	<polygon class="st0" points="578.24,382.55 578.27,382.7 578.19,382.14 	"/>
	<polygon class="st0" points="580.77,294.06 580.26,293.42 580.21,293.38 580.08,293.37 580.08,293.61 	"/>
	<polygon class="st0" points="581.2,331.05 581.53,331.14 581.97,331.75 581.54,331.03 	"/>
	<polygon class="st0" points="581.14,361.42 581.58,361.6 581.34,361.31 	"/>
	<polygon class="st0" points="583.46,285.08 583.76,285.44 583.58,284.95 	"/>
	<polygon class="st0" points="577.32,396.5 577.52,396.11 576.98,396.39 	"/>
	<polygon class="st0" points="571.07,405.77 571.41,405.73 571.11,405.73 	"/>
	<polygon class="st0" points="573.3,300.5 573.26,300.37 573.24,300.37 	"/>
	<polygon class="st0" points="570.97,347.1 571.06,347.38 571.05,347.06 	"/>
	<polygon class="st0" points="577.3,254.42 577.09,254.33 577.22,254.46 576.81,254.92 	"/>
	<polygon class="st0" points="23.15,238.19 22.94,238.11 23.06,238.24 22.65,238.7 	"/>
</g>
</svg>
