<svg id="Art" xmlns="http://www.w3.org/2000/svg" viewBox="0 0 216 216"><defs><style>.cls-1{fill:#f5b335;}</style></defs><path class="cls-1" d="M96.36,172.16l-.24-.14-.43-.24-.47-.2-.39-.35-.48-.16-.44-.28-.4-.3-.48-.16-.42-.28-.42-.27-.49-.16-.42-.26-.41-.28-.46-.24-.46-.18-.44-.24-.39-.32-.5-.13-.43-.27-.41-.31-.5-.13-.43-.26-.45-.22L86,166.5l-.44-.25-.4-.33-.47-.19-.42-.29-.45-.23-.5-.14-.39-.36-.48-.16-.47-.19-.37-.36-.5-.14-.42-.28-.42-.29-.45-.21-.42-.29-.45-.22-.47-.21-.45-.23-.45-.21-.4-.34-.45-.22-.49-.18-.45-.21-.45-.22-.39-.34-.47-.23-.4-.3-.52-.13-.38-.34-.49-.18-.46-.19-.44-.26-.43-.26-.44-.26-.44-.26-.4-.3-.48-.2-.45-.21-.47-.22-.41-.32-.41-.26-.47-.2-.45-.25-.44-.24-.47-.2-.42-.29-.5-.16-.43-.26-.42-.3-.47-.2-.42-.29-.45-.24-.48-.16-.39-.37-.5-.16-.44-.26-.4-.32-.5-.17-.43-.27,0,0-.12.17v-.2h.05l-.45-.23-.44-.24-.47-.18-.38-.34L57.4,151l-.84-.55-.45-.21-.43-.26-.46-.21-.41-.27-.47-.2-.41-.3-.46-.2-.41-.32-.5-.13-.45-.22-.4-.31-.45-.23-.44-.25-.45-.21-.45-.23-.4-.32-.44-.24-.4-.31-.31-.42-.31-.4-.21-.47,0-.52,0-.5.05-.5,0-.51v-1l0-.5.07-.5,0-.5,0-.52,0-.5,0-.5.11-.5-.06-.5,0-.51v-.5l0-.5,0-.5-.11-.52,0-1,.15-.5-.1-.5,0-.5,0-.52.06-.5-.06-.5.09-.5-.08-.51v-1l.12-.52-.09-.5.08-.5-.07-.51v-.5l0-.52.1-.52-.08-5.09,0-.47.13-.47-.05-.46,0-.47,0-.52,0-.5v-.07L46,116.92l-1.37-1.19-.15-.06H43l-.33-.19h0l0,.5.06.52-.06.5.06.52-.06.51,0,.52.06.47-.11.46,0,.47.09.47V126l0,.5,0,.52.06.5,0,.51,0,.5-.11.52v.5l.08.51,0,.5,0,.52,0,.5-.1.52v.5l.08.51,0,.5v.52l0,.51-.09.5,0,.52-.05.5,0,.5.08.52v.5l-.13.51.06.52,0,.5.08.51,0,.5.06.52v.52l-.05.5,0,.51.11.52-.08.5,0,.51,0,.52,0,.52,0,.51-.11.49.21.45.08.48.29.37.26.41.31.38.34.33.43.22.4.32.5.12.39.37.47.19.45.23.47.17.43.28.47.19.44.24.43.29.44.23.45.26.43.26.44.24.4.32.52.13.42.27.43.26.44.26.47.23.43.24.45.22.42.29.5.17.41.32.43.29.44.22.45.26.51.11.44.26.44.26.4.31.48.19.42.29.45.23.45.21.44.27.48.16.46.24.43.26.44.26.38.34.52.14.43.25.44.25.47.2.38.37.5.14.39.36.49.16.48.19.42.31.43.24.44.28.47.17.42.33.43.25.47.2.48.17.41.33.48.16.44.26.4.3.45.24.45.23.49.18.42.29.4.29.47.21.48.16.39.34.43.26.5.12.45.26.37.36.49.16.42.32.43.24.47.21.45.24.47.2.47.22.4.31.49.19.4.33.5.14.39.36.43.24.48.18.42.29.44.27.43.24.49.18.48.19.44.25.43.25.41.34.48.2.47.17.43.28.42.29.44.27.48.18.44.26.42.3.45.25.45.22.47.19.47.25.41.29.49.17.42.28.43.29.5.14.45.26.46.23.38.35.5.15.45.22.42.31.44.24.47.23.4.3.52.15.31.17-1.78-2.47ZM46.45,132.94h0Zm.78,4.23,0,.1h-.1Zm-.18,9.06h.08l-.07.05-.17-.08Zm.26,1.6-.08,0L47,147.7l-.15,0,.08-.16.28,0,.17.08.05.11.15.13Zm.48-1.82,0,0,.13.07Zm.31,4h0v0l.12-.08Zm.22-1.08,0,0,0-.11.19.11Zm2.16.75-.21.08.2-.1v0h.09l-.09,0Zm8.11,4.06-.08,0-.09,0v-.08l.18-.11Z"/><path class="cls-1" d="M47.11,82.7l.66.52,0-.17-.06-.5,0-.51,0-.5.1-.5-.15-.5,0-1,.11-.52,0-.5,0-.5v-.5l0-.51.06-.5-.11-.5,0-.5,0-.5,0-.52,0-.5-.07-.5,0-.5V72l0-.52-.05-.5,0-.5,0-.51.21-.47.31-.4.31-.42.4-.31.44-.24.4-.32.45-.23.45-.21.44-.26.45-.22.4-.31.45-.22.5-.13.41-.33.46-.19.41-.31.47-.19.41-.27.46-.21.43-.26.45-.21.84-.55.49-.14.38-.34.47-.18.44-.24.45-.23h-.05v-.2l.12.16h0l.43-.28.5-.16.4-.32.44-.26.5-.16.39-.37.48-.16.45-.24.42-.29.47-.2.42-.3.43-.26.5-.16.42-.29.47-.2.44-.24.45-.26.47-.19.41-.26.41-.32.47-.23.45-.21.48-.19.4-.31.44-.25.44-.26.43-.26.44-.26.46-.19.49-.18.38-.34.52-.13.4-.3.47-.23.39-.34.45-.22.45-.21.49-.18.45-.23.4-.33.45-.21.45-.23.47-.21.45-.23.42-.29.45-.21.42-.29.42-.27.5-.15L82,50.3l.47-.19.48-.16.39-.36.5-.14.45-.23.42-.29.47-.19.4-.33.44-.25.42-.28.45-.22.43-.26.5-.13.41-.31.43-.27.5-.13.39-.32L90,46l.46-.17.46-.25.41-.27L91.7,45l.49-.16.42-.27.42-.28.48-.16.4-.3.44-.28.48-.16.39-.35.47-.2.43-.24.44-.26.43-.26.45-.21.44-.27.5-.13.44-.24.43-.29.4-.29.44-.26.5-.14.45-.23.44-.26.4-.32.44-.24.48-.16.4-.33.49-.13.45-.25.42-.28.45-.21.45-.21.37-.37.48-.19.5-.23.54-.13.55-.09.54,0,.55.13.49.29.45.26.42.32.46.22.5.17.41.33.45.26.5.16.43.28.44.29.48.18.44.29.47.22.43.28.49.17.43.29.47.21.43.28.46.24.48.18.44.25.45.26.43.29.42.29.52.13.42.32.46.2.41.34.47.22h0l0-.06.43.26.87.58L124,45l.46.2.42.34.42.29.5.16.45.24.47.23.45.24.45.22.41.33.48.17.45.26.44.26.05-.1.09.12,0,.12.48.21.45.26.44.28.5.14.42.31.45.21.43.29.5.14.37.37.52.15.45.24.45.23.45.22.39.34.5.18.44.26.45.21.42.29.43.25.45.23.46.24.46.21.41.32.46.21.47.21.42.28.49.18.38.33.47.21.47.21.43.26.47.21.39.36.51.09.39.36.48.17.46.23.4.31.45.25.45.21.49.18.4.32.45.25.47.17.45.25.39.33.47.18.48.18.4.31.44.27.47.18.4.34.45.22.5.15.4.3.47.2.44.27.43.26.42.29.48.16.42.27.49.18.43.26.41.31.46.17L159,64l.42.27.48.18.39.34.48.16.44.22.38.34.45.23.46.22.43.26.45.24.45.21.42.29.47.2.48.16.39.35.44.24.5.15.42.31.4.3.24.45.24.44.33.42,0,.53.12.48,0,.52V72l0,.51.06.5-.06.52v1l0,.49,0,.52,0,.5-.08.52.06.5-.12.51.11.5-.07.52.1.5v.5l0,.52,0,.49-.08.5.11.52-.08.5.1.5-.14.52,0,.23.6,0,2.9-1.37,1.64-.15,0-.31,0-.52.09-.5,0-.51v-.52l-.11-.52,0-.5,0-.51.11-.5-.06-.52,0-.51.05-.52-.11-.5,0-.52.13-.51,0-.52v-.5l-.09-.51.09-.52-.06-.52-.08-.5.14-.51-.12-.52.12-.5-.06-.51,0-.49-.1-.45-.13-.47-.22-.43-.28-.41-.29-.37-.43-.24-.37-.31-.44-.27-.5-.13-.39-.34-.46-.17-.44-.26-.47-.18-.43-.27-.41-.31-.42-.26-.48-.18-.4-.3-.5-.13-.41-.31-.4-.29-.48-.18-.45-.19-.42-.27-.42-.26-.44-.24-.47-.18-.45-.23-.4-.29-.47-.19-.45-.21-.39-.32L160,60l-.37-.36-.47-.19,0,0-.45-.25-.47-.22-.45-.23-.49-.16-.38-.37-.5-.15-.42-.27-.44-.26-.47-.22-.42-.28-.43-.27-.44-.24-.45-.25-.45-.22-.45-.21-.45-.24-.46-.23-.43-.24-.42-.29-.44-.23-.5-.16-.41-.27-.47-.2-.44-.24-.45-.24-.4-.32-.49-.16-.42-.29-.43-.25-.47-.2-.45-.25-.4-.29-.44-.27-.47-.18-.42-.29-.45-.22-.46-.18-.41-.31-.5-.14-.42-.28-.4-.32-.5-.15-.4-.3-.44-.24-.47-.21-.43-.26-.42-.26-.49-.18-.4-.3-.45-.21-.44-.26-.43-.23-.48-.17-.39-.33-.44-.27-.5-.11-.37-.37-.5-.17-.38-.32-.47-.19-.47-.18-.42-.29-.47-.19-.4-.31-.48-.16-.42-.26-.42-.29v.1l-.14.11-.08-.13.06-.1,0-.06-.5-.16-.46-.23-.42-.3-.45-.25L127.1,42l-.48-.19-.45-.24-.42-.29-.53-.12-.41-.33-.48-.18-.42-.29-.44-.28-.45-.21-.48-.19-.45-.24-.41-.34-.45-.21-.45-.23-.47-.21-.43-.27-.41-.31-.46-.22-.5-.13-.41-.32-.5-.18-.38-.32-.49-.2-.43-.27-.44-.26-.42-.29-.5-.16-.46-.19L114,35l-.42-.29-.45-.22-.43-.26L112.3,34l-.47-.21-.44-.25-.43-.26-.45-.24-.45-.23-.49-.19-.45-.23-.48-.11-.5-.15-.5.1-.5.05-.49.14-.46.18-.49.21-.43.29-.42.29-.5.18-.42.3-.44.28-.45.22-.5.18-.47.2-.38.37-.47.21-.5.16-.37.37-.45.24-.52.15-.4.3-.47.23-.44.24-.42.31-.45.22-.5.15-.38.35-.46.23-.45.26-.5.14-.43.29-.42.27-.49.18-.41.29-.47.24-.47.2-.45.22-.45.25-.42.3-.44.26-.48.18-.44.27-.42.29-.43.28-.47.17-.48.2-.41.34-.43.25-.44.25-.48.19-.49.18-.43.24-.44.27-.42.29-.48.18-.43.24-.39.36-.5.14-.4.32-.49.2-.4.3-.47.23-.47.19-.45.25-.47.21-.43.24-.42.32-.49.16-.37.36-.45.25-.5.13-.43.26-.39.34-.48.16-.47.21-.4.29-.42.29-.49.18-.45.22-.45.25-.4.3-.44.26-.48.16-.41.32L70.4,52l-.47.2-.43.25-.42.33-.47.17-.44.28-.43.24-.42.31-.48.19-.49.16-.39.36-.5.14-.38.37-.47.19-.44.26-.43.24-.52.15-.38.34-.44.26-.43.25-.46.25-.48.16-.44.27-.45.21-.45.23-.42.29-.48.19-.4.31L58,58.9l-.44.25-.51.12-.45.25-.44.23-.43.29-.41.32-.5.16-.42.29L53.9,61l-.43.24-.47.23-.44.26-.43.25-.42.28-.52.13-.4.32-.44.24-.43.26-.45.26-.44.22L48.6,64l-.44.25-.47.19-.43.27-.47.18-.45.23-.47.19-.39.37-.5.11-.4.33-.43.22-.34.32-.31.39-.26.41-.29.37-.08.48-.21.45.11.49,0,.51,0,.52,0,.51,0,.52.08.5-.11.52,0,.51.05.5v.52l-.06.51,0,.5-.08.52,0,.5-.06.52.13.51v.5l-.08.52,0,.5.05.5,0,.51.09.5,0,.52V81l0,.5-.08.51v0l.77.23ZM163.18,63.59l.06.06h.08v.15l-.13-.07Zm-1.05.74.05,0,.06,0-.05.14-.12-.06ZM160.42,64l.05,0,.1.12-.15-.06Zm-.64-1.13.22-.1.07,0,.06.06-.1.05-.11.1h-.18Zm-4-.89h0l.1,0v.18l-.18-.07Zm-10.72-7.08,0,0,.1,0h-.1v0l-.18-.1Zm-.81-2.79.11,0,.12.22-.2.1-.09-.13Zm-1.59,2.46.11.11-.13-.07Zm-5.83-4.91,0,.05.08,0v.13l-.13,0Zm-1.06.73.05,0,.06,0,0,.15-.13,0ZM134.07,50l.05,0,.09.13-.14-.08Zm-.65-1.13.23-.09.06,0,.09.05-.12,0-.11.11h-.18Zm-.46-1.7,0,0,.08,0,0,.13-.13-.05Zm-.15-1.75v0l0,0Zm-.92,2.47.05,0,.07,0,0,.14-.13,0Zm-1.71-.35h0l.1.13-.15-.08Zm-.64-1.13.24-.1.05,0,.08.05-.11.07-.12.09h-.17Zm-4-.89,0,0,.09,0v.2l-.17-.07Zm-5.12-5.34h0v0Zm-1.71.71v0h.08l.09,0h-.17v0l-.2-.09Zm-.79-2.79.11,0,0,.1.07.13-.18.08-.11-.12Zm-1.39-.39h0l0,0Zm-.23,2.84,0,0,.1.11-.13-.08Zm-1.48-2.13v0h0l-.19-.1ZM114,35.62l.11,0,0,.1.07.13-.18.08-.11-.11Zm-1.61,2.46h0l.1.11-.13-.08ZM58.51,60.85l.08,0,0,.19L58.43,61v-.08Zm-8,4.09v0l.09,0h-.09v0l-.2-.1Zm-2.16.75.18,0-.19.11,0-.11Zm-.26-1.09h0l.08.12-.12-.08Zm-.27,4.05.11,0-.13.06Zm-.74-.22-.16,0,.17-.08.07.05Zm.06,9h.1l0,.1ZM47,67l.21-.11.08,0,.29,0-.15.13-.05.11-.17.08-.28,0L46.87,67ZM46.5,81.73h0Z"/><path class="cls-1" d="M171.26,116.48l-3,.69,0,.36-.07.51v1l0,.53.09.53-.06.55,0,5.16v.54l0,.54.13.5-.13.5.11.52,0,.5-.1.52,0,.5.09.5-.05.51,0,.5.14.52-.1.5.08.5-.11.51.08.5,0,.5,0,.52v.5l-.1.5.07.52-.11.5.12.51-.06.5.08.52,0,.5,0,.51,0,.5v1l.06.52-.06.5,0,.51v.52l0,.51-.12.49,0,.53-.33.42-.24.43-.24.46-.4.3-.42.31-.5.14-.44.25-.39.35-.48.16-.47.2-.42.29-.45.21-.45.24-.43.26-.46.22-.45.23-.38.34-.44.22-.48.16-.39.34-.48.18-.42.27-.46.24-.46.18-.41.31-.43.26-.49.17-.42.28-.48.16-.42.29-.43.26-.44.27-.47.2-.4.3-.5.15-.45.22-.4.34-.47.18-.44.27-.4.31-.48.18-.47.17-.39.34-.45.24-.47.18-.45.24-.4.33-.49.17-.45.21-.45.26-.4.31-.46.22-.48.18-.39.36-.51.09-.39.36-.47.21-.43.26-.47.2-.47.21-.38.34-.49.18-.42.27-.47.21-.46.21-.41.33-.46.21-.46.24-.45.22-.43.26-.42.29-.45.21-.44.26-.5.18-.39.34-.45.22-.45.23-.45.24-.52.14-.37.38-.5.14-.43.29-.45.21-.42.31-.5.14-.44.28-.45.25-.48.21,0,.13-.09.12-.05-.1L129,167l-.45.26-.48.17-.41.33-.45.22-.45.24-.47.23-.45.24-.5.16-.42.29-.42.34-.46.19-.49.18-.87.58-.43.26,0-.06h0l-.47.22-.41.34-.46.19-.42.33-.52.13-.24.16-.78,1.74h0l-.86,1.92-2,3,.31-.18.43-.27.49-.2.38-.32.5-.18.41-.32.5-.13.46-.23.41-.3.43-.28.47-.21.45-.22.45-.21.41-.34.45-.24.48-.2.45-.2.44-.28.42-.29.48-.18.41-.34.53-.11.42-.29.45-.24.48-.19.41-.33.45-.24.42-.3.46-.23.5-.16,0-.07-.06-.09.08-.13.14.11v.1l.42-.29.42-.26.48-.16.4-.31.47-.19.42-.29.47-.18.47-.19.38-.33.5-.16.37-.37.5-.11.44-.27.39-.33.48-.17.43-.23.44-.26.45-.21.4-.3.49-.18.42-.26.43-.26.47-.21.44-.24.4-.31.5-.14.4-.32.42-.28.5-.14.41-.31.46-.18.45-.22.42-.29.47-.18.44-.27.4-.29.45-.25.47-.21.43-.24.42-.29.49-.16.4-.32.45-.24.44-.25.47-.19.41-.27.5-.17.44-.22.42-.29.43-.24.46-.23.45-.24.45-.21.45-.23.45-.24.44-.24.43-.27.42-.28.47-.22.44-.26.42-.28.5-.14.38-.37.49-.16.45-.23.47-.23.45-.24,0,0,.47-.19.37-.36.48-.16.39-.32.45-.21.47-.19.4-.29.45-.23.47-.18.44-.24.42-.26.42-.27.45-.2.48-.17.4-.29.41-.31.5-.13.4-.31.48-.17.42-.26.41-.31.43-.27.47-.18.44-.26.46-.17.39-.34.5-.13.44-.28.37-.3.43-.24.29-.38.28-.4.22-.43.13-.47.1-.45,0-.49.06-.51-.12-.5.12-.52-.14-.51.08-.5.06-.52-.09-.52.09-.51v-.5l0-.52-.13-.52,0-.51.11-.5-.05-.52,0-.51.06-.52-.11-.5,0-.52,0-.5.11-.51v-.52l0-.51-.09-.5,0-.52.07-.52-.07-.51,0-.52.13-.51,0-.5-.05-.52.08-.52-.11-.51,0-.52V128l.07-.52.06-.52-.08-.53,0-.55V120.7l-.08-.53.09-.53,0-.55-.11-.53.08-.52v-.5l-.08-.51v-1l.11-.5,0-.25-.2,0Zm-53.19,60,0,.1-.11,0-.08-.16.11-.12.18.08Zm2.36-2v0Zm5.25-5.29-.09,0h0l0-.08.17-.07Zm4.15-.87-.05,0-.24-.1,0-.14h.17l.12.09.11.07Zm.4-1.21h0v-.06l.15-.08Zm1.71-.33h-.05l0-.12.13,0,0,.14Zm.87,2.46,0,0,0,0Zm.2-1.79,0,0,0-.14.13-.05,0,.13Zm.7-1.6-.06,0-.23-.1,0-.14h.18l.11.11.12.05Zm.41-1.21h-.05v-.06l.14-.08Zm1.71-.31-.05,0-.05-.11.13,0,0,.14Zm1.06.65,0,0v-.15l.13,0V165Zm5.78-4.86,0,0,.13-.06Zm1.7,2.5-.11,0-.06-.14.09-.13.2.1Zm.7-2.84-.2.09.18-.1v0h.1l-.1,0Zm10.85-7-.1,0,0,0,0-.08.18-.06Zm4.15-.86-.07,0-.22-.09,0-.15h.18l.11.1.1.05Zm.4-1.21-.05,0v-.08l.15-.07Zm1.71-.32-.05,0-.06-.1.12-.06.05.14Zm1.06.65-.06.06v-.15l.13-.06V151Z"/><polygon class="cls-1" points="134.5 130.52 131.15 123.47 126.77 119.79 125.22 118.87 123.54 118.41 123.28 118.1 119.8 121.02 116.45 123.01 115.29 124.08 115.18 124.33 115.25 124.58 115.05 124.64 115.03 124.69 114.74 127.7 115.39 127.5 115.48 127.86 114.97 128.55 114.66 128.46 114.64 128.68 114.77 130.37 115.16 131.75 114.52 134.81 115.03 141.87 114.74 150.57 114.93 150.66 115.4 151.61 114.91 151.59 114.71 151.43 114.64 153.52 115.16 158.58 118.51 157.81 121.09 156.12 121.87 154.9 122.25 153.36 121.87 147.84 122.38 143.86 122.12 128.83 122.64 125.46 123.28 124.08 126 125.92 129.61 130.06 130.25 131.44 130.64 133.13 130.77 136.65 131.15 138.49 130.64 139.56 130.64 141.56 131.54 142.94 132.83 143.4 133.47 143.24 134.76 141.87 135.41 138.8 135.28 134.66 134.5 130.52"/><polygon class="cls-1" points="111.8 171.61 108.84 172.83 107.16 172.99 104.97 171.76 103.29 171.76 102.78 172.53 103.42 174.06 105.1 176.82 106.65 180.34 107.68 181.72 108.32 181.88 109.35 181.11 111.03 176.82 112.84 173.6 113.35 172.22 112.58 171.76 111.8 171.61"/><path class="cls-1" d="M180.27,96.54l.15-.51v-.16l-6.62.38-.11.88-.4-.12-.59-.7,1.1-.06,0-.26-.18.08-.89-.23.1-.47.68-.58h0l1.09-.46.19-1.75.3-.59.1-.12,1.58,1-.89,1.29v.65l4.47.12-.07-1.91-.17-.15.14-.32-.37-1.32-.59-.9-2.52,0v.06l-.33,0-3.07,0h0l.29-.23v-.35l-.11-.46-.11-.09-.57,0,.39-.12.18.15,5.18.26L178,89l-1.54-.77-3.18-.58-.06.26h-.39l-.19-.23-2.11.28v.41h-.4V88l-1.54.21L167.42,88l-.27.86-.39.59-.7.23-.78-.12-.1-.35.46-1.09-1.59.59-2.84.31-2.45,1.37-1.08.07.12,0v.47l-1.08,2-.69-.34.1-.59.78-.94.2-.58h0l-.93.06-3,1.15.18.67v.24l-.3.23-1.47-.23v-.3l-.2.08-.9-.31-1,.92-2.19.77-1.42.15-1.84.58v.79l-.69.24.1-.82.1-.06-2.06.65-1.68.15-2.34.66h1l-.2.7h-.68l-.2-.46v-.2L130.51,98l-.13-2,.51-1.69,2.58-4.6.39-1.69.13-2.14,1-2.61.26-1.68V77.94L135,76.25l-.64-.61-1.55-.16-.77.31-1.17,1.07-.51,6.6-1.68,5.21-1.55,3.06-3.35,3.53L123,99.4l-2.32,1.53-1.68-.77-1.55-.3-1.16.3-.62.47,0,.09-.3.22-.06-.06-.07.05-.91,2.3.14,1.69-.78,2.76.12.39.54-.25,1.28,0,.09.12-.31.82-1.19.61.5,1.65,2.84,2H119l.38.62,1.17.92L124.7,116l2.45,1.68,3.36.77,2.84,1.84,3,1.38,1.55.31,1.42-.16.51.61,1.55.31.78-.15,1.67.46,1.29-.62,5.94-1.22,1.16-1.07,1.42.3.64-.61,1.29-.61,2.84-.77,1.42-1.07,1.8-.62,1.55-1.38,1.42-.61,5.29-3.83,5-4.75.76-1.17-.67-.13.19-.47.68.22.59-1.52,1.41-.46,1.42-2.76.34-1.12-.84-.33.69-1.87Zm-6.62-8.42.39.23-.2.59-.39-.35Zm-55.21,19.34h-.39l.22-1,.67.49Zm17.9-8.7-.48.24-.3-.24.39-.58h.49Zm1.38,7.37-.29.24-.59-.24.19-.35h.5l.19.12Zm.49-6.66-.49-.24.2-.35.09-.12.4.24Zm4-1.29.3.23.09.82-.59.59h-.49Zm-3.35,4.44.1-.46.1-.24h.39v.7Zm1,5-.39-.46V107l1.09.59.1.46Zm.89-2.57h-.59l-.3-.94v-.93l.2-.47.4-.12.79.24L142,104v.23Zm1.48,5.51-.52-.61.13-.92.65.3.38.62Zm2.17-8.43-.4-.24-.88.47v1l-.5.59h-.19l-.2-2.69.59-.82v-.24h.49l.69.82,1,.12.09.7Zm1.28-5.85-.8-.24.3-.82,1.68-.7.49.12.2.11v.59l-.5.7-.69-.23Zm1.76,10.06-.78.58v-.58l.59-1.05.1-.24h.29l.1.35Zm1-7L148,101.1l-1.08-1.28.19-.47-.19-2.81,1-.35.1-.12.39.24.1.35-.49,1.4Zm3.74,3.27-.4-.23-1.07.58-.3-.35v-1.28l.39-.59.1-.23.29.23.11.82,1.37.35Zm1.57-3.74.1-.23.2-.24.4.12.48.7-.19.47-.4.12Zm1.68,3-1-.35.19-.35.4-.12.78.35.2.12ZM158,99.23l-.39-.11-.7-1.18h-.39l-1-.58v-.82l.79-.23.68.46.6.12h.19v.47l.49,1.29Zm4.33-8.54.39-.23h.19v1.05l-.19.35-.49-.7Zm-.3,8.54v.59l-.49-.12-.1-.35.19-.35h.3Zm-3.15-7.13h-.39l.1-1.17.1-.12.39.12.1.35Zm1.68,8.89-.3.11-.5-.23.2-.47h.69l.1.12Zm-.3-6.09-.59-.46-.1-.47.89-.12,1-.47.39.24v1.16l-.78.24Zm2.85,9.59-.29.36-.69.11-.78-.47.28-.81.7-.59.58.12.2.35Zm2.07-4.67-.4.23L164,99.7l-.49-.7v-.71l.1-.11h.69l.78.82.2.47Zm2-8.31h.2v-.23h.49l.2.23v.59h-.2v.23h-.49V92.1h-.2Zm-.5,15-.59-.58.11-.58.09-.24h.39l.3,1.29Zm.89-5.61-.19.23-.59-.23-.3-.82v-.58l1.19-.71h.19l.09.36-.58.7Zm.11-3.74-.5-.12-.39-.7.09-.47.5-.35.19-1.4.11-.12.68.23ZM170,105.9l-.59.23-.2-.81.3-.24h.79Zm2.27-8.77-1,.58-.78-.35.19-.82-.59-1.87.2-.23.89.81h.39l.69,1.52Zm1.67,4.56-.79.23-.29-.47.09-.35h.79l.3.24Zm2-4.8h.39v.71h-.39Zm1,4.56-.49.12-.39-.82.39-1.4.1-.12.3.12.19.47Zm1.19-4.32h-.4v-.59h.4Z"/><polygon class="cls-1" points="94 68.89 95.04 70.42 97.75 72.57 98.91 73.8 99.55 75.33 99.29 77.17 96.84 79.31 96.2 80.85 95.42 84.22 95.81 84.99 96.33 88.21 96.84 89.89 97.36 90.66 98 90.97 101.23 91.43 106.13 90.66 106.77 90.97 109.87 91.28 114.77 91.12 117.61 91.58 119.55 89.43 120.06 87.75 120.45 83.92 119.8 80.24 117.22 77.63 116.71 75.94 117.09 74.41 118.13 72.88 123.28 68.28 124.06 68.12 125.09 67.05 125.48 65.36 125.22 64.45 123.8 63.68 122.12 63.83 120.71 64.6 119.03 66.28 117.61 67.05 115.16 69.2 114.52 70.88 112.32 73.18 111.42 74.87 110.26 75.94 105.48 75.94 103.68 73.64 101.74 70.58 98.26 66.9 95.94 64.91 92.84 63.52 91.81 63.68 90.78 64.75 90.65 66.44 92.2 68.58 94 68.89"/><path class="cls-1" d="M101.61,138.71l-.25-2.36v-11l-.39-1.84-.64-.31h0v.19h-.39v-.45l-.89-.64-1.68-.15-.65-.46-2.45-2.91-1.54-.46-.78.15L87.81,121l-.25,1.38L86,122.7l-1.68,2-1.67,3.38.64,1.07-.64.31-.91,1.07-.64,1.69L80.72,136l.39,5.82,1.8,1.23,1.55.31.51-.31.65-1.53-.39-3.83.39-3.53,1.29-5.06,1.16-1.23.26-1.07.9-1.69,1.55.16,1.42-.77,1.55.15.13,2v1.45l.12.4-.1.47h0v10.54l.38,3.53-.38.77v10l1,2.3,5.54,2.76.65-1.53.13-1.69v-1.29l-.16.11h-.29l-.2-.12.11-.48.4-.21.14-.39v-4.79l-.53-.34-.19-.35,0-1.06.5-.1.2.47v-4.94l.38-3.35h0Zm-19-5.28-.78-.61,1.42-.31ZM94.8,123l-.68,0v-.82l.69,0Zm3.15.32-.79-.14L97,123l.21-.81.49.13.29.47h.19Zm3.23,5.82-.3.11-1.36-.86.12-.92.2-.35-.19-.48-1.18.09-.19-.13.41-.8.78.14.38.59.78.38.49.47.18.84Z"/><path class="cls-1" d="M101.8,107.58l.19.11-.12-3.54-.39-1.69-.77-1.37-1-1.08-1.55.31-3.22-.16-1.55-.45L92.2,96l-.9-1.38-.65-.31h-.9l.13-.92L90,92.35l-1.93-2.3-1.54-2.76-.65-1.69-.39-2L85,77.78l-.9-1.84-2.19-.46-.77,2.46v6l.39,1.83,1.93,5.37L86.65,97l-.51.3-3.1.46-.64-.46L77.75,96l-3-1.38-1.68.3-1.42-.76-4.64-1.38L65.63,92l-1.16.31L61,90.81l-1.54-.3-1.68.15L56.6,89.59l-2.32-.31-3-1.07-9.16-.61-1.68,1.68-1.41-.92-2.58,2.76-.65,1.69-.25,2,.12,2.45,3.36,6.44,3.35,3.22.9,1.38,1.42.46.52,1.53,10.45,7.06h.9L58,118l1,1.07,7.35,2.61,3.36.76,3.22.31,3.1-.15,2.83-.92,1.29-.92.78.15,1.54-.3,4-2.61,3-.77,2.19-1.84.78.16,1.54-.31,1.42-.77,1-1.07.14-.61,1.34.29-.16-.53-.58-.6H97l.22-.81,1.06.73.46.74,2.63-1.81.46-2-.24-.14-.08-.47.2-.46ZM40,93l-.52-.31L39.7,92l.52.31Zm25.41,8.74-.64-.77,1.16-.3.26.61Zm3,16.71v-.77H69l.26.77Zm.9-17.63.26-.77.52.92Zm2.58,5.67-.13-.76.52.3.13.61Zm2.71-5.06-.26.77h-.52l-.26-.77Zm1,15.79-.77.31L74,117l.39-.61.77-.31.78.31ZM76,108l-.78.31-.77-.15-.91-1.54,1.68-.61-.12-.92.12-.77H76l-.39,2.76Zm7.35-7.35.52.46-.52.3Zm.9,9.65-.38-.15v-1.38Zm-5.93.16h-.39V110h.39Zm-1-4.75-.13-.77.77-.15.9.45.52.77-.64.31ZM78.78,116v-1.23h.91l.64.31.13.92Zm3-12.27-.64.61-.26-.76.26-.62.77-.46h.9l.78.46v1.38ZM84.2,115l-.77-.16-.39-.76h.78l.64-.16Zm1.94-14.72.77.31-.64.61-.52-.31Zm1.67,11-1.42.3-.12-.76,1.54-.77.78.46.13,1.07Zm.78-6-.26,2.6-1.42-.92.26-1.07,1.16-1.22.26-1.08.64.46.26.92Zm.77-4.91-.64.46V100l.51-1.07.39.46ZM91.42,105l.79-.09.49.25-.21.46-.3.1-.58-.24h-.3Zm-.25,1,.77.16.13.91-1.16-.3Zm.77,5.37-.77-.46-.52-.77-.26-1.07,1.81.46.64.46Zm3.23-8.28h.77V104h-.77ZM94,108.75l-.38-.61-.13-1.08h.9l1.55-.15.39.31.12,1.07Z"/><path class="cls-1" d="M111.48,155.71l.89,0,.08.11V127.3l-.39-1.68-.77-1.38-.65-.47h-3.09l-3.23.62-.51,1.53-.39,5.52.65,3.37-.39,1.54-.18,2.73.33.27-.31.81-.1,0v.05l.65,5.36-.52,1.54v4.75l-.26,1.69.78,1.38-.39,1.68.13,1.84.51,1.69.77.07v-.09l.11-.23h.19l.19.36h0l3.65.34,1.54-.31.23-.13V160h.16l.84-.5-.29-.19-.1-.46.22-.94.48-.37.09-1-1.82.14-.68-.73h-.2l0-.58.7-.8.12-1.17.6-.1.18.82-.21.47Zm-.38-15.34.28.71-.32,1.16-.29-.24-.09-.47.31-.93Zm-.51-4.46-.39-.24,0-.82.1-.12.39.25.09.35ZM109,126.27l.3-.1.58.71.89-.21.19.24-.21.69-.7.34-.49,0L109,126.5Zm-.57,4.2.7-.92.4-.22.29.12.19.48-.31.92-.6.58-.59,0-.1-.13Zm.06,11.7.6-.57.39.24.09.48-.8.68-.19-.13-.2-.23Zm-.43-2.93v.46l-.52,1.16-.69,0-.17-1,.4-.8.12-.7v-.23h.39l1.1-.56.48.37-.1.46Zm1.28-5.35-.29-.24v-.35l.2-.12h.49l-.11.59Zm-4.16-8.31,2.44.88-.11.59-.6.45-.39-.13-.28-.59-1.18-.27-.1-.12Zm-.48,9.34-.37-1.18.2-.46,1,0,.19.94-.12.94-.41.69-.4.1Zm.29,20.25-.19-.47v-.23l.69,0,.18.83Zm1.21-1.71-.68-.37-.55-2,.11-.58.1-.23h.49l.58.6-.21.82.38.82Zm3.07,4.06-1.36-.86.2-.34.69-.1.48.72Zm.12-6.32L109,151l-2.37.16-.27-1.17-.1-.12.21-.46.29-.11,1.17.62,1.1-.56,1.46.63Zm1.37-4.17-.49-.48-.19-.12.2-.35.7-.1.32-1.62.58.6-.2.46.46,1.3-.3.34Z"/></svg>