<?xml version="1.0" encoding="utf-8"?>
<!-- Generator: Adobe Illustrator 23.0.2, SVG Export Plug-In . SVG Version: 6.00 Build 0)  -->
<svg version="1.1" id="Layer_1" xmlns="http://www.w3.org/2000/svg" xmlns:xlink="http://www.w3.org/1999/xlink" x="0px" y="0px"
	 viewBox="0 0 610 610" style="enable-background:new 0 0 610 610;" xml:space="preserve">
<style type="text/css">
	.st0{fill:#00B189;}
	.st1{fill:none;}
	.st2{fill:#00A79D;}
	.st3{fill:#FFFFFF;}
</style>
<polygon class="st0" points="333.7,563.03 334.06,562.65 333.65,562.72 "/>
<polygon class="st0" points="311.17,581.48 311.42,581.76 311.27,581.38 "/>
<polygon class="st0" points="315.8,570.37 316.1,570.34 316.43,570.32 315.78,570.32 "/>
<polygon class="st0" points="328.16,559.42 328.22,559.08 327.89,558.79 "/>
<polygon class="st0" points="325.12,572.63 325.36,572.91 325.22,572.52 "/>
<polygon class="st0" points="322.88,569.14 322.9,569.25 322.84,568.81 "/>
<polygon class="st0" points="329.74,561.52 330.05,561.48 330.38,561.47 329.73,561.47 "/>
<polygon class="st0" points="343.24,550.79 343.56,550.69 343.24,550.69 "/>
<polygon class="st0" points="347.64,554.18 348,553.79 347.6,553.86 "/>
<polygon class="st0" points="350.36,560.79 350.39,560.72 350.62,561.02 350.38,560.55 "/>
<polygon class="st0" points="336.83,560.28 336.85,560.4 336.79,559.96 "/>
<polygon class="st0" points="336.41,569.64 336.45,569.57 336.68,569.87 336.43,569.4 "/>
<g>
	<polygon class="st1" points="141.37,180.39 141.84,180.37 142.03,180.38 141.76,180.08 	"/>
	<polygon class="st1" points="141.06,183.61 140.77,183.94 141.16,183.71 141.14,183.57 	"/>
	<polygon class="st1" points="138.36,175.59 137.64,175.81 137.2,176.13 137.77,176.28 138.35,176.75 138.68,176.79 139.37,176.41 
		139.4,175.98 138.93,175.81 	"/>
	<polygon class="st1" points="140.57,177.26 140.23,177.5 140.69,177.51 140.52,177.36 	"/>
	<polygon class="st1" points="153.29,167.82 153.49,167.59 153.47,167.61 	"/>
	<polygon class="st1" points="149.89,178.59 149.99,178.56 149.86,178.58 	"/>
	<polygon class="st1" points="117.83,190.36 117.49,190.6 117.95,190.61 117.78,190.46 	"/>
	<polygon class="st1" points="118.32,196.71 118.03,197.03 118.42,196.81 118.4,196.67 	"/>
	<polygon class="st1" points="153.84,166.09 153.91,166.27 153.64,166.63 154.16,166.65 154.14,166.26 	"/>
	<polygon class="st1" points="134.78,176.69 134.92,177.21 135.4,176.86 135.43,176.65 135.17,176.76 	"/>
	<polygon class="st1" points="115.62,188.68 114.9,188.9 114.46,189.23 115.03,189.38 115.61,189.84 115.94,189.89 116.63,189.51 
		116.66,189.08 116.19,188.91 	"/>
	<polygon class="st1" points="118.62,193.49 119.1,193.47 119.28,193.48 119.02,193.19 	"/>
	<polygon class="st1" points="133.01,175.66 133.43,175.62 133.45,175.51 133.4,175.53 	"/>
	<polygon class="st1" points="174.16,167.15 173.86,167.56 174.33,167.33 174.3,167.12 	"/>
	<polygon class="st1" points="182.88,150.18 182.9,150.68 183.29,150.41 183.36,150.25 183.15,150.32 	"/>
	<polygon class="st1" points="196.9,154.06 196.6,154.46 197.07,154.23 197.04,154.02 	"/>
	<polygon class="st1" points="182.08,160.15 181.97,160.64 182.38,160.64 182.56,160.58 182.44,160.39 	"/>
	<polygon class="st1" points="466.34,179.3 466.1,179.31 465.6,179.19 466.18,179.45 	"/>
	<polygon class="st1" points="179.02,161.76 179.04,161.73 178.94,161.84 	"/>
	<polygon class="st1" points="345.82,119.44 345.52,119.7 345.84,119.47 345.82,119.4 	"/>
	<polygon class="st1" points="201.76,148.66 201.78,148.63 201.68,148.74 	"/>
	<polygon class="st1" points="160.14,163.28 160.16,163.77 160.55,163.51 160.62,163.34 160.41,163.42 	"/>
	<polygon class="st1" points="172.63,165.5 172.74,165.46 172.6,165.48 	"/>
	<polygon class="st1" points="157.52,163.59 157.66,164.11 158.14,163.76 158.17,163.55 157.91,163.66 	"/>
	<polygon class="st1" points="159.53,173.61 159.64,173.71 159.77,173.66 159.83,173.32 159.21,173.1 	"/>
	<polygon class="st1" points="176.58,153 176.65,153.17 176.38,153.53 176.9,153.55 176.88,153.16 	"/>
	<polygon class="st1" points="113.58,435.02 113.95,435.11 113.56,434.91 113.64,434.99 	"/>
	<polygon class="st1" points="176.04,154.72 176.22,154.5 176.21,154.51 	"/>
	<polygon class="st1" points="328.86,275.68 329.88,275.68 329.88,273.86 329.27,273.24 	"/>
	<polygon class="st1" points="385.05,356.79 384.03,355.57 382.8,354.65 381.57,355.26 381.17,357.1 383.42,358.62 384.44,358.31 	
		"/>
	<path class="st1" d="M308.79,498.47c-0.06,0.32-0.12,0.64-0.17,0.95C308.71,499.15,308.76,498.83,308.79,498.47z"/>
	<polygon class="st1" points="340.5,267.15 341.73,265.92 340.91,265.92 	"/>
	<polygon class="st1" points="321.91,185.85 320.89,185.24 320.89,187.68 322.12,187.68 	"/>
	<polygon class="st1" points="351.74,250.98 352.36,249.46 352.56,247.32 351.13,247.02 350.52,248.55 350.11,249.77 350.31,251.29 
			"/>
	<polygon class="st1" points="297.6,219.28 297.6,217.75 295.96,218.05 296.57,218.66 	"/>
	<polygon class="st1" points="345.41,366.85 345.61,368.68 346.23,369.59 347.25,368.98 346.84,367.15 	"/>
	<polygon class="st1" points="333.15,495.22 333.35,493.38 331.92,493.99 332.13,495.82 	"/>
	<polygon class="st1" points="273.89,494.7 274.92,495.61 275.12,493.78 274.3,492.56 	"/>
	<polygon class="st1" points="114.55,447.61 114.84,447.28 114.44,447.51 114.47,447.65 	"/>
	<polygon class="st1" points="342.27,219.07 342.96,218.47 343.91,218.26 344.86,220.5 345.41,217.86 344.59,217.04 343.09,215.83 
		341.59,215.62 340.64,216.03 340.5,217.04 341.19,218.87 	"/>
	<rect x="375.65" y="401.61" class="st1" width="0.61" height="1.22"/>
	<polygon class="st1" points="339.07,496.13 339.07,497.65 339.69,497.34 	"/>
	<polygon class="st1" points="268.29,524.01 267.88,525.53 268.49,526.74 269.72,527.36 269.93,525.83 269.31,524.62 	"/>
	<polygon class="st1" points="111.5,435.72 111.27,435.73 110.77,435.61 111.34,435.87 	"/>
	<polygon class="st1" points="127.44,448.84 127.38,448.7 127.41,448.81 	"/>
	<polygon class="st1" points="112.4,439.76 111.81,439.52 110.96,439.61 110.69,440.13 111.18,440.28 111.82,440.66 112.09,440.68 
		113,440.54 112.52,440.11 	"/>
	<polygon class="st1" points="147.56,459.24 147.6,458.66 147.08,459 147,459.24 147.33,459.38 	"/>
	<polygon class="st1" points="115.83,444.3 115.21,443.97 115.17,444.31 115.28,444.25 	"/>
	<polygon class="st1" points="122.02,446.52 122.01,446.52 121.42,446.84 122.04,446.6 	"/>
	<polygon class="st1" points="254.07,352.82 253.46,353.74 254.48,354.35 	"/>
	<polygon class="st1" points="280.84,418.69 280.84,420.82 281.66,421.42 	"/>
	<rect x="249.17" y="347.64" class="st1" width="1.23" height="1.83"/>
	<polygon class="st1" points="109.38,394.2 109.55,394.19 109.94,394.08 109.45,394.19 	"/>
	<polygon class="st1" points="111.87,407.31 111.85,407.39 111.49,407.7 111.78,407.73 	"/>
	<polygon class="st1" points="102.04,421.62 102.05,421.58 102.34,421.32 102.02,421.55 	"/>
	<polygon class="st1" points="466.65,183.13 465.93,183.35 465.49,183.68 466.05,183.82 466.63,184.29 466.96,184.33 467.66,183.96 
		467.69,183.52 467.22,183.36 	"/>
	<polygon class="st1" points="497.71,292.65 497.74,292.68 497.67,292.54 	"/>
	<polygon class="st1" points="501.1,201.05 501.43,201.09 502.12,200.71 502.15,200.28 501.69,200.12 501.11,199.89 500.4,200.11 
		499.96,200.44 500.52,200.58 	"/>
	<polygon class="st1" points="498.44,228.73 498.18,229.2 498.43,229.92 498.58,230.13 498.87,230.05 499.33,229.51 498.78,228.97 	
		"/>
	<polygon class="st1" points="500.8,196.06 500.57,196.06 500.07,195.95 500.64,196.21 	"/>
	<polygon class="st1" points="499.93,298.52 500.56,298.97 500.4,298.55 	"/>
	<polygon class="st1" points="500.99,294.89 501.04,294.99 501.46,295.05 501.54,294.51 501.16,294.76 	"/>
	<polygon class="st1" points="497.04,258.28 497.19,258.25 497.49,257.85 497.02,258.08 	"/>
	<polygon class="st1" points="494.72,293.22 494.95,293.7 495.3,293.81 495.42,293.53 495.64,293.12 495.05,292.85 	"/>
	<polygon class="st1" points="501.04,236.55 500.41,236.54 500.6,237.01 500.79,237.26 501.49,237.6 501.58,237.48 501.28,236.76 	
		"/>
	<polygon class="st1" points="494.69,245.98 494.59,245.95 494.61,246 494.74,246.39 	"/>
	<polygon class="st1" points="495.61,263.09 495.03,263.05 495.53,263.36 495.64,263.57 495.86,263.6 495.85,263.49 	"/>
	<polygon class="st1" points="497.43,284.92 496.85,285.23 497.47,284.99 497.45,284.92 	"/>
	<polygon class="st1" points="497.31,265.1 497.37,264.97 497.21,264.81 496.81,264.96 497.13,265.24 	"/>
	<polygon class="st1" points="505.74,197.9 505.88,197.78 505.97,197.63 505.44,197.48 	"/>
	<polygon class="st1" points="506.52,265.98 506.67,266.14 506.96,266.06 507.17,265.8 506.71,265.61 	"/>
	<polygon class="st1" points="493.73,259.09 493.78,258.92 494.19,258.53 493.71,258.71 	"/>
	<polygon class="st1" points="505.59,233.55 505.34,233.89 505.79,233.63 505.77,233.51 	"/>
	<polygon class="st1" points="505.66,236.63 505.82,236.56 505.91,236.44 505.32,236.26 	"/>
	<polygon class="st1" points="506.61,235.98 506.4,235.91 506.44,236.11 506.82,236.66 507.21,236.43 506.84,236.11 	"/>
	<polygon class="st1" points="501.85,202.82 502.17,202.96 502.4,202.82 502.44,202.24 501.92,202.58 	"/>
	<polygon class="st1" points="503.32,201.57 502.98,201.81 503.44,201.82 503.28,201.66 	"/>
	<polygon class="st1" points="502.81,287.17 502.84,287.13 502.73,287.25 	"/>
	<polygon class="st1" points="503.77,207.99 503.85,207.95 504.14,207.62 503.75,207.85 	"/>
	<polygon class="st1" points="504.52,204.39 504.12,204.7 504.59,204.67 504.78,204.68 	"/>
	<polygon class="st1" points="504.64,222.23 504.93,222.25 504.93,221.94 	"/>
	<polygon class="st1" points="504.96,264.81 505.01,264.79 505.4,264.66 504.98,264.71 	"/>
	<polygon class="st1" points="472.85,448.17 473.02,448.5 473.18,448.6 473.37,448.45 473.26,448.01 	"/>
	<polygon class="st1" points="381.27,501.64 381.3,502.1 381.49,501.93 381.73,501.91 381.69,501.47 	"/>
	<polygon class="st1" points="383.26,496.31 382.7,496.31 382.8,496.78 383.52,497.06 383.71,496.98 383.94,496.8 383.62,496.63 	
		"/>
	<polygon class="st1" points="380.86,507.45 381.13,507.3 380.85,507.42 	"/>
	<polygon class="st1" points="384.83,493.23 384.98,493.2 385.28,492.79 384.81,493.02 	"/>
	<polygon class="st1" points="385.02,497.56 385.04,497.56 385.03,497.55 	"/>
	<polygon class="st1" points="390.03,491.78 390.2,492.11 390.35,492.21 390.55,492.06 390.43,491.62 	"/>
	<polygon class="st1" points="377.81,499.48 377.98,499.81 378.14,499.9 378.33,499.76 378.22,499.31 	"/>
	<polygon class="st1" points="482.23,192.35 482.25,192.32 482.15,192.44 	"/>
	<polygon class="st1" points="492.49,262.23 492.5,262.12 492.94,261.79 492.4,262.02 	"/>
	<polygon class="st1" points="373.2,508.94 373.61,507.41 372.59,508.02 	"/>
	<polygon class="st1" points="393.49,493.94 393.52,494.4 393.71,494.23 393.94,494.21 393.91,493.77 	"/>
	<polygon class="st1" points="469.65,187.94 470.12,187.91 470.31,187.93 470.05,187.63 	"/>
	<polygon class="st1" points="372.77,500.89 373.06,500.49 372.59,500.72 372.62,500.93 	"/>
	<polygon class="st1" points="371.05,504.01 370.48,504.01 370.58,504.48 371.31,504.76 371.49,504.67 371.73,504.5 371.41,504.33 	
		"/>
	<polygon class="st1" points="477.1,190.32 477.32,190.1 477.16,190.23 	"/>
	<polygon class="st1" points="467.66,449.62 467.8,449.59 468.09,449.18 467.63,449.41 	"/>
	<polygon class="st1" points="424.76,480.26 424.79,480.29 424.73,480.15 	"/>
	<polygon class="st1" points="452.96,455.66 453.1,455.91 453.18,455.98 453.51,456.05 453.49,455.48 	"/>
	<polygon class="st1" points="466.08,452.7 465.52,452.7 465.62,453.17 466.34,453.45 466.53,453.36 466.76,453.19 466.44,453.02 	
		"/>
	<polygon class="st1" points="480.05,446.26 480.08,446.25 480.06,446.25 	"/>
	<polygon class="st1" points="476.31,450.33 476.34,450.79 476.53,450.62 476.76,450.6 476.73,450.16 	"/>
	<polygon class="st1" points="468.85,184.81 468.51,185.05 468.98,185.06 468.81,184.9 	"/>
	<polygon class="st1" points="397.23,489.87 397.26,489.86 397.24,489.86 	"/>
	<polygon class="st1" points="411.82,479.1 411.9,479.06 412.18,478.73 411.79,478.96 	"/>
	<polygon class="st1" points="416.64,486.28 416.87,486.75 417.22,486.87 417.34,486.59 417.56,486.17 416.97,485.9 	"/>
	<polygon class="st1" points="419.36,477.97 418.77,478.29 419.39,478.05 419.37,477.97 	"/>
	<polygon class="st1" points="419.63,485.71 419.66,485.74 419.6,485.6 	"/>
	<polygon class="st0" points="474,489.56 474.32,490 474.31,489.57 	"/>
	<polygon class="st0" points="493.6,474.89 493.87,474.64 493.54,474.85 	"/>
	<polygon class="st0" points="451.75,491.79 452.07,491.69 451.74,491.69 	"/>
	<polygon class="st0" points="431.38,510.13 431.41,510.25 431.35,509.81 	"/>
	<polygon class="st0" points="436.67,500.42 436.72,500.08 436.4,499.79 	"/>
	<polygon class="st0" points="444.92,510.64 444.95,510.57 445.18,510.87 444.94,510.4 	"/>
	<polygon class="st0" points="442.2,504.03 442.56,503.65 442.16,503.71 	"/>
	<polygon class="st0" points="424.3,511.37 424.61,511.34 424.94,511.32 424.29,511.32 	"/>
	<polygon class="st0" points="380.23,545.32 380.35,545.35 380.33,545.26 	"/>
	<polygon class="st0" points="304.89,469.18 304.83,469.06 304.85,469.21 305.17,469.74 	"/>
	<polygon class="st0" points="399.04,525.03 399.31,524.79 398.98,525 	"/>
	<polygon class="st0" points="379.44,539.71 379.76,540.15 379.75,539.72 	"/>
	<polygon class="st0" points="419.68,522.48 419.92,522.76 419.78,522.37 	"/>
	<polygon class="st0" points="385.09,533.89 385.37,533.64 385.03,533.85 	"/>
	<polygon class="st0" points="365.5,548.56 365.81,549 365.8,548.57 	"/>
	<path class="st2" d="M508.36,412.33l-0.17-1.6l-0.07-1.6l0.19-1.6l-0.33-1.6l-0.11-1.59l0.02-1.59l0.36-1.59l0-1.6l-0.07-1.6
		l-0.29-1.6l0.18-1.6l0.2-1.6l-0.22-1.6l-0.09-1.6l0.37-1.6l-0.08-1.61l-0.14-1.6l0.23-1.61l-0.34-1.6l-0.05-1.61l0.01-1.61
		l0.18-1.62l0.21-1.62l-0.21-1.67l0.02-1.67l0.01-1.67l-0.23-1.68l0.28-1.68l0.1-1.68l-0.35-1.68l0.26-1.58l0-1.58l-0.26-1.58
		l-0.04-1.59l-0.02-1.59l0.39-1.58l-0.28-1.58l0.18-1.58l-0.08-1.58l0.24-1.58l-0.11-1.58l-0.08-1.58l-0.01-1.58l0.04-1.58
		l-0.05-1.58l-0.13-1.58l0.17-1.58l-0.15-1.58l0.1-1.58l0.15-1.59l-0.08-1.59l0.1-1.59l-0.33-1.59l0.14-1.59l0.18-1.59l0.02-1.58
		l-0.08-1.58l-0.05-1.57l0.08-1.57l-0.3-1.58l0.3-1.58l0.03-1.58l-0.04-1.58l-0.04-1.59l0.09-1.58l-0.43-1.59l0.24-1.58l-0.25-1.58
		l0.18-1.58l0.2-1.58l0.1-1.58l-0.33-1.58l0.15-1.58l-0.06-1.58l-0.13-1.58l0.16-1.58l-0.17-1.58l0.26-1.58l-0.32-1.58l0.23-1.58
		l0.21-1.59l-0.02-1.59l-0.08-1.59l-0.24-1.59l-0.12-1.59l0.29-1.59l0.16-1.58l-0.16-1.58l0.07-1.58l-0.14-1.59l0.06-1.59l0.16-1.59
		l-0.26-1.59l0.13-1.59l-0.23-1.59l0.29-1.59l0.01-1.59l-0.16-1.59l-0.07-1.59l0.06-1.59l0.1-1.59l-0.1-1.59l-0.15-1.59l-0.05-1.58
		l0.37-1.58l0.03-1.58l-0.07-1.59l0.13-1.6l-0.49-1.59l0.38-1.59l-0.19-1.59l0.21-1.6l-0.14-1.6l0.17-1.59l-0.07-1.6l-0.15-1.6
		l0-1.6l-0.14-1.59l-0.06-1.6l0.02-1.6l0.16-1.61l-0.1-1.61l0.21,0.01l-0.13-0.18l0.22,0.19l-0.32-1.53l0.2-1.51l0.13-1.51
		l-0.03-1.51l0.07-1.51l-0.41-1.51l0.4-1.51l-0.33-1.51l-0.08-1.52l0.3-1.52l0.19-1.52l-0.41-1.49l-0.16-1.5l-0.34-1.49l-1.09-1.14
		l-0.64-1.37l-1.17-0.95l-0.94-1.21l-1.4-0.61l-1.97-0.99l-0.23,0.1l-0.09-0.17l-1.23-1.02l-1.49-0.58l-1.24-1.04l-1.59-0.4
		l-1.29-0.94l-1.53-0.5l-1.34-0.87l-1.36-0.82l-1.38-0.78l-1.39-0.77l-1.39-0.76l-1.51-0.55l-1.29-0.95l-1.35-0.84l-1.39-0.78
		l-1.48-0.61l-1.28-0.96l-1.63-0.34l-1.19-1.14l-1.43-0.71l-1.54-0.49l-1.35-0.86l-1.46-0.65l-1.23-1.06l-1.41-0.74l-1.59-0.42
		l-1.26-1.01l-1.33-0.89l-1.49-0.6l-1.35-0.85l-1.38-0.78l-1.44-0.67l-1.36-0.84l-1.38-0.79l-1.59-0.42l-1.36-0.81l-1.28-0.98
		l-1.57-0.45l-1.28-0.96l-1.45-0.67l-1.4-0.75l-1.32-0.9l-1.5-0.57l-1.44-0.69l-1.28-0.97l-1.45-0.67l-1.29-0.96l-1.48-0.62
		l-1.43-0.7l-1.45-0.66l-1.3-0.93l-1.54-0.51l-1.22-1.1l-1.39-0.78l-1.55-0.47l-1.29-0.95l-1.45-0.65l-1.53-0.53l-1.28-0.98
		l-1.3-0.93l-1.56-0.46l-1.41-0.74l-1.3-0.94l-1.38-0.77l-1.54-0.47l-1.27-0.97l-1.34-0.84l-1.42-0.69l-1.49-0.56l-1.36-0.8
		l-1.28-0.96l-1.59-0.41l-1.16-1.18l-1.58-0.42l-1.33-0.87l-1.43-0.7l-1.34-0.87l-1.35-0.84l-1.58-0.44l-1.29-0.98l-1.47-0.64
		l-1.35-0.86L384,127.5l-1.54-0.5l-1.35-0.84l-1.4-0.77l-1.37-0.81l-1.43-0.7l-1.49-0.59l-1.35-0.85l-1.44-0.69l-1.26-1l-1.57-0.45
		l-1.38-0.8l-1.39-0.79l-1.4-0.76l-1.23-1.08l-1.62-0.37l-1.24-1.06l-1.49-0.61l-1.35-0.86l-1.5-0.58l-1.25-1.04l-1.46-0.66
		l-1.43-0.71l-1.34-0.89l-1.45-0.68l-1.56-0.5l-1.35-0.87l-1.44-0.7l-1.41-0.76l-1.29-0.97l-1.57-0.47l-1.38-0.82l-1.4-0.78
		l-1.38-0.81l-1.38-0.81l-1.28-0.97l-1.47-0.63l-1.55-0.5l-1.34-0.89l-1.29-0.97l-1.48-0.65l-1.49-0.61l-1.43-0.71l-1.23-1.09
		l-1.44-0.72l-1.38-0.82l-1.57-0.48l-1.34-0.91l-1.55-0.52l-1.21-1.13l-1.49-0.61l-1.51-0.61l-1.43-0.75l-1.44-0.74l-1.34-0.93
		l-1.43-0.71l-1.57-0.31l-1.56-0.37l-1.6,0.19l-1.62-0.03l-1.51,0.56l-1.49,0.61l-1.32,0.88l-1.51,0.54l-1.32,0.89l-1.36,0.8
		l-1.53,0.5l-1.37,0.81l-1.25,1.02l-1.54,0.49l-1.42,0.7l-1.28,0.97l-1.38,0.78l-1.3,0.94l-1.4,0.76l-1.42,0.72l-1.47,0.62
		l-1.4,0.77l-1.41,0.73l-1.3,0.95l-1.62,0.35l-1.36,0.82l-1.34,0.86l-1.46,0.64l-1.4,0.75l-1.22,1.07l-1.53,0.51l-1.26,1l-1.41,0.74
		l-1.52,0.52l-1.42,0.7l-1.37,0.8l-1.24,1.04l-1.42,0.72l-1.49,0.59l-1.46,0.63l-1.39,0.75l-1.22,1.08l-1.44,0.67l-1.34,0.87
		l-1.43,0.69l-1.42,0.73l-1.42,0.71l-1.32,0.92l-1.59,0.41l-1.25,1.02l-1.45,0.66l-1.52,0.54l-1.25,1.02l-1.46,0.65l-1.46,0.65
		l-1.27,0.99l-1.43,0.7l-1.46,0.63l-1.4,0.75l-1.29,0.95l-1.41,0.73l-1.54,0.5l-1.2,1.09l-1.44,0.65l-1.49,0.56l-1.2,1.09l-1.41,0.7
		l-1.37,0.78l-1.42,0.69l-1.42,0.7l-1.53,0.5l-1.32,0.88l-1.46,0.63l-1.38,0.78l-1.23,1.07l-1.59,0.4l-1.27,1l-1.31,0.92l-1.61,0.39
		l-1.24,1.07l-1.47,0.63l-1.47,0.62l-1.33,0.88l-1.49,0.58l-1.37,0.81l-1.34,0.86l-1.37,0.8l-1.34,0.86l-1.57,0.44l-1.36,0.82
		l-1.27,0.99l-1.35,0.84l-1.38,0.78l-1.56,0.47l-1.36,0.83l-1.51,0.57l-1.22,1.11l-1.56,0.47l-1.31,0.93l-1.31,0.92l-1.43,0.7
		l-1.43,0.71l-1.43,0.71l-1.42,0.72l-1.53,0.54l-1.32,0.92l-1.36,0.85l-1.37,0.84l-1.53,0.53l-1.46,0.67l-1.3,0.95l-1.43,0.71
		l-1.43,0.72l-1.31,0.95l-1.49,0.59l-1.26,1.01l-1.41,0.74l-1.51,0.54l-1.33,0.89l-1.48,0.62l-1.4,0.78l-1.27,1.03l-1.62,0.36
		l-1.26,1.04l-1.44,0.7l-1.53,0.55l-1.27,1.02l-1.47,0.66l-1.49,0.62l-1.21,1.14l-1.47,0.65l-1.45,0.69l-1.41,0.78l-1.43,0.74
		l-1.3,1.01l-1.62,0.41l0.14,0.37l-0.08-0.14l-1.51,0.69l-1.4,0.88l-1.48,0.73l-1.41,0.86l-1.5,0.7l-1.39,0.91l-1.57,0.6l-1.38,0.94
		l-1.43,0.56l-0.93,1.24l-0.94,1.13l-1.03,1.09l-0.64,1.36l-0.54,1.39l-0.19,1.48l-0.05,1.48l-0.31,1.57l0.12,1.57l0.12,1.57
		l-0.1,1.57l0.16,1.57l0.06,1.57l-0.17,1.57l-0.11,1.57l-0.14,1.57l0.09,1.58l0.04,1.57l-0.06,1.58l0.14,1.58l-0.23,1.58l0.13,1.58
		l0.05,1.58L97.7,228l0.13,1.58l-0.36,1.58l0.17,1.57l-0.08,1.58l0,1.57l-0.07,1.57l-0.07,1.57l0.31,1.57l0.07,1.58l0.04,1.57
		l-0.45,1.58l0.31,1.57l-0.13,1.58l0.17,1.58l-0.22,1.58l0.21,1.58l-0.3,1.58l0.24,1.58l0.01,1.58l0.05,1.58l-0.39,1.58l0.3,1.57
		l-0.25,1.57l0.22,1.57l-0.01,1.57l0.07,1.57l-0.26,1.58l0.21,1.58l0.18,1.58l-0.43,1.58l0.19,1.58l-0.05,1.58l0.06,1.57l-0.14,1.57
		l0,1.57l0.2,1.57l0.07,1.57l0.12,1.57l-0.33,1.57l0.24,1.57l-0.03,1.57l-0.2,1.57l-0.06,1.57l0.15,1.57l0.01,1.58l0.09,1.58
		l-0.09,1.58l-0.23,1.58l0.21,1.58l0.09,1.58l-0.12,1.58l0,1.58l-0.21,1.58l0.32,1.58l0.16,1.58l-0.33,1.58l-0.14,1.58l0.35,1.58
		l-0.34,1.58l0.32,1.58l-0.12,1.58l0,1.58l0.13,1.59l0.13,1.59l-0.26,1.58l0.25,1.58l-0.14,1.58l-0.13,1.57l0.29,1.57l-0.21,1.58
		v1.58l-0.16,1.59l-0.01,1.58l-0.06,1.58l0.23,1.58l0.02,1.59l0.18,1.59l0,1.59l-0.26,1.59l-0.2,1.59l0.16,1.59l0.2,1.59l-0.2,1.59
		l0.23,1.6l-0.23,1.6l0.18,1.6l0.16,1.46l-0.31,1.46l-0.11,1.47l0.29,1.47l-0.03,1.47l-0.04,1.59l-0.06,1.59l-0.15,1.58l0.17,1.58
		l0.15,1.58l-0.03,1.58l-0.37,1.58l0.01,1.59l0.26,1.59l0.05,1.59l0.09,1.59l-0.07,1.59l-0.35,1.59l0.04,1.59l0.23,1.59l0.1,1.59
		l0.01,1.59l0.12,1.59l-0.31,1.59l0.06,1.59l-0.15,1.58l0.08,1.58l0.27,1.58l-0.04,1.59l-0.36,1.59l0.17,1.59l-0.15,1.59l0.26,1.59
		l-0.13,1.6l0.16,1.59l0.03,1.59l-0.17,1.6l-0.12,1.59l0.33,1.59l-0.23,1.59l0.06,1.6l0.17,1.6l-0.06,1.61l0.08,1.61l-0.32,1.52
		l0.66,1.4l0.21,1.51l0.96,1.19l0.79,1.25l0.94,1.17l1.11,1.02l1.34,0.7l1.26,1l1.61,0.36l1.18,1.16l1.48,0.6l1.43,0.7l1.49,0.58
		l1.34,0.85l1.47,0.62l1.39,0.76l1.32,0.89l1.41,0.73l1.4,0.76l1.35,0.85l1.41,0.73l1.27,1l1.58,0.43l1.34,0.87l1.38,0.8l1.38,0.8
		l1.45,0.67l1.38,0.79l1.44,0.7l1.32,0.91l1.56,0.48l1.26,1.01l1.34,0.88l1.42,0.73l1.38,0.79l1.61,0.37l1.39,0.77l1.36,0.83
		l1.29,0.95l1.49,0.58l1.3,0.93l1.44,0.68l1.44,0.68l1.35,0.85l1.53,0.51l1.4,0.76l1.38,0.8l1.39,0.78l1.22,1.08l1.58,0.44
		l1.38,0.79l1.38,0.79l1.49,0.6l1.2,1.14l1.55,0.49l1.23,1.07l1.53,0.52l1.49,0.61l1.32,0.91l1.41,0.76l1.34,0.87l1.51,0.56
		l1.28,0.98l1.36,0.83l1.49,0.61l1.51,0.56l1.27,0.99l1.53,0.52l1.39,0.77l1.27,1l1.42,0.73l1.41,0.73l1.52,0.52l1.3,0.93l1.3,0.92
		l1.47,0.62l1.51,0.54l1.24,1.04l1.35,0.83l1.59,0.39l1.38,0.78l1.19,1.13l1.53,0.52l1.28,0.97l1.39,0.78l1.47,0.64l1.41,0.75
		l1.49,0.62l1.45,0.68l1.29,0.97l1.49,0.6l1.26,1.01l1.56,0.47l1.22,1.08l1.39,0.77l1.5,0.58l1.32,0.91l1.37,0.81l1.4,0.75
		l1.51,0.56l1.49,0.6l1.15,0.63v-14.06l-1.31-0.67l-1.36-0.81l-1.37-0.81l-1.26-1.01l-1.47-0.63l-1.33-0.88l-1.41-0.73l-1.56-0.44
		l-1.2-1.11l-1.52-0.51l-1.48-0.59l-1.18-1.12l-1.56-0.45l-1.32-0.88l-1.32-0.89l-1.45-0.63l-1.3-0.93l-1.42-0.7l-1.45-0.65
		l-1.42-0.72l-1.46-0.65l-1.23-1.08l-1.43-0.69l-1.52-0.52l-1.44-0.67l-1.41-0.73l-1.24-1.05l-1.43-0.68l-1.29-0.95l-1.59-0.41
		l-1.24-1.05l-1.5-0.58l-1.49-0.6l-1.37-0.81l-1.37-0.81l-1.37-0.8l-1.38-0.8l-1.28-0.98l-1.49-0.6l-1.45-0.67l-1.43-0.68
		l-1.26-0.98l-1.34-0.85l-1.5-0.57l-1.37-0.8l-1.38-0.8l-1.51-0.58l-1.31-0.92l-1.54-0.5l-1.39-0.78l-1.29-0.97l-1.48-0.63
		l-1.33-0.9l-1.42-0.75l-1.55-0.5l-1.19-1.16l-1.55-0.48l-1.38-0.82l-1.29-0.98l-1.56-0.51l-1.36-0.87l-0.15-0.07l-0.36,0.51
		l-0.04-0.59l0.12-0.02l-1.39-0.73l-1.36-0.77l-1.5-0.51l-1.17-1.1l-1.56-0.41l-1.3-0.87l-1.32-0.84l-1.43-0.66l-1.36-0.81
		l-1.42-0.67l-1.33-0.83l-1.45-0.62l-1.29-0.94l-1.46-0.6l-1.25-1l-1.56-0.44l-1.42-0.69l-1.28-0.95l-1.41-0.7l-1.37-0.8l-1.45-0.65
		l-1.42-0.71l-1.25-1.02l-1.38-0.75l-1.27-0.96l-0.93-1.28l-0.96-1.28l-0.66-1.46l-0.2-1.59l0-1.58l0.14-1.57l-0.08-1.57l-0.05-1.57
		l0.06-1.57l-0.14-1.57l0.23-1.57l-0.13-1.57l-0.05-1.57l-0.14-1.57l-0.12-1.57l0.35-1.57l-0.17-1.57l0.08-1.57l0-1.57l0.08-1.57
		l0.07-1.57l-0.31-1.57l-0.08-1.56l-0.04-1.56l0.45-1.57l-0.31-1.57l0.13-1.58l-0.17-1.57l0.22-1.57l-0.21-1.57l0.3-1.58l-0.24-1.58
		l-0.01-1.58l-0.05-1.58l0.39-1.58l-0.3-1.58l0.25-1.57l-0.22-1.58l0.01-1.59l-0.08-1.59l0.27-1.59l-0.21-1.46l-0.18-1.46l0.43-1.47
		l-0.19-1.47l0.05-1.47l-0.06-1.58l0.14-1.58l0.01-1.58l-0.2-1.58l-0.07-1.58l-0.12-1.59l0.33-1.58l-0.24-1.59l0.03-1.59l0.2-1.59
		l0.06-1.59l-0.15-1.59l-0.01-1.59l-0.09-1.58l0.09-1.59l0.23-1.59l-0.2-1.58l-0.09-1.59l0.12-1.58v-1.58l0.21-1.59l-0.32-1.58
		l-0.16-1.58l0.33-1.59l0.14-1.58l-0.35-1.59l0.34-1.59l-0.32-1.59l0.12-1.59l0-1.59l-0.13-1.59l-0.13-1.59l0.26-1.59l-0.25-1.59
		l0.14-1.58l0.13-1.58l-0.29-1.58l0.21-1.58v-1.58l0.16-1.58l0-1.59l0.06-1.59l-0.22-1.59l-0.02-1.59l-0.18-1.59l0-1.59l0.26-1.58
		l0.21-1.58l-0.16-1.58l-0.2-1.58l0.2-1.58l-0.23-1.58l0.23-1.58l-0.18-1.58l-0.16-1.58l0.31-1.59l0.12-1.59l-0.29-1.59l0.03-1.59
		l0.04-1.59l0.06-1.59l0.15-1.59l-0.17-1.59l-0.15-1.59l0.03-1.59l0.37-1.59l-0.01-1.59l-0.26-1.59l-0.05-1.59l-0.09-1.6l0.07-1.59
		l0.35-1.59l-0.04-1.59l-0.23-1.59l-0.1-1.59l-0.01-1.59l-0.13-1.6l0.31-1.59l-0.06-1.59l0.15-1.59l-0.08-1.58l-0.27-1.58l0.04-1.59
		l0.36-1.59l-0.17-1.6l0.15-1.59l-0.26-1.59l0.13-1.59l-0.16-1.6l-0.03-1.6l0.17-1.6l0.12-1.6l-0.33-1.6l0.23-1.6l-0.06-1.59
		l-0.18-1.6l0.05-1.6l-0.08-1.61l0.42-1.61l-0.24-1.6l0.65-1.47l0.3-1.58l0.88-1.34l1.09-1.16l1.23-0.99l1.26-0.96l1.53-0.5
		l1.17-1.15l1.61-0.35l1.31-0.91l1.36-0.81l1.3-0.93l1.44-0.66l1.32-0.89l1.39-0.75l1.46-0.62l1.38-0.78l1.4-0.75l1.45-0.66
		l1.38-0.79l1.53-0.51l1.22-1.08l1.45-0.64l1.42-0.71l1.42-0.71l1.35-0.84l1.41-0.72l1.36-0.81l1.47-0.6l1.24-1.03l1.53-0.5
		l1.45-0.63l1.38-0.78l1.41-0.72l1.18-1.14l1.4-0.74l1.43-0.68l1.5-0.56l1.3-0.92l1.49-0.58l1.35-0.83l1.35-0.84l1.44-0.67l1.26-1
		l1.4-0.75l1.42-0.71l1.41-0.73l1.57-0.43l1.22-1.08l1.41-0.72l1.41-0.72l1.31-0.91l1.6-0.38l1.25-1.02l1.56-0.44l1.26-0.99
		l1.31-0.9l1.48-0.6l1.39-0.75l1.44-0.64l1.28-0.95l1.51-0.52l1.42-0.68l1.3-0.9l1.27-0.95l1.51-0.51l1.25-0.99l1.39-0.73l1.52-0.51
		l1.37-0.78l1.38-0.78l1.26-0.98l1.49-0.58l1.48-0.59l1.32-0.89l1.28-0.97l1.56-0.47l1.44-0.68l1.2-1.12l1.41-0.73l1.6-0.38
		l1.26-0.99l1.51-0.54l1.4-0.73l1.33-0.87l1.39-0.76l1.31-0.9l1.35-0.84l1.51-0.54l1.31-0.91l1.53-0.51l1.24-1.05l1.57-0.44
		l1.41-0.74l1.31-0.94l1.48-0.61l1.43-0.7l1.39-0.76l1.29-0.96l1.31-0.92l1.4-0.75l1.44-0.68l1.55-0.49l1.31-0.93l1.3-0.95
		l1.45-0.66l1.48-0.61l1.45-0.67l1.3-0.94l1.4-0.75l1.52-0.54l1.39-0.78l1.37-0.81l1.32-0.88l1.37-0.8l1.48-0.59l1.28-0.97
		l1.46-0.64l1.48-0.62l1.22-1.1l1.42-0.73l1.38-0.79l1.6-0.41l1.24-1.07l1.38-0.81l1.5-0.59l1.43-0.73l1.36-0.86l1.53-0.55
		l1.24-1.06l1.4-0.78l1.64-0.36l1.28-1.02l1.35-0.89l1.74-0.32l1.61-0.55l1.7-0.39l1.75,0.08l1.68,0.52l1.5,0.88l1.51,0.53l1.3,0.91
		l1.34,0.85l1.46,0.63l1.45,0.66l1.39,0.76l1.41,0.73l1.27,0.98l1.51,0.56l1.36,0.83l1.42,0.71l1.3,0.94l1.37,0.81l1.4,0.76
		l1.45,0.67l1.41,0.73l1.34,0.85l1.5,0.57l1.43,0.7l1.37,0.81l1.5,0.57l1.39,0.77l1.31,0.91l1.27,0.99l1.45,0.64l1.44,0.67
		l1.43,0.69l1.32,0.89l1.54,0.48l1.27,0.98l1.53,0.51l1.2,1.11l1.37,0.8l1.5,0.56l1.47,0.62l1.32,0.89l1.37,0.8l1.36,0.83l1.55,0.48
		l1.41,0.74l1.3,0.95l1.36,0.83l1.45,0.66l1.47,0.62l1.29,0.95l1.55,0.48l1.17,1.17l1.48,0.59l1.38,0.78l1.32,0.89l1.53,0.5
		l1.38,0.8l1.52,0.53l1.34,0.86l1.26,0.99l1.42,0.68l1.37,0.78l1.56,0.43l1.34,0.83l1.26,0.98l1.48,0.57l1.41,0.7l1.26,0.98
		l1.5,0.55l1.32,0.89l1.49,0.59l1.29,0.95l1.34,0.86l1.54,0.51l1.25,1.03l1.63,0.34l1.2,1.14l1.46,0.66l1.54,0.5l1.28,0.97
		l1.39,0.77l1.41,0.72l1.37,0.81l1.51,0.55l1.29,0.95l1.43,0.68l1.43,0.69l1.34,0.86l1.39,0.77l1.53,0.51l1.24,1.06l1.53,0.52
		l1.46,0.65l1.25,1.04l1.52,0.55l1.31,0.94l1.37,0.82l1.49,0.59l1.29,0.95l1.45,0.67l1.51,0.56l1.39,0.79l1.37,0.82l1.41,0.77
		l1.47,0.63l1.26,1.02l1.55,0.49l1.41,0.75l1.42,0.73l1.32,0.93l1.48,0.62l1.25,1.04l1.4,0.76l1.48,0.6l1.41,0.74l1.36,0.83
		l1.4,0.76l1.38,0.82l1.38,0.82l1.4,0.77l1.41,0.75l1.47,0.65l1.47,0.66l1.37,0.84l1.45,0.7l1.47,0.66l1.25,1.06l1.61,0.4l1.28,1
		l1.39,0.81l1.38,0.84l1.44,0.73l1.61,0.44l1.2,1.09l1.06,1.17l1.34,0.95l0.59,1.5l0.88,1.36l0.25,1.59l-0.02,1.59l0.19,1.58
		l-0.07,1.58l-0.18,1.58v1.58l0.08,1.58l0.11,1.58l-0.12,1.58l-0.23,1.59l0.18,1.59l0.2,1.59l-0.36,1.59l0.25,1.59l-0.26,1.58
		l0.06,1.59l0.29,1.59l0.08,1.59l-0.19,1.58l0.04,1.59l-0.19,1.58l0.32,1.58l-0.39,1.59l0.15,1.58l0.14,1.58l-0.29,1.59l0.11,1.59
		l0.02,1.59l-0.04,1.59l0.14,1.59l-0.04,1.59l0.03,1.59l-0.22,1.59l0.43,1.59l-0.45,1.59l0.47,1.59l-0.23,1.57l-0.24,1.58l0.32,1.58
		l-0.31,1.58l0.05,1.58l-0.07,1.58l0.4,1.59l-0.04,1.59l-0.37,1.59l0.17,1.59l0.07,1.59l-0.19,1.59l0.32,1.58l0.11,1.58l-0.02,1.58
		l-0.36,1.58l0,1.58l0.07,1.58l0.28,1.58l-0.18,1.58l-0.2,1.58l0.22,1.59l0.1,1.59l-0.37,1.59l0.08,1.59l0.15,1.59l-0.23,1.59
		l0.34,1.59l0.05,1.59l-0.02,1.59l-0.18,1.59l-0.2,1.59l0.21,1.59l-0.02,1.59l-0.01,1.59l0.23,1.59l-0.28,1.59l-0.1,1.59l0.36,1.59
		l-0.26,1.59l0,1.59l0.26,1.59l0.04,1.59l0.02,1.59l-0.39,1.59l0.29,1.59l-0.19,1.58l0.08,1.58l-0.24,1.59l0.12,1.59l0.08,1.6
		l0,1.59l-0.04,1.59l0.05,1.59l0.13,1.6l-0.16,1.6l0.14,1.6l-0.1,1.6l-0.16,1.6l0.08,1.6l-0.1,1.59l0.33,1.6l-0.15,1.6l-0.17,1.6
		l-0.06,1.62l0.05,1.67l0.03,1.67l0.33,1.67l-0.2,1.68l-0.13,1.68l0.03,1.68l-0.07,1.68l0.41,1.58l-0.41,1.58l0.33,1.58l0.08,1.58
		l-0.31,1.58l-0.18,1.58l0.3,1.58l-0.14,1.58l-0.17,1.58l0.45,1.58l-0.26,1.59l0.23,1.58l-0.33,1.58l0.23,1.58l0.06,1.57l0.07,1.57
		l0.02,1.58l-0.32,1.58l0.2,1.59l-0.33,1.58l0.4,1.58l-0.22,1.58l0.28,1.59l-0.13,1.59L492.2,415l-0.04,1.59l-0.02,1.59l-0.01,1.59
		l0.23,1.59l-0.23,1.59l-0.1,1.59l-0.03,1.6l0.17,1.6l-0.36,1.54l0.11,1.65l-1,1.31l-0.75,1.36l-0.78,1.41l-1.28,0.97l-1.29,0.97
		l-1.56,0.44l-1.39,0.77l-1.21,1.09l-1.53,0.5l-1.47,0.62l-1.31,0.91l-1.45,0.66l-1.41,0.72l-1.35,0.84l-1.43,0.67l-1.41,0.71
		l-1.2,1.08l-1.41,0.69l-1.51,0.52l-1.22,1.06l-1.5,0.54l-1.34,0.84l-1.39,0.75l-1.47,0.6l-1.29,0.93l-1.35,0.82l-1.51,0.54
		l-1.35,0.84l-1.51,0.55l-1.33,0.89l-1.37,0.81l-1.35,0.85l-1.5,0.57l-1.26,1l-1.58,0.41l-1.41,0.73l-1.24,1.03l-1.51,0.55
		l-1.34,0.85l-1.27,0.98l-1.51,0.53l-1.49,0.58l-1.24,1.05l-1.39,0.77l-1.5,0.57l-1.41,0.73l-1.25,1.04l-1.53,0.53l-1.45,0.67
		l-1.38,0.81l-1.3,0.95l-1.42,0.71l-1.51,0.54l-1.21,1.1l-1.63,0.33l-1.22,1.09l-1.47,0.64l-1.37,0.81l-1.47,0.65l-1.45,0.67
		l-1.23,1.08l-1.52,0.53l-1.34,0.88l-1.45,0.66l-1.48,0.62l-1.27,1.01l-1.45,0.67l-1.4,0.74l-1.43,0.69l-1.37,0.8l-1.31,0.91
		l-1.45,0.66l-1.37,0.82l-1.55,0.51l-1.24,1.07l-1.43,0.71l-1.43,0.72l-1.41,0.75l-1.58,0.44l-1.2,1.15l-1.58,0.46l-1.33,0.91
		l-1.47,0.66l-1.31,0.94l-1.57,0.47l-1.37,0.86l-1.4,0.81l-1.52,0.65l0.12,0.37l-0.28,0.39l-0.14-0.31l-0.76,0.45v14.41l0.53-0.18
		l-0.07-0.2l-0.23-0.29l0.27-0.41l0.43,0.35l-0.03,0.31l1.29-0.92l1.35-0.79l1.51-0.51l1.27-0.94l1.46-0.61l1.3-0.91l1.49-0.55
		l1.45-0.64l1.26-1l1.54-0.48l1.17-1.17l1.6-0.37l1.34-0.85l1.24-1l1.51-0.53l1.4-0.73l1.37-0.78l1.41-0.69l1.28-0.95l1.49-0.55
		l1.35-0.81l1.35-0.81l1.44-0.64l1.4-0.73l1.26-0.99l1.56-0.44l1.27-0.99l1.34-0.86l1.55-0.47l1.28-0.96l1.49-0.57l1.43-0.69
		l1.3-0.91l1.5-0.55l1.35-0.83l1.28-0.95l1.41-0.72l1.43-0.69l1.4-0.75l1.33-0.88l1.53-0.49l1.25-1.02l1.39-0.75l1.38-0.78
		l1.49-0.59l1.32-0.89l1.55-0.46l1.39-0.74l1.3-0.9l1.38-0.76l1.43-0.68l1.4-0.75l1.43-0.7l1.43-0.69l1.4-0.75l1.39-0.76l1.34-0.86
		l1.34-0.86l1.44-0.68l1.37-0.82l1.34-0.86l1.57-0.46l1.2-1.11l1.54-0.51l1.43-0.72l1.45-0.69l1.39-0.8l-0.18-0.34l0.15,0.24
		l1.46-0.59l1.17-1.11l1.51-0.51l1.23-1.01l1.44-0.63l1.45-0.62l1.28-0.91l1.41-0.68l1.46-0.57l1.37-0.74l1.33-0.81l1.32-0.84
		l1.44-0.64l1.49-0.55l1.29-0.91l1.28-0.92l1.55-0.43l1.26-0.97l1.51-0.52l1.35-0.8l1.25-1l1.35-0.81l1.47-0.59l1.36-0.78l1.48-0.58
		l1.24-1.04l1.58-0.41l1.32-0.88l1.19-0.92l1.35-0.75l0.94-1.2l0.84-1.25l0.73-1.33l0.37-1.46l0.34-1.46l0.07-1.49l0.22-1.59
		l-0.42-1.59l0.45-1.59l-0.46-1.59l0.23-1.6l0.23-1.6l-0.32-1.6l0.31-1.6l-0.05-1.6l0.08-1.59l-0.4-1.6l0.04-1.6L508.36,412.33z
		 M102.05,421.58l0,0.04l-0.02-0.07l0.32-0.23L102.05,421.58z M109.55,394.19l-0.17,0.02l0.07-0.01l0.48-0.12L109.55,394.19z
		 M111.85,407.39l0.02-0.08l-0.09,0.42l-0.29-0.04L111.85,407.39z M111.27,435.73l0.23-0.01l-0.16,0.15l-0.57-0.26L111.27,435.73z
		 M112.09,440.68l-0.27-0.02l-0.63-0.38l-0.49-0.15l0.26-0.52l0.85-0.08l0.59,0.23l0.12,0.35l0.48,0.43L112.09,440.68z M147.08,459
		l0.52-0.34l-0.04,0.58l-0.23,0.14l-0.33-0.14L147.08,459z M127.44,448.84l-0.03-0.03l-0.03-0.11L127.44,448.84z M122.01,446.52
		l0.01,0l0.02,0.08l-0.62,0.24L122.01,446.52z M115.21,443.97l0.62,0.33l-0.54-0.05l-0.12,0.06L115.21,443.97z M114.84,447.28
		l-0.29,0.33l-0.08,0.04l-0.02-0.14L114.84,447.28z M113.95,435.11l-0.37-0.09l0.06-0.03l-0.08-0.07L113.95,435.11z M116.63,189.51
		l-0.69,0.38l-0.33-0.04l-0.58-0.47l-0.56-0.14l0.44-0.33l0.72-0.22l0.57,0.23l0.47,0.16L116.63,189.51z M117.49,190.6l0.34-0.24
		l-0.04,0.09l0.16,0.16L117.49,190.6z M118.03,197.03l0.29-0.33l0.08-0.04l0.02,0.14L118.03,197.03z M119.1,193.47l-0.47,0.03
		l0.4-0.31l0.26,0.29L119.1,193.47z M133.43,175.62l-0.42,0.05l0.39-0.13l0.05-0.02L133.43,175.62z M135.4,176.86l-0.48,0.35
		l-0.14-0.52l0.39,0.07l0.26-0.11L135.4,176.86z M139.37,176.41l-0.69,0.38l-0.33-0.04l-0.58-0.47l-0.56-0.14l0.44-0.33l0.72-0.22
		l0.57,0.23l0.47,0.16L139.37,176.41z M140.23,177.5l0.34-0.24l-0.04,0.09l0.17,0.16L140.23,177.5z M140.77,183.94l0.29-0.33
		l0.08-0.04l0.02,0.14L140.77,183.94z M141.84,180.37l-0.47,0.03l0.4-0.31l0.26,0.3L141.84,180.37z M149.89,178.59l-0.03-0.01
		l0.14-0.02L149.89,178.59z M153.29,167.82l0.18-0.22l0.02-0.01L153.29,167.82z M153.64,166.63l0.28-0.36l-0.07-0.18l0.3,0.16
		l0.02,0.39L153.64,166.63z M158.14,163.76l-0.48,0.35l-0.14-0.52l0.39,0.07l0.26-0.11L158.14,163.76z M159.77,173.66l-0.13,0.05
		l-0.11-0.1l-0.32-0.51l0.61,0.22L159.77,173.66z M160.55,163.51l-0.39,0.26l-0.02-0.5l0.28,0.15l0.21-0.08L160.55,163.51z
		 M172.63,165.5l-0.03-0.01l0.14-0.02L172.63,165.5z M173.86,167.56l0.29-0.4l0.15-0.04l0.02,0.21L173.86,167.56z M176.04,154.72
		l0.18-0.22l0.01-0.01L176.04,154.72z M176.38,153.53l0.28-0.36l-0.07-0.18l0.3,0.16l0.02,0.39L176.38,153.53z M179.02,161.76
		l-0.08,0.08l0.1-0.11L179.02,161.76z M182.38,160.64h-0.4l0.11-0.49l0.36,0.24l0.12,0.19L182.38,160.64z M183.29,150.41l-0.39,0.26
		l-0.02-0.5l0.28,0.15l0.21-0.08L183.29,150.41z M196.6,154.46l0.29-0.4l0.15-0.04l0.02,0.21L196.6,154.46z M201.76,148.66
		l-0.08,0.08l0.1-0.11L201.76,148.66z M345.52,119.7l0.29-0.26l0-0.04l0.02,0.07L345.52,119.7z M466.1,179.31l0.23-0.01l-0.16,0.15
		l-0.58-0.26L466.1,179.31z M467.66,183.96l-0.69,0.38l-0.33-0.04l-0.58-0.47l-0.56-0.14l0.44-0.33l0.72-0.22l0.57,0.23l0.47,0.16
		L467.66,183.96z M468.51,185.05l0.34-0.24l-0.04,0.09l0.16,0.16L468.51,185.05z M470.12,187.91l-0.47,0.03l0.4-0.31l0.26,0.3
		L470.12,187.91z M477.1,190.32l0.06-0.09l0.16-0.13L477.1,190.32z M482.23,192.35l-0.08,0.08l0.1-0.12L482.23,192.35z
		 M371.49,504.67l-0.18,0.09l-0.72-0.28l-0.1-0.47h0.56l0.36,0.33l0.32,0.16L371.49,504.67z M373.06,500.49l-0.29,0.4l-0.15,0.04
		l-0.02-0.21L373.06,500.49z M373.2,508.94l-0.61-0.91l1.02-0.61L373.2,508.94z M378.14,499.9l-0.16-0.1l-0.17-0.33l0.41-0.16
		l0.11,0.45L378.14,499.9z M380.86,507.45l0-0.02l0.28-0.13L380.86,507.45z M381.49,501.93l-0.19,0.17l-0.03-0.46l0.42-0.17
		l0.04,0.44L381.49,501.93z M383.71,496.98l-0.18,0.09l-0.72-0.28l-0.1-0.47l0.56,0l0.36,0.32l0.32,0.17L383.71,496.98z
		 M385.02,497.56l0.01-0.01l0.01,0.01L385.02,497.56z M384.98,493.2l-0.15,0.04l-0.02-0.21l0.46-0.23L384.98,493.2z M390.35,492.21
		l-0.16-0.1l-0.17-0.33l0.41-0.17l0.11,0.45L390.35,492.21z M393.71,494.23l-0.19,0.17l-0.03-0.46l0.42-0.17l0.04,0.44
		L393.71,494.23z M397.23,489.87l0.01-0.01l0.01,0.01L397.23,489.87z M411.9,479.06l-0.08,0.04l-0.02-0.14l0.39-0.23L411.9,479.06z
		 M417.34,486.59l-0.12,0.28l-0.35-0.12l-0.23-0.47l0.33-0.38l0.59,0.27L417.34,486.59z M418.77,478.29l0.59-0.31h0.01l0.02,0.07
		L418.77,478.29z M419.63,485.71l-0.03-0.11l0.06,0.14L419.63,485.71z M424.76,480.26l-0.03-0.11l0.06,0.14L424.76,480.26z
		 M453.18,455.98l-0.09-0.06l-0.14-0.25l0.53-0.18l0.02,0.57L453.18,455.98z M466.53,453.36l-0.18,0.09l-0.72-0.28l-0.1-0.47h0.56
		l0.36,0.33l0.32,0.16L466.53,453.36z M467.8,449.59l-0.15,0.04l-0.02-0.21l0.46-0.23L467.8,449.59z M473.18,448.6l-0.16-0.1
		l-0.17-0.33l0.41-0.16l0.11,0.45L473.18,448.6z M476.53,450.62l-0.19,0.17l-0.03-0.46l0.42-0.17l0.03,0.44L476.53,450.62z
		 M480.05,446.26l0.01-0.01l0.01,0L480.05,446.26z M492.5,262.12l-0.01,0.11l-0.09-0.21l0.54-0.23L492.5,262.12z M493.78,258.92
		l-0.05,0.17l-0.02-0.38l0.48-0.18L493.78,258.92z M494.59,245.95l0.1,0.02l0.05,0.42l-0.13-0.39L494.59,245.95z M495.42,293.53
		l-0.12,0.28l-0.35-0.12l-0.23-0.47l0.33-0.38l0.59,0.27L495.42,293.53z M495.64,263.57l-0.12-0.21l-0.5-0.31l0.58,0.04l0.23,0.4
		l0.01,0.11L495.64,263.57z M496.85,285.23l0.59-0.32h0.01l0.02,0.07L496.85,285.23z M496.81,264.96l0.4-0.16l0.16,0.16l-0.06,0.14
		l-0.18,0.14L496.81,264.96z M497.19,258.25l-0.15,0.04l-0.02-0.21l0.46-0.23L497.19,258.25z M497.71,292.65l-0.03-0.11l0.06,0.14
		L497.71,292.65z M498.87,230.05l-0.29,0.08l-0.15-0.22l-0.25-0.72l0.26-0.47l0.34,0.25l0.55,0.53L498.87,230.05z M500.57,196.06
		l0.23,0l-0.16,0.15l-0.57-0.26L500.57,196.06z M500.4,200.11l0.72-0.22l0.57,0.23l0.46,0.16l-0.03,0.43l-0.69,0.38l-0.33-0.04
		l-0.58-0.47l-0.56-0.14L500.4,200.11z M499.93,298.52l0.47,0.03l0.17,0.42L499.93,298.52z M501.46,295.05l-0.42-0.06l-0.04-0.1
		l0.17-0.13l0.38-0.25L501.46,295.05z M501.49,237.6l-0.7-0.34l-0.19-0.25l-0.19-0.47l0.62,0.01l0.24,0.21l0.3,0.72L501.49,237.6z
		 M502.4,202.82l-0.22,0.14l-0.33-0.14l0.08-0.24l0.51-0.34L502.4,202.82z M502.81,287.17l-0.08,0.08l0.1-0.11L502.81,287.17z
		 M502.98,201.81l0.34-0.24l-0.04,0.09l0.17,0.16L502.98,201.81z M503.85,207.95l-0.08,0.04l-0.02-0.14l0.4-0.23L503.85,207.95z
		 M504.12,204.7l0.4-0.31l0.26,0.29l-0.19-0.02L504.12,204.7z M504.64,222.23l0.28-0.28l0,0.3L504.64,222.23z M505.01,264.79
		l-0.05,0.02l0.02-0.1l0.42-0.05L505.01,264.79z M505.82,236.56l-0.16,0.07l-0.34-0.37l0.59,0.18L505.82,236.56z M505.34,233.89
		l0.25-0.34l0.18-0.04l0.02,0.12L505.34,233.89z M505.88,197.78l-0.14,0.13l-0.3-0.43l0.53,0.16L505.88,197.78z M506.96,266.06
		l-0.29,0.08l-0.15-0.16l0.19-0.36l0.46,0.19L506.96,266.06z M506.82,236.66l-0.38-0.56l-0.04-0.2l0.21,0.07l0.23,0.13l0.37,0.33
		L506.82,236.66z"/>
	<path class="st2" d="M319.85,200.37c2.31-0.27,3.69,0.6,5.37,0c0-0.95,0.39-1.5,0.7-2.15c-0.51-1.47,0.18-2.51,0.55-3.37
		c0.2-0.52,0.21-1.16,0.34-1.43c0.42-0.88,1.26-1.38,1.45-2.14c0.3-1.36-0.14-3.46,0-5.18c0.12-1.41,0.3-2.31,0-3.57
		c0.32-0.75,0.83-1.29,1.05-2.14c-0.27-0.21-0.31-0.6-0.36-1.06c1.06-1.14-0.07-3.34,0.92-4.46c-0.71-0.87,0.08-2.7-0.2-4.28
		c-0.4-0.24-0.64-0.65-0.72-1.25c0.72-1.06,0.82-2.78,0.72-4.63c-0.3-0.3-0.72-0.49-0.72-1.09c-0.12-1.52-0.5-4.34-0.69-6.59
		c-0.12-1.3-3.78-3.24-4.1-0.72c0.45,0.86,1.07,1.16,1.07,1.98c-0.03,1.05-1.68,2.03-1.07,3.57c0.15,0.6,0.88,0.64,0.68,1.59
		c0.2,0.84-0.81,0.48-0.68,1.26c0.6,0.49,0.6,1.12,0.88,1.94c0.31,0.92,0.67,2.92,0.36,4.28c-0.09,0.47-0.46,0.78-0.56,1.25
		c-0.11,0.87,0,1.61,0,2.33c-0.63,1.33-2.31,2.61-2.66,4.64c-0.22,1.36,0.25,3.12-0.16,4.44c-0.26,0.81-1.22,1.21-1.45,1.81
		c-0.11,0.26,0.09,0.84,0,1.24c-0.06,0.45-0.35,0.73-0.35,1.08c0,0.46,0.31,0.95,0.35,1.41c0.26,2.15-0.35,4.59,0,6.79
		c-0.62,0.96-0.82,2.38-1.4,3.38C319.36,199.67,319.82,199.78,319.85,200.37z M320.89,185.24l1.02,0.61l0.2,1.83h-1.23V185.24z"/>
	<path class="st2" d="M309.52,160.77c-0.09-0.44-0.4-0.79-0.52-1.25c-0.14-0.51-0.04-1.04-0.19-1.41c-0.57-1.63-2.42-2.05-3.92-2.87
		c-0.82,0.79-2.15,1.06-2.85,1.95c-0.19,1.4,0.29,2.1,0.71,2.87c0.13,2.87,1.33,4.61,1.08,7.85c0.45,0.75,1.07,1.3,1.25,2.14
		c0.21,1.02-0.13,2.18,0,3.22c0.05,0.55,0.46,1.07,0.52,1.6c0.34,2.19-0.36,4.33-0.16,6.44c0.1,1.25,1.03,2.26,0.71,3.55
		c1.23,0.81,1.66,2.61,2.86,1.41c0.77-0.78,0.39-1.9,0.71-3.2c0.19-0.75,0.81-1.17,0.71-1.76c-0.89-1.52-1.06-4.47-0.71-6.98
		c0.11-0.79,0.56-1.13,0.54-1.77c-0.03-0.62-0.65-1.26-0.72-1.98C309.22,167.64,310.14,163.88,309.52,160.77z"/>
	<path class="st2" d="M384.42,366.71c2.95-0.86,4.91,0.6,7.83,0.72c1.52,0.99,2.85,2.16,5,2.5c-0.12,1.04,1.11,0.7,1.61,1.08
		c0.13,0.52,0.4,0.9,0.7,1.24c1.12,0.15,1.77,0.75,2.87,0.88c0.76-0.29,1.16-0.93,2.12-1.06v-3.2c-1.15-0.8-1.69-2.2-2.47-3.41
		c-1.78-0.16-2.76-1.14-3.58-2.3c-3.28-0.12-4.4-1.5-7.3-1.78c-1.34-1.05-0.58-3.26,0.17-3.92c0.1-0.08-0.08-0.44,0-0.53
		c0.13-0.16,0.56-0.04,0.72-0.19c0.36-0.34,0.51-1.07,0.71-1.25c0.69-0.6,1.35-0.64,1.6-1.41c0.37-0.29,0.81-0.52,1.26-0.71
		c0.2-0.81,0.8-1.21,1.4-1.61c0.2-1.53,0.89-2.59,1.98-3.23c0.42-1.64,1.41-2.75,1.95-4.27c-0.22-0.85-0.76-1.36-0.88-2.32
		c-2.01-0.36-2.62-2.14-5.37-1.78c-0.58,0.42-0.98,1.03-1.42,1.59h-0.87c-0.52,0.53-0.82,1.24-1.45,1.62v1.06
		c-0.66,0.13-0.53,0.93-0.88,1.44c-0.46,0.64-1.3,1.18-1.79,1.96c-0.22,0.35-0.13,0.89-0.35,1.23c-0.45,0.76-1.45,1.71-2.14,2.5
		c-1.56,1.81-2.45,3.19-4.81,1.81c-0.2-1.33-1.54-1.95-2.15-3.03c-0.33-0.65-0.32-1.42-0.52-2.15c-0.2-0.7-0.59-1.15-0.72-1.79
		c-0.07-0.47,0.09-1.09,0-1.61c-0.07-0.46-0.45-0.89-0.51-1.41c-0.27-1.89-0.49-2.89-1.26-3.76c0.12-3.1-2.52-3.44-2.15-6.76
		c-1.39-0.61-0.78-2.15-1.06-3.39c-0.45-1.86-2.2-3.24-3.03-4.46c-0.33-1.53-0.66-3.04-1.26-4.28c-1.48-0.05-1.83-1.25-2.85-1.78
		c-0.44,2.72-2.83,3.49-2.68,6.76c0.98,1.01,0.93,3.01,0.89,5c0.47,0.46,0.65,1.15,0.55,2.15c1.3,1.25,1.76,3.34,1.78,5.88
		c0.58,0.77,0.78,1.95,0.72,3.38c1.51,0.86,1.63,3.14,2.48,4.63c0.08,0.43-0.32,0.4-0.18,0.88c0.86,1.13,0.51,2.78,1.26,3.91
		c0.18,0.3,0.58,0.43,0.71,0.73c0.15,0.3,0,0.75,0.18,1.07c0.4,0.67,1.17,1.01,1.44,1.78c0.12,0.39-0.07,1.36,0.18,2.14
		c0.16,0.56,0.6,0.97,0.7,1.43c0.34,1.5-1.11,1.74-0.7,3.04c-0.91,0.82-1.89,1.55-3.21,1.96c-0.5-0.79-1.51-0.49-2.13,0
		c-0.38-0.57-1.38-0.56-1.81-1.07c-1.93,0.8-5.09,0.39-6.42,1.79h-1.6c-1.39,1.1-2.89,3.11-1.61,5.33c0.92,0.7,2.25,0.99,3.39,1.42
		c0.38-0.57,1.09-0.81,2.14-0.71c1.23-1.6,4.59-1.67,6.78-1.78c0.78-1.01,2.9-0.66,4.63-0.72c0.4,0.62,1.27,0.76,1.78,1.26
		c0.39,1.67,1.35,2.82,2.49,3.73c-0.02,1.7,1.05,2.3,1.43,3.56c0.91,0.51,2.19,0.68,2.32,1.97c1.88,0.44,3.37,0.81,5.36,1.43
		c0.36-0.46,1.11-0.57,1.25-1.25c-1.41-2.41-2.79-4.84-3.76-7.67C384.33,369.61,382.98,367.6,384.42,366.71z M383.42,358.62
		l-2.25-1.52l0.41-1.83l1.23-0.61l1.23,0.92l1.02,1.21l-0.61,1.52L383.42,358.62z"/>
	<path class="st2" d="M371.22,399.53c1.98,0.22,1.17,2.45,1.62,4.28c0.04,0.29,0.62,0.67,0.7,1.07c0.2,0.93,0.19,1.06,0.72,1.44
		c-0.15,1.63,1.02,1.98,1.41,3.03c-0.08,2.4,1.91,2.72,1.8,5.16c1.23,0.76,1.2,2.83,2.3,3.74v1.25c0.51,0.05,0.56,0.52,0.73,0.9
		c-0.27,0.9,0.69,1.1,0,1.44c0.91,0.51,1.22,1.74,1.94,2.48c0.88-0.03,1.88,0.1,2.5-0.18c0.51,0.15,0.47,0.84,1.25,0.72
		c0.33-0.24,0.64-0.57,0.89-0.88c-0.13-2.98-2.05-4.15-1.98-7.32c-0.62-0.28-0.54-1.23-0.53-2.14c-0.01-0.35-0.59-0.13-0.52-0.54
		c-0.59-2.79-2.19-4.6-2.68-7.49c-0.62,0.02-0.45-0.73-1.08-0.69c-0.08-1.71-1.67-1.89-1.43-3.93c-0.66-1-1.79-1.53-1.75-3.22
		c-0.81-0.69-1.24-1.75-1.45-3.02c-0.35-0.36-0.78-0.64-1.07-1.08c-0.62-2.64-2.21-4.29-3.56-6.24c0.23-2.43-1.4-2.99-1.6-5
		c-1.9-0.21-1.73-2.52-2.15-4.27c-1.18-0.42-1.98-1.24-2.86-1.95c-1.38,0.13-2.25-0.24-3.56-0.19c-0.22-0.6-0.81-0.85-1.24-1.26
		c-2.7-0.21-4.98-0.84-6.77-1.96c-0.12-1.54-0.84-2.47-1.78-3.21c0.17-1.16-1.09-2.05-1.43-3.38c-0.29-1.21,0.13-2.57-0.54-3.74
		c-1.02-0.78-1.99-0.43-3.38-0.72c-1.96-0.42-8.35-0.83-10.52-0.17c-0.4,0.11-0.73,0.45-1.07,0.53c-0.62,0.15-1.19,0.03-1.78,0.17
		c-1.31,0.38-2.36,1.44-3.58,1.26c-0.84,0.82-1.47,1.85-3.21,1.78c-0.27,0.85-1.36,0.89-1.98,1.41h-1.58
		c-1.35,1.29-3.74,1.52-4.83,3.05c-0.61-0.14-0.68,0.26-1.25,0.16c-0.77,0.61-1.33,1.41-2.49,1.63c-1.09,1.16-2.25,2.27-3.4,3.37
		c-0.24,0.25-0.12,0.85-0.35,1.08c-0.53,0-0.71,0.39-1.07,0.54c-0.82,1.9-2.42,3.06-3.93,4.28c0.02,1.17-1.41,1.81-2.13,2.84
		c-0.23,0.35-0.16,0.91-0.36,1.26c-0.22,0.36-0.87,0.55-1.07,0.88c-0.48,0.74-0.57,1.94-0.55,3.03c-0.44,0.58-0.99,1.04-1.42,1.61
		c-0.43,1.27-0.28,2.56-0.55,3.93c-0.23,1.36-1.82,2.73-1.24,4.99c-2.12,1.88,1.2,5.26-0.73,6.94c1.15,2.49,0.7,5.52,0.89,8.75
		c1.79,1.03,1.4,4.21,2.69,5.72c-0.26,1.77,0.82,3.33,0.89,5.33c1.23,1.05,2.36,2.2,2.49,4.3c1.31,0.88,1.64,2.74,3.02,3.56
		c0.25,0.24,0.19,0.79,0.19,1.26c1.51,1.04,2.1,2.99,2.85,4.81c1.62,0.47,2.85,1.3,3.22,3.02c1.39,0.73,2.55,1.74,4.26,2.14
		c0.07,0.59,0.75,0.57,0.91,1.08c2.01,0.19,3.25,1.14,4.63,1.96h1.24c0.74,1.34,3.63,0.54,4.3,1.96c0.47-0.19,1.09-0.2,1.78-0.15
		c0.4,0.05,0.15,0.76,0.69,0.69c2.21,0.67,4.7-0.62,6.24-0.89c0.69-0.12,1.48,0.13,2.16,0c0.53-0.1,0.92-0.46,1.41-0.52
		c0.62-0.08,1.17,0.21,1.79,0.18c1.34-0.04,2.44-1.05,3.73-0.72c0.9-0.77,2.19-1.16,3.77-1.26c-0.12-0.71,0.77-0.35,1.06-0.54
		c0.34-0.18,0.49-1.11,1.23-0.7c0.09-0.63,0.65-0.78,0.91-1.25c1.82-0.79,3.42-1.82,4.8-3.04h1.08c0.84-1.91,2.72-2.75,4.27-3.91
		c0.42-1.24,1.07-2.29,1.98-3.03c-0.13-2.4,2.08-2.44,1.59-5.17c1.43-1.24,0.75-3.63,0.89-6.25c-1.11-2.2-1.35-4.52-1.77-7.15
		c-1-1.84-1.9-3.8-2.51-6.04c-1.07-0.54-1.27-1.95-1.59-3.21c-1.26-0.83-1.5-2.67-2.68-3.58c-0.08-1.16-0.89-1.63-1.43-2.32
		c0.02-0.77-0.44-1.09-0.54-1.78c-0.28-0.36-0.99-0.3-1.26-0.69c-0.23-0.25-0.1-0.86-0.35-1.09c-1.82-1.03-2.38-3.32-4.11-4.44
		c-0.14-0.54-0.45-0.97-0.52-1.6c-0.78-0.24-1.28-0.76-1.43-1.62c-1.03-0.15-1.38-0.97-1.97-1.59c-2.59,0.2-2.5-2.25-5.34-1.78
		c-0.64-0.56-1.36-1.04-2.14-1.46c-0.8-0.08-1.34,0.11-1.96,0.2c-0.68-0.94-1.77-0.5-3.2-0.72c-0.58-0.07-0.92-0.39-1.25-0.36
		c-1.22,0.06-1.91,1.11-3.02,0.87c-0.2,0.72-0.84,0.96-1.27,1.46c-2.03,0.14-2.58,1.78-4.81,1.78c-0.54,1.48-1.78,2.1-2.69,3.03
		c-0.49,0.53-0.52,1.47-1.41,1.42c-0.14,1.11-0.65,1.53-1.24,2.12c-0.95,1.01-0.95,1.14-1.62,2.34c-0.22,0.41-0.73,0.74-0.89,1.06
		c-0.96,2.02-0.64,3.87-0.72,6.76c-0.31,0.37-0.42,0.92-0.88,1.07c1,1.52,0.83,4.19,1.07,6.44c0.49,0.58,0.77,1.36,1.24,1.95
		c-0.11,2.1,0.89,3.05,1.8,4.12v1.05c1.05,1.23,2.52,1.99,3.01,3.74c0.49,0.36,1.09,0.58,1.41,1.08c0.02,0.71,0.27,0.83,0.56,1.6
		c1.34,0.25,2,1.19,2.84,1.96c2.26-0.04,3.06,1.36,5.35,1.26c0.91,1.17,2.7,1.43,4.98,1.26c0.39-0.3,0.41-0.91,1.07-0.91
		c1.15,0.24,2.24-0.26,2.86-0.36c1.14-0.2,2.46-0.27,2.98-0.53l-0.27-0.51l1.02-0.61l0.27,0.24c0.42-0.38,0.81-0.74,0.81-0.74
		c1.04-1.47-0.3-2.39-0.88-3.38c0.13-1.32-0.2-2.2-0.19-3.39c-0.6-0.04-1.13-0.19-1.42-0.53c-0.07-1.78-0.65-3.04-1.43-4.11
		c-0.06-1.79-0.2-3.7-1.23-4.45c-0.45-0.31-1.04,0.05-1.28-0.54c-0.58,0.33-1.21,0.58-1.78,0.9c-0.75,2.03-0.08,5.5-0.54,7.85
		c-0.88,0.41-1.32,1.26-1.78,2.15c-1.53,0.12-2.78,0.52-3.91,1.05c-0.75,0.04-0.75-0.68-1.45-0.72c-3.49,0.61-3.6-2.19-4.97-3.74
		c0.25-1.15-0.36-1.43-0.54-2.14c0.93-2.79,0.15-5.41,0.54-8.92c0.08-0.62,0.61-0.81,0.7-1.42c-0.15-1.85,0.83-2.49,0.89-3.74
		c0.03-0.45-0.26-0.86-0.16-1.24c0.31-1.22,1.19-2.08,2.3-2.68c0.14-0.95,0.58-1.57,0.92-2.32c1.17-0.49,2.64-0.66,3.56-1.44h4.27
		c-0.04,0.52,0.55,0.43,0.55,0.89c1.25,0.3,3.28,0.41,4.99,0.72c0.27,0.28,0.54,0.53,0.71,0.92c0.6-0.13,0.84,0.1,1.26,0.14
		c0.58,0.92,1.63,1.36,2.66,1.81c1.5,1.61,2.95,3.24,4.64,4.62c0.7,1.81,1.98,3.03,2.32,5.18c0.58,0.57,1.17,1.09,1.25,2.14
		c0.34,0.38,1.03,0.4,1.26,0.9c0.76,2.2,2.09,3.82,3.01,5.88c0.26,0.24,0.17,0.78,0.17,1.24c0.54,0.34,0.93,1.5,0.71,1.99
		c1.12,1.03,1.43,2.87,2.16,4.26c-1.02-0.14,0.07,0.62,0,0.89c0.02-0.04-0.31,0.25-0.35,0.37c-0.33,0.77-0.59,0.75-0.88,1.43
		c-0.58,1.29-0.67,2.87-1.63,3.38v1.25c-0.18,0.11-0.35,0.23-0.51,0.36l-0.29,1.06l-0.4-0.45c-0.8,0.79-1.49,1.71-2.37,2.42
		c-0.7-0.13-1,0.17-1.6,0.17c-0.57,0.39-0.67,1.21-1.44,1.44c-1.5,0.02-2.14,0.92-3.18,1.42c-1.51,0.05-2.11,1-3.23,1.42h-1.78
		c-0.33,0.72-1.17,0.32-1.78,0.54c-0.57,0.2-0.84,0.65-1.42,0.71c-1.76,0.23-3.79-0.41-6.24-0.19c-1.67,0.82-2.56,1.96-4.29,1.45
		c-0.22-0.08-0.84-0.63-1.25-0.9c-1.39-0.94-2.8-2.05-4.46-2.33c-0.25-0.54-1.06-0.59-1.25-1.24h-1.24
		c-0.94-1.26-3.12-1.3-4.63-1.96c0-0.66-0.29-1.03-0.55-1.42c-2.63-0.89-3.76-3.26-5.69-4.83c-1.53-2.48-3.65-5.24-3.75-8.56
		c-0.45-0.64-0.91-1.24-0.71-2.5c-0.39-0.4-0.72-0.84-0.89-1.43c-0.03-1.21-0.11-2.47,0.35-3.21c-0.84-0.89-0.47-2.99-1.26-3.93
		c-0.07-1.93,0.42-3.45-0.53-4.63c0.69-1,0.42-2.35,0.72-3.56c0.1-0.42,0.45-0.62,0.52-1.09c0.21-1.09-0.04-2.3,0.19-3.38
		c0.09-0.52,0.6-1.01,0.69-1.59c0.19-1.13-0.18-2.33,0-3.4c0.12-0.57,0.56-1.09,0.73-1.61c0.35-1.15,0.43-2.3,0.71-3.38
		c1.79-1.23,2.58-3.51,4.28-4.81c-0.17-0.89,0.47-0.94,0.52-1.61c1.77-1.03,3.62-1.98,4.82-3.57c1.54-0.43,2.08-1.84,3.92-1.96
		c0.39-0.51,0.72-1.08,1.26-1.43c1.51,0.14,2.03-0.7,2.31-1.78c2.02-1.36,3.69-2.72,7.66-2.12c2.1,1.46,5.66,0.12,8.94,0.69
		c1.57,0.3,2.73,1.69,4.27,1.43c0.43,0.71,1.21,1.06,1.78,1.6c0.35,0.35,0.55,0.94,0.89,1.25c0.94,0.88,2.42,1.29,2.68,2.68
		c1.73,0.59,2.75,1.88,4.29,2.68c0.07,1.48,1.61,1.48,1.78,2.85c1.46,0.75,2.27,2.11,4.09,2.49c0.45,0.71,1.08,1.19,1.61,1.78
		c0.08,1.31,1.09,1.67,1.78,2.32c0.31,1.46,1.16,2.27,1.79,3.04c0.21,0.22,0.21,0.62,0.16,1.06
		C370.17,396.07,370.64,397.87,371.22,399.53z M375.65,401.61h0.61v1.22h-0.61V401.61z M346.23,369.59l-0.61-0.91l-0.2-1.83
		l1.43,0.3l0.41,1.83L346.23,369.59z"/>
	<path class="st2" d="M305.94,348.71c0.26-1.01,0.25-0.96,0-1.96c-0.21-1.05-0.52-1.45-0.69-2.14c-0.18-0.67-0.07-1.43-0.18-1.77
		c-0.62-1.71-2.48-2.01-3.04-3.41c-0.02-0.86,1.02-0.65,1.06-1.42c0.47-0.97-0.24-1.53-0.35-2.51c-0.14-1.38,0.66-2.96-0.16-4.08
		c-1.52-0.53-3.71,1.44-5.36,0.19c0.03-1.53,1.74-1.36,2.49-2.14c0.62-0.05,1.02-0.3,1.8-0.17c0.74-1.04,1.2-2.37,1.58-3.75
		c-1.12-0.86-0.9-2.38-0.87-3.74c0.01-1.51-0.39-2.85,0.16-4.1c0.36-0.8,1.43-0.93,1.26-1.97c-0.23-0.4-0.61-0.56-1.06-0.71
		c-0.2,0.25-0.48,0.36-0.71,0.53c-3.04-0.38-4.89,1.6-6.08,3.04c-0.62,0.78-1.26,1.21-1.43,1.96c-0.46,1.93,0.42,3.52,1.43,4.81
		c0.21,4.37-0.15,9.3,0.72,13.02c-0.1,0.22-0.03,0.69-0.36,1.06c0.39,1.19,0.78,2.64,0.52,3.94c0.84,0.69,0.56,2.53,1.44,3.2
		c-0.48,0.98,0.32,1.67,0.5,2.6v-0.92h0.82v1.21h-0.79c0.05,0.71-0.13,1.68-0.01,2.46c0.07,0.4,0.36,0.76,0.38,1.08
		c0.01,0.51-0.26,0.92-0.19,1.43c0.15,1.13,0.75,2.07,0.36,3.38c1.1,1.05,2.52,1.77,3.2,3.21c1.58-0.33,1.61-2.2,2.86-2.84
		c0.29-1.58,0.77-2.94,0.55-5.01C306.7,352.17,306.66,349.93,305.94,348.71z"/>
	<path class="st2" d="M320.57,306.46c-3.05-0.51-6.64-0.37-7.64,1.79v2.48c0.48,0.56,0.89,1.37,1.59,1.79
		c1.72,1.04,4.05,0.49,6.98,0.9c1.24,0.19,2.33,1.06,3.34,1.24c0.76,0.14,1.52-0.08,2.16,0c1.45,0.24,2.56,1.28,3.93,0.89
		c1.11,1.43,3.93,1.2,5.16,2.52c1.47-0.23,1.88,0.61,2.69,1.06c1.34-0.59,1.93,0.38,2.84,0.71c1.48-1.5,2.75-0.15,4.11,0.17
		c1.72,0.45,3.55-0.1,5.35,0.37c0.31,0.41,0.7,0.72,1.06,1.06c0.55,0.21,1.08,0.07,1.62,0.17c1.32,0.32,1.2,0.49,2.31,0
		c0.49-0.18,0.76-0.45,1.26-0.51c3.42,0.66,4.05-2.64,5.7-4.29c-1.83-2.31-6.46-0.72-7.85-3.39c-1.15,0.4-1.79-0.54-2.67-0.72
		c-1.37-0.27-3.42,0.45-5.34,0c-0.76-0.18-1.63-0.14-2.5-0.35c-0.46-0.09-0.77-0.58-1.24-0.71c-0.67-0.19-1.55-0.01-2.31-0.19
		c-0.62-0.13-1.12-0.45-1.61-0.53c-3.31-0.39-5.58,0.08-7.5-1.43c-2.83,0.21-5.33-1.4-7.68-2.3
		C322.53,307.63,321.94,306.67,320.57,306.46z"/>
	<path class="st2" d="M341.61,252.59c-0.98-0.02-1.25,0.65-1.96,0.91c-0.4,3.21-3.01,4.24-3.91,6.95c-1.36,0.72-1.93,2.25-2.87,3.38
		v1.26c-0.77,1.1-1.41,2.4-1.77,3.92c-0.92,0.29-1.05,1.34-1.45,2.14c-1.24,0.89-1.71,2.57-2.86,3.56c-0.3,2.07-1.07,3.68-1.98,5.17
		c0.16,0.31,0.68,0.31,0.73,0.72c1.55,0.24,2.32-0.31,3.38-0.53c0.55-1.6,2.67-1.63,2.69-3.75c1.51-0.94,3.14-1.74,3.74-3.58
		c1.35-0.3,1.77-1.56,3.2-1.78c0.28-0.2,0.3-0.67,0.56-0.89c1.73-1.26,3.81-2.24,4.27-4.81c0.34-0.31,0.89-0.41,1.24-0.7
		c0.82-2.28,3.29-2.92,3.76-5.54c0.91-0.03,1.11-0.78,1.24-1.61c0.57,0.09,0.41-0.55,1.09-0.35c0.77-2.14,1.88-3.92,3.18-5.53
		c0.56-2.67,1.96-4.46,3.22-6.41c-0.19-2.46,1.7-2.83,1.79-4.99c-1.36-1.14-3.25-2.13-4.81-2.52c-0.96-0.2-1.34,0.91-1.79,1.26
		c-0.9,0.7-1.46,1.63-2.48,1.98c0.12,0.66-0.25,0.85-0.2,1.43c-0.94,0.42-1.07,1.62-2.33,1.77c-0.85,1.7-1.91,3.19-3.38,4.28
		c0,0.59-0.51,0.67-0.35,1.43C342.42,250.18,342,251.36,341.61,252.59z M329.88,275.68h-1.02l0.41-2.44l0.61,0.61V275.68z
		 M340.5,267.15l0.41-1.22h0.82L340.5,267.15z M350.52,248.55l0.61-1.52l1.43,0.3l-0.2,2.14l-0.61,1.52l-1.43,0.31l-0.2-1.52
		L350.52,248.55z"/>
	<path class="st2" d="M288.48,170.57c0.06-5.33-1.67-8.92-2.49-13.38c-0.52-0.37-0.99-0.79-1.43-1.24c-0.94-0.19-1.9,0.17-2.31,0.34
		c-1.1,0.5-0.84,0.25-1.62,0.89c-0.33,0.3-0.71,0.57-0.88,0.72c-1.51,1.48-0.57,5.08,0,7.13c0.35,0.04,0.59,0.12,0.7,0.38
		c0.49,0.86-0.23,1.65-0.17,2.49c0.11,1.33,1.22,2.52,1.61,3.93c0.1,0.4-0.07,0.89,0,1.25c0.19,1.02,1.19,1.84,0.89,3.03
		c0.23,0.36,0.74,0.44,0.89,0.89c-0.17,1.63,1.31,2.72,1.61,4.1c0.22,1.1-0.14,1.93,0.17,2.67c0.3,0.72,1.16,0.95,1.44,1.8
		c0.18,0.62-0.16,1.37,0,1.96c0.46,1.79,2.05,2.38,3.03,3.92c0.08,2.25,1.74,4.42,3.01,6.08v1.06c0.83,0.84,3.28,3.49,4.29,1.06
		c-1.03-1.22-1.29-3.23-1.98-4.79c0.32-0.99,0.58-1.31,0.2-2.33c-0.32-0.78-1.13-1.65-1.27-2.32c-0.38-1.98,0.45-4.15-1.06-5.35
		c0.93-1.68-0.72-2.86-0.18-5.16c-1.58-1.39-1.76-4.19-3.21-5.7c-0.2-0.52-0.32-1.7,0-2.15C289.23,171.48,289,170.88,288.48,170.57z
		"/>
	<path class="st2" d="M276.71,212.13c-2.9,0.42-5.29-0.74-7.66-0.71c-0.46,0-1.01,0.33-1.43,0.35c-1.93,0.17-3.91-0.41-6.24-0.17
		c-0.6-0.67-0.97-0.23-1.41-0.18c-0.87,0.1-1.84,0.59-2.86,0.71c-0.4,0.05-0.84-0.18-1.26-0.17c-0.98,0.03-1.53,0.63-2.32,0.88
		c-0.64,0-0.86-0.43-1.42-0.52c-2.11,1.46-5.46,1.67-6.23,4.46c0.71,1.23,1.8,2.1,3.18,2.67c1.61-0.22,2.85,1.04,4.47,1.25
		c2.05,0.29,4.35-0.34,6.6,0c2.11,0.34,5.09,0.51,7.67,0.36c1.22-1.3,2.41-0.02,3.93,0c0.33,0,0.61-0.3,0.89-0.36
		c1.69-0.28,2,0.57,3.04,0.71c1.63,0.25,3.52-0.4,5.22-0.12l-0.43-0.46l-0.2-0.61l0.1-0.92l1.63,1.22l0.2,0.76l-0.11,0.39
		c0.06,0.03,0.13,0.06,0.19,0.1c0.55,0.1,0.89-0.04,1.04-0.36c1.98,0.79,4.23,0.2,6.25,0.36c3.83,0.33,8.15,0.15,12.84,0.18
		c0.61,0,0.42,0.77,1.08,0.72c2.1-0.1,4.6,0.22,6.43-0.18c2.27,0.89,7.44,0.89,9.27-0.36c0.45,0.79,1.4-0.23,2.47,0.36
		c0.61,0,0.44,0.75,1.09,0.71c2.95-0.17,5.98,0.06,7.86,0.35c2.04,0.32,3.27-0.54,4.44-0.71c2.45-0.31,4.96,0.77,7.85,0.36
		c0.45-0.17,0.4-0.78,1.06-0.71c1.76,0.03,2.97,0.61,4.11,1.24c1.49-1.51,4.17-0.55,6.59-0.53c1.17,0.02,2.27-0.28,3.2,0
		c0.39,0.12,0.65,0.48,1.08,0.53c4.56,0.64,9.57-0.18,14.42,0c0.55,0.12,0.73,0.62,1.26,0.73c1.18-0.29,2.2,0.23,3.38,0.34
		c2.44,0.22,5.14-0.38,7.51,0c0.69,0.12,1.28,0.62,1.95,0.71c1.26,0.2,2.57-0.18,3.76,0c0.73,0.14,1.41,0.72,2.13,0.72
		c0.73,0.02,1.44-0.53,2.14-0.52c0.46,0,1.05,0.39,1.6,0.52c0.55,0.15,1.2,0.1,1.43,0.2c1.21,0.56,1.86,2.18,2.86,3.04
		c0.6-0.1,1,0.04,1.41,0.16c1.31,1.93,3.19,3.31,4.64,5.17c1.01,1.3,2.03,3.25,2.86,4.64c1,1.67,2.04,3.33,2.51,5.35
		c-1.16,2.97,0.4,6.4-0.18,9.45c-0.34,1.8-1.82,3.06-1.98,4.64c-0.61,0.16-1.14,0.4-1.61,0.72c-0.15,1.07-1.22,1.26-1.04,2.68
		c-1.04,0.66-1.5,1.85-2.15,2.86c-2.59,1.08-3.47,3.9-6.42,4.64c-0.25,0.69-0.77,1.11-1.24,1.58c-1.38,0-1.87,0.86-2.69,1.43
		c-1.65-0.19-2.55,1.43-3.92,1.79c-0.8,0.21-1.86-0.11-2.85,0.19c-0.56,0.16-1.04,0.62-1.6,0.7c-1.34,0.24-2.81-0.16-4.45,0
		c-1.6-1.19-4.4-1.19-5.53-2.84c-1.42-0.2-3.21-1.12-4.12-1.79c-1.45-1.09-2.9-1.85-3.56-3.21c-0.15-0.32-0.17-0.93-0.37-1.25
		c-0.23-0.35-0.69-0.49-0.88-0.7c-0.82-1.01-0.19-1.36-0.17-2.5c0-0.2-0.31-0.43-0.37-0.72c-0.54-3.13,0.55-4.54,0.71-6.96
		c0.58-0.65,1.09-1.42,1.26-2.51c0.24-0.33,0.86-0.32,1.22-0.53c-0.13-1.05,0.99-1.41,1.81-1.95c-0.11-1.46,1.36-1.37,1.6-2.51
		c0.79,0.13,0.79-0.51,1.41-0.53c-0.01-0.59,0.46-0.74,0.71-1.06c2.77-1.13,8.74-2.91,10.35,0.34c-0.05,0.89,0.08,1.41,0.37,1.95
		c0.36,0.72,0.76,1.13,0.88,1.8c0.3,1.56-0.32,3.32,0.17,4.99c0.35,0.5,1.12,0.55,1.06,1.42c-0.05,0.78-0.96,0.68-1.06,1.43
		c0.6,3.38-1.88,6.18,0.55,7.84c0.84-0.87,2.16-0.62,3.01-1.24c0.84-0.6,0.97-1.94,2.18-1.98c1.82-2.73,2.49-5.71,2.83-9.25
		c-0.44-0.73-0.21-1.19-0.36-1.98c0.02-0.5,0.58-0.5,0.71-0.9c-0.71-0.54-0.78-1.7-1.24-2.49c-0.02-0.94,0.2-1.6,0-2.33
		c-0.3-1.07-1.19-1.48-1.79-2.13c-0.91-1.03-1.53-2.23-2.32-3.03c-1.33-0.1-1.86-1.11-3.38-0.55c-0.47-0.12-0.49-0.69-1.06-0.71
		c-1.39,0.42-2.47-0.53-3.56-0.72c-1.89-0.29-4.46-0.25-6.07,0.19c-0.76,0.22-1.5,0.8-2.31,1.07c-0.98,0.34-1.88,0.63-2.84,0.72
		c-0.64,1.18-2.15,1.21-3.22,1.78c-1.05,0.56-1.68,1.95-3.03,1.96c-1.38,1.56-2.62,3.32-3.93,5c-0.16,0.89-0.35,1.78-1.09,2.13
		c-0.22,1.43-0.49,2.83-1.4,3.58c0.38,1.04-0.55,1.77-0.71,2.84c-0.38,2.27,0.13,4.85,0.53,6.62c1.12,0.89,1.28,2.75,2.15,3.9
		c0.27,0.38,0.1,1.18,0.36,1.6c1.36,0.91,1.74,2.77,3.04,3.75c1.36,0,1.72,0.99,2.48,1.61h1.79c0.26,0.64,0.94,0.83,1.07,1.61
		c1.72,0.13,2.29,1.88,3.38,2.67c0.89,0.63,1.89,0.58,2.67,1.42c0.67-0.24,1-0.44,1.79-0.18c2.24,0.84,4.2,1.93,6.6,1.6
		c0.49,0.29,0.98,0.55,1.6,0.72c0.6-0.01,0.69-0.5,1.43-0.37c0.55,0.34,0.57,0.6,1.24,0.73c1.17,0.24,2.1-0.46,2.87-0.73
		c1.85,0.35,3.18-0.04,4.63-0.53c0.33-0.16,0.29-0.65,0.72-0.71c3.03-0.59,4.42-2.84,6.95-3.93c1.12-1.85,3.48-2.47,4.08-4.81
		c2.18-0.8,2.37-3.48,3.76-5c0.36-0.41,1.09-0.65,1.43-1.08c0.77-0.93,0.89-2.25,2.32-2.29c0.07-0.94,0.41-1.63,1.23-1.81
		c-0.14-1.76,1.81-2.82,1.61-5.16c0.39-0.47,0.97-0.73,1.43-1.07c0.05-2.43,1.48-4.46,1.77-6.44c0.36-2.3-0.24-4.64,0-7.48
		c-1.08-0.87-2.06-1.85-1.77-4.11c-1.16-0.76-1.04-2.01-1.43-3.39c-0.21-0.73-0.63-1.57-0.89-2.31c-0.3-0.89-0.76-1.7-0.87-2.67
		c-1.27-0.81-2.36-1.82-2.88-3.4c-1.5-0.13-1.78-1.54-3.2-1.77c0.14-0.57-0.18-0.66-0.18-1.09c-1.25-0.21-1.96-1-2.67-1.77
		c-2.05-0.15-2.52-1.9-4.64-1.97c0.04-0.75-0.8-0.62-1.07-1.06c-0.79,0.13-1.07-0.25-1.78-0.18c-0.38-0.16-0.33-0.75-0.89-0.72
		c-1.75-0.29-3.38-0.68-5.35-0.71c-0.86-0.84-1.7-1.21-3.21-1.07c-0.99,0.11-0.84,0.17-1.43,0c-0.22-0.06-0.47,0.03-0.72,0
		c-1.2-0.23-1.7-0.62-2.49-0.71c-1.54-0.22-3.19,0.13-5.01,0c-0.63,0.12-0.81,0.71-1.6,0.71c-0.92-0.8-3.38-1.04-5.34-0.71
		c-1.34,0.2-2.12,0.44-3.2,0c-0.95,0.62-2.4,0.09-3.04,0c-3.27-0.58-8.11,0.13-10.7-1.26c-0.97,0.4-1.16,0.15-2.15,0
		c-0.42-0.06-0.89,0.08-1.24,0c-0.54-0.1-0.94-0.51-1.42-0.54c-2.4-0.14-4.55,0.1-6.43,0c-0.57-0.02-0.51-0.64-1.06-0.72
		c-1.42,0.42-3.06-0.39-4.1-0.53c-0.81-0.1-1.52,0.23-2.31,0.19c-0.39-0.03-0.84-0.32-1.26-0.34c-2.95-0.36-7.03,0.57-8.75-0.36
		c-0.39,0.42-0.99,0.66-1.59,0.91c-0.46-0.63-1.86-0.3-2.86-0.39c-2.89,1.34-7.74-0.29-11.23,0.53c-0.65-0.07-0.65-0.78-1.43-0.68
		c-1.28,1.5-2.9,0.07-4.47-0.19c-1.44-0.23-3.11,0.28-4.8,0c-0.4-0.07-0.67-0.31-1.07-0.36c-1.8-0.15-3.66,0.3-5.53,0
		c-4.29-0.65-10.22-0.11-14.45-0.53c-0.48,0.17-0.92,0.39-1.43,0.53C279.39,211.29,277.49,211.56,276.71,212.13z M340.64,216.03
		l0.95-0.41l1.5,0.21l1.5,1.22l0.82,0.82l-0.54,2.64l-0.95-2.24l-0.95,0.21l-0.68,0.61l-1.09-0.2l-0.68-1.83L340.64,216.03z
		 M297.6,217.75v1.52l-1.02-0.61l-0.61-0.61L297.6,217.75z"/>
	<path class="st2" d="M217.68,348.37c0.21,0.64,0.8,0.64,1.25,0.88c0.1,0.05,0.19,0.43,0.36,0.54c1.58,0.98,3.07,1,4.45,0.18
		c1.44-0.86,2.15-1.78,3.21-2.51h1.08c1.27-2.95,5.16-3.28,6.95-5.72c1.62-0.46,2.51-1.64,5-1.23c0.21,0.65,0.91,0.79,1.26,1.42
		c0.1,0.22,0.06,0.75,0.17,1.08c0.22,0.59,0.59,1.11,0.7,1.6c0.34,1.26,0.06,2.78,0.9,3.76V353c-0.87,1.74-1.87,3.36-1.77,6.06
		c-0.37,0.56-0.67,1.21-0.55,2.32c-1.73,2.3-2.13,5.95-1.94,10.18c0,0.44-0.57,0.37-0.55,0.89v5.53c0.15,0.27,0.88-0.05,0.72,0.52
		c1.15,0.09,0.96-0.45,2.15-0.52c2.93,1.95,4.32-2.29,3.74-5.01c0.25-0.25,0.38-0.61,0.46-1.03l-0.38-1.12l-0.61-1.22l1.07-0.26
		c0-0.1,0-0.2,0-0.29c0.38-0.97,1.26-1.14,1.22-2.14c0-0.94-1.08-1.13-1.22-2.13c0.29-0.82,1.11-1.14,1.42-2.14
		c0.62-1.99-0.24-4.83,0.35-6.96c1.58-1.2,3.23-0.71,5.17-0.18c0.33,0.87,1.46,0.95,2.15,1.45c0.62,1.18,1.85,1.82,3.01,2.47
		c0.53,1.29,2,1.74,3.03,2.5c0.71,0.56,1.5,1.19,1.78,2.15c0.82,0.07,1.33,0.47,1.97,0.73c1.72-0.83,2.6-2.53,3.92-3.76
		c-0.24-0.52-0.47-1.07-0.35-1.96c-2.07-2.02-3.98-4.22-7.12-5.17c-0.52-1.44-2.07-1.86-2.85-3.04c-0.3-1.72-0.47-3.57-0.38-5.72
		c1.58-1.39,5.66-0.28,7.32-1.59c2.9-0.08,5.12-0.4,8.39-0.53c0.61-1.63,3.34-1.17,2.66-4.1c-1.49-1.03-4.22-1.53-6.95-1.08
		c-0.73,0.14-1.38,0.73-2.14,0.91c-1.31,0.27-2.84-0.19-4.09,0c-0.6,0.07-1.08,0.57-1.62,0.69c-0.36,0.1-0.73-0.19-1.05-0.17
		c-0.66,0.08-1.03,0.87-1.63,0.54c-1.45-0.98-3.01-1.84-5.33-1.96c-1.29-2.1-2.74-4.02-4.46-5.7c0.2-1.93-1.45-2.81-1.78-4.27
		c-0.27-1.24,0.24-2.5,0-4.28c0.08-0.63,1.07-0.34,0.89-1.24c-2.01-0.28-4.35-2.13-6.97-1.07c-0.82,3.97,1.14,7.36,0.55,12.12
		c-1.75,2-4.85,2.64-8.57,2.67c-0.55,0.15-0.82,0.6-1.24,0.89c-2.55,0.31-4.01,1.7-5.52,3.05h-0.91c-0.57,0.65-1.13,1.35-1.76,1.95
		c-3.07,0.41-3.78,3.12-5.54,4.82C217.8,347.31,217.54,347.81,217.68,348.37z M254.07,352.82l0.41,1.52l-1.02-0.61L254.07,352.82z
		 M249.17,347.64h1.23v1.83h-1.23V347.64z"/>
	<path class="st2" d="M255.13,454.82c0.37-0.43,0.74-0.82,1.27-1.07c0.74,0.24,1.4-0.27,2.12-0.37c1.94-0.21,4.21,0.2,6.42-0.17
		c0.61-0.1,1.48-0.63,2.32-0.89c0.89-0.27,2.08-0.4,2.68-0.72c1.08-0.54,1.69-1.76,2.87-1.59c0.36-1.07,1.27-1.59,1.6-2.68
		c1.39-0.13,1.63-1.64,2.85-1.43c0.43-0.46,0.51-1.04,0.89-1.42c0.45-0.45,1.24-0.58,1.61-1.07c0.92-1.26,0.54-2.87,1.06-4.81
		c1.47-1.05,1.62-3.39,2.67-4.82c-0.22-2.49,1.13-3.41,1.09-5.7c0.16-0.54,0.65-0.77,0.71-1.43c-0.28-1.46,0.79-3.51,0.34-4.64
		c0.24-0.61,0.89-0.78,1.09-1.41c0.05-0.98-0.07-1.96,0-2.86c0.1-1.18,0.47-2.38,0.53-3.57c0.13-2.43,0.11-5.72,0.34-7.5
		c0.28-1.99-0.45-4.16,0.36-6.06c-0.67-1.29-0.33-4.43-0.18-5.89c0.34-3.45-0.44-6.23,0.52-8.37c-1.22-1.4-0.19-5.04-1.59-6.25
		c0.26-1.01-0.07-1.6-0.18-2.51c-0.05-0.53,0.09-1.09,0-1.42c-0.19-0.67-0.8-1.16-1.08-1.78c-0.21-0.47-0.01-1-0.17-1.43
		c-0.29-0.77-1.31-1.06-1.24-1.96c-1.54-0.19-1.93-1.53-3.59-1.6c-0.81-1.14-1.95-1.98-3.39-2.51h-0.34
		c-0.08,0.53-0.62,0.58-0.89,0.92c-0.29,2.29,0.77,3.27,1.61,4.43c-0.25,1.95,0.64,3.51,1.26,4.47c0.69,1.06,0.23,2.12,0.35,3.57
		c0.07,0.84,0.95,1.53,0.19,2.31c0.08,0.62,0.8,0.62,0.7,1.43c-0.14,4.1,0.25,7.45,0.18,11.04c1.18,1.74,0.29,2.88,0.54,5
		c-0.07,0.47-0.25,0.82-0.54,1.09c0.49,0.81,0.62,1.97,0.54,3.36c-0.03,0.51-0.58,0.81-0.72,1.43c-0.28,1.19,0.27,2.87,0,4.11
		c-0.13,0.71-0.81,0.96-0.7,1.59c0.16,0.53,0.42,0.9,0.53,1.45c-0.69,1.21-0.92,3.42-0.53,5.16c-0.81,0.71-0.26,1.67-0.54,2.68
		c-0.22,0.7-0.93,1.3-1.08,2.13c-0.22,1.25,0.15,2.75-0.18,4.28c-0.46,0.57-0.87,1.14-1.43,1.64c-0.37,1.51,0.08,2.96-0.17,4.43
		c-0.1,0.69-0.61,1.27-0.71,1.96c-0.15,0.92,0.14,1.97,0,2.86c-0.18,1.06-1.08,1.86-0.72,3.01c-0.82,2.03-2.69,2.99-3.39,5.18
		c-1.25,1.3-3.33,0.71-5.17,1.24c-0.59,0.17-0.92,0.64-1.41,0.71c-1.62,0.26-3.38-0.71-5.38-0.35c-0.57,0.1-0.76,0.62-1.4,0.72
		c-1.02-0.5-1.98,0.12-2.87,0.18c-0.43,0-0.91-0.39-1.42-0.38c-0.24,0.01-0.3,0.31-0.53,0.38c-1.91,0.48-3.22-1.51-5.17-0.55
		c-1.68-1.13-4.59-1.01-6.06-2.32c-1.6-0.12-2.7-0.76-3.92-1.24c-1.14,0.86-2.58-0.04-3.21-0.35c-0.42-0.21-0.99-0.04-1.26-0.19
		c-0.46-0.26-0.76-0.99-1.24-1.24c-0.47-0.26-1.07-0.14-1.42-0.36c-1.18-0.72-2.1-1.86-2.68-2.5c-1.69-0.71-2.58-2.17-3.74-3.38
		c-1.11-0.09-1.66-0.76-2.15-1.43c-0.41-0.25-1.02-0.3-1.43-0.54c-0.16-1.68-1.93-2.17-2.67-3.39c-0.54-0.85-0.39-1.9-1.23-2.66
		c0.13-0.45,0.22-0.96,0.17-1.61c-1.16-0.84-0.89-3.04-0.91-5.01c-1.38-1.65-0.55-6.74-0.35-8.89c0.13-1.29-0.3-2.73-0.17-3.77
		c0.05-0.41,0.44-0.89,0.52-1.41c0.19-0.87-0.03-1.79,0.19-2.5c0.15-0.54,0.63-0.86,0.72-1.43c0.15-1.02-0.14-1.78-0.17-2.67
		c0.84-0.82,1.32-1.99,1.23-3.76c0.27-0.14,0.27-0.57,0.71-0.53v-1.43c0.93-0.74,1.03-2.31,2.32-2.66c1.04-2.79,4.12-3.49,6.96-4.47
		c1.25-1.96,4.36-2.08,6.05-3.56c-1.47-1.2-0.78-3.43-1.59-5.18c-0.94,0-1.84-0.97-2.86-0.89c-1.04,0.05-2.67,1.61-3.92,2.13
		c-1,0.42-1.84,0.34-2.47,0.72c-0.34,0.19-0.53,0.63-0.91,0.91c-0.38,0.25-0.92,0.3-1.25,0.51c-0.45,0.35-0.65,0.82-1.07,1.08
		c-0.96,0.63-2.35,0.91-3.02,1.42c-0.41,0.32-0.62,0.98-1.08,1.43c-1.24,1.24-2.88,2.52-3.91,3.59c-0.18,1.58-1.57,2.57-1.06,4.25
		c-0.36,0.73-1.33,1.37-1.62,2.34c-0.27,0.81,0.07,1.99,0,3.19c-0.03,0.32-0.29,0.35-0.35,0.73c-0.13,0.82,0.18,1.9,0,2.68
		c-0.41,1.85-0.72,5.44-0.18,7.63c0.11,0.53,0.47,0.92,0.53,1.45c0.1,0.9-0.29,1.93-0.17,2.84c0.06,0.48,0.44,0.96,0.53,1.41
		c0.1,0.7-0.11,1.51,0,1.98c0,0.05,0.33,0.12,0.35,0.17c0.38,0.76,0.2,1.42,0.72,1.79c0.22,0.75-0.03,0.88,0,1.78
		c0.09,0.57,0.66,0.63,0.71,1.25c0.16,2.8,1.42,4.53,1.78,7.13c0.93,0.61,1.62,1.49,1.43,3.21c0.83,1.35,1.53,2.87,3.03,3.58
		c0.39,1.48,1.35,2.45,2.48,3.2c0.18,1.25,1.15,1.71,2.16,2.13c1.28,2.35,3.89,3.36,5.35,5.53c0.95-0.05,1.03,0.76,1.61,1.08
		c0.96,0.09,1.76,0.34,2.14,1.01l0.14-0.5l0.57,0.99c1.88,0.35,2.87,1.6,4.99,1.7c1.31,1.04,2.51,1.51,4.8,1.26
		c0.57,0.02,0.55,0.67,1.07,0.72C247.6,455.87,251.63,453.92,255.13,454.82z M280.84,418.69l0.82,2.74l-0.82-0.6V418.69z"/>
	<path class="st2" d="M269.57,396.68c0.27-1.87-0.13-4.7-0.52-5.86c-0.71-2.03-1.16-2.64-2.32-3.59c0.06-1.23-0.84-1.51-1.25-2.3
		c-1.76-0.73-2.74-2.24-3.92-3.58c-0.75,0.26-1.39-0.43-1.97-0.53c-1.12-0.17-2.26,0.14-3.19-0.17c-0.31-0.1-0.35-0.59-0.55-0.72
		c-0.12-0.1-0.63-0.15-0.72-0.18c-0.66-0.31-1.08-0.49-1.95-0.36c-0.62,1.56-0.4,2.91-1.78,3.76c0.24,1.12,1.22,1.53,2.67,1.41
		c0.62,0.79,1.63,1.11,2.67,1.43c1.33,2.33,4.82,3.16,3.95,7.16c1.14,1.16,0.55,2.5,0.52,4.43c-0.03,2.16,0.29,5.02,0,7.15
		c-0.04,0.41-0.45,0.8-0.52,1.23c-0.29,1.49,0.23,3.24,0.18,4.82c-0.06,0.71-0.36,1.38-0.38,1.97c-0.02,0.57,0.27,1.31,0.2,1.78
		c-0.22,1.25-1.64,2.35-0.91,3.38c-0.6,0.79-1.14,1.61-1.07,3.04c-0.28,0.24-0.68,0.37-1.06,0.53c-0.98,2.36-3.3,3.36-4.83,5.17
		c-0.86,0.27-1.6,0.91-2.51,1.08c-1.35,0.23-3.33-0.35-4.09-0.37c-0.8-0.04-1.48,0.3-2.12,0.18c-0.89-0.17-1.43-0.74-2.34-1.24
		c-0.58-0.34-1.39-0.56-1.96-0.89c-0.79-0.49-1.29-1.64-1.94-2.16c-0.9-0.71-0.8-0.26-1.43-1.08c-0.47-0.57-1.4-1.42-1.61-1.77
		c-0.35-0.58-0.22-1.18-0.55-1.96c-0.13-0.35-0.54-0.52-0.72-0.91c-0.07-0.19-0.08-0.63-0.16-0.88c-0.52-1.49-0.58-3.51-0.52-5.52
		c0.62-1.16,1.59-1.97,1.41-3.94c1.06-1.19,1.9-2.62,3.58-3.18c0.87-2.78,4.39-2.85,6.05-4.83h1.98c0.16-1.18,1.48-0.37,1.96-0.55
		c0.53-0.16-0.1-0.98,0.71-0.69h1.6c0.69-1.22,1.75-1.78,1.61-3.41c-0.47-0.71-1.19-1.18-1.44-2.13c-2.2-0.35-2.69-2.41-4.61-3.03
		c-1.53,1.08-3.71,1.5-5.36,2.5c-1.92-0.27-2.13,1.19-3.04,1.95c-0.32,0.28-0.83,0.28-1.06,0.54c-0.24,0.26-0.39,0.84-0.72,1.25
		c-0.69,0.85-1.46,1.44-1.78,2.47c-0.51,0.13-1.06,0.52-1.43,0.92c-0.62,0.61-0.81,1.46-1.25,2.15c-0.18,0.27-0.5,0.39-0.72,0.7
		c-0.5,0.75-1.46,2.16-1.6,2.86c-0.27,1.24,0.11,3.16,0,4.79c-0.27,4.07-0.54,8.34,0,11.24c1.34,1.51,2.16,3.54,3.74,4.83
		c1.22,0.27,1.83,1.14,2.67,1.78c1.66-0.05,2.13,1.11,3.22,1.64h1.41c2.03,1.4,5.88,0.99,7.68,2.66c1.8-0.37,2.14,1.21,3.73,0.51
		c0.69,0.87,2.36,0.77,3.93,0.72c0.89-0.43,1.31-1.33,2.7-1.23c1-1.34,2.78-1.85,3.89-3.06c0.5-0.48,0.57-1.27,1.28-1.61
		c-0.12-0.65,0.28-1.18,0.54-1.78c0.24-0.63,0.39-1.53,0.69-2.14c0.34-0.61,0.84-0.92,1.09-1.6c0.32-1.04,0.13-2.27,0.52-3.4
		c0.19-0.43,0.69-0.64,0.89-1.06c0.11-0.23-0.07-0.63,0-0.9c0.23-0.69,0.93-1.37,1.07-1.95c0.13-0.47-0.07-1.08,0-1.59
		c0.11-0.74,0.61-1.43,0.71-2.15c0.32-2.27-0.23-4.87,0-7.66c0.15-0.44,0.8-0.41,0.72-1.08c0.04-1.08-0.08-1.95-0.55-2.49
		c0.66,0.05,0.1-0.37,0.18-0.72C268.99,397.98,269.48,397.36,269.57,396.68z"/>
	<path class="st2" d="M241.23,318.06c3.22,1.25,6.73-0.08,10.35,0.53c0.59,0.09,1.12,0.6,1.77,0.7c1.8,0.32,3.73-0.23,5.54,0
		c0.5-0.13,0.7-0.59,1.24-0.7c2.53,0.19,5.33-0.12,8.56,0c0.59-0.7,2.08-0.53,3.38-0.53c0.78,0.47,1.46,0.39,2.51,0.53
		c1.56,0.21,2.99,0.28,4.46,0c2.36,1.55,3.6-0.41,4.44-1.61c-0.29-2.36,2-3.32,0.71-5.53c-1.23,0.25-2.44-0.38-3.74-0.53
		c-2.69-0.32-6.72-0.01-10.52-0.19c-3.31-0.13-6.56-0.03-9.06,0.19c-1.61,0.13-2.31,0.57-3.42,0.72c-1.28,0.17-2.69-0.12-3.73,0
		c-0.59,0.11-0.88,0.54-1.43,0.71c-0.71-0.54-1.56,0.25-2.5,0.35c-1.07,0.13-2.13-0.22-3.22-0.18
		C242.84,312.66,239.4,314.86,241.23,318.06z"/>
	<path class="st2" d="M280.44,279.36c-0.46-0.84-1.09-1.51-1.04-2.85c0.1-0.68,0.77-0.78,1.04-1.27c-2.15-0.92-0.81-4.15-1.41-6.39
		c-0.42-1.56-1.85-2.5-1.79-4.1c-1.77-1.71-4.12-2.78-4.81-5.53c-0.72-0.25-1.28-0.63-1.43-1.43c-1.37,0-1.77-0.94-2.49-1.61
		c0-0.59-0.29-0.89-0.17-1.61c-1.07-1.62-2.94-2.42-3.41-4.63c-0.78-0.3-1.18-0.95-1.58-1.61c0.18-1.25-1.63-2.37-2.33-4.28
		c-0.28-0.77-0.14-1.19-0.34-1.61c-0.87-1.67-1.55-3.74-3.4-3.92c-2.83-0.29-3.23,2.64-2.68,4.99c0.23,1,1,2.07,1.25,3.04
		c0.17,0.65,0,1.19,0.18,1.61c0.33,0.77,1.2,1.04,1.42,1.79c0.08,3,1.09,5.07,3.03,6.23c0.04,0.13,0.09,0.26,0.14,0.38l0.19-0.08
		l1.02,0.6l0.56,2.3c0.21,0.3,0.42,0.59,0.59,0.9c0.21,0.34,0.58,0.79,0.69,1.06c0.09,0.2-0.1,0.54,0,0.72
		c0.45,0.65,1.32,1.01,1.79,1.6c-0.14,1.93,2,2.14,1.25,4.1c0.41,0.3,0.46,0.97,0.72,1.43c0.44,0.31,0.75,0.51,1.06,0.89
		c1.19,1.48,0.69,2.53,0.89,4.46c0.08,0.73,0.56,1.63,0.72,2.85c0.16,1.53,0.27,2.15,1.06,3.04c-0.26,2.89,0.69,5.13,1.61,6.59
		c0.73,1.21,0.56,0.79,1.6,1.61c0.35,0.27,0.69,0.79,0.89,0.89c1.3,0.65,4.31,0.63,4.81,0.19c1.2-0.99-0.25-3.18,0.89-4.46
		C280.33,283.75,280.53,281.43,280.44,279.36z"/>
	<path class="st2" d="M201.99,388.67c0.18-1.38,0.54-2.55,1.61-3.04c0.02-2.94,1.43-4.52,3.03-5.89c2.18-0.13,2.88-1.74,4.11-2.85
		c0.43,0.02,0.82,0.03,1.06-0.17c2.46-2.05,5.33-3.72,7.48-6.06c1.07-0.19,1.38-1.11,2.33-1.43c1.45,0.31,2.49-0.59,3.56-0.71
		c0.62-0.1,1.41,0.35,1.96,0.17c0.55-0.18,0.4-1.16,1.24-0.87c0.61-3.96-1.95-4.73-2.86-7.15c-1.98,0.3-3.49-0.43-4.83,0
		c-0.1,0.03-0.22,0.49-0.34,0.54c-1.09,0.55-2.03,1.37-3.04,1.96c-1.89-0.12-2.27,1.26-3.92,1.44c-0.35,0.1-0.11,0.84-0.53,0.86
		c-3.45,0.77-5.5,2.11-8.01,3.95c-2.34,0.05-3.6,1.14-5.19,1.95c-0.82,1.96-2.61,2.97-2.84,5.54c-0.82,0.72-1.28,1.82-2.15,2.48
		c-0.17,1.03-0.29,2.1-0.72,2.87c0,0.52,0.12,0.94,0,1.41c-0.12,0.54-0.8,1.01-0.89,1.27c-0.14,0.4,0.13,0.98,0,1.22
		c-0.25,0.52-0.96,0.76-1.05,1.26c0.14,1.22-0.35,1.8-0.73,2.5c0.37,3.4,0.21,7.81,0,11.25c-0.36,0.14-0.48,0.54-0.7,0.87
		c-0.4,1.69,0.61,2.89,0.7,3.76c0.13,1.02-0.45,1.99,0,3.02c-1.38,2.3,0.56,4.43,0.73,7.48c0.8,0.49,0.46,1.6,0.87,2.15
		c-0.58,0.18-0.29,1.26-0.35,1.96c1,1.81,1.04,2.92,0.53,5c0.35,0.83,1.09,1.27,0.89,2.67c0.75,0.98,1.23,2.22,2.16,3.02
		c0.51,1.67,1.87,3.29,3.74,2.13c-0.76-4.37-1.26-9.57-1.26-13.73c1.07-2.08,0.38-4.67,0.55-7.86c-1.04-1.03-0.66-3.39,0-4.61
		c-0.71-0.77-0.31-1.92-0.55-2.86c-0.12-0.57-0.62-1.02-0.71-1.61c-0.25-1.75,0.67-3.31,1.26-4.82c-0.46-1.48,0.72-3.1,1.43-4.46
		C200.38,391.11,200.86,389.52,201.99,388.67z"/>
	<path class="st2" d="M308.46,280.78c-0.65-1.13-1.88-2.38-3.39-2.85c-0.44-0.14-0.93,0.1-1.43,0c-1.09-0.19-1.76-1.33-3.21-0.89
		c0.14,0.74-0.8,0.4-1.07,0.72c-1.47,1.79-4.32,2.23-5.35,4.44c-0.77-0.1-0.73,0.58-1.43,0.54c-0.35,1.3-1.65,1.63-1.41,3.04
		c0.22,1.5,1.9,1.51,4.07,1.41c2.18,1.88,7.28,0.22,9.46,0.38c0.29-0.16,0.6-0.57,1.09-0.72c0.66-0.23,1.65,0.2,1.95-0.54
		c0.12-0.83-0.08-2.55,0-3.93C307.74,281.62,308.69,281.77,308.46,280.78z"/>
	<path class="st2" d="M296.15,253.31c-0.42,2.5-0.36,6.3,0,8.57c2.14,0.64,4.16,0.24,5.88,1.26c0.62-0.86,1.74-0.52,2.15-1.6
		c0.27-0.72-0.23-1.83-0.54-2.52c0.64-3.36-1.43-5.73,0-8.55c-0.8-3.22,1.59-4.71,1.6-7.67c-0.8-0.23-1.85-0.23-2.67,0
		c-1.24-1.11-2.52-0.33-3.57,0.52c0.18,1.02-0.35,1.29-0.54,1.8c-0.16,0.41-0.05,0.96-0.19,1.26c-0.14,0.27-0.59,0.41-0.72,0.7
		c-0.09,0.25,0.13,0.66,0,0.89c-0.16,0.36-0.74,0.67-0.89,1.08c-0.08,0.29,0.11,0.91,0,1.43c-0.1,0.5-0.51,0.77-0.52,1.06
		c0,0.11,0.68,0.87,0.36,1.26C296.37,253.05,296.21,252.95,296.15,253.31z"/>
	<path class="st2" d="M283.9,487.15c-1.02-0.58-2.05-1.14-3.21-1.43c-1.92-0.86-3.82-1.81-5.94-2.08c-2.41-0.92-4.96-1.25-7.46-1.75
		c-1.4-0.04-2.76-0.56-4.16-0.56c-0.24,0-0.47,0.01-0.72,0.05c-0.22-0.01-0.44-0.01-0.66-0.01c-2.44,0-4.82,0.48-7.22,0.86
		c-1.26,0.19-1.38,0.79-0.82,1.76l0,0c0.77,0.05,1.55,0.05,2.21,0.52c-0.02,0.77,0.63,1,1.1,1.39c4.24,3.6,8.13,7.57,11.65,11.84
		c1.17,1.42,2.88,2.4,3.58,4.22c0.48,0.64,0.95,1.29,1.43,1.93c0.21,0.52,0.59,0.9,1.06,1.18c0.4,0.93,0.92,1.76,1.81,2.32l0,0
		c0,0.08,0.02,0.14,0.03,0.2c0.97-4.71,2.23-8.95,3.8-12.82C281.5,491.88,282.67,489.38,283.9,487.15z M274.92,495.61l-1.02-0.91
		l0.41-2.14l0.82,1.22L274.92,495.61z"/>
	<path class="st2" d="M279.72,542c-0.12-0.2-0.24-0.39-0.37-0.59c-0.82-1.31-1.83-2.9-2.19-4.92c-0.88-1.81-1.47-3.8-1.75-5.9
		c-0.63-3.12-1.21-6.73-0.51-10.46c-0.35-1.69-0.01-3.21,0.24-4.37c0.03-0.12,0.05-0.23,0.07-0.34c-1.09-1.53-2.18-3.06-3.3-4.57
		c-1.34-1.8-2.36-3.96-4.31-5.3c-1.72-2.38-3.54-4.65-5.78-6.58c-2.52-3.16-5.37-6-8.47-8.58c-0.87-0.73-1.48-1.88-2.8-1.98l-0.02,0
		c-0.15-0.31-0.44-0.36-0.74-0.4c-0.1-0.12-0.21-0.25-0.32-0.38c0-0.25-0.01-0.5,0-0.74c-0.33-0.02-0.62-0.1-0.75-0.44
		c-2.12,0.91-2.61,2.89-3.15,4.84c-1.39,3.9-1.33,7.97-0.99,11.97c0.47,5.63,2.45,10.87,4.91,15.93
		c2.84,6.02,6.63,11.44,10.86,16.55c1.06,1.28,1.76,2.92,3.43,3.62c1.96,2.88,4.76,4.76,7.67,6.52c1.58,1.12,3.29,1.97,5.17,2.47
		c1.55,1.14,3.41,1.32,5.21,1.68c1.62,0.48,3.26,0.77,4.91,0.91C283.79,548.42,281.42,545.42,279.72,542z M269.72,527.36l-1.23-0.61
		l-0.61-1.21l0.41-1.52l1.02,0.61l0.61,1.21L269.72,527.36z"/>
	<path class="st2" d="M359.72,491.62c-0.15-0.78-0.43-1.11-0.86-1.11c-0.26,0-0.57,0.12-0.93,0.35h0c-0.02,0.77,0.01,1.55-0.44,2.23
		c-0.77,0-0.97,0.66-1.35,1.15c-3.45,4.36-7.29,8.38-11.44,12.05c-1.38,1.22-2.3,2.96-4.09,3.72c-0.63,0.5-1.25,1-1.88,1.49
		c-0.51,0.23-0.88,0.62-1.14,1.1c-0.7,0.33-1.34,0.73-1.84,1.31c0,0.22,0,0.43-0.01,0.63c-0.01,0.18-0.01,0.42-0.01,0.61
		c1.15,1.8,0.48,3.67,0.24,4.35c-0.02,0.07-0.05,0.13-0.07,0.2c0.08,4.05-0.71,7.88-1.52,11.46c-0.1,0.43-0.22,0.82-0.32,1.17
		c-0.15,0.49-0.27,0.91-0.28,1.22c-0.02,2-0.86,3.8-2.32,4.98c0.26,2.58-1.33,4.27-2.14,5.12l-0.16,0.17
		c-0.46,0.5-0.73,1.15-1.08,2.07c-0.82,2.18-1.97,4.07-3.42,5.67c0.41-0.14,0.83-0.26,1.29-0.31c1.21-0.14,2.55-0.17,3.29-1.64
		c0.29-0.57,1.16-0.91,1.97-0.91c0.06,0,0.13,0,0.19,0.01c0.08,0.01,0.16,0.01,0.23,0.01c1.07,0,1.95-0.53,2.58-1.25
		c0.72-0.83,1.65-1.25,2.48-1.86c2.96-2.19,5.87-4.48,8.2-7.34c0.66-0.82,2.2-0.87,2.07-2.34c0.36-0.96,1.15-1.58,1.75-2.35
		c0.71-0.93,2.07-1.44,2.01-2.9v0c0.07-0.02,0.15-0.03,0.24-0.03c0.09,0,0.18,0.01,0.27,0.01c0.32,0,0.57-0.07,0.23-0.73
		c0.87-2.07,2.39-3.81,3.01-6.01c0.74-2.06,2.16-3.83,2.62-6.01c0.79-1.95,1.68-3.88,1.87-6.01c0.83-2.44,1.08-5,1.49-7.52
		c-0.01-1.64,0.64-3.23,0.35-4.89C360.84,496.8,360.22,494.22,359.72,491.62z"/>
	<path class="st2" d="M331.5,494.47l0.17,0.52c0.72,1.42,1.05,2.87,1.35,4.15c0.18,0.78,0.34,1.51,0.58,2.15
		c0.68,1.52,0.95,3.05,1.19,4.4c0.09,0.51,0.18,1.01,0.28,1.48c0.05,0.06,0.09,0.11,0.13,0.17c0.62-0.54,1.19-1.13,1.65-1.84
		c2.32-1.8,4.53-3.7,6.38-6c3.07-2.63,5.81-5.58,8.29-8.76c0.7-0.89,1.83-1.54,1.88-2.87v-0.02c0.31-0.16,0.35-0.45,0.38-0.75
		c0.12-0.11,0.24-0.22,0.36-0.33c0.25-0.01,0.5-0.02,0.74-0.03c0.01-0.33,0.08-0.62,0.41-0.76c-0.98-2.09-2.98-2.51-4.94-2.98
		c-2.2-0.7-4.43-0.94-6.66-0.94c-1.24,0-2.47,0.08-3.71,0.19l-0.09,0.78l-1.23,0.31l-0.1-0.94c-0.07,0.01-0.14,0.01-0.21,0.02
		c-3.86,0.45-7.5,1.63-11.02,3.17c0.63,1.07,1.24,2.17,1.74,3.38C330.28,490.77,330.92,492.73,331.5,494.47z M339.07,496.13
		l0.61,1.21l-0.61,0.31V496.13z M333.35,493.38l-0.2,1.83l-1.02,0.6l-0.2-1.83L333.35,493.38z"/>
	<path class="st2" d="M325.29,544.83c0.42-1.11,0.84-2.14,1.69-3.05c0.83-0.89,1.83-1.79,1.43-3.39c-0.16-0.67,0.36-1.58,1.05-2.09
		c0.95-0.7,1.32-1.75,1.33-2.77c0.01-1.1,0.44-2.02,0.67-3.03c0.82-3.59,1.54-7.22,1.44-10.91c-0.03-1.05,1.11-2.1,0.05-3.12
		c-0.35-0.96-0.15-1.95-0.2-2.92c-0.07-1.17,0.63-2.44-0.36-3.51l0,0c0.2-0.34,1.15-0.63,0.08-1.05c-0.69-2.14-0.67-4.45-1.63-6.52
		c-0.78-2.05-0.86-4.31-1.92-6.27c-0.67-2-1.25-4.03-2.49-5.78c-0.96-2.4-2.43-4.49-3.76-6.68c-0.88-1.01-1.41-2.28-2.28-3.3
		c-0.2-0.23-0.4-0.44-0.64-0.64c-1.73-2.03-3.89-3.58-5.95-5.23c-0.38-0.3-0.69-0.45-0.95-0.45c-0.42,0-0.7,0.37-0.91,1.03l0,0
		c0.49,0.6,1.01,1.17,1.12,1.98c-0.58,0.51-0.31,1.14-0.28,1.75c0.02,0.52,0.01,1.03,0.03,1.55c0.11,5.04-0.17,10.07-0.86,15.05
		c-0.25,1.82,0.18,3.75-0.68,5.48c-0.15,0.79-0.3,1.57-0.46,2.36c-0.24,0.51-0.26,1.04-0.14,1.58c-0.41,0.92-0.68,1.87-0.48,2.9l0,0
		c-0.34,0.33-0.38,0.68-0.09,1.05l0,0.01c-0.61,0.77-0.95,1.61-0.71,2.61c-0.24,1.87-1.49,3.52-1.22,5.5c-0.5,0.48-0.55,1-0.16,1.57
		c-0.31,0.79-0.61,1.57-0.92,2.36c-1.08,5.34-2.21,10.68-3.24,16.03c-0.59,3.04-1.37,6.05-1.39,9.17c-0.32,3.08-0.63,6.16-0.95,9.24
		c1.11,0.52,2.24,0.66,3.39,0.66c0.98,0,1.97-0.11,2.96-0.17c0.36,0.13,0.71,0.18,1.05,0.18c0.85,0,1.66-0.34,2.46-0.71
		c2.25-0.06,4.3-0.7,6.03-2.2C321.17,551.46,323.83,548.71,325.29,544.83z M321.3,514.73l1.43-0.31l0.2,1.83l-0.61,1.52l-1.43-1.22
		L321.3,514.73z"/>
	<polygon class="st3" points="322.93,516.26 322.73,514.42 321.3,514.73 320.89,516.56 322.32,517.78 	"/>
	<path class="st2" d="M304.47,506.73c0.42-2.2,1.32-4.42,0.99-6.76c0.59-2.87,1.03-5.76,0.93-8.71c0.56-3.6,0.72-7.22,0.62-10.84
		c-0.01-0.4-0.01-0.8-0.03-1.2c-0.05-1.13,0.39-2.36-0.44-3.4l-0.01-0.02c0.13-0.32-0.03-0.57-0.2-0.81
		c0.02-0.16,0.04-0.33,0.06-0.49c0.18-0.17,0.36-0.34,0.54-0.51c-0.21-0.25-0.35-0.52-0.18-0.85c-0.61-0.27-1.19-0.39-1.75-0.39
		c0,0,0,0,0,0c-1.39,0-2.66,0.69-3.94,1.34c-3.36,1.42-6.04,3.76-8.5,6.32c-0.33,0.35-0.66,0.7-0.99,1.05
		c-3.83,4.15-6.34,9.16-8.4,14.4c-2.51,6.17-3.93,12.62-4.83,19.2c-0.22,1.64-0.96,3.27-0.35,4.98c-0.8,3.39-0.28,6.73,0.39,10.06
		c0.24,1.92,0.78,3.75,1.68,5.47c0.21,1.91,1.33,3.4,2.29,4.97c1.64,3.34,3.93,6.16,6.82,8.5c2,1.73,3.91,3.59,6.61,4.24
		c-0.17-1.44,0.6-2.8,0.31-4.24c0.44-3.2,0.76-6.42,1.34-9.6c0.94-5.19,2.16-10.33,3.33-15.48
		C302.07,518.24,303.36,512.5,304.47,506.73z M293.3,543.69l-1.22-0.91l-0.61-2.14h1.43l0.82,1.22L293.3,543.69z M295.86,507.72
		l0.2-1.53l0.61,0.92l0.2,1.52L295.86,507.72z M299.03,486.13v-1.83l0.82,0.91L299.03,486.13z"/>
	<polygon class="st3" points="299.03,486.13 299.84,485.21 299.03,484.29 	"/>
	<polygon class="st3" points="296.06,506.19 295.86,507.72 296.88,508.63 296.68,507.11 	"/>
	<polygon class="st3" points="291.47,540.64 292.08,542.78 293.3,543.69 293.71,541.87 292.9,540.64 	"/>
</g>
</svg>
