<svg id="Art" xmlns="http://www.w3.org/2000/svg" viewBox="0 0 216 216"><defs><style>.cls-1{fill:#a73439;}</style></defs><polygon class="cls-1" points="50.63 126.92 50.54 126.88 50.48 126.97 50.63 126.92"/><path class="cls-1" d="M167.35,85.29l.12-.45-.06-.46.06-.45,0-.47,0-.47v-.46l0-.45v-.47l-.05-.46,0-.45,0-.47,0-.47,0-.46h.06l0-.06.06.06-.09-.44.06-.43,0-.44v-.87l-.11-.44.11-.44-.1-.43v-.46l.09-.43,0-.44-.12-.42,0-.44-.1-.43-.31-.32-.19-.41-.33-.28-.28-.35-.39-.17-.57-.28-.07,0,0-.05-.35-.29-.42-.17L164,70.6l-.47-.12-.36-.28-.44-.14-.39-.25-.39-.25-.4-.21-.39-.22-.41-.24-.42-.16-.38-.26-.37-.25-.41-.23L159,68l-.18,0-.72.19-.34.09c-.33.08-.7.14-1.06.19l-.19,0c-.23.08-.48.15-.74.22a8.08,8.08,0,0,1-1.15.38,7.73,7.73,0,0,1-.86.13l.26.15.38.23.41.22.39.23.39.25.41.22.41.21.42.19.42.19.39.24.41.2.44.19.35.3.46.12.37.29.4.23.4.25.4.22.47.12.35.32L162,74l.39.28.18.43.25.4.07.46,0,.45.06.47v.45l-.06.45v.47l0,.45,0,.46,0,.46-.05.46.05.45.06.47-.1.45.07.46-.08.46,0,.46.08.45,0,.47-.06.45v.46l-.06.46.11.46-.12.45,0,.47,0,.45-.09.46,0,.46v.91l0,.47v.91l-.06.46.12.46-.13.45.14.47-.07.45-.07.45.1.47-.09.45v.46l0,.45.11.47v.45l-.1.47,0,.45,0,.46-.06.45.1.47,0,.45v.45l-.11.47v.45l0,.46.09.46,0,.45-.06.46.06.45,0,.47-.11.45,0,.47.05.46-.07.45.1.47v.91l-.06.46-.05.46.07.45,0,.47v.46l.08.45-.09.47,0,.45.1.47-.07.46v.45l.07.47,0,.45v.47l-.11.46.08.45,0,.47,0,.45-.06.47,0,.45v1.38l0,.46,0,.47,0,.45,0,.47,0,.46-.05.47,0,.45,0,.46.1.47,0,.47-.06.46v.47l0,1,.11.48-.06.49-.05.48,0,.48,0,.5.12.45-.12.46.1.46,0,.45-.09.46-.05.45.08.47,0,.45,0,.45.13.47-.08.45.06.46-.09.45.06.46,0,.46,0,.45v.45l-.09.47.06.45-.1.45.11.47-.06.45.08.46,0,.45,0,.47v.45l0,.47v.45l.08.46-.08.47,0,.45v.47l.05.46-.1.44,0,.48-.3.38-.21.39-.22.41-.37.27-.37.29-.44.12-.41.23-.35.31-.43.14-.43.18-.37.28-.41.18-.41.21-.39.25-.41.18-.41.21-.33.3-.41.21-.44.14-.35.31-.43.16-.38.25-.39.21-.42.18-.38.26-.4.23-.42.16-.39.25-.44.16-.38.25-.39.23-.39.25-.42.17-.37.29-.45.12-.41.2-.34.31-.44.16-.39.25-.37.27-.42.16-.44.16-.35.31-.39.22-.44.17-.4.21-.37.3-.43.15-.41.19-.39.24-.38.27-.41.2-.44.16-.34.32-.47.09-.35.32-.42.19-.39.23-.43.19-.42.19-.35.32-.43.14-.38.27-.42.18-.43.18-.36.29-.42.19-.4.22-.42.2-.38.23-.37.27-.43.19-.39.24-.44.15-.36.3-.41.21-.4.2-.41.22-.45.13-.35.33-.45.14-.38.26-.42.19-.38.27-.45.13-.4.25-.4.25-.44.17,0,.12-.08.12,0-.11-.41.25-.41.22-.43.16-.35.31-.42.2-.41.2-.42.21-.41.22-.45.16-.38.24-.36.31-.44.17-.44.16-.78.53-.4.23,0-.06h0l-.42.21-.36.3-.43.18-.38.29-.46.11-.38.26-.39.27-.39.23-.41.23-.44.18-.41.2-.39.25-.42.19-.38.26-.45.16-.39.25-.43.2-.37.26-.45.16-.4.26-.39.25-.45.15-.41.23-.36.31-.45.14-.43.2-.37.3-.41.23-.44.26-.48.12-.51,0-.49-.09-.48-.12-.45-.2-.43-.16-.33-.35-.41-.19-.42-.19-.38-.25-.39-.21-.45-.14-.37-.29-.43-.14-.4-.22-.36-.29-.39-.23-.41-.21-.44-.13-.39-.23-.38-.26-.38-.27-.4-.21-.45-.12-.38-.25-.42-.19-.4-.23-.39-.22-.39-.23-.42-.18-.35-.32-.44-.14-.38-.23-.36-.29L95,164l-.38-.24-.38-.25-.44-.16-.38-.23-.37-.25-.4-.22-.43-.16-.4-.22-.34-.29-.46-.11-.37-.25-.38-.28-.45-.12-.4-.23-.39-.2-.39-.23-.4-.24-.36-.3-.42-.18-.38-.24-.41-.22-.45-.13-.33-.32-.44-.15-.44-.17-.33-.32-.45-.14-.38-.24-.38-.26-.41-.19-.37-.27-.41-.2-.42-.19-.41-.2-.41-.19-.35-.31-.42-.2-.44-.15-.4-.2-.41-.2-.35-.31-.42-.2-.37-.26-.45-.14-.36-.29-.42-.17-.44-.18-.39-.23-.39-.23-.4-.23-.39-.24-.36-.27-.44-.18-.41-.19L73,152l-.36-.28-.39-.25-.42-.16-.4-.23-.4-.23-.43-.18-.37-.26-.44-.14-.41-.22-.36-.29-.42-.18-.4-.26-.4-.22-.44-.14-.35-.34-.44-.14-.4-.24-.37-.27-.45-.16L65,147.6h0l-.1.14v-.17h0l-.41-.22-.37-.22-.44-.15-.34-.32-.45-.11-.38-.26-.37-.24-.41-.2-.39-.23-.41-.19-.38-.23L60.1,145l-.37-.27-.42-.17-.36-.29-.44-.13-.4-.21-.38-.27-.4-.21-.39-.23-.42-.19-.41-.2-.36-.29-.4-.22L55,142l-.26-.38-.28-.36-.19-.42,0-.47V140l0-.45,0-.9v-.47l0-.45.07-.45,0-.45,0-.47,0-.45,0-.45.1-.45-.06-.45,0-.47v-.45l0-.45,0-.45-.08-.45,0-.47,0-.45.13-.45-.08-.45,0-.45-.06-.45.08-.47-.06-.45.07-.45,0-.25a4.88,4.88,0,0,1-1.79.35A4.32,4.32,0,0,1,51,128a2,2,0,0,1-.26.06c-.36.07-.73.15-1.1.21v.77l-.11.46,0,.45.06.47,0,.47v.45l0,.46-.09.45,0,.47,0,.45,0,.47.09.45,0,.46-.1.45,0,.47,0,.45.07.47,0,.46,0,.45v.47l0,.46,0,.45.09.47-.06.47,0,.45,0,.46V141l0,.46-.09.44.19.41.06.43.27.35.22.37.28.33.32.29.38.21.36.29.46.1.34.33.42.18.41.2.44.16.37.25.43.17.4.24.38.24.41.22.39.22.39.25.41.2.37.29.45.12.38.26.39.22.39.23.42.21.4.23.42.19.38.27.43.14.37.29.39.26.41.2.39.24.47.1.39.23.39.23.38.28.42.17.38.27.41.2.42.19.38.25.43.14.41.22.39.23.41.24.35.3.45.13.39.23.4.22.43.18.34.33.45.15.35.3.44.15.43.17.38.28.39.22.4.25.43.16.37.29.39.23.42.17.44.16.36.3.44.14.41.23.36.29.41.21.39.2.44.16.75.53.41.19.44.14.36.31.38.24.46.11.4.23.33.32.45.14.37.29.39.22.42.19.41.22.42.18.42.2.38.28.42.17.37.29.45.13.35.32.39.22.44.17.38.27.39.23.41.22.42.16.43.17.4.22.39.23.36.31.44.17.44.16.38.25.37.26.4.25.43.18.41.21.36.28.41.22.41.2.44.19.4.2.38.27.44.16.39.26.38.26.45.12.41.23.4.2.35.32.46.13.4.21.38.27.39.24.43.19.37.27.46.13.4.22.34.34.45.16.42.17.35.34.42.17.45.16.41.2.39.25.38.28.45.16.38.28.39.24.44.19.42.16.44.13.45.06.45.07.45-.13.44-.1.41-.2.43-.18.41-.19.41-.21.39-.25.41-.23.4-.19.38-.28.4-.23.42-.21.36-.26.41-.22.42-.17.45-.15.38-.24.39-.25.4-.25.43-.17.37-.3.43-.16.37-.29.46-.11.41-.21.38-.27.38-.25.42-.17.41-.22.4-.19.37-.31.4-.22.44-.16.41-.2.39-.25.39-.26.44-.16.35-.3.48-.11.38-.26.41-.22.43-.17.37-.29.4-.22.38-.28.42-.19.46-.16,0-.05-.07-.09.07-.12.13.1v.09l.38-.26.39-.23.42-.15.36-.28.43-.17.37-.26.43-.16.42-.18.35-.29.45-.14.33-.34.45-.1.4-.25.35-.29.43-.16.4-.2.39-.24.41-.18.37-.28.43-.16.39-.23.38-.24L137,160l.39-.2.37-.29.45-.13.36-.29.38-.25.45-.13.36-.28.43-.16.4-.2.38-.26.44-.16.38-.24.38-.27.39-.22.42-.19.39-.22.38-.26.45-.13.35-.29.41-.22.39-.23.42-.18.38-.24.45-.14.4-.21.37-.27.4-.21.4-.21.41-.2.41-.21.41-.2.4-.22.4-.22.39-.24.38-.25.42-.2.39-.24.4-.24.43-.14.35-.32.44-.16.42-.2.41-.2.41-.22,0,0,.42-.17.34-.32.43-.15.35-.29.41-.19.42-.18.37-.26.4-.2.43-.16.39-.22L159,148l.38-.25.42-.17.42-.16.36-.27.38-.26.44-.13.36-.28.44-.14.39-.23.35-.29.39-.24.43-.17.39-.23.42-.17.35-.3.47-.12.37-.24.34-.28.39-.2.26-.35.25-.37.2-.38.12-.42.09-.42,0-.44,0-.46-.11-.45.13-.47-.15-.46.08-.46.07-.46-.1-.47.08-.46v-.45l0-.47-.12-.46,0-.46.1-.46,0-.47,0-.46,0-.45-.08-.47,0-.46v-.46l.1-.46v-.93l-.09-.45.11-.94-.07-.46,0-.47.12-.45,0-.46,0-.47.07-.46-.1-.47,0-.47v-.46l.12-.93-.06-.48v-1l-.06-.48.08-.48,0-.49-.1-.48.08-.47v-.45l-.08-.45v-.92l.1-.46-.07-.45,0-.47v-.45l.07-.47,0-.45,0-.45v-.46l0-.46,0-.46,0-.45,0-.47,0-.45,0-.45,0-.47,0-.45,0-.46-.1-.45.05-.47,0-.45v-.47l0-.45,0-.46,0-.45-.09-.45.09-.46v-1.38l0-.45-.13-.46.08-.46-.08-.46.06-.45.06-.45,0-.47-.1-.45,0-.45v-.47l0-.45,0-.46-.06-.45.08-.46-.09-.46.07-.45.06-.47v-.45l0-.47-.07-.45,0-.46.09-.45,0-.47,0-.45v-.47l0-.45,0-.46,0-.45-.07-.47,0-.45-.06-.47.07-.45v-.46l0-.47,0-.45,0-.46,0-.46,0-.46-.05-.47v-.45l.1-.45v-.92l0-.46Zm-11.53-15.8-.19.1h-.11l-.16-.13-.16,0,.12-.08.2-.08.18.08.13,0Zm.24.31.09,0,0,.06Zm.47.83h-.13l.1-.09.09.09ZM53,130.27h0Zm.7,3.83v.07h-.08Zm-.16,8.17h.07l0,0-.17-.07Zm.25,1.43h-.09l-.17-.12-.15,0,.07-.14.25,0,.18.07,0,.1.13.12Zm.42-1.63h0l0,0,.11.06Zm.28,3.64h0v0l.11-.07Zm.2-1,0,0,0-.1.17.1Zm2,.66h-.08v0l-.17.06.16-.09v0h.16Zm7.25,3.68-.06,0-.1,0,0-.07.14-.1Zm48.6,20.56,0,0v-.05l.1-.07Zm1.56,2.17,0,.09-.1,0-.08-.15.11-.1.16.07Zm.65-2.49h-.07v0l-.19.07.18-.1h.07Zm1.3-1.91,0,0v0l.1-.08Zm.17,2.58v0l0,0Zm1.38-.41,0,.09-.11,0-.07-.14.1-.11.16.08Zm.66-2.49h-.07v0l-.19.08.18-.11h.07Zm1.47.67v0Zm4.74-4.77-.09,0h0l0-.08.14-.05Zm3.74-.78,0,0-.22-.07,0-.14h.18l.1.1.08,0Zm.37-1.1,0,0,0-.06.13-.07Zm1.54-.27-.05,0,0-.1.12,0,0,.13Zm.78,2.19h0Zm.25-1.63-.06,0-.06,0v-.13l.13,0Zm.57-1.42-.05,0-.21-.07,0-.15h.17l.1.1.09.05Zm.36-1.09h0v-.06l.13-.07Zm1.54-.28,0,0,0-.1.11,0,0,.13Zm1,.58h-.06l-.06,0v-.13l.13,0Zm5.15-4.38h0v0l.12-.07Zm1.57,2.17,0,.09-.11,0,0-.14.08-.11.18.08Zm.58-2.47-.17.07.17-.09h0Zm.08,2.22,0,0,0,0Zm9.72-8.58-.09,0h0l0-.07.16-.06Zm3.73-.77-.05,0-.21-.09,0-.13h.16l.11.09.1,0Zm.37-1.09h0v-.06l.13-.07Zm1.54-.29,0,0-.05-.09.12,0,0,.11Zm1,.58,0,.06,0-.14.12-.05v.13ZM163,92.09v0l0-.06.16-.07Zm.37-.93v0l0-.1.15-.06Zm.24-3.76,0,0v.11l0-.11Zm.23,13.77,0,.07-.1,0-.07-.14.1-.11.16.08Zm.06-8.67,0-.06-.15-.09h.18l.06.12v0Zm.45.36,0,0v0l-.05,0-.1-.09Zm.07,5.83-.17.08.17-.1ZM164.3,91h-.05v-.06l.14-.06Zm.48-8.17-.09,0,0,0-.08-.22.09-.13.09.07.16.16Zm.49-9.82h.06l0,0-.16-.08Zm-.05,1.18.2-.07.17.07.13,0v.13l-.2.1-.09,0-.18-.13-.16,0Zm-.14,28.45h.14l0,.13Zm.44-1h-.12v0l0,0,.12-.08Zm0-16.61-.21-.09-.06-.07-.05-.15.18,0,.08,0,.07.21Zm.26-10.06-.08,0-.08,0v-.06l.15-.1Zm.16-.29.08,0,.05,0Zm.86-1.21,0,0,0,0-.09-.13Zm0,11.22,0,0h0l-.1-.1Zm-.16-.72.07-.11h0v0Zm-.45-7.5v0l.11-.06Zm.09-.94.11-.09.09.07h-.06Zm.26,17.37h0l0,0h.12Zm.57.36-.09,0,0,0,.05-.1.13.06Zm-.05-8.49-.11-.16v-.06H167l.06,0,.12.08Z"/><path class="cls-1" d="M49.64,109.55l0,.45v.52c.09-.14.19-.29.31-.45a7,7,0,0,1,.55-.65l.1-.12,0-.07c.12-.22.25-.44.38-.64a7.64,7.64,0,0,1,.54-.73c.14-.23.29-.46.42-.71a9,9,0,0,1,.44-1,4.12,4.12,0,0,1,.45-.73,5.49,5.49,0,0,1,.33-1l.41-1a5.39,5.39,0,0,1,.66-1.06.19.19,0,0,1,0-.07v-.19l0-.47,0-.45,0-.46v-.45l.07-.47.06-.45,0-.45-.06-.47.06-.45-.08-.46.08-.45-.06-.46,0-.46.09-.45,0-.47-.08-.45V94l0-.45,0-.47,0-.45,0-.46,0-.45.1-.47v-.45l-.07-.47,0-.45,0-.46,0-.47.1-.45,0-.47,0-.45,0-.46v-.47l0-.45.09-.46v-.47l0-.45v-.47l-.09-.45v-.46l.1-.45,0-.47,0-.47-.07-.45,0-.46,0-.47V80.2l0-.47,0-.46-.09-.47.06-.45v-.46l0-.47,0-.46,0-.47.11-.47,0-.45.19-.43.08-.45.25-.4L55,74l.36-.28.35-.28.44-.14.34-.34.46-.1.37-.26.4-.23.36-.28.42-.19.38-.24.39-.22.43-.19.4-.22.4-.22.42-.19.39-.23.44-.15.35-.32.42-.17.39-.2.41-.22.39-.24.41-.2.39-.25.42-.17.35-.29.44-.15.42-.19.39-.22.41-.2.34-.33.4-.22.41-.19.44-.16.36-.28.44-.16.38-.25.39-.23.41-.19.36-.29.41-.22.41-.2.4-.22.45-.11L72.9,64l.4-.21.4-.2.38-.26.47-.12.35-.29.45-.13.36-.29.38-.27.42-.16.39-.21.43-.19.36-.28.44-.15.4-.2.38-.26.37-.26.42-.16.36-.28.41-.22.44-.14.39-.24.39-.21.37-.28.42-.18.42-.17.38-.25.38-.29.43-.13.43-.2.33-.32.41-.21.46-.11.37-.29.42-.15.41-.22.37-.25.4-.21.38-.27.39-.24.44-.16.37-.26.44-.15.35-.29.45-.13.41-.22L91.3,54l.42-.19.41-.19.4-.23.37-.28.37-.26.41-.22.41-.19.44-.14.37-.27.38-.27.42-.19.43-.18.4-.2.38-.26.41-.22.44-.16.39-.23.39-.24.38-.24.39-.24.44-.17.36-.28.43-.19.42-.17.35-.32.4-.22.4-.22.46-.11.35-.32.4-.24.43-.17.41-.21.39-.24.44-.16.35-.31.41-.23.46-.1.38-.29.38-.27.51-.08.45-.16.49-.12.51,0,.48.14.42.25.44.16.38.26.38.25.42.19.42.19.39.22.41.2.37.29.43.16.38.24.42.2.37.28.39.23.41.22.4.19.41.21.39.25.43.16.4.21.4.23.43.16.4.23.37.26.18.13a7.23,7.23,0,0,1,1.1-1.92,7.65,7.65,0,0,1,1-1.13l0,0-.42-.2-.39-.22-.38-.28-.45-.14-.4-.23-.4-.22-.4-.25-.39-.23-.36-.28-.43-.17-.45-.15-.38-.26-.36-.28-.44-.19-.42-.17-.41-.2-.36-.32-.41-.21-.39-.25-.45-.13-.39-.26-.44-.14-.35-.34-.87-.35-.41-.22-.41-.21-.39-.27-.41-.21-.45-.09-.45-.1-.45,0h-.47l-.43.16-.42.17-.38.27-.44.14-.38.26-.39.24-.44.14-.39.24-.36.29-.44.14-.41.21-.38.27-.39.23-.36.28-.41.22-.41.2-.42.18-.41.23-.4.2-.37.28-.46.1-.4.24-.38.24-.42.19-.4.22-.35.31-.44.14-.36.29-.41.21-.44.16-.41.2-.39.23-.35.29-.4.22-.44.16-.41.19-.41.22-.35.3-.42.19-.38.27-.4.19-.41.21-.41.21-.38.26-.46.12-.35.3-.42.19-.44.16-.36.29-.41.19-.42.19-.37.28-.4.2L86,52.7l-.4.22-.37.26-.4.22-.46.14-.33.32-.42.19-.42.16-.35.31-.41.2-.39.23-.41.21-.41.19-.44.14-.37.26-.43.18-.39.23-.35.31-.45.11-.36.3-.38.26-.47.11-.35.31-.42.17-.43.19-.38.25-.42.17-.4.24-.39.24-.39.24-.38.25-.45.11-.4.25-.36.28-.39.24-.4.24-.45.13-.39.23-.44.17-.34.32-.44.13-.38.27-.38.27-.41.21-.4.2-.42.2-.41.21-.44.16-.38.26-.39.25-.38.24-.45.15-.41.19-.38.28-.4.21-.42.21-.37.27-.43.16-.37.31-.39.2-.44.16-.38.27-.43.17-.4.22-.36.3-.47.11-.36.3-.41.21-.45.14-.36.31-.42.19-.43.17-.34.33-.43.19-.42.19-.41.24-.4.21-.19.15-.18.15-.46.11v.06l-.43.2-.41.25-.42.22-.41.25-.42.2-.41.26-.44.18-.4.27-.41.16-.26.35-.28.34-.29.32-.19.39-.16.39,0,.44,0,.42-.09.45,0,.45,0,.47,0,.45,0,.45,0,.45-.05.47,0,.45,0,.45V79l0,.47,0,.45,0,.45-.08.47,0,.45v.45l0,.46,0,.45-.11.46.06.46,0,.45v.9l0,.47.09.45,0,.45v.47l-.13.45.09.45,0,.45.06.47-.07.45.06.45-.08.46.06.46v.46l0,.45-.11.45.09.45-.07.46.06.46v.9l-.07.45.06.47.06.45-.14.45.06.47v.9l0,.45v.47l0,.45,0,.45,0,.45-.09.47.06.45v.45l-.06.45,0,.45,0,.47v.45l0,.46,0,.45-.08.45.06.47,0,.45,0,.45v.47l-.06.45.09.45.05.47-.09.45,0,.46.11.45-.11.47ZM79.5,59.28h0l0,0Zm-1.4,1.57,0,0,0,.06L78,61Zm-4-1.12.07,0,.06,0v0l-.12.07Zm-.23,2.88.1.06,0,0,0,0h-.12Zm-1.57-2.07.09.05v.11h-.15l.07-.1Zm-.7,4.09h0v0l-.13.08Zm-3.94-1.08,0,0,0,0-.11.09v-.15Zm-.19,3h0l0,0-.08-.14.17.06Zm-.54-2.9.07,0v.06l-.14.1,0-.14Zm-1.17.72.09,0v.12l-.14,0,.07-.1Zm-3.46,4,.07.09-.05,0-.14,0Zm-.19,1,0,0-.12.06Zm-.16-1.81v0l.06,0-.15,0Zm-.83-.43.21-.07.16.07.13.05v.13l-.21.1h-.1l-.16-.14-.16,0Zm-.71.28.07,0v.07l-.13.1,0-.16Zm-.51-.36h0v0h-.12Zm-4.13,5.1.07.09h-.19Zm-.21,1h0v0l-.1.06Zm-.1-1.76h-.13l.1-.07v0Zm-.87-.49.2-.06.16.06.15,0,0,.13-.2.1h-.09l-.17-.14-.16,0Z"/><path class="cls-1" d="M49.62,124.06l.14,0h.06c.34-.08.63-.3,1-.39s.62-.28.92-.4.65-.21,1-.35a2.9,2.9,0,0,1,.41-.16,5,5,0,0,0,.53-.23,2,2,0,0,0,.4-.36,1.87,1.87,0,0,1,.35-.34c.29-.2.58-.37.83-.57s.52-.45.76-.66.53-.46.74-.68.46-.56.64-.78c.39-.49.26-1.12.62-.77s-.16.35-.46.87c-.14.25-.4.48-.6.79s-.19.67-.41.94a9.94,9.94,0,0,1-.76.68,9.46,9.46,0,0,1-.77.67c-.28.22-.61.33-.88.51h0l0,0c-.3.21-.52.49-.77.62a1,1,0,0,1-.39.11c-.27,0-.5,0-.6.07s-.08.1-.06.23.08.2.16.22.54-.19,1-.25h0a1.41,1.41,0,0,0,.43-.18,2,2,0,0,1,.4-.17l.11,0a9.42,9.42,0,0,0,1-.11,8.9,8.9,0,0,0,1-.24c.32-.12.61-.3.92-.45a2.78,2.78,0,0,0,.41-.29v-.83h.52a.94.94,0,0,1,.16.35,2,2,0,0,0,.61-.36,8.07,8.07,0,0,0,.68-.86c.2-.27.28-.65.49-1s.45-.55.64-.87.22-.69.39-1,.29-.65.45-1,.48-.57.63-.9.23-.69.37-1,.3-.66.43-1,.22-.7.34-1,.31-.66.42-1,.17-.71.27-1,.09-.74.17-1.08.18-.71.24-1.06,0-.7.08-1.08.31-.66.38-1,0-.72.07-1.08,0-.72.1-1.09.21-.69.27-1,.18-.71.24-1.07l.15-1.08c.06-.36,0-.73.08-1.09s.26-.7.32-1S66,98.21,66,97.87s.18-.74.23-1.07.18-.76.23-1.07c.1-.66-.4-1.09.13-1.16s.15.47.19,1.08c0,.29,0,.63,0,1s.16.63.18,1-.12.67-.09,1,.22.65.25,1-.15.7-.12,1,.06.69.09,1,.31.68.35,1a6.57,6.57,0,0,0,0,1.08c.07.32.33.62.42,1s0,.71.13,1.07.21.67.3,1,.29.66.38,1,.19.7.28,1,.07.73.16,1.07.1.73.19,1.07.17.71.26,1,.31.7.37,1a7.76,7.76,0,0,1,.21,1.06,2.88,2.88,0,0,1-.46.94c-.15.27-.24.62-.45.94s-.36.58-.57.88-.56.44-.77.73l-.6.85c-.21.29-.3.66-.49.94s-.52.53-.68.8a4.83,4.83,0,0,0-.33,1,5.22,5.22,0,0,0-.2,1c0,.3,0,.65-.07,1s-.11.68-.14,1-.06.69-.08,1.06,0,.69,0,1.06-.21.68-.22,1,.14.71.13,1.07-.08.69-.08,1.05-.09.7-.1,1.05.14.71.14,1.06-.25.71-.25,1.06.09.71.09,1.06.09.72.1,1.07.06.71.07,1.06-.06.72,0,1.07-.13.72-.12,1.07.07.71.09,1.06.07.72.09,1.06.2.71.24,1,.12.72.17,1,.06.74.13,1.05a5.39,5.39,0,0,0,.21,1,2.2,2.2,0,0,0,.68.82,4.49,4.49,0,0,0,1,.44h0a1.32,1.32,0,0,0,.07-.3c.48,0,.73.15.83.49h.09a10.14,10.14,0,0,0,1,.25c.33,0,.69-.14,1-.12s.69,0,1,0,.69,0,1,0,.69,0,1-.06.72.12,1,.08.5-.09.74-.13h0c-.09-.09.12-.23.17-.18s0,.13-.07.16l.19,0a9.31,9.31,0,0,0,1-.33,3.3,3.3,0,0,0,1-.27c.16-.16.14-.48.1-.92a5.08,5.08,0,0,0-.14-.95,9.67,9.67,0,0,0-.37-.91c-.12-.3-.24-.61-.38-.89a7.17,7.17,0,0,0-.5-.84,2.78,2.78,0,0,0-.59-.76,1.7,1.7,0,0,0-.94,0,6.35,6.35,0,0,0-1,0c-.32.06-.62.25-.93.32a5.9,5.9,0,0,1-1,.07,1.07,1.07,0,0,1-.91-.28,2.54,2.54,0,0,1-.25-1.05c0-.3,0-.67,0-1.08s-.22-.68-.24-1.06.08-.71.07-1.09-.05-.71-.05-1.08v-1.07c0-.36,0-.72,0-1.08s0-.73,0-1.09,0-.73,0-1.09.1-.73.12-1.08.06-.73.08-1.09.06-.74.08-1.08a5.88,5.88,0,0,1,.13-.77c-.48.07-.73-.56-1.11,0-.44,0-.41-.65-.17-.87a1.75,1.75,0,0,0,.87,0c.24.1.22.46.35.52a.22.22,0,0,0,.11,0v0c0-.4.09-.76.14-1.07.06-.48-.11-.91,0-1.11a3.07,3.07,0,0,1,.67-.8l.52-.54c0-.07.06-.09.09-.08l.11-.1c.24-.2.57-.33.85-.54s.56-.35.84-.56.57-.36.84-.58l.77-.67c.24-.22.39-.56.63-.81s.52-.44.73-.71.43-.52.63-.81a2.69,2.69,0,0,0,.26-.57s0,0,0-.08a1.83,1.83,0,0,1,.14-.32c.16-.31.45-.56.6-.87s.19-.48.28-.72a.15.15,0,0,1,0-.06h0c0-.07,0-.13.07-.2.13-.33.08-.72.18-1.05s.43-.61.52-.94,0-.74.08-1.06.17-.71.23-1,.21-.72.25-1c.09-.64-.44-1.16.07-1.09s0,.47.14,1.1c0,.3,0,.67.07,1.06s.3.65.34,1,0,.71,0,1.06,0,.72,0,1.07-.06.71-.08,1,.18.76.12,1.08-.34.6-.44,1-.22.64-.33,1-.06.71-.18,1-.23.66-.37,1-.39.6-.53.91-.34.62-.49.91-.25.7-.41,1a3.06,3.06,0,0,1-.63.84c-.31.19-.31.32,0,.81a6.67,6.67,0,0,0,.49.93c.17.24.42.49.66.81h.22v.22a4.33,4.33,0,0,1,.49.54c.18.26.39.53.6.84s.38.56.59.87.38.57.59.88.28.63.45.92.36.58.53.88.38.57.54.87.24.64.39.95.33.6.47.91.26.64.39,1,.28.63.41.95.29.62.41.94.24.64.35,1,.22.65.33,1,.32.62.42.94.14.49.21.72h.17v.35h-.08c.09.31.16.62.24.91s.07.7.15,1,.17.69.25,1,.47.46.77.69a3.33,3.33,0,0,0,.85.53,8.1,8.1,0,0,0,1,.22c.32.07.64.21,1,.26s.68,0,1,0l1,0c.34,0,.68.09,1,.09s.69.05,1,0,.69-.18,1-.2.71.1,1,.06.71-.14,1-.19a10.13,10.13,0,0,0,1-.29,2.78,2.78,0,0,0,.93-.31,1.22,1.22,0,0,0,.42-.8c.06-.3.3-.63.25-1s-.31-.6-.43-.94a5.19,5.19,0,0,0-.42-.9,4.76,4.76,0,0,0-.5-.87,3.85,3.85,0,0,0-.7-.7c-.28-.19-.65-.14-1-.24a3.85,3.85,0,0,1-.52-.22c.27.22.59.4.57.93H96.57c-.08-.52.46-.43.35-1a1.14,1.14,0,0,0-.26-.09,3,3,0,0,0-.65,0c.24,0,.4.08.38.33h-.52v-.33a1,1,0,0,1-.17,0c-.3,0-.61-.16-.94-.22a6.22,6.22,0,0,1-.75-.22,1.2,1.2,0,0,1-.24.06.4.4,0,0,0-.07-.19,2.56,2.56,0,0,1-.66-.48,8.53,8.53,0,0,1-.69-.74c-.21-.25-.46-.49-.67-.79s-.35-.57-.55-.87-.45-.52-.64-.82-.28-.63-.46-.93-.46-.52-.63-.82-.29-.63-.46-.93-.26-.65-.43-1-.37-.59-.53-.89-.3-.63-.46-.93l-.11-.2c-.14.23-.46.27-.63.46-.47-.15.18-.61.18-.87a.35.35,0,0,1,.24,0c-.07-.11-.14-.22-.2-.33-.16-.33-.27-.66-.41-1s-.3-.65-.44-.94l-.07-.13v0c-.46.05-.75-.06-.7-.52.15,0,.17-.07.18-.18a.68.68,0,0,1,.21,0s-.06-.12-.08-.16c-.28-.58-.52-.36-.61-.86s0-.37.26-1c.1-.27.29-.56.47-.94s.21-.63.38-1,.44-.52.63-.85.21-.65.4-1,.35-.59.55-.9.4-.56.61-.87.41-.59.59-.9.41-.61.58-.92l.47-1c.15-.34.17-.72.31-1s.49-.6.62-.93.18-.72.28-1,0-.76.15-1.09.44-.67.52-1,0-.8.06-1.1c.14-.66-.24-.8.18-1.13s.46.08,1.13.18c.3,0,.62.27,1,.33s.69,0,1.06,0,.7,0,1.07.05.64.36,1,.43l1,.2c.33.07.69.08,1.05.16s.72,0,1.07,0l1,.23c.34.09.67.25,1,.34s.66.28,1,.38.73,0,1.07.14.67.25,1,.36.65.3,1,.41.64.31,1,.44.69.11,1,.2.68.08,1,.15.67.14,1,.19a9.08,9.08,0,0,0,1,.11c.36,0,.7.23,1,.21a6.64,6.64,0,0,0,1-.28,9.79,9.79,0,0,0,1-.1,6,6,0,0,0,.88-.52,5.06,5.06,0,0,0,.8-.62c.46-.39.75-.22.68-.71s-.28-.51-.48-1,0-.61-.23-1.14-.24-.52-.44-1.06a3.86,3.86,0,0,1-.38-1.08c-.08-.51.12.35.5.88a10,10,0,0,1,.56.86c.17.27.43.52.6.85s.24.63.38,1,.4.58.51.92.17.67.25,1,.13.68.18,1,0,.65,0,1,0,.66,0,1,0,.67,0,1-.08.66-.1,1,.14.69.11,1-.21.66-.23,1-.09.67-.12,1,.11.7.08,1-.13.68-.15,1,0,.68,0,1-.15.68-.16,1,0,.7,0,1-.07.7-.06,1,.16.69.2,1a7.44,7.44,0,0,0,.29,1,3.13,3.13,0,0,0,.4.9,5.41,5.41,0,0,1,.46,1c.12.3.23.64.34,1s.17.66.26,1,.24.66.32,1-.07.72,0,1.07.3.66.36,1,0,.72,0,1.07.14.7.19,1,.27.68.32,1,0,.72,0,1.07h0l0-.06c.49-.28.49.76.18.7.05.41.46-.2.7-.17,0-.58-.5-.67-.35-1.4.47-.13.35.35.7.35-.11-.36.21-1.15-.18-1.22.49-.1.82-.88,1.22-.53-.28.77-.23,1.87-1.22,1.92.18.41.6.57.53,1.23a3.35,3.35,0,0,0-1.42.45c0,.14,0,.27.07.4l.12-.16c.59.21.28.35,1.05.18-.06.34-.57,1.44.35,1.22a.65.65,0,0,1-.7.7c-.09-.46-.33-.47-.65-.44q.09.57.18,1a5.26,5.26,0,0,0,.33,1c.08.27.29.43.7.58a4.81,4.81,0,0,0,1,.37h.05v-.1c.2-.09.32,0,.36.14.21,0,.4.05.62.06a2.29,2.29,0,0,0,.45,0h0c0-.31.3-.4.7-.35a.57.57,0,0,1,0,.33c.32,0,.64-.07,1-.07s.69.12,1,.1l.64-.05a.51.51,0,0,1,.7-.49,1.87,1.87,0,0,0-.09.45c.28,0,.56,0,.82,0l1-.09c.38,0,.72-.17,1-.2.63-.07.67.33,1-.05a.38.38,0,0,0,.08-.51c0,.19-.14.38-.38.25v-.52c.15-.08.25,0,.31.05a.72.72,0,0,1,0-.22.61.61,0,0,0,0-.13c-.31.3-.74.46-.77-.23a.94.94,0,0,0,.7-.09,2.68,2.68,0,0,1-.11-.49c0-.31,0-.64,0-1a1.94,1.94,0,0,0-.05-.2c-.51.06-.59-.44-.32-.69.08,0,.11.07.17.12a.94.94,0,0,1,0-.16,1.89,1.89,0,0,0-.11-.25.58.58,0,0,1-.55.29c.21-.81-.73.3-.87-.35-.16.37-.49.56-.7.87-.05.46.06.75.52.7-.49.38-1.14.6-1.39,1.22a1.16,1.16,0,0,1-.88-1c.54.47.92.21,1.4-.18-.1-.54-.53-.75-.7-1.22-.38,0-.08.62-.17.87-.54.13-.64-.18-1.05-.17-.15-.7.66-.78.87-1.05s-.15-.38-.17-.35c.22-.36.53-.29.52-.7,1,.11,1-.87,1.7-1h0a3.47,3.47,0,0,0-1-.1c-.33,0-.67,0-1,0a4.16,4.16,0,0,1-1-.29,2.31,2.31,0,0,1-.74-.64,3.35,3.35,0,0,1-.66-.84c-.14-.28-.29-.61-.44-1s-.36-.61-.49-1,0-.74-.14-1.09-.33-.64-.43-1-.19-.7-.29-1-.32-.67-.41-1a2.28,2.28,0,0,1,0-.27H124a.91.91,0,0,1,.14-.42,1.85,1.85,0,0,0,0-.41c-.08-.36-.34-.67-.41-1s0-.75,0-1.09-.09-.73-.12-1.06-.21-.75-.21-1.06a10.23,10.23,0,0,1,0-1c0-.31.25-.64.31-1s.12-.66.18-1,0-.7,0-1,.27-.65.35-1,.07-.68.15-1,0-.7.12-1,.3-.65.38-1,.06-.71.14-1,.29-.65.37-1,.11-.7.2-1,.21-.68.3-1a.88.88,0,0,0,0-.15c-.28-.12-.08-.56.15-.48l.12-.37c.1-.35.13-.71.23-1s.3-.66.4-1,.26-.68.37-1a8.14,8.14,0,0,1,.36-1c.16-.31.32-.63.52-1s.37-.6.58-.9.48-.53.7-.82.47-.53.69-.83.26-.69.48-1,.44-.53.65-.8l.13-.18h0a6.55,6.55,0,0,0,.63-.66c.21-.28.47-.54.68-.84s.44-.57.64-.87.2-.72.39-1,.51-.53.7-.84.32-.64.5-1,.36-.61.53-.94.39-.61.55-.94.21-.69.36-1,.28-.6.4-.94.31-.61.42-.94,0-.7.13-1,.15-.66.24-1,.35-.61.44-1,0-.7,0-1,.21-.65.28-1,.24-.65.3-1,.12-.67.18-1,.18-.67.24-1,.11-.68.17-1,0-.71,0-1,.09-.69.15-1,.09-.69.14-1,.31-.66.36-1,0-.7.09-1,.17-.68.21-1,0-.71,0-1,.17-.68.22-1,.08-.69.13-1,0-.71.06-1,.23-.68.28-1,.2-.69.25-1-.08-.74,0-1.05.16-.72.23-1a2.14,2.14,0,0,1,.48-.88,2.11,2.11,0,0,1,.84-.52c.28-.1.63-.14,1-.25s.61-.29,1-.39.65-.14,1-.22.68-.08,1-.16l1-.26a3,3,0,0,0,.41-.17h0l0,0a1.89,1.89,0,0,1,.51-.21c.1,0,.21,0,.31,0a5.9,5.9,0,0,0,.72-.09l1-.2,1-.22a4,4,0,0,1,.48-.09l.11,0,.43-.08.27,0,.57-.09.2,0h0c.32-.08.62-.24.94-.31s.66-.22,1-.3.7-.09,1-.17l1-.27c.36-.1.71-.13,1-.23a9.89,9.89,0,0,0,1-.41,5.23,5.23,0,0,0,.9-.48,3.92,3.92,0,0,0,.73-.66c.24-.25.55-.42.71-.7a4,4,0,0,0,.19-1,5.23,5.23,0,0,0,.22-.95c0-.33,0-.65,0-1s.21-.67.22-1,0-.67,0-1a4.8,4.8,0,0,1,.2-1,3.87,3.87,0,0,0,.18-.94,4.1,4.1,0,0,0,.22-1,1.8,1.8,0,0,0-.38-.94,1.22,1.22,0,0,0-1-.2c-.4,0-.74,0-1.14.08a5,5,0,0,1-1.14-.1,9.54,9.54,0,0,1-1.14-.2,7.86,7.86,0,0,0-1-.26c-.31,0-.66,0-1,0s-.68,0-1,0l-1-.1-1,0c-.35,0-.69-.14-1-.16s-.73.1-1,.09c-.62,0-.65.25-1.06,0s-.14-.42-.47-.87a4.34,4.34,0,0,0-.52-.8,4.19,4.19,0,0,0-.77-.58,3.21,3.21,0,0,0-1.06-.3,3.93,3.93,0,0,0-1.09-.16c-.3,0-.66.1-1.1.13s-.7,0-1.12,0-.71-.09-1.12-.06-.71.16-1.11.19-.69,0-1,0l-1,.11c-.36,0-.69,0-1,.07s-.71,0-1,.09-.72.14-1,.2c-.71.17-.45.2-.86.46-.05,0,.06-.12.06-.12a5.22,5.22,0,0,0-.6-.86c-.23-.29-.6-.4-.85-.61a4.11,4.11,0,0,0-.8-.62,4,4,0,0,0-1-.35,5.05,5.05,0,0,0-1-.11,7.1,7.1,0,0,0-1,.17,8.92,8.92,0,0,0-1,.14c-.33.09-.64.23-1,.34s-.72.06-1,.2-.6.36-.91.5l-.93.45a6.19,6.19,0,0,1-.63.24h0a.15.15,0,0,0-.07,0,1.28,1.28,0,0,0-.27.11,1,1,0,0,0-.17.12c-.24.16-.46.35-.66.51a4,4,0,0,0-.64.77h0a2.84,2.84,0,0,0-.5.87,3.25,3.25,0,0,0-.28,1,5.92,5.92,0,0,0,.23,1,8.68,8.68,0,0,0,.23,1c.1.3.09.66.23,1s.39.57.54.93.2.66.33,1,.31.62.44,1,.06.72.18,1.06.41.59.53.93.16.69.28,1,.19.69.31,1,.21.68.33,1,.35.63.46,1,.23.69.34,1l.34,1c.12.36.22.7.32,1s.17.5.25.73c.32-.15.81-.07.71.44a.63.63,0,0,1-.55.15c.06.3.09.56.12.73a1,1,0,0,0,.63.91c.31.09.69-.12,1.11-.25a5.84,5.84,0,0,0,1.14-.21l.19-.1h0c0-.29.28-.37.64-.34l.19-.11a4.94,4.94,0,0,0,.82-.61,6.11,6.11,0,0,0,.72-.72,8.05,8.05,0,0,0,.59-.83c.18-.26.35-.55.53-.86s.17-.65.31-1,.43-.53.55-.86,0-.68.14-1,.25-.62.33-1,0-.73,0-1.1.24-.71.25-1.08,0-.67,0-1h0l0,0,.38.24.28.09c0,.12,0,.23,0,.35,0,.35,0,.71,0,1.08s-.16.69-.21,1.06,0,.71-.06,1.07-.23.68-.33,1-.19.68-.31,1a9.38,9.38,0,0,1-.22,1.08,7.9,7.9,0,0,1-.61.9,7.79,7.79,0,0,1-.69.83,7.67,7.67,0,0,1-.7.81,52,52,0,0,1-1.75,1.24,7.31,7.31,0,0,1-.95.54c-.36.12-.73.11-1,.21s-.66.34-1,.42a8.21,8.21,0,0,1-1,.23,2.43,2.43,0,0,1-1,0,.78.78,0,0,1-.64-.79c0-.29.1-.64.12-1a7.5,7.5,0,0,0-.07-1,4.12,4.12,0,0,0-.2-1c-.12-.31-.23-.65-.36-1s-.14-.7-.27-1-.39-.6-.53-.93-.12-.73-.25-1-.4-.62-.54-.94-.22-.7-.35-1-.26-.72-.38-1c-.27-.59,0-1-.54-1s-.14.44-.26,1.08c0,.29-.09.63-.18,1s-.17.62-.29,1,0,.68-.16,1-.42.55-.56.88-.08.7-.24,1-.31.61-.48.92-.32.6-.5.9-.46.52-.65.81-.38.56-.59.85-.4.55-.62.82-.38.57-.61.84-.48.48-.71.74-.55.42-.79.67l-.73.73c-.25.23-.5.46-.77.69s-.46.5-.73.72-.46.52-.74.74-.6.33-.89.53-.52.45-.81.65-.54.44-.84.62-.68.26-1,.43-.62.37-.93.53-.59.4-.91.55-.68.22-1,.37-.64.31-1,.44-.65.29-1,.41-.66.28-1,.38-.67.25-1,.34-.69.2-1,.27l-1.05.21c-.35.06-.71.09-1.06.14s-.72,0-1.07,0-.71,0-1.06,0-.7.11-1.06.12-.7,0-1.06,0-.7,0-1.05,0-.71.06-1.06,0-.7-.16-1.06-.17S92.3,82,92,82s-.7-.09-1.06-.11-.7-.08-1-.09-.71,0-1.07,0-.7-.05-1.06-.06-.7-.08-1.06-.09-.7-.06-1.05-.06-.7.11-1.06.12-.7,0-1.06.06-.71-.11-1.07-.09a6.39,6.39,0,0,0-.75.09c-.13.07-.24.16-.12.48-1.05-.31-.9,0-1.05.7-.31-.16-.51-.42-.87-.52.17.52-.39.3-.7.34,0-.3.3-.39.7-.34a5.71,5.71,0,0,1,.29-.61l-.69.08c-.35,0-.71.06-1.07.11s-.68.24-1,.29-.7.09-1,.15-.69.11-1,.19-.68.17-1,.26-.65.27-1,.37-.71.11-1,.23-.65.29-1,.43-.56.43-.86.59-.68.23-1,.41-.55.43-.82.64-.55.43-.8.66-.54.44-.78.69-.43.54-.65.81-.49.49-.7.78-.47.51-.66.8-.39.58-.57.88a4.89,4.89,0,0,0-.29.7.51.51,0,0,1-.12.44h-.08c-.14.24-.28.48-.41.74s-.38.58-.54.89-.18.67-.33,1-.33.6-.48.92-.39.58-.53.9-.26.64-.4,1-.07.72-.21,1-.33.61-.47.94-.31.61-.45.94-.22.65-.36,1-.25.64-.38,1-.38.59-.52.92-.28.63-.42,1-.15.69-.29,1-.5.54-.64.86-.28.64-.43,1-.16.7-.32,1-.41.59-.57.9-.26.66-.43,1-.35.62-.53.91-.44.56-.63.85-.33.59-.51.86l0,0c-.2.29-.47.52-.67.8h0c-.22.28-.33.64-.54.91s-.32.42-.48.63a1.77,1.77,0,0,1-.16.22,4.88,4.88,0,0,1-.54.48l-.25.21c-.24.26-.53.47-.77.71s-.39.56-.62.79l0,0c-.26.24-.67.3-.93.52s-.48.53-.75.74-.6.38-.88.58-.59.39-.88.57-.64.3-.93.46-.56.47-.87.62-.65.27-1,.41-.62.38-.94.49-.7.16-1,.26-.72.12-1,.2-.68.3-1,.36a10.23,10.23,0,0,1-1,0c-.66.08-1-.37-1.1.14s.43.18,1,.43c.27.11.62.17,1,.3s.64.2,1,.31.6.38,1,.48.7,0,1,.1.66.22,1,.28.68.17,1,.22l.26,0h0c-.15-.56.27-.54.35-.88a1,1,0,0,0,.7.18v.7a.69.69,0,0,1-.17.1c.31,0,.63,0,1,.06s.69-.2,1-.22.72.19,1.07.14a8.22,8.22,0,0,0,.84-.15Zm7.1-3.26c.59-.42-.42.58,0,0Zm10.66,8H67v-.35h.35Zm4.2,13.79c.09.09-.13.23-.18.18S71.53,142.58,71.58,142.62ZM69,123.42h.34v.35H69Zm-.53,1.39c-.07-.33.8-.25.53.18h-.35C68.64,124.84,68.54,124.82,68.43,124.81Zm.87,5.59c0,.28-.16.3-.17.53h-.35v-.53Zm-.69,6.29c0-.28.16-.3.17-.53h.35v.53Zm.35,3.84c-.08-.37.12-.46.17-.7.31,0,.4.3.35.7Zm.69-1.75c-.46.06-.57-.24-.52-.7C69.74,138,69.91,138.54,69.65,138.78Zm1-4.19v.7c-.8-.22-.29.88-1.22.52v-.87C70.18,135.11,70,134.42,70.7,134.59Zm-1.22-1.74c-.63-.13-.25-.82,0-1C70.12,131.94,69.62,132.52,69.48,132.85Zm10.83-10.13c-.36.07-.46-.12-.69-.18-.13-.47.34-.35.35-.69C80.42,122.07,80.51,122.21,80.31,122.72Zm17.66,19c-.16.11-.32.21-.35,0A.18.18,0,0,1,98,141.75Zm-.53.18c0,.17-.21.13-.35.17C97.1,141.93,97.3,142,97.44,141.93Zm.7,1.39c.39-.13.56.81.87.18.6.31-.47.79-.7.35-.28.17-.19.74-.34,1h-.88C96.75,143.68,98.11,144.17,98.14,143.32Zm-2.27.53h-.35c0-.29.16-.3.17-.53C96.06,143.42,96.06,143.6,95.87,143.85Zm-.7-2.27c.35-.06.55,0,.52.35h-.52Zm-4.54-2.27c.43.07,0,.67-.35.52C90.18,139.44,90.61,139.58,90.63,139.31Zm-.7-5.59c0,.17-.22.13-.35.17C89.58,133.72,89.79,133.76,89.93,133.72Zm-1.4,3.49c.15,0,.16-.07.17-.17h.35c0,.15.07.16.18.17v.35c-.15,0-.17.07-.18.18H88.7c0-.15-.07-.17-.17-.18Zm-.7,5.24c-.07-.36.12-.46.17-.7A.36.36,0,1,1,87.83,142.45Zm.52-2.79H88v-.35h.35ZM87.48,136H88v.52h-.52Zm41.94,6.11c-.45.6-.42-.9,0,0Zm-1.57,2.62c0-.2.17-.1.17,0S127.85,144.82,127.85,144.72Zm.52-1.75c0,.54-.93.63-1.22.35C127.36,143,128.06,143.19,128.37,143Zm-2.44,0c.33-.07.25.8-.18.53v-.35C125.9,143.18,125.92,143.08,125.93,143Zm-.35-2.79c.49,0,.33.74-.18.7C125.33,140.51,125.52,140.42,125.58,140.18Zm32.5-84.68c.09.09-.13.22-.17.17S158,55.45,158.08,55.5Zm-1.4-.53H157v.35h-.35ZM137.46,73.31c-.09-.09.13-.23.17-.18S137.51,73.35,137.46,73.31Zm17.13-12.58c0,.28-.21,0-.18-.17S154.61,60.55,154.59,60.73ZM153,63c.09.09-.12.23-.17.18S153,63,153,63Zm-2.79-.35c.37-.08.33.25.35.53-.15,0-.18-.18-.35-.18Zm-2.27-4c-.1-.09.12-.22.17-.18S148,58.69,148,58.64Zm-4-6.88a1.87,1.87,0,0,1,.95-.73,2.51,2.51,0,0,1,1.21.11,3.47,3.47,0,0,1,1,.4c.34.23.41.63.55.89a8.09,8.09,0,0,1,.36.81h.07s.06.12,0,.13a.69.69,0,0,1-.07-.13c-.49,0-.46,0-1.09,0-.35,0-.76.16-1.16.13s-.81-.13-1.16-.17c-.61-.08-1.08-.22-1.09-.35A1.77,1.77,0,0,1,143.93,51.76ZM138.16,56a.48.48,0,0,1,.35.52C137.9,56.7,137.91,56.27,138.16,56Zm-.53.38-.25-.09-.2-.13a.54.54,0,0,0,.1-.16A.37.37,0,0,1,137.63,56.4Zm-2.27-3.87c.09.09-.12.22-.17.17S135.31,52.48,135.36,52.53ZM124.7,55.67c-.43,0-.54-.27-.87-.35a1.12,1.12,0,0,1,1-.87C125.27,54.84,124.87,55.32,124.7,55.67Zm4.9,1.92c.8.12-.14,1.06,0,0Zm2.09,3.32c-.09-.09.13-.22.18-.18S131.74,61,131.69,60.91Zm2.62-1.4c-.09-.09.13-.22.18-.17S134.36,59.56,134.31,59.51Zm2.31-3.71-.35-.1h0c0-.05,0-.1,0-.15-.06-.41-.22-.76-.27-1.07-.12-.66-.68-.86-.16-1s.2.31.45.94a5.45,5.45,0,0,1,.18.6l.14,0c0,.08-.06.1-.12.12s.06.24.11.36.08.28.13.41Zm.49,28.68c0,.46-.06.75-.52.7C136.54,84.72,136.65,84.43,137.11,84.48Zm-1.22-6.11c.28-.05.3.16.52.17.05.46-.24.58-.7.53C135.64,78.7,135.83,78.6,135.89,78.37ZM134.66,78c.15,0,.17-.07.18-.17h.35c0,.14.07.16.17.17v.35c-.15,0-.16.07-.17.17h-.35c0-.14-.07-.16-.18-.17Zm.18,15.89c.09.09-.13.22-.18.17S134.79,93.86,134.84,93.91Zm-1.22,3.84c.38,0,.37.44.34.87h-.69C133.12,98.07,133.54,98.08,133.62,97.75Zm-.7-26.37c.09.09-.13.23-.18.18S132.87,71.34,132.92,71.38Zm-1.58,7.34h.53c0,.45-.07.75-.53.7Zm-3.14,4.54c.52-.18.31.39.35.7C128.24,83.91,128.15,83.66,128.2,83.26Zm.87,5.06c-.46.05-.75-.06-.7-.52.15,0,.17-.07.18-.18C129,87.57,129.12,87.87,129.07,88.32Zm0-3.84h-.52v-.35C128.9,84.07,129.09,84.17,129.07,84.48Zm-.87-7h.7A.37.37,0,1,1,128.2,77.5ZM127.67,103c.06.46-.24.57-.7.52C126.92,103.05,127.22,102.94,127.67,103Zm-.7-9.6c.09.09-.12.22-.17.17S126.93,93.34,127,93.39Zm-.17-9.08v.35h-.35v-.35Zm-.18-3.67c-.14,0-.16.07-.17.17-.2,0-.15-.31-.17-.52C126.57,80.23,126.6,80.43,126.62,80.64Zm-.52,2.09c.51-.25.51.78,0,.53Zm-4.54,15.89a.18.18,0,0,1,.35,0C121.75,98.73,121.59,98.83,121.56,98.62Zm.52,20.26c0,.17-.21.13-.35.17C121.74,118.88,122,118.92,122.08,118.88Zm-.35,13.44c.8.12-.14,1.06,0,0Zm0,2.27h.35v.35h-.35Zm.7,1.75h-.52v-.53h.52Zm.35-48.54c0-.19.35-.12.35-.35C123.83,87.58,123.14,88.27,122.78,87.8Zm1.4,55c-.3,0-.45-.3-.53,0,.17,0,.14.21.18.35-.17,0-.14-.22-.18-.35-.52-.12.17-.37,0-.7-.32-.22-.77-.78-.35-1.22.57.17.43.5.7-.18.59.09.34.92-.35.7,0,.37.77,0,.88.35v.7C124.23,142.39,124.2,142.59,124.18,142.8Zm.17,2.09a1.47,1.47,0,0,1,.18-1C125.18,143.73,125,145.17,124.35,144.89Zm.35-1.74c1,.23-.63.82,0,0Zm-.17-4.19c-.32-.3,0-.69.52-.7v.7h-.52c0,.45.06.87-.53.7C124,139.2,124.07,138.91,124.53,139Zm-.88-1.57c0,.2-.17.09-.17,0S123.65,137.29,123.65,137.39Zm.35.35v1c-.71.08-1.1-.18-1-.87A1.43,1.43,0,0,1,124,137.74Zm-.87-35.62c.06-.23.31-.28.35-.53.23.06.27.31.52.35C124,102.39,123.35,102.35,123.13,102.12Zm.52-13.45c0-.17.22-.13.35-.17C124,88.67,123.79,88.63,123.65,88.67Zm.53,19.91c-.09-.09.12-.23.17-.18S124.23,108.62,124.18,108.58Zm1.75-36.15c.09.09-.13.23-.18.18S125.88,72.38,125.93,72.43Zm-.18,8.21c.08.37-.25.33-.52.35,0-.14.17-.18.17-.35Zm-.35-.7c-.75.24-.31,1.67-1.22,1.75V80.46C124.8,80.51,124.82,79.94,125.4,79.94Zm-.87-.7a1.16,1.16,0,0,1,.17.88c-.76,0-.72.79-.87,1.39-1.3.08-.42-1.34.17-1.39C123.64,79.76,124,79.23,124.53,79.24Zm-1.75-.52c.85-.06.68,1.1.87,1.22-.36.15-.73.66-1,.35C122.61,79.71,122.9,79.42,122.78,78.72ZM123,81c-.08.25-.16,0-.35,0A.18.18,0,0,1,123,81Zm-.35,5.06c.3,0,.39.3.35.7h-.53C122.36,86.39,122.55,86.29,122.61,86.05Zm-.88-4.54c.32,0,.37-.21.7-.17C122.68,82.11,121.63,82.28,121.73,81.51Zm.53-.87c-.21.26-.16.78-.7.7C121.48,80.79,121.71,80.56,122.26,80.64Zm-1.05,54.48c.35-.06.54,0,.52.35h-.52Zm-.88-24.1h.53c0,.28-.17.3-.18.52h-.35Zm-1.92,13.27c.09.09-.13.22-.17.18S118.36,124.24,118.41,124.29Zm-.35.7h.7A.37.37,0,1,1,118.06,125Zm1-23.75c.07.37-.12.46-.17.7C118.43,101.91,118.51,101.11,119.11,101.24Zm-1,4.89c-.09-.09.13-.22.18-.17S118.11,106.18,118.06,106.13Zm-1-32.82h.7a1.6,1.6,0,0,1,.18,2.09c-.77-.49-.77.24-1.4.35-.43-.45.19-.84.52-1-.05-.23-.43-.14-.7-.17C116.24,73.81,116.94,73.87,117,73.31ZM112,79.24c.28,0,.3.17.52.18C112.54,79.76,111.67,79.67,112,79.24Zm-.7,14.49c-.09,0-.39-.24-.35-.34C111.13,92.75,111.71,93.59,111.25,93.73Zm-.35-10.65c-.08.26-.16,0-.35,0A.18.18,0,0,1,110.9,83.08Zm0,7.16c.08.55-.44.63-.7.35C110.24,90.28,110.5,90.19,110.9,90.24Zm-1.58-9.6h.35V81h-.35Zm-4.19,11.17v-.52c.28-.05.3.16.52.17,0,.15-.17.18-.17.35Zm1.22,10.48c-.36.07-.46-.12-.7-.17a.79.79,0,0,0,.18-.53C106.29,101.54,106.4,101.83,106.35,102.29Zm-.7-18.68c-.08,0-.39-.24-.35-.35C105.54,82.63,106.11,83.47,105.65,83.61Zm.18,6.28a1.17,1.17,0,0,0-.18.88C104.38,91,105.18,89.17,105.83,89.89Zm-1.75,3c.61-.15.3.57.18.7C103.75,93.41,104.06,93.3,104.08,92.86Zm-.87,1.22c0,.17-.22.14-.35.18C102.86,94.09,103.07,94.12,103.21,94.08Zm-1.58-2.62v.35C100.78,92,101.31,90.88,101.63,91.46Zm-.52,5.24c0,.17-.21.14-.35.18C100.77,96.71,101,96.74,101.11,96.7Zm-.35,6.29c.31.13,0,.32,0,.52C100.45,103.38,100.74,103.2,100.76,103Zm-.35,2.62c.36.1.37.27.18.52h-.35C100.19,105.85,100.4,105.83,100.41,105.61Zm-.7,2.27c.09.09-.12.22-.17.17S99.66,107.83,99.71,107.88ZM98.84,106h.7c.08.54-.15.78-.7.7ZM98,97.05a.49.49,0,0,1,.34.53C97.71,97.73,97.71,97.31,98,97.05ZM96,103.16c.8.12-.14,1.06,0,0ZM94.12,88c.51-.25.51.78,0,.53Zm-.87,18h.35v.52h-.53C93,106.2,93.24,106.18,93.25,106Zm-2.62-1.4H91v.35h-.34ZM89.58,89c-.15,0-.17.07-.18.17-.2,0-.15-.31-.17-.52C89.52,88.61,89.56,88.81,89.58,89Zm-.35,17.11c.26.32,1.2,0,1,.7-.35.35-.84,0-1.23-.17A.91.91,0,0,0,89.23,106.13ZM87.13,118c.09.1-.13.23-.17.18S87.08,118,87.13,118Zm-9.44-6.63c0-.22.35-.18.35,0C77.89,111.48,77.73,111.58,77.69,111.37Zm.18-3.32c.08-.25.15,0,.35,0C78.17,108.27,77.87,108.23,77.87,108.05Zm1.75,1h-.53v-.52h.53Zm1.92,18.16c-.51-.24,0-.86.17-1.05.28,0,.3.17.53.18C82.32,127,81.8,127,81.54,127.26Zm1.4-5.76h-.35V121h.52C83.16,121.26,83,121.27,82.94,121.5Zm.35,8.9c.58-.42-.43.59,0,0Zm.35-3c-.1-.09.12-.22.17-.17S83.68,127.48,83.64,127.43Zm.17-7.16c-.09-.09.13-.22.17-.17S83.86,120.32,83.81,120.27Zm.17,12.4c-.09-.09.13-.22.18-.17S84,132.72,84,132.67Zm1-2.62v-.52C85.54,129.27,85.54,130.31,85,130.05Zm1.23,1.23c.07-.34.06-.76.52-.7C86.83,131,86.72,131.33,86.26,131.28Zm.52-1.4c0,.17-.21.13-.35.17C86.44,129.88,86.65,129.92,86.78,129.88Zm-.7-1c.65.53-.53.59,0,0Zm-.35-1.57c.09.09-.12.22-.17.17S85.68,127.21,85.73,127.26Zm0,.87c.42.21-.08,1-.7.7,0-.87,0-.87-.7-.7.18-.78.23-.78.35-1.39C85.52,127,85,128.51,85.73,128.13ZM84.51,121c.09.09-.13.23-.18.18S84.46,120.92,84.51,121Zm.52,4.54V125C85.54,124.73,85.54,125.77,85,125.51Zm.35-4.89c-.36-.38-.56.16-.87-.17,0-.72.53-1,.52-1.75.48-.12.35.35.7.35A6.7,6.7,0,0,0,85.38,120.62Zm-.52-4.19c.31.13,0,.32,0,.53C84.55,116.83,84.83,116.64,84.86,116.43Zm.7-9.08c.5,0,.32.73.35,1.23-.85-.31-.48.25-1.4.17C84.45,107.87,85,107.65,85.56,107.35ZM84.33,93.21c-.53,0-.43-.61-.52-1,.31,0,.37-.21.7-.17C84.06,92.36,84.65,93,84.33,93.21ZM84,82.73c0,.17-.21.14-.34.18C83.64,82.74,83.85,82.77,84,82.73Zm-1.39,8.56c.93-.1,1,.34,1,.87s-.25.15-.35.35c-.19.36.09.82-.35,1-.81-.28.13-1.33-.53-1.57C82.39,91.68,82.63,91.62,82.59,91.29Zm0,25.84c.09.09-.13.22-.18.18S82.54,117.08,82.59,117.13Zm.17,1.22a1.47,1.47,0,0,1-1.05-.17C81.69,117.25,82.93,117.36,82.76,118.35Zm-1.05-4.19v-.35h.35v.35Zm.35-32.3c.09.09-.12.22-.17.18S82,81.81,82.06,81.86Zm-1,15h.7C81.92,97.48,80.74,97.69,81,96.88Zm0,8.73c0,.12-.33.13-.35.17-.06.25.31,1-.52.88-.24-.23-.27-.86.17-.88-.23-.68-.78,0-1.22-.35a.87.87,0,0,1,1.22-.52c.06,0-.06.5,0,.52s.22-.52.53-.35C80.88,105.2,81.09,105.39,81,105.61Zm-.17-4v.53h-.53c0-.29.17-.3.18-.53Zm-.35-16.41H80c-.08-.37.11-.46.17-.7C80.67,84.3,80.45,84.87,80.49,85.18Zm-.7-1.92c.35-.06.55,0,.52.35h-.52ZM79.27,103h-.35a1.77,1.77,0,0,1-.18,1.4H78c.16-1.3-.55-.13-.87-.53.1-.72.4-2.15,1.22-1.57.36-.22.89-.28.88-.87C80.21,101.64,79.14,102.46,79.27,103Zm.17-6.64c0-.19.18-.09.18,0S79.44,96.45,79.44,96.35Zm.18-7.5c-.57.05-.94-.47-.53-.88C79.64,87.89,79.65,88.35,79.62,88.85Zm-2.1-5.59c0,.17-.22.13-.35.17C77.17,83.26,77.38,83.3,77.52,83.26Zm0,.87c.1-.65.61-.9.87-1.4a.79.79,0,0,0,.53.18c-.07.23-.31.27-.35.52.71.13,1.11,1.72,0,1.75-.18,0-.08-.47-.18-.52s-.52.34-.7.17c0,0,0-.35,0-.35-.28,0-.34.5-.7.35C76.84,84.27,77.26,84.28,77.52,84.13ZM77,110.5c-.15.1-.31.21-.35,0S77,110.32,77,110.5Zm-.17-5.59c.05.46-.24.57-.7.52C76.07,105,76.36,104.86,76.82,104.91Zm-2.8-1.4a.49.49,0,0,1,.35.53C73.77,104.19,73.77,103.77,74,103.51Zm1.23-20.08h.35V84h-.53C75,83.67,75.24,83.66,75.25,83.43Zm-.18,14.32c.45,0,.41.65.18.87C74.53,98.72,74.66,97.87,75.07,97.75Zm-.7.52c0,.46-.06.76-.52.7C73.8,98.52,73.91,98.22,74.37,98.27Zm-1-2.44c.5-.26.5.78,0,.52Zm-1.23,6.46c-.36.07-.46-.12-.7-.17.06-.23.31-.28.35-.53C72.06,101.63,72.15,101.89,72.1,102.29Zm-.87,7.16c.58-.42-.42.59,0,0Zm.52-12.57v.87c-.6.07-1,0-.87-.7A1.14,1.14,0,0,1,71.75,96.88Zm-.35,25.84c0,.46-.06.75-.52.7C70.83,123,70.94,122.67,71.4,122.72ZM70,96.35c-.09-.09.13-.22.18-.17S70.05,96.4,70,96.35Zm0,21c-.08-.55.44-.63.7-.35C70.66,117.26,70.4,117.36,70,117.31Zm.53-7.69c-.15,0-.17.07-.18.18-.2,0-.14-.32-.17-.53C70.48,109.21,70.51,109.41,70.53,109.62Zm-.35-14.49c.38,0,.08.62.17.87C69.64,96.1,69.76,95.25,70.18,95.13Zm-5.77,10.13c.29.35,0,.22,0,.7A.37.37,0,1,1,64.41,105.26Zm-1-10.48a1,1,0,0,1,.7-.17v.52C63.75,95.09,63.19,95.31,63.36,94.78Zm-.17,12.75v.7C62.37,108.38,62.29,107.3,63.19,107.53Zm-1-4.19c.46,0,.57.24.52.7-.45,0-.75-.07-.69-.53C62.11,103.54,62.13,103.44,62.14,103.34Zm-.52-3.84c.58-.43-.43.58,0,0ZM60,118c.31,0,.4.31.35.7h-.52C59.79,118.34,60,118.24,60,118Zm-.87-4.36c-.08.25-.16,0-.35,0C58.86,113.42,59.17,113.46,59.17,113.64ZM57.25,106c.43,0,.85,0,.87.35s-.87.82-1.22.52C56.77,106.29,57.38,106.49,57.25,106Zm-.53,2.44c.38,0,.56.14.53.53h-.53ZM44.66,121.5c.29,0,.31.16.53.17C45.26,122,44.39,121.93,44.66,121.5Zm3.15-1.4v-.87c.72-.14.9.27.87.87Zm6.82-.87a1.14,1.14,0,0,1,.87.17c.26.78-.51.54-.35,1.22-.49.15-.45-.24-.87-.17C54.16,119.81,54.65,119.78,54.63,119.23Z"/><polygon class="cls-1" points="156.08 67.93 156.05 67.93 155.97 68.04 156.08 67.93"/><path class="cls-1" d="M139,135.45a7.9,7.9,0,0,0,1-.4,9.92,9.92,0,0,0,.93-.53c.3-.19.57-.41.87-.64s.7-.28,1-.54.38-.63.62-.91.49-.52.7-.82.45-.57.62-.89.29-.67.43-1a8.84,8.84,0,0,0,.37-1c.1-.34.19-.69.26-1.06s.12-.71.15-1.08-.06-.71-.06-1.09a7.18,7.18,0,0,0,0-1,10.9,10.9,0,0,0-.5-2.07,10.36,10.36,0,0,0-.66-.86,9.56,9.56,0,0,0-.43-1c-.2-.28-.48-.52-.71-.8s-.44-.56-.68-.82-.62-.39-.88-.63-.44-.57-.71-.8-.53-.47-.81-.68-.65-.32-.93-.53-.52-.5-.81-.69-.59-.4-.88-.59-.65-.31-.94-.49-.65-.31-.94-.49-.56-.47-.85-.64l-.91-.53c-.35-.2-.71-.29-1-.45-.51-.31-.67-.63-.67-.74s-.08-.56-.15-1.09c0-.31,0-.69,0-1.08s-.16-.7-.19-1.08-.05-.72-.06-1.09,0-.73,0-1.09a6.82,6.82,0,0,1,.1-.79.34.34,0,0,1,0-.14c0-.07,0-.1,0-.12v0a8.12,8.12,0,0,1,0-1.1,7.6,7.6,0,0,1,.21-.76,3.69,3.69,0,0,1-.41.51c-.19.21-.51.39-.74.68s-.41.51-.62.8-.39.53-.57.83-.32.59-.48.89-.37.56-.51.87a7.94,7.94,0,0,0-.24,1,7.53,7.53,0,0,0-.31,1c-.07.32-.16.64-.22,1s0,.67,0,1-.23.63-.27,1,0,.67,0,1,0,.68,0,1-.1.67-.12,1,0,.7,0,1c0,.61-.39.61-.09,1s.35.22,1,.43c.28.09.69,0,1.07.13l1,.34c.33.12.63.32,1,.45s.7.14,1,.27.63.35,1,.48.68.21,1,.34.68.22,1,.36.59.44.9.59.65.31.94.47.66.34.92.51a4.45,4.45,0,0,1,.85.63,4.27,4.27,0,0,1,.59.92,2.72,2.72,0,0,1,.42,1,1.73,1.73,0,0,1-.36,1,2.62,2.62,0,0,1-.62.73,1.34,1.34,0,0,1,.05.59,1.76,1.76,0,0,1-.9-.12l-.23.1a3.84,3.84,0,0,0-1,.3,1.84,1.84,0,0,0-.55.84,2.65,2.65,0,0,0-.23.95,8,8,0,0,0,0,1c0,.32-.14.67-.13,1a4,4,0,0,1,0,1,10,10,0,0,1-.35,1,8.21,8.21,0,0,0-.1,1.06c-.07.39-.24.77-.09,1.06s.5.38.94.53a2.41,2.41,0,0,0,1,.05l.34-.08c-.23-.07-.22-.38-.18-.72h.52v.63Zm4.71-7.84c0,.17-.21.13-.35.17C143.41,127.61,143.62,127.65,143.75,127.61Zm.53.7a1,1,0,0,1-.88.87C143.28,128.47,143.57,128.18,144.28,128.31Zm-14.51-10.83c-.07-.36.12-.46.17-.7.29,0,.31.17.53.18C130.52,117.42,130.23,117.53,129.77,117.48Zm5.24-1.92v-.35c.15,0,.17-.07.18-.17C135.53,115,135.44,115.83,135,115.56Zm3.15.87c0-.46.24-.57.7-.52C138.91,116.37,138.62,116.48,138.16,116.43Zm-.7,16.59c-.31,0-.4-.3-.35-.7.37-.07.46.12.7.18C137.75,132.73,137.5,132.77,137.46,133Zm-.35-1.74c-.06-.7.31-1,.17-1.75.29-.05.3.16.53.17.18.75-.6,1.45.35,1.05v.87C137.47,131.85,137.8,131.05,137.11,131.28Zm.87,3c-.15-.55.28-.54.35-.87C138.85,133.37,138.66,134.43,138,134.24Z"/><path class="cls-1" d="M131.26,138.73a2.9,2.9,0,0,1,.43,1.62c.33,0,.32-.24.29-.42s-.16-.68-.36-.9A3.37,3.37,0,0,0,131.26,138.73Z"/><path class="cls-1" d="M132.58,103c0,.09-.07.2-.11.3l.15-.29S132.58,103,132.58,103Z"/></svg>