<svg id="Art" xmlns="http://www.w3.org/2000/svg" viewBox="0 0 216 216"><defs><style>.cls-1{fill:#2a7050;}</style></defs><path class="cls-1" d="M86.54,126.1l-2.59.28-2.61-.28-2,2.31L77,130.31l-.19,3.24,2.58.18,2.52,0,2.53-.08,2.5-.16,1.38-2.55,2-2.22,1.16-2.44H89.13Zm-1.68,1,1.47.8-2.08,1.06-1.67-1.18Zm3.48,3.48-2.57-.15-2.52-.23L80.72,130l-2.46.07.5-.65,2.5.18,2.45.13,2.47-.28,2.45.29Z"/><path class="cls-1" d="M96.16,118.93l1.28-1.78,1.22-1.76-2.91-.18-3.13-.11-2.52,2.44.24,1.42,2.91,0Zm-1.46-3,.73.35-1,.35-1.06-.41ZM91.6,117l2.74.26,2.7.11-.25.06-2.75.4-2.81-.06Z"/><path class="cls-1" d="M103,108.51l-3.56,0-1.8,1.75-.06,1.3,3.71-.34Zm-2.36.32.6.44-.87,0-.79-.14Zm-2,.93,3.19.12-.19.35L98.42,110Z"/><path class="cls-1" d="M120.88,111.37l-.2-1-1.58-1.95-3.55.14,1.62,2.75Zm-3.36-2.45.73.4-.46.43-.88-.48Zm-.79,1h3.16l.26.17-3.26.3Z"/><path class="cls-1" d="M122.13,119.29l3.08,0,3.15.12-.37-1.68-2.21-2.33-3-.32h-3.27l1.26,2.22Zm4.78-1.93.34.12-1.94-.1Zm-3.5-1.4,1,.4-.68.1-1.49,0Zm.74,1.44h0l-2.54.5-.26-.84Z"/><path class="cls-1" d="M130.16,130.93l1.48,2.46h2.45l2.52.07,2.53.08,2.39-.15.19-3.17-2.34-2-2.21-2.08-2.56.06L132,126l-2.6,0-2.71.08,1.73,2.48Zm3.17-3.88,2.11.78-1.59.88-2-.84Zm-1,2.63,2.48-.05,2.49.21,2.5-.24.53.76-2.52-.07-2.5-.08-2.51.22-2.5-.23-.46-.54Z"/><path class="cls-1" d="M70,160.73l1.15-2.42L72.44,156l1.62-2.13,1.3-2.35,1.79-2,1.08-2.5,1.52-2.2H77l-2.79-.06-2.81.24-2.81-.25-2.83.21-2.85-.24-1.73,2L59,148.18l-1.79,1.88L55.47,152l-1.77,1.92L52,155.74,51.86,158l.07,2.41L51.64,163l2.86-.39,2.74.42,2.75-.24,2.75-.19,2.77.06,2.77.21ZM64,148l2.45-.23,2.24,0,1,1.64L67.73,151l-2.53,0H63l-1-1.61Zm-1,7.59-2.87.13-2.88.19-2.94-.21,1.28-1.42,2.82,0,2.81.06,2.82-.24,2.83.24,2.84-.21,2.79.23-.88,1.36-2.9-.36-2.85.1Z"/><path class="cls-1" d="M166.86,155.59,165,153.71l-2.18-1.47-1.7-2-1.76-1.92-2.09-1.6-1.66-2.06-2.82.06-2.8-.29-2.8.13-2.82.09-2.82.27-2.9-.26L140,147.1l1.77,2,1.28,2.34,1.25,2.37L146,156l1.6,2.16,1.26,2.38,1.45,2.15,2.66-.12,2.75,0,2.76.1,2.77-.05,2.78.18,2.6-.12.38-2.19-.45-2.4Zm-17.33-7.47,2.15-.6,2.52.2,2.14,1.52-1.18,1.85-2.25.24-2.52-.45-2.21-1.37Zm11.84,7.81-2.85,0-2.87-.1-2.87.05-2.88-.18-3,.17-.76-1.41,2.68-.42,2.79.35,2.81.06,2.81-.47,2.82.22,2.81.14,1.46,1.43Z"/><polygon class="cls-1" points="112.99 104.77 113.65 105.64 116.07 105.69 114.96 104.81 112.99 104.77"/><path class="cls-1" d="M152,167.87l-1.68-2.28-1.62-2.27-1.22-2.52-1.42-2.4L144.73,156l-1.86-2.13-1.19-2.54L140.16,149l-1.52-2.32-1.49-2.33L135.67,142l-1.47-2.35L133,137.06l-1.7-2.23-1.77-2.19-1.16-2.55-1.64-2.27-1.55-2.33-1.41-2.42-1.36-2.45-1.23-2.54-1.8-2.18L118,113.51l-1.64-2.27-1.44-2.41-1.57-2.34L111.93,104l-1.27-2.55-.78.07L111.3,104l.73,2.74,1.37,2.43,1.27,2.49,1.1,2.56,1,2.41-.85-1.23h-2.58l-2.67-.2-2.67.25-2.68-.4-2.64.27-1,1.88-.79,2.06,2.82,0,2.76.13,2.78-.42,2.79.15,2.79-.11,2.57,0-.31-1.81,1.42,1.92.63,2.79,1.53,2.37.93,2.63,1.14,2.53,1.36,2.43,1.31,2.46.91,2.66,1.62,2.33,1.22,2.52.9,2.66,1.18,2.53,1.1,2.59,1.32,2.48.95,2.65,1.24,2.52,1.57,2.36.92,2.67,1.07,2.59,1.4,2.45,1.18,2.56,1.33,2.5,1.24,2.47h2.38l2.46.1,2.35-.13.37-2.21-.05-2.35Zm-44.14-50.26-2.81-.13-2.86.41.2-.76,2.73-.12,2.74-.06,2.63.6Zm5.62-.1-2.7,0,2.57-.43,2.77,0,.16.55Zm31,50.49-.08,2.25-.93-2.85L142,165l-1.33-2.47-1.17-2.57-1.1-2.6-1.76-2.26-.69-2.8L134.38,150l-1-2.63-1.21-2.52-1.44-2.42-1.36-2.46-1-2.66L126.71,135l-1.29-2.49-1-2.67-1.25-2.53-1.16-2.57-1.39-2.46-1-2.66-1.3-2.51-1.64-2.33-1-2.66-1.15-2.6L113.11,107l-1.26-2.55L110.47,102l1.48,2.39,1.3,2.45,1.25,2.49,1.49,2.36,1,2.65,1.38,2.42,1.37,2.42,1.53,2.31,1.48,2.34,1.07,2.57,1.28,2.46,1.21,2.52,1.74,2.23,1,2.6,1.4,2.4,1.39,2.42,1.38,2.43,1.35,2.44,1.35,2.45,1,2.62,1.58,2.33,1.64,2.28,1,2.62,1.52,2.37,1.42,2.42,1.29,2.51,1.22,2.54Z"/><path class="cls-1" d="M82.35,157.28l1-2.62,1.44-2.41L86,149.73l1.17-2.52,1.12-2.54,1.13-2.55,1.28-2.49,1.13-2.56L93,134.53l1-2.61,1.45-2.41.94-2.66L98,124.5,99.16,122l1.15-2.57,1.21-2.54,1-2.61,1.36-2.46,1.07-2.61,1-2.65,1.76-2.3,1-2.68-.62.19-1.75,2.12-1,1.5.31-.66-2.24-.2L102.24,106l2.65,0-.13.19-1.53,2.32-1.35,2.43-1.36,2.44-1.29,2.48L97.41,118l-1.53,2.31-1.09,2.59-1.49,2.32L92,127.65l-1.6,2.27-1.68,2.24-1.24,2.52L86,137.05l-1.67,2.24L83,141.75l-1.47,2.39-1.67,2.25-1.53,2.34L77,151.22l-1.62,2.29L74,155.9l-1.2,2.54-1.69,2.26L69.41,163l-1.17,2.59-1.77,2.29,0,2.41.36,2.34,0,2.26,2.34-.11,2.44.06,2.27-.08,1.25-2.36,1.12-2.56,1.37-2.44,1.24-2.5L80,162.34l1.42-2.42Zm-3.22,2.62-1.08,2.63-1.53,2.41-1,2.68-1.59,2.29.14-2.09L71.6,168l1.68-2.48,1.43-2.38,1.4-2.4,1.22-2.5,1.22-2.51,1.14-2.54,1.7-2.23,1.4-2.39.94-2.63,1.37-2.4,1.19-2.5,1.47-2.37,1.56-2.33,1.1-2.56,1.32-2.45L93.29,129l1.18-2.53L95.8,124l1.54-2.33,1.41-2.42,1.16-2.55,1.48-2.37,1.32-2.45,1.05-2.61,1.32-2-.78,2.23L103,112.09l-1.18,2.55-1.32,2.49-1.13,2.58L98,122.14l-1.19,2.53-1.42,2.41-1.29,2.49-1.24,2.52-1.49,2.42-1,2.63-1.07,2.61-1.5,2.39-1.24,2.54-1.24,2.53-1.2,2.56-1.2,2.56-1.35,2.49-1.2,2.55Z"/><path class="cls-1" d="M96.67,128.55,95.58,131l-1.28,2.62,2.9-.36h2.67l2.68-.06h2.68l2.68.09,2.67.16,2.67,0,2.69-.16,2.69,0,2.69-.06,2.73.31-.92-2.57-1.56-2.26-.91-2.51-2.83,0-2.84-.37-2.85.37-2.84.05-2.85-.07-2.86,0-2.87,0-3-.3Zm5.74.93,2.72.19,2.71,0,2.71.37,2.72-.37,2.73-.05,2.74.07,2.69.32.35.49H119l-2.77.05-2.77,0-2.76-.09-2.76-.16-2.77,0-2.78.16-2.78,0-2.85,0,.24-.77,2.71.2Z"/><path class="cls-1" d="M104.29,111.38l3.34-.41h3.19l3.38.43-1.4-3.2-3.53.34-3.55-.37Zm3.81-1.2,2.34-.36,1.18.21-1.09,0-2.52.5h-2.55l.32-.36Z"/><path class="cls-1" d="M135.2,157.57,134,155l-1.16-2.61L131.18,150l-1.11-2.63-1.17-2.58h-2.76l-2.79.26-2.8-.09-2.81-.35-2.8.2-2.81.23-2.81,0-2.81-.52-2.81.09-2.8.36-2.82-.07-2.82-.12-2.83-.17-2.67.4-1.29,2.36-1.55,2.41-.69,2.81L84.72,155l-1.21,2.59-.84,2.76-1.41,2.42,2.72.37,2.81-.41,2.78-.1,2.79.16h2.8l2.81-.14,2.8.17,2.8-.08,2.8,0,2.82.2,2.81-.18,2.8.28,2.82-.26,2.82.1,2.81-.37,2.8.57,2.82-.36,2.83-.18,2.83.21,2.86.05-1-2.69Zm-5.61-1.87-2.7-.38-2.7.56-2.7-.34H118.8l-2.7.41-2.71-.21-2.7-.42-2.71.41-2.71.09-2.71-.15h-2.7l-2.7.14-2.72-.17-2.72.08-2.73,0-2.64-.18.52-1.22,2.8.29,2.8-.27,2.78.1L98,154l2.78.57,2.8-.37,2.8-.18,2.79.21,2.81.07,2.79.21,2.8,0,2.79,0,2.81,0,2.81-.47,2.82.1,2.85,0,.74,1.63Z"/><polygon class="cls-1" points="107.61 104.81 106.94 105.79 109.23 106.16 111.4 105.65 110.96 104.45 107.61 104.81"/><path class="cls-1" d="M121.46,170.47l-.47.2-.41.32-.51.12-.43.3-.42.29-.44.25-.44.25-.48.19-.46.23-.42.28-.48.2-.42.3-.49.17-.43.28-.46.22-.43.29-.49.18-.43.29-.44.26-.49.16-.45.27-.4.32-.5.17-.46.23-.42.31-.45.26-.48.28-.54.14-.55,0-.55-.1-.53-.13-.49-.23-.48-.18-.36-.37-.45-.21-.46-.21-.42-.28-.44-.24-.49-.14-.4-.32-.48-.16-.44-.24-.39-.32-.44-.25-.44-.23-.49-.15-.44-.25-.41-.29-.42-.28-.44-.24-.5-.14-.42-.27-.46-.2-.43-.26-.44-.25-.43-.26-.47-.19-.37-.35-.49-.15-.13-.09H86.09l.29.11.47.19.45.25.43.26.4.33.47.19.48.18.43.28.42.28.43.27.47.19.45.24.4.31.45.24.46.22.47.21.45.22.42.3.48.17.43.28.42.29.5.14.44.25.46.23.38.36.5.14.45.23.41.29.44.25.46.22.41.31.5.15.45.23.38.38.49.16.47.2.38.36.47.21.49.17.46.23.43.27.42.3.48.17.43.3.43.28.47.2.48.18.47.15.5.06.5.08.49-.14.49-.12.45-.22.48-.18.45-.23.45-.24.43-.26.44-.25.46-.21.41-.3.44-.26.45-.22.41-.3.45-.24.47-.19.49-.17.42-.27.44-.27.43-.26.47-.2.4-.33.48-.17.41-.31.5-.13.46-.23.41-.3.42-.29.47-.19.45-.23.46-.21.39-.33.44-.25.49-.18.45-.22.43-.27.43-.29.48-.18.4-.33.52-.11.42-.3.45-.23.47-.2.4-.32.46-.23.41-.32.47-.21.49-.17,0-.06-.07-.09.09-.13.13.11v.1l.41-.3.13-.08h-8.46Zm-8.76,5.36h0v0l.12-.08Zm1.72,2.39,0,.1-.12,0-.07-.15.11-.12.18.08Zm.45-2.64.19-.1h0v0Zm.28,2.37v0l0,.05Zm1.41-4.57h0v0l.13-.07Zm.21,2.83v0l0,.05Zm1.52-.44,0,.09-.11,0-.07-.15.1-.12.19.08Zm.45-2.64.19-.1h0v0Zm.27,2.36v0l0,0Zm1.62-1.73v0l0,.05Z"/><path class="cls-1" d="M173.27,138.23l-.05-.51,0-.51.06-.51-.1-.51,0-.51v-.5l.12-.51v-.51l0-.51-.09-.51.05-.51.06-.51-.07-.51,0-.51.11-.51,0-.51-.05-.51.07-.51-.1-.51,0-.52v-.51l.06-.52.06-.51-.06-.53v-1.07l-.07-.53.09-.53,0-.54-.11-.54.08-.5v-.5l-.08-.51v-1l.12-.5-.09-.51.06-.5,0-.51.07-.5,0-.5,0-.51v-1.51l0-.5.05-.51-.05-.5,0-.5.05-.51,0-.5,0-.51-.1-.5,0-.51.06-.5v-.51l0-.5,0-.5,0-.51-.1-.5.1-.5v-.5l0-.51v-.5l0-.51-.13-.5.07-.51-.08-.5.06-.5.06-.51,0-.5-.1-.5.05-.51,0-.5,0-.5,0-.5-.06-.51.09-.5-.1-.5.07-.51.07-.5v-.51l0-.51-.08-.5,0-.51.09-.5.06-.5-.05-.51,0-.5-.05-.51,0-.5,0-.51-.08-.51,0-.5-.07-.51.09-.5V89l-.05-.51,0-.5,0-.51,0-.51,0-.5-.05-.51v-.5l.11-.51v-.5l0-.51,0-.5-.15-.51.11-.51,0-.5.06-.51,0-.51.05-.51,0-.51,0-.51v-.5l-.05-.51v-1l0-.51,0-.52h.07l0-.06.07.06-.11-.49.07-.48,0-.48v-.48l0-.48-.13-.48.13-.49-.11-.48,0-.48.09-.49.06-.48-.13-.47,0-.48-.11-.47-.34-.37-.2-.43-.37-.31-.3-.38-.45-.2-.62-.31-.07,0,0-.06-.39-.32-.47-.19-.39-.33-.5-.13-.41-.3L168,66.1l-.42-.27-.43-.26-.43-.25-.44-.25-.44-.24-.48-.18-.41-.3-.43-.27-.43-.24-.47-.2-.41-.31-.51-.1-.38-.36-.45-.23-.49-.16-.43-.27-.46-.21-.39-.34-.44-.23-.51-.14-.4-.32-.42-.28-.46-.19-.43-.27L157,60l-.46-.22-.42-.26-.44-.25-.5-.14-.43-.25-.41-.32-.49-.14-.41-.3-.46-.22-.44-.24-.42-.28-.47-.19-.46-.21-.4-.31-.46-.22-.41-.3-.47-.2L149,55.7l-.46-.21-.41-.29-.49-.17-.38-.35-.44-.24-.49-.15-.41-.31-.46-.21-.49-.16-.4-.32-.41-.29-.5-.15-.44-.23-.42-.3-.43-.25-.49-.15-.4-.31-.42-.27-.45-.22-.48-.18-.43-.25-.4-.31-.5-.13-.37-.37-.5-.14-.42-.27-.45-.22-.43-.28-.42-.27-.5-.14-.41-.31-.47-.2-.42-.28-.42-.28-.49-.16-.43-.27-.44-.24-.43-.26-.45-.22-.47-.19-.43-.27-.46-.22-.4-.32-.49-.15-.44-.25-.44-.25-.44-.25-.39-.34-.51-.12-.4-.34-.47-.19-.42-.27-.48-.19-.39-.33-.46-.21-.46-.23-.42-.28-.46-.22-.49-.16-.43-.28-.45-.22-.45-.24-.4-.31-.5-.15-.43-.26-.45-.25-.43-.26-.44-.26-.4-.31-.47-.2-.49-.15-.42-.29-.41-.31-.47-.21-.47-.19-.45-.22-.39-.35-.46-.23-.44-.26-.49-.15-.43-.29-.49-.17-.38-.36-.47-.2-.48-.19-.45-.24-.46-.23-.42-.3-.46-.23-.49-.1-.5-.12-.5.06h-.52l-.47.18-.47.19-.42.29-.48.17-.42.28-.43.26-.48.16-.43.26-.4.32-.49.16-.45.22-.4.31-.44.25-.41.3-.44.24-.45.23-.47.2-.44.24-.44.23-.41.3L98,39l-.43.27-.42.27-.46.2-.45.24-.38.34-.49.17-.4.31-.44.24-.48.16-.45.23-.44.25L92.8,42l-.45.23-.47.19-.46.2-.44.24-.39.34-.45.22-.43.27-.45.22-.45.24-.45.22-.41.3-.51.13-.39.32-.46.21-.48.18-.4.32-.46.21-.46.2-.4.32-.45.22-.47.2-.44.24-.41.3-.45.23-.48.16-.38.35-.46.21-.47.18L80,49l-.45.23-.43.25-.45.22-.45.22-.48.16-.42.28-.46.2-.44.25-.39.34-.5.13-.4.31-.42.3-.5.12-.39.34-.47.2-.47.2-.42.28-.47.18-.43.26-.43.27L70.7,54l-.42.27-.5.14-.43.26L69,55l-.43.26-.44.25-.49.15-.43.27-.48.18-.39.35-.49.15-.42.3-.41.29-.45.22-.45.23-.46.23-.45.23-.48.17-.42.29-.43.27-.43.27-.48.17-.46.21-.41.3-.46.23-.45.23-.41.3-.47.19-.4.32-.45.23-.48.18-.42.28-.46.2-.45.25-.4.32-.51.12-.4.33-.45.22-.49.18-.4.32-.47.21-.47.2-.38.36-.47.21-.46.22-.44.25-.46.23-.4.32-.52.14,0,.11,0,0-.47.22-.45.28-.47.23-.44.27-.48.23-.44.29-.49.19-.44.3-.45.18-.3.39-.29.36-.33.35-.2.43-.18.45,0,.47,0,.47-.1.5,0,.5,0,.5,0,.5,0,.5,0,.5-.05.51,0,.5,0,.5,0,.5,0,.5,0,.5,0,.5-.07.51,0,.5,0,.5,0,.51,0,.5-.11.5,0,.5,0,.5V82l0,.51,0,.5.09.5,0,.5v.5l-.14.5.1.5,0,.51.06.5-.07.5.07.5-.1.51.08.5V89l0,.51-.13.5.1.5-.08.49.07.5V92l0,.51-.09.5.07.5.06.5-.14.51.06.5v1l0,.5v.5l.06.5,0,.5,0,.5-.1.5.07.5v.51l-.06.5,0,.5.05.5v.5l0,.51,0,.5-.07.5.07.51,0,.5,0,.5v.5l-.07.51.1.5.05.5-.1.51,0,.5.11.5-.11.51.1.5,0,.5v.51l0,.5,0,.51-.09.5.08.51,0,.5,0,.5.09.5-.07.5v.51l0,.5v.51l0,.5.07.51v.5l.06.51v.5l-.08.51-.07.51,0,.5.07.51-.06.51.07.5-.07.51.05.51,0,.47-.1.46,0,.47.09.47v1l0,.51-.05.5.06.51,0,.5v.5l-.11.51v.5l.08.51,0,.51,0,.5,0,.51-.11.5v.51l.08.5,0,.51v.51l0,.5-.1.51,0,.51-.05.5,0,.5.08.5v.51l-.11.51.05.5-.05.51.08.51,0,.5.06.51v.51l0,.51,0,.51.11.5-.08.51,0,.51.06.51,0,.51,0,.52-.1.48.2.44.07.49.31.37.25.4.29.37.35.33.43.22.39.32.51.12.38.37.46.19.45.22.48.19.42.27.47.19.44.25.42.28.44.23.45.24.42.27.26.13,3-2.94-.17-.08-.39-.31-.5-.15-.45-.22-.4-.3-.45-.22-.43-.26-.46-.21-.45-.22-.39-.33-.44-.24-.4-.3L49,145l-.3-.41-.21-.47-.06-.5v-.51l0-.5,0-.49v-.5l0-.5,0-.5.07-.5,0-.5v-.51l0-.5,0-.5.11-.5,0-.5,0-.5v-.5l0-.5,0-.5-.1-.5,0-.5v-.5l.14-.49-.1-.51,0-.5,0-.5.07-.5-.07-.5.1-.5-.08-.51v-.5l0-.5.12-.5-.09-.51.08-.5-.07-.5v-.51l0-.51.08-.5-.06-.47-.06-.46.14-.47-.06-.47v-.47l0-.5,0-.5v-.51l-.07-.5,0-.51,0-.5.11-.51-.08-.5v-.51l.07-.5v-.51l0-.5v-.51l0-.5,0-.51.07-.5-.06-.51,0-.5,0-.51v-.5l.06-.51-.1-.5,0-.5.11-.51,0-.5-.11-.51.11-.5-.11-.51,0-.51v-.5l0-.51,0-.5.08-.51-.08-.5,0-.51,0-.5-.09-.5.07-.5v-.51l0-.5v-.51l0-.5-.07-.51v-.51l-.05-.5v-.5l.09-.51.06-.5,0-.51-.06-.5.06-.5-.07-.51.07-.5-.06-.5,0-.51.1-.5,0-.51-.09-.5v-1l0-.5,0-.51,0-.5,0-.51v-.51l.12-.5v-.51l-.08-.5,0-.51,0-.51,0-.5.11-.51v-.51l-.07-.5,0-.51v-.51l0-.51.09-.5,0-.51,0-.51,0-.5-.09-.5v-.51l.12-.51-.05-.51,0-.5-.08-.51,0-.51,0-.51v-.5l.06-.51,0-.51-.1-.51.07-.51,0-.51,0-.51,0-.51,0-.52.13-.51-.07-.51.2-.46.1-.51.27-.42.35-.37.39-.32.4-.3.48-.17.37-.36.51-.11.41-.29.43-.26.41-.29.46-.21.41-.29.45-.23.46-.2.43-.25.45-.24.45-.21.44-.25.48-.17.39-.34.46-.21.44-.22.45-.23.43-.26.44-.23.43-.26.47-.19.39-.33.49-.16.46-.2.43-.25.45-.23.37-.36.44-.24.46-.22.47-.17.41-.3.47-.18.43-.27.43-.26.45-.21.4-.32.44-.24.45-.23.45-.23.49-.14.39-.34.45-.23.44-.23.42-.29.5-.12.4-.33.49-.14.4-.31.42-.29.46-.19.44-.24.46-.2.4-.3.48-.17.45-.22.41-.28.4-.3.48-.17.4-.31.44-.24.48-.16.43-.25.44-.25.4-.31.47-.18.47-.19.41-.28.41-.31.49-.15.46-.22.38-.36.44-.23.51-.12.4-.32.47-.17.45-.23.42-.28.44-.24.41-.29.43-.27.47-.17.42-.29.48-.16.39-.33.5-.14.45-.24.41-.3.47-.19.45-.22.44-.25.41-.3.41-.29.45-.24.45-.22.49-.15.42-.3.41-.3.46-.21.47-.2.45-.21.41-.3.45-.24.48-.17.44-.25.43-.26.42-.28.43-.26.47-.18.41-.31.46-.21.47-.19.38-.35.45-.24.44-.25.51-.13.39-.34.43-.26L103,41l.45-.23.43-.27.48-.18.4-.34.44-.25.52-.11.4-.33.43-.28.55-.1.51-.18.54-.12.55,0,.53.16.48.28.48.17.41.29.42.27.46.2.46.21.44.24.45.23.4.32.48.17.43.27.45.22.41.3.43.26.44.24.46.22.45.23.42.27.48.18.45.22.43.26.47.18.44.25.42.29.4.31.46.21.45.21.46.22.41.29.49.15.4.31.49.17.38.35.43.25.47.18.47.2.42.29.43.25.43.26.49.16.45.23.41.31.43.26.46.21.47.19.4.31.49.15.37.37.47.19.44.25.42.29.49.15.43.26.48.17.43.27.39.32.45.21.44.25.49.14.42.26.4.32.47.18.45.22.4.32.47.17.42.29.47.19.41.3.42.27.49.16.39.33.52.11.38.36.46.21.49.16.4.31.44.24.45.23.43.26.48.18.41.3.45.22.45.22.42.27.44.25.49.16.39.34.48.17.47.2.39.34.48.17.42.3.43.26.47.19.41.3.46.22.47.18.44.25.44.26.44.24.47.2.4.33.49.16.44.24.45.23.42.29.47.2.39.33.44.25.47.19.45.23.43.27.44.24.44.26.43.26.45.25.44.24.47.2.46.21.44.27.45.22.47.21.39.34.51.13.41.32.44.25.44.27.45.23.51.14.38.35.33.37.43.31.18.47.28.44.08.51v.5l.06.51,0,.5-.06.5v.51l0,.5,0,.51,0,.5-.08.51.06.5.07.51-.12.5.08.51-.08.5,0,.51.09.5,0,.51-.06.5v.51l-.06.5.1.51-.12.5,0,.51,0,.5-.09.51,0,.5v1l0,.51v1l-.07.5.13.51-.14.5.15.51-.07.5-.08.5.1.51-.09.5v.5l0,.51.12.5v.51l-.12.51.06.5,0,.51-.06.5.1.5,0,.51v.5l-.11.51v.5l0,.5.09.5-.06.51-.06.5.07.51,0,.5-.12.51,0,.51,0,.5-.07.51.11.5v1l-.06.5-.06.51.07.5v1l.07.51-.09.51,0,.51.11.5-.08.51v.51l.08.5,0,.51v.51l-.12.51.09.5-.06.51,0,.5-.08.5,0,.51,0,.51v1l0,.51,0,.51-.05.51,0,.51,0,.51-.05.51,0,.51,0,.51.11.51,0,.51-.05.51,0,.51,0,.54v.53l.1.53-.06.53-.05.54V126l0,.54.13.5-.12.5.1.51,0,.5-.1.51-.06.5.1.5,0,.5-.05.51.15.5-.09.51.07.5-.1.5.07.51,0,.5,0,.5v.5l-.1.5.06.51-.1.5.12.51-.07.5.09.51,0,.5,0,.51v1.51l.07.51-.07.51,0,.5v.51l.05.51-.11.49,0,.53-.31.41-.24.44-.25.45-.4.31-.41.3-.49.14-.44.25-.39.35-.48.15-.47.2-.41.29-.21.1,3.08,3,.29-.22.48-.16.42-.26.4-.32.43-.26.46-.18.43-.25.47-.19.39-.33.5-.13.42-.28.38-.29.42-.24.3-.38.27-.4.23-.42.12-.46.1-.47,0-.48.07-.5-.14-.51.14-.51-.14-.5.07-.51.07-.51-.1-.51.1-.51,0-.51,0-.51-.13-.51v-.5ZM44.76,141.17h0v0l.1-.07Zm2.37-8.72h0l.15,0Zm.73,4.2v0l0,.13h-.09Zm-.19,9h.08l0,0-.19-.08Zm.26,1.58h-.08l-.2-.12-.16,0,.08-.17.27,0L48,147l0,.11.15.14Zm3.14,1.86h0v0l-.2.08Zm-2.15-.82.2.11-.18,0,0,0Zm-.12,1.06-.09.1,0,0v0Zm-.28-3.88-.12,0h0l0,0Zm.85-78.24-.22.12h-.1l-.19-.15-.18,0,.14-.1.23-.07.18.07.15,0Zm.27.35.11-.08,0,0,.06,0Zm.17,2,.09-.1,0,0v0Zm.34-1.14H50l.13-.1.08.1Zm4.53-5.68h-.13l.12,0h0Zm.63.39-.16.11,0-.16.12,0,.09,0Zm1.25-.14-.22.12h-.1L56.05,63,55.88,63l.14-.1.22-.07.18.07.15,0Zm.27.35.11-.08v0l0,.05Zm.17,2,.1-.11h0v0Zm.34-1.14h-.15l.13-.1.08.09Zm2.55-.56h0ZM61,60.33l.05-.06h0Zm.1-.38.09-.11,0-.06.09.06V60ZM62.5,59l-.15.11L62.3,59l.13,0,.08,0ZM63,62.19l0,0,0,0-.1-.17.19.07ZM63.26,59l-.12.08v-.15l.09,0,.06,0Zm3.82.63h0Zm.39.66.09-.13h0v.07Zm.69-4.09,0-.07h0Zm.11-.38.08-.11,0-.06.1,0v.13Zm.83,2.62,0,0,0,0Zm1.06-.35H70l0-.16.11.08,0,.06Zm.29-3.26-.12.08v-.16l.09,0,.07,0Zm4.21,1.29.1-.13h0V56Zm1.64-1.85,0,0,0,0ZM121.77,45l.09-.08h0v0Zm38.14,19H160l0,.05-.18-.09Zm.49,1.48-.22.12h-.11l-.18-.15-.18,0,.14-.11.23-.07.18.07.15.06Zm.27.35.11-.07,0,0,.05,0Zm.51.91H161l.12-.1.09.1Zm2.2.77,0,0,0,0Zm1.63.65,0,0,0,0Zm3.24,22.22v0l0-.07.17-.07Zm.41-1,0,.06v-.12l.15-.06Zm.26-4.13h0v.13l0-.12Zm.26,15.16,0,.09-.11,0-.07-.15.1-.12.19.09Zm.07-9.54,0-.07-.16-.1h.19l.07.13v0Zm.38,6.9.19-.1h0v0Zm0-6.46.12,0,0,0,0,0-.05.05Zm.12-2.14h-.05v-.06l.15-.08Zm.16,11v0l0,0Zm.37-19.94-.09,0-.05-.06-.08-.23.09-.15.1.07.18.17Zm.54-10.83h.07l0,0-.18-.09Zm-.06,1.29.23-.07.18.07.15,0v.14l-.22.12H171l-.18-.15-.18,0ZM170.6,102h.15l.06.13Zm.49-1.11-.14,0v0l.05,0,.12-.08Zm0-18.3-.23-.11-.05-.08-.06-.15h.2l.07.07.09.22Zm.29-11.08-.08,0-.1,0,0-.07.17-.11Zm.13,26.87,0,0,0,0Zm0-27.19.11-.08,0,0,.06,0Zm.28,2h0v0l.13-.08Zm.08-1,.13-.1.08.1h-.21Zm.17,5.59.09-.1v.1Zm.11,13.56h0v0l.14,0Zm.26-9-.05,0-.11-.11.19,0Zm-.15-.85.07-.11h.06v0Zm.17-11.5-.05,0-.09-.14.17,0Zm.34,21.75-.1,0,0-.05.06-.11.14.06Zm-.05-9.37-.12-.17V82l.07,0,.07,0,.12.1Z"/><path class="cls-1" d="M68,116.07l-.81,2.47-.54,2.56-.86,2.24,2.92-.09,3.11.14,3.12.14.76-2.85.35-2.93.69-2.84,1-2.75.76-2.84.79-2.83.66-2.87.72-2.87-.36-.35h-.21l1-1.52.45-2.63,1.08-2.48.65-2.62-.7,1-.78-.56-1.15-1-.4-.11-.5-.24L79.55,90l.31-.69,1-.15-.11.89,1.13.59.75-.7,1-.25.52-3.18.88-3,2.13-1.62,2.22-1.6,2.27-1.55,2.41-1.35,2.21-1.66,2.46-1.25,2.87.28,2.87-.18,2.87-.35,2.88-.1,2.88.19,2.9-.07,2.85.32,2.31,1.56,2.62,1.12,2.35,1.58,2.42,1.46,2.22,1.81L133,83.62l1.06,2.47.46,2.74.65,2.68.88,2.62,1.15,2.56.23,2.81,1.17,2.55.73,2.68.5,2.74,1,2.6.53,2.73,1.09,2.58.82,2.66.52,2.76.71,2.68,3-.07,3,.26,2.93-.23L152.24,121l-.6-2.73-.76-2.67-1.34-2.47-1-2.59-.48-2.77L147,105.25l-1-2.57-1-2.59-.77-2.66-.92-2.63-.84-2.64-.8-2.65L140.57,87l-.74-2.69-1.27-2.5-.88-2.63-1.21-2.53L135.55,74l-.75-2.68-.88-2.64-.7-2.71-.91-2.65-.94-2.63-1-2.8-3,.34L124.51,58,121.67,58l-2.85,0L116,58.3l-2.86.06-2.85-.26L107.38,58l-2.86-.14-2.86.16-2.85-.25-2.87.51H93.06L90.18,58l-2.7.29-1.09,2.43-1,2.62L84.43,66l-1,2.66-.67,2.76-1,2.63-.6,2.79-.82,2.71-.73,2.74-1,2.65-1.33,2.55-.92,2.69-.51,2.84-1.15,2.65.81,1.06.21.55-.91.11-.26.17-.48-.72-.5,2.9-1.27,2.6-.39,2.9-1.14,2.66L70,110.71l.12.05-.67.26.2.16-1,2.37Zm13.34-22.5.71-.33.15.23-.16.36-.87,1.09-.71,0-.18-.62Zm49.35-19.09.74,2.88,1.12,3L129.89,79l-2.18-1.68-2.28-1.54-2.08-1.36,2.26-.15,2.55.15Zm-5.73-6.37,2.41.07v.06l1.77-.31.69,2.13.32,2.12-2.65-.08L124.82,72l-2.65.16-2.28-.22L122,70Zm-11.32,0V66l3.06-.34,3.15-.06,3.15.26-.06.81-1.95,1.22-1.79,1.47-1.87,1.1-2.18-1-2-1.47Zm-5.07.07.24,0,2.35,1.05,2.21,1.31,2,1.61-2.64-.08L110.09,72l-2.65.16-2.64-.25-2.39.2,1.78-1.36,2.19-1.23ZM97.7,65.93l3.07.06,3,0,.29,2,.5.26-2.3,1.18-2.13,1.3L97.5,68.55l-2.67-2.17-.23-.61ZM88,70.08l.52-2.18,1.71.18.06,0,0,.25,2.67-.16,2.44,2.22L98.25,72,98,71.89l-2.58.39-2.6-.15-2.6-.06H87.77Zm-1.7,7.19.87-2.84,2.46.07,2.51,0,2.71-.19-2.29,1.71-2.38,1.24-2.29,1.38-2,1.31ZM84,80.81l1.51.21-.47.51-.37.9-1,.27-.33-1.19v-.17Zm-2.13,3.31,0-.09.44-.18.32.62-.65.8-.27.4-.06-.94Zm-3.42,15.3,0,.62L78,99.7l.17-.57.54-.35.34-.08ZM79.29,95l-.3-.64v-.21l.26.19.16.69Zm-.44-8.57.65-.23h.06l.5.56L79,87.23l-.28,0Zm-.44,4.91.88.58-.77.63-.27-.23-.4-.43.65-.18Zm-1.5,10.58.57-.08-.45.41-.31-.22Zm-.39,3.78.31-.27-.12.49-.32-.05ZM75,108.21l.73.25.48.4.74.56.85.07.24.9-.61.71-.11.32-1.41-.92.19-.79.28-.35-.41-.24-1.25.15-.21-.39Zm-1.2-7.37-.13-.55.64-.19.13,0,.13.26.18,1.6-1.1.24-.16-.59ZM73.39,105l.38.16.53.15.32.29-.54,0-.8.25-.15-.22Z"/></svg>