<svg id="Art" xmlns="http://www.w3.org/2000/svg" viewBox="0 0 216 216"><defs><style>.cls-1{fill:#789c4a;}</style></defs><path class="cls-1" d="M41.89,131.74v.51l.08.5,0,.51v.51l0,.5-.1.51,0,.5,0,.51,0,.5.08.5v.51l-.11.51.05.5-.05.51.09.5,0,.51,0,.51v.51l-.06.51,0,.5.11.51-.08.51,0,.51.06.51,0,.51,0,.51-.1.49.2.44.07.48.31.38.25.4.29.37.35.33.43.22.39.32.51.12.38.36.46.2.46.22.47.18.42.27.47.2.44.24.42.29.44.23.45.24.42.27.45.23.4.32.5.14.42.27.44.26.43.25.46.22.44.25.45.22.42.29.49.16.4.32.43.28.44.23.44.25.51.12.44.25.43.26.41.3.47.19.42.3.45.22.46.21.32.21v-4.65l-.24-.19-.49-.16-.43-.28,0,0-.11.16v-.19h0l-.44-.24-.43-.24-.47-.16-.37-.36-.5-.13-.41-.27-.42-.27-.45-.21-.43-.26-.45-.21L54,149l-.46-.2-.41-.29-.46-.2-.39-.32-.5-.14-.45-.22-.4-.3-.45-.22-.43-.26-.46-.21-.44-.23-.4-.32-.44-.24-.4-.31-.3-.4-.3-.41-.21-.47-.06-.51v-.5l0-.5,0-.5v-.5l0-.49-.05-.5.08-.51-.05-.5v-.5l-.05-.5,0-.5.12-.5-.06-.5,0-.5v-.5l0-.5,0-.5-.1-.5,0-.5v-.5l.14-.5-.1-.5,0-.5-.05-.5.07-.5-.07-.5.1-.51-.08-.5v-.5l0-.5.13-.51-.1-.5.08-.5-.07-.5v-.51l0-.51.08-.5-.06-.47-.06-.46.14-.47-.06-.47v-.47l0-.5,0-.51v-.5l-.07-.5,0-.51,0-.5.1-.51-.08-.5v-.51l.07-.5v-.51l0-.5v-.51l0-.5,0-.51.08-.5-.07-.51,0-.5,0-.51v-.5l.06-.51-.1-.5-.05-.51.11-.5,0-.51-.11-.5.11-.51-.1-.5,0-.51v-.5l0-.51,0-.51.08-.5-.08-.51.05-.5,0-.5-.09-.5.07-.51v-.5l.05-.5v-.51l0-.51-.07-.5v-.51l0-.5v-.51l.08-.5.06-.5L47,98.11l-.06-.5.06-.5L47,96.6l.07-.5L47,95.6l0-.51.1-.5,0-.51-.09-.5v-1l0-.51,0-.5L47,91l0-.5V90l.12-.5V89l-.08-.5L47,88l0-.51L47,87l.1-.5V86l-.07-.5L47,85v-.51l0-.51.09-.5,0-.51.05-.51,0-.5L47,81.42l0-.5.11-.51,0-.51,0-.5L47,78.89l0-.51L47,77.87v-.51l.06-.51,0-.51-.11-.5.07-.51,0-.51,0-.51,0-.51,0-.52.13-.51L47,72.26l.2-.47.1-.5.28-.43.34-.37.39-.31.4-.31.48-.16.37-.36.51-.11.41-.29.43-.26.41-.29.46-.21.42-.29.44-.24.46-.19.44-.25L54,67l.45-.22.44-.25.48-.16.39-.34.46-.21.45-.22.44-.23.43-.27.45-.23.43-.25.46-.2h0l-.28-.18-3.76-2.28-.17.08-.45.24-.4.33-.51.12-.4.33-.45.22-.49.17-.4.33L51.1,64l-.47.2-.38.36-.47.21-.46.22-.44.25-.45.23-.41.32-.52.13,0,.12,0,0-.47.22-.45.28-.47.23-.44.27-.48.23-.44.29-.49.19-.44.3-.45.18-.3.39-.29.36-.33.35-.2.43-.17.44L42,70.6l0,.47-.1.5,0,.5,0,.5,0,.5.05.5,0,.5,0,.5,0,.5,0,.51,0,.5,0,.5,0,.5,0,.5-.07.51,0,.5,0,.5,0,.5,0,.51-.11.5.06.5,0,.5v.5l0,.5,0,.5.09.51,0,.5v.5l-.14.5.1.5,0,.5.05.51-.07.5.07.5-.1.51.08.5v.5l0,.5-.13.51.1.49-.08.5.07.5v.5l0,.5-.09.51.07.5.06.5-.14.5.06.51v.5l0,.5,0,.5v.5l.06.5,0,.5,0,.5-.1.5.07.5v.5l-.06.5,0,.51,0,.5v.5l0,.51,0,.5-.07.5.07.51,0,.5,0,.5v.5l-.07.5.1.51,0,.5-.1.5,0,.51.11.5-.11.51.1.5,0,.5v.51l0,.5,0,.51-.08.5.07.5,0,.51,0,.5.09.5-.07.5v.51l0,.5v.51l0,.5.07.5v.51l0,.51v.5l-.08.51-.07.51,0,.5.07.51-.06.5.07.51-.07.51,0,.51,0,.47-.1.46,0,.47.09.47v1l0,.51,0,.5.06.5.05.51v.5l-.12.51v.5l.08.51,0,.51,0,.5,0,.51Zm15.73,21.44.16-.11v.19l-.07,0-.1,0Zm-6.21-3.24h0v0Zm-1.72-.73h0v0l-.2.08Zm-2.15-.82.2.11-.18,0,0,0Zm-.12,1.06-.09.1h0v0Zm-.28-3.88-.12,0h0l0,0Zm8.8-81.24.08.09h-.21Zm-.22,1.12h0v0l-.13.08Zm-.16-2v0l.05,0h-.15ZM54.64,63l.22-.07.19.07.14.05v.14l-.22.12-.1,0-.18-.14-.18,0Zm-.79.3.09,0v.07l-.16.11,0-.16Zm-.56-.39h0v0l-.13,0ZM48.75,68.5l.08.1h-.21Zm-.23,1.12h0v0l-.13.07Zm-.11-1.94h-.15l.11-.08v0Zm-1-.54.23-.07.18.07.15,0v.14l-.22.12h-.1l-.19-.15-.18-.05Zm-1,69.6v0l0,.14h-.1Zm-.19,9h.08l0,0-.18-.08ZM46.2,147l.27,0,.18.07,0,.11.15.14-.28,0h-.09l-.2-.12-.16-.05Zm-.48-14.47.15,0-.12,0h0Zm-2.25,8.65-.09.08h0v0Z"/><path class="cls-1" d="M171.89,138.31l0-.51,0-.5.06-.51-.1-.51,0-.51v-.5l.12-.51v-.51l0-.51-.09-.51.05-.51.07-.51-.07-.51,0-.51.11-.51,0-.51-.05-.52.07-.51-.1-.51,0-.51v-.51l.06-.52.06-.51-.06-.54V125l-.08-.53.09-.54,0-.53-.11-.54.08-.5v-.51l-.08-.5v-1l.12-.51-.09-.5.06-.5,0-.51.07-.5,0-.51,0-.5v-1.51l0-.5.05-.51-.05-.5,0-.51.05-.5,0-.51,0-.5-.1-.51,0-.5.06-.51v-.5l0-.5,0-.51,0-.5-.1-.5.1-.5v-.5l0-.51v-.5l0-.51-.13-.5.07-.51-.08-.5.06-.51.06-.5,0-.5-.11-.5.05-.51,0-.5,0-.5,0-.51-.06-.5.09-.5-.1-.51.07-.5.07-.5v-.51l0-.51-.08-.5,0-.51.09-.5.06-.51,0-.5,0-.51-.05-.5,0-.51,0-.5-.08-.51,0-.51-.07-.5.09-.51v-.5l-.05-.51,0-.5,0-.51,0-.51,0-.5-.05-.51v-.5l.11-.51v-.5l0-.51,0-.51-.15-.5.12-.51-.06-.5.06-.51,0-.51.05-.51,0-.51,0-.51v-.5l0-.51,0-.51V77.4l0-.52,0-.51h.07l0-.05.07.06-.11-.49.07-.48,0-.48v-.48l0-.49-.13-.48.13-.48-.11-.48,0-.48.09-.49.06-.48-.13-.48,0-.47-.11-.48-.34-.36-.2-.43-.37-.31-.3-.38-.45-.2-.62-.32-.07,0,0-.06-.39-.32-.47-.19-.39-.33-.5-.13-.41-.3-.49-.16-.42-.28-.43-.26-.43-.25-.44-.24-.44-.24-.48-.18-.41-.3-.42-.27-.44-.25-.47-.19-.41-.31-.51-.1-.38-.37-.45-.22-.49-.16-.43-.27-.46-.21-.39-.34-.44-.24-.51-.13-.4-.32-.41-.28-.47-.19-.43-.27-.44-.25-.45-.22-.43-.26-.44-.26-.5-.13-.43-.26-.41-.31-.49-.14-.41-.31-.46-.21-.44-.24-.41-.29-.48-.18-.45-.22-.41-.31-.46-.21-.41-.31L148,56l-.46-.23-.46-.21-.41-.3-.49-.16-.38-.35-.44-.25-.49-.15-.41-.3-.46-.21-.48-.17-.41-.31-.41-.29-.5-.15-.44-.23-.41-.3-.44-.25-.49-.15-.4-.31-.42-.27-.45-.22-.47-.18-.44-.25-.4-.31-.5-.13L137,50l-.5-.14-.42-.27-.45-.23-.42-.27-.43-.27-.5-.14-.41-.31-.47-.2-.42-.28-.42-.28-.49-.16-.43-.27-.44-.24-.43-.26-.45-.23-.47-.19-.43-.26-.46-.22-.4-.32-.49-.15-.44-.25-.43-.26-.45-.24-.39-.34-.51-.12-.39-.34-.48-.19-.42-.28-.48-.18-.39-.33-.46-.21-.45-.23-.43-.28-.46-.22-.49-.16-.42-.28-.46-.22-.44-.24-.41-.31-.5-.15-.43-.26-.45-.25-.43-.26-.44-.26-.4-.31-.47-.2-.49-.16-.42-.28-.41-.31-.47-.21-.47-.19-.45-.23-.39-.34L113,37l-.44-.26-.49-.16-.43-.29-.49-.16-.38-.36-.47-.2-.48-.19-.45-.24-.46-.24-.42-.29-.46-.23-.49-.1-.5-.12-.5.06H106l-.48.18-.47.19-.42.29-.48.17-.42.28-.43.26-.48.16-.43.25-.4.33-.49.15-.45.23-.4.31-.44.25-.41.3-.44.24-.45.23-.47.2-.44.24-.44.23-.41.3-.52.11-.43.27-.42.27-.46.2-.45.24-.38.34-.49.16-.4.32-.44.24-.48.16-.45.22-.44.26-.39.33-.45.23-.47.19-.46.2-.44.24-.39.34-.45.22-.43.27-.45.22-.45.23-.45.23-.41.29-.51.13-.39.33-.46.21-.48.17-.4.33-.46.2-.46.21-.4.32-.45.22-.47.2-.44.24-.41.3-.45.23-.48.16-.38.35-.46.21-.47.17-.38.35-.45.23-.08.05A15.31,15.31,0,0,0,80,52.87l.42-.2.38-.36.44-.23.51-.12.4-.32.47-.17.45-.24.42-.27.44-.25.41-.28.43-.27.48-.17.41-.29.48-.16.39-.34.5-.13.45-.24.41-.3.47-.19.45-.22.44-.25.41-.3.41-.29.45-.24.45-.22.49-.16.42-.29.41-.3.46-.21.47-.2.45-.21.41-.3.45-.24.48-.17.44-.25.43-.26.42-.28.44-.26.46-.18.41-.31.46-.21.47-.19.39-.36.44-.23.44-.25.51-.13.39-.34.44-.26.47-.19.45-.23.43-.27.48-.18.4-.34.44-.25.52-.11.4-.33.43-.28.55-.1.51-.18.54-.12.55,0,.53.17.48.28.48.17.41.29.42.27.47.2.45.21.44.24.45.23.4.32.48.17.43.27.45.22.41.3.43.26.44.24.46.21.45.24.42.27.48.18.45.22.43.26.47.18.44.25.42.29.4.31.46.21.45.21.46.22.41.28.49.16.4.31.49.16.38.36.43.25.48.18.46.2.42.29.43.25.43.26.49.16.45.23.41.3.43.27.46.21.47.19.41.31.49.15.37.37.47.19.43.25.42.28.49.16.43.26.48.17.43.27.39.32.45.21.44.25L134,53l.43.26.39.32.47.18.45.22.4.32.47.17.42.29.47.18.41.31.42.27.49.16.39.33.52.11.38.36.46.21.49.16.4.31.44.24.45.23.43.26.48.18.41.3.45.22.45.22L145,59l.43.25.49.16.39.34.48.16.47.21.39.33.48.18.42.3.43.26.47.19.41.3.46.22.47.17.44.26.44.26.44.24.47.2.4.33.49.15.44.24.45.24.42.29.47.2.39.33.44.25.47.19.45.23.43.27.44.24.44.26.43.26.45.25.44.23.47.21.46.21.44.27.45.22.47.21.4.34.51.13.4.32.44.25.44.27.45.23.51.14.38.35.33.37.43.3.18.48.28.44.08.5v.51l.06.5,0,.51-.06.5v.51l0,.5,0,.5,0,.51-.08.5.06.51.07.51-.12.5.08.51-.08.5,0,.51.09.5,0,.51-.06.5v.51l-.06.5.1.51-.12.5,0,.5,0,.51-.09.5,0,.51v1l0,.5v1l-.07.5.13.51-.14.5.15.51-.07.5-.08.5.1.5-.09.51v.5l0,.51.12.5V94l-.12.5.06.51,0,.5-.06.51.1.5,0,.51v.5l-.11.5v.51l0,.5.09.5-.06.51-.06.5.07.51,0,.5-.12.51,0,.5,0,.51-.07.51.11.5,0,.51v.5l-.06.51-.06.5.07.51v1l.07.51-.09.51,0,.5.11.51-.08.51v.5l.09.51v1l-.13.5.09.51-.06.5,0,.51-.08.5,0,.51,0,.51v1l0,.51,0,.51-.05.51,0,.51,0,.51-.05.51,0,.51,0,.5.11.51,0,.52-.05.51,0,.51,0,.53v.54l.1.53-.06.53,0,.54V126l0,.54.13.5-.12.5.1.51,0,.5-.1.5-.06.51.1.5,0,.5-.06.51.15.5-.09.5.07.51-.1.5.07.51,0,.5,0,.5v.5l-.1.5.06.51-.1.5.12.5-.07.51.09.5,0,.51,0,.5v1.52l.07.51-.07.5,0,.51v.51l.05.51-.11.49,0,.53-.31.41-.24.44-.25.44-.4.31-.41.31-.49.14-.44.25-.38.34-.49.16-.46.2-.42.29-.46.21-.44.23-.43.26-.45.22-.45.22-.38.35-.44.22-.48.16-.39.34-.47.17-.42.27-.44.24-.47.19-.41.3-.42.26-.48.17-.43.27-.48.17-.42.28-.43.26-.43.27-.47.18-.4.32-.5.13-.45.24-.39.33-.47.17-.43.27-.4.32-.48.17-.47.18-.39.33-.44.25-.47.18-.45.23-.39.33-.48.17-.46.21-.44.26-.41.3-.45.23-.48.17-.38.35L143,158l-.38.34-.47.21-.43.25-.46.21-.46.21-.39.35-.48.17-.43.28-.46.21-.46.19-.41.33-.45.21-.45.24-.45.22-.43.25-.42.29-.45.22-.44.26-.49.16-.39.34-.45.23-.45.23-.45.24-.5.14-.38.36-.5.15-.42.29-.46.21-.42.3-.49.15-.43.27-.45.26-.48.21,0,.12-.09.12,0-.1-.44.26-.45.25-.48.17-.4.34-.45.22-.46.24-.45.22-.46.23-.49.18-.43.28-.4.33-.47.2-.49.17-.43.28-.42.3-.44.26,0-.06h0l-.47.22-.39.34-.48.19-.41.33-.51.12-.42.29-.43.3-.44.25-.44.25-.48.19-.45.23-.43.28-.48.2-.42.3-.49.17-.43.28-.46.22-.43.29-.49.18-.42.28-.45.27-.49.16-.45.26-.4.33-.5.16-.46.23-.42.32-.45.26-.48.28-.54.14-.55,0-.55-.1-.53-.13-.49-.23-.47-.18-.37-.37-.45-.21-.46-.21-.42-.28-.44-.24-.49-.14-.4-.32-.48-.16-.44-.25-.39-.31L100,174l-.45-.22-.49-.15-.44-.25-.41-.3-.42-.28-.44-.24-.5-.13-.42-.27-.46-.21-.43-.26-.43-.25-.44-.25-.47-.19-.37-.35-.49-.15-.42-.27-.41-.31-.48-.16-.42-.27-.42-.27L90.7,169l-.43-.25-.42-.28-.43-.24-.47-.18,0,0c-1,.93-2,1.91-3,2.86h0l.43.27.4.33.47.19.48.18.43.27.42.29.43.27.47.19.45.24.4.31.45.24.46.22.47.2.45.23.42.3.48.17.43.28.42.29.5.14.44.25.46.23.38.35.5.15.45.22.42.3.43.25.46.22.41.31.5.15.45.23.38.37.49.17.47.2.38.36.47.21.49.17.46.23.43.27.42.3.49.17.42.3.43.28.48.2.47.18.47.14.5.07.5.08.49-.14.49-.12.45-.22.48-.18.45-.23.45-.24.43-.26.44-.25.46-.21.41-.3.44-.26.45-.23.42-.3.44-.23.47-.19.49-.17.43-.28.43-.26.43-.27.47-.19.4-.33.48-.17.41-.32.5-.13.46-.22.41-.3.42-.29.47-.19.45-.23.46-.22.39-.33.45-.24.48-.18.45-.22.43-.28.43-.28.48-.18.4-.33.52-.11.42-.3.45-.23.47-.2.4-.32.46-.24.41-.31.47-.21.5-.17,0-.06-.07-.1.09-.13.13.11v.1l.41-.29.43-.25.48-.16.4-.3.46-.2.41-.29.47-.17.46-.21.4-.32.48-.15L133,168l.51-.12.42-.27.39-.32.48-.17.44-.23.43-.25.45-.22.41-.3L137,166l.42-.26.43-.26.46-.2.44-.24.4-.31.49-.14.4-.32.42-.27.49-.15.41-.31.47-.18.45-.22.41-.29.48-.17.42-.27.41-.3.44-.23.46-.22.44-.24.42-.28.48-.15.4-.32.44-.25.44-.24L148,160l.41-.28.49-.15.44-.24.41-.28.44-.25.45-.21.45-.24.45-.22.45-.22.44-.24.44-.24.43-.28.42-.27.46-.22.43-.26.43-.27.49-.15.38-.35.49-.17.45-.23.46-.22.44-.25-.05-.11,0,.08.47-.19.37-.35L159,154l.39-.32.46-.2.45-.19.41-.3.44-.21.47-.18.43-.24.42-.26.42-.26.45-.21.47-.17.41-.29.41-.29.49-.14.4-.31.48-.16.42-.26.4-.32.43-.26.46-.18.43-.25.47-.19.39-.33.5-.13.42-.28.38-.29.42-.24.3-.38.27-.4.23-.42.12-.47.1-.46,0-.48.07-.5-.14-.51.14-.51-.14-.51.07-.5.07-.51-.1-.51.1-.51,0-.51,0-.51-.13-.51v-.51Zm-51.5-93.22.09-.08h0v0Zm38.14,19h.07l0,0-.18-.09Zm.49,1.48-.22.12h-.11l-.18-.15-.18,0,.14-.1.23-.07.18.07.15,0Zm.27.35.11-.08,0,0,.05,0Zm.51.91h-.15l.12-.1.09.1Zm2.2.77,0,0,0,0Zm1.63.65,0,0,0,0ZM111.32,175.92h0v-.05l.12-.07Zm1.72,2.39,0,.09-.12,0-.07-.15.11-.12.18.08Zm.46-2.64.18-.1h0v0Zm.27,2.36v0l0,0Zm1.41-4.57,0,0v0l.13-.07Zm.21,2.84v0l0,.05Zm1.52-.44,0,.09-.11,0-.07-.15.1-.12.19.09Zm.45-2.64.19-.1h0v0Zm.27,2.36v0l0,0Zm1.62-1.73v0l0,.05Zm5.13-5.29,0,0,0-.08.17-.06v.19Zm4.22-.83-.06,0-.23-.09,0-.15h.18l.11.1.11,0Zm.4-1.2h0v-.07l.15-.07Zm1.7-.32,0,0-.05-.1.13-.06,0,.15Zm.86,2.4h0l.09,0Zm.21-1.75-.07,0v-.15l.13,0v.14Zm.69-1.58-.05,0-.23-.09,0-.15h.17l.12.1.1.05Zm.42.19h0Zm0-1.4-.05,0V164L133,164Zm1.7-.31,0,0-.06-.11.13-.05,0,.14Zm1.06.64-.06.06v-.15l.13-.05v.14Zm1.11-1.39h0Zm4.64-3.44h0v0l.12-.07Zm1.72,2.4,0,.09-.12,0-.07-.15.11-.12.18.09Zm.45-2.65.19-.1h0v0Zm.28,2.37v0l0,0Zm1.62-1.74v0l0,0Zm9-7.73,0,0,0-.08.17-.06v.18Zm4.22-.83-.06,0-.23-.09,0-.15h.18l.11.11.11.05Zm.4-1.21h0v-.06l.15-.08Zm1.7-.31,0,0-.05-.1.13,0,0,.14Zm1.06.64-.06.05v-.14l.14,0v.14Zm1.12-1.39Zm3.93-58.66v0l0-.07.17-.07Zm.41-1v-.06l.15-.06Zm.26-4.13h0v.13l0-.12Zm.26,15.16,0,.09-.11,0-.07-.15.1-.12.19.09Zm.07-9.55,0-.06-.16-.1h.19l.07.13v0Zm.58-1.82-.09.13h-.05v-.07Zm-.08,2.22,0,.05,0,0,0,0-.1-.09Zm-.12,6.5.19-.1h0v0Zm.27,2.37v0l0,0Zm.37-19.94-.09,0-.05-.07-.08-.23.09-.15.1.08.18.17Zm.54-10.83h.07l-.05,0-.18-.09Zm-.06,1.29.23-.07.18.07.15.05v.14l-.22.12h-.11l-.18-.15-.18,0Zm-.15,31.35h.15l.06.13Zm.49-1.11-.13,0,0,0,.05,0,.13-.08Zm0-18.3-.22-.11-.06-.08-.06-.15h.2l.07.06.1.23ZM170,71.57l-.08.05-.1-.05,0-.08.16-.1Zm.13,26.86h0l0,0Zm.05-27.18.11-.08,0,0,.06,0Zm.95-1.33,0,0-.05.05-.09-.14Zm-.06,11.47-.14.08.08-.11h0Zm-.61-8.18h0v0l.13-.07Zm.08-1,.13-.1.08.1h-.21Zm.17,5.58.09-.09v.1Zm.11,13.56h0v0l.14,0Zm.1-9.09.19.06,0,0-.05,0Zm.52,9.5-.09,0-.05,0,.06-.11.14.06Zm0-9.37-.12-.17v-.07l.07,0,.07.05.12.1Z"/><path class="cls-1" d="M130.34,74.11,127.58,71l0,0-.45,0-2.62-1.7L122,67.29,119,66.51l-2.93-1-2.92-1.14L110,63.91l-3.13-.29-3.17.34-3.22.13-3.1.83-2.81,1.57-3,1L88.72,69l-2.4,2.13-2.38,2.12-2,2.46-1.8,2.61L78.46,81,77,83.83l-.88,3-1.27,3L74.43,93l-.1,3.2.43,3.16.68,3.09.41,3.16,1,3,1.2,3,2.13,2.43,1.57,2.79,2.2,2.3,2.41,2.08,2.57,1.86,2.73,1.61,2.86,1.36,2.86,1.49,3.18.46,3.19,0,3.13.6,3.44-.42,3.37-.66,3.34-.83,3.27-1.1,3.25-1.31,2.62-2.32-.12.17-.86-.19-.29-.56-.06-1.28,1.09-.07.58,1.87,2.33-2.37L131,117.2l1.95-2.5,1.8-2.33-.24.59-.17.3-.52,1.39-.85-.48-.7-.81.9-.72.23-.72-.36-.62.6.27,1.36-.39.3,0,1.57-2.53-.06-.28.36.15,0-.19.91-3,.41-3.06.82-3,.26-3.08-.71-3.39-.33-3.4L137.79,86,136.25,83l-1.79-2.9-1.67-3-2.11-2.68-.19.07Zm-3.23,1.18.88,0-.12-.05.42.36-.74,1-.09-.41Zm1.83,24.22-.35.5-.22-.13.2.4-.59.14.26-.53-.73.31,0-.79.58-.06.53,0-.1.34Zm-1.81,10.42.36.21.64.33.21.18h-1.18l.21-.22Zm-.14-3.77.09-.63-.19.18,1-.23.44.2-.92.26Zm.74-21.44-.15-.78-.17.09.34,0,.47.8Zm-1.22-3.79.11.19.8.29-.54.69-.51-.13.27-.51Zm-1.82,11.58.4-.23.2.09-.07.29Zm.3,3.69-.27.34,0,0-.18-.2ZM123.93,70l.31.07.61.23.14.2-.26.45-.39-.37-.47.21-.19-.19ZM121.19,84.3l1.1,1,1,1.52.22.26-.63.59-.12-.24L121.62,86l-.63-.47,0-.29Zm1.6,6.37-.48,1.5-.64-.08-.22,0-.14-1,.54-.22.28-.83h.52ZM115.61,78.9l-.38-.23-.66-.3-.36.28,0-.51,1,.28.88-.18Zm1.69,23.61-1,.24,0-.56,0-.42.52-.47,0,.27.76.37Zm1.08-6.11-.68-.27,0-.39.54-.17Zm3.73.35-.9-.49,0,.15,0-.77h.58l.1.78.72-.23Zm3.92,5.82-.34-.19-1.46-.81,0-.71.09-.37-.07-.78-1.49.68-.55-.51.84-.65.87.16.37.7,1,.23.27.64.21.67Zm.28-13.39.81-.18-.23-.2.12.89-.27.56-.21-.43Zm2.4,29.83-.54-.29-.42-.54-.31-.27.24-.9.83.14.36-.52.37.58Zm.1-5.26-.48-.43-.87-1-.77-.07-.34.06.56-.61.39-.45,2.1,1.4Zm-.15-22.87.18-.07,1-1.67,1.14.85,1.38-.1-.38,1.18,1.14,1.57-.29,1.29-.68-.39-.54-.81-.39-1.46-1.88-.14Zm.24-6.81,1-.91.75.13.2-.19,0,.49-1.2,1-.74.12Zm2.41,24.63-.74.46v.14l-.31-.91-.6-1.16.42-.19,1.25-.5.39,1.16Zm2.3-8.17-.85.13-.18-.11-.53-.42-1.46-.12.21-.16,0-1.15,3.08.89Zm.43-4-.9-.6-1.93.61-.1.11.71-1.11.28-.19,1.24-1.3.73.08.22,1.4Zm-.72-8.62.23-.33.21.05.15.16Zm1.11,2.14-.6-.31,0,0,.49-.2Zm1.74,17.23-.38-.21-.11-.14-.21-.15.16-.24.36.29Zm.07-2.94-.89.27-.55-.09-.1.19-.13-.85,1.12-.65.24-.75.63.18-.09.71Zm1.24-3.26h-.95l-.28,0-.85-1.24-.12-.26.26.22.92.17,1-.26.15.57Zm1.27-7.68-.64.06,0,0-.22-.83.14-.44.12.36Zm-2.63-4.51.54.12,1.51.19.17.25-.78.57-1.28-.86-.52.18Zm-.1-5.29-.62,1.87-.14.78-1.78-.59-.11-1-.12-1.13-.77,0,.66-.73,1.14.91Zm-4.5-4.25.81-.39.36-.18.92,1.07,0,.64-1.91-.4-.36,1.59-1.3-.27-.63-1.74-.61,0-.36-.46-.31.06.38-.47.73.1.51,0,.87,1.07Z"/><path class="cls-1" d="M137.84,116.91l1.87-3,1.86-2.63.53-3.21,1.32-2.91.68-3.11-.11-3.2.39-3.14.37-3.47-1-3.35-.91-3.31-.9-3.3-.39.17-.86-.79.32-.54.37-.19-1.67-3.42-2-3.47-.22,1.13-.07-.28L137,74.8l.24-.41.11-.6.57.13-2-1.88-1.71-1.74-.59.34-1.09.37-.17-1.36h-.09l.66-.19,1-.24-2.92-2-2.51-2.1-2.74-1.79-2.89-1.54-3.14-1-3.07-1.08-3.11-1.14-3.29-.18-3.27.15-3.25.1-3.34-.22-3.2.83-3,1.42-3,1.18-3,1.38-2.88,1.6-2.69,1.93-2.36,2.31L78.52,72l-2,2.59L74.23,77l-1,3-.45-3.16.52-3.21-.61-3.21V67.19L72.62,64V60.77l.11-3.21,2-2.56,2.88-1.4-2.82-1.86-2-2.85-1.58-3-.86-3.34-.78-3.32,0,.17-1.29,3.29-1.24,3.3-1.93,3-1.54,3.17-2.68,2,3,1.13,2,2.48-.06,3.23-.43,3.24.26,3.23,0,3.24.42,3.23-.47,3.24-.13,3.23-.1,3.24.17,3.23L65.8,90l.26,3.23-.52,3.24-.1,3.23L66,103l-.06,3.23.19,3.24-.19,3.23-.31,3.24.34,3.23v3.24l-.3,3.24.22,3.23,0,3.24-.3,3.23-.08,3.24.26,3.24L65.58,145l0,3.24.41,3.24-.32,3.23L65.44,158l.46,3.24-.37,3.24,0,3.24.45,1.61v3.85l0,3.68h3.4l3.34-.07.09-3.42-.09-3.69,2.45-2.23,2.29-2.2L79.73,163l2.52-2,2.11-2.39,2.2-2.31,2.61-1.83,2.41-2.07,2.43-2,2.43-2,2.45-2,2.61-1.81,2.51-1.94,2.58-1.85,2.47-2,2.85-1.45,2.48-2,3-1.22,2.73-1.61,2.71-1.65,2.77-1.54,2.69-1.7,3-1.34-.76-1.8-.17-.71.61.25.46-.32.79.55-.46.85.47.75,2.88-1.48h-2.44l-.72-.92.06-.26.19-.65.67-.27,1.29,1.39,1.32-1.14,1.81.66-.06.26,3-1.7,3.33-.91,3.06-1.55,3.07-1.55,3.63-.8-.23-3-.11-2.91-3,1-3.07.9-2.71,1.82-3.24.49Zm3.78-20.61,1.08.61-.17.56-.54.75-.08-.7Zm-.08,4.35,1.49-.1-.25.28-.12,1.14-.68-.53-.16-.06Zm-3.41,15-.7-.42.34-.45-.29-1.13.33,0,.3.65Zm3-10.87.32.69-.36.77v1.3l-.87-.74-.52-.79-.33-.85L140,105Zm-4-27.31.65.57-.44.12-.65.22Zm-2.87-5.7,1.3.54-.86.28-.57.48Zm-.36,2.36.45-.23.19.32.94.93-.83-.32-.31-.35Zm-25.71,59.36-2.85,1.56-2.93,1.46L100.15,139l-2.85,1.58-2.58,2L92.49,145l-2.68,1.83L87,148.44l-2.12,2.5-2.35,2.23-2.52,2-2.38,2.19-2.21,2.37L73,161.88l-.1-3.15,0-3.15.25-3.16-.23-3.15.36-3.15L73,143l.13-3.16-.46-3.15.71-3.15-.45-3.15-.23-3.16.26-3.15L73,120.9l.26-3.16,0-3.15,0-3.1.92,3L76.42,117l1.88,2.68,2.18,2.44,2.4,2.23,2.78,1.74,2.68,1.85,2.7,1.91,3.12,1,3.2.71,3.16.75,3.17,1.06,3.31,0,1.12-.45Zm19.39-6.37-1.62.72-.3-.47-.63.32.52-.46.5-.23.68-2.83.94.06ZM107,129.71l-3.28-.44-3.16-1-3.35-.11-3-1.51-2.94-1.41L88.17,124l-2.5-2.18-2.06-2.58L81,117.18,79,114.61l-1.53-2.92-1.39-3-1.28-3-.6-3.24-.58-3.23-.13-3.29.41-3.26.25-3.27,1.14-3.08.79-3.19,1.52-2.9,1.31-3.06L81.41,75l1.85-2.73,2.29-2.38,2.81-1.76,2.85-1.62,3.07-1.16,3.06-1.07,3.15-.82,3.22-.42,3.24-.75,3.1.27,3.06.46,3,.73,3,.68,2.8,1.38,2.48,1.89,2.68,1.54v-.32l.55.1-.24.78.15.15,3.19,2.22h-.12l.3.29,0,.56-.06.18,2.13,2.32,2.35,2.23,1.6,2.78.71,3.16,1,3,1.19,3-.07,3.21.76,3.13-.17,3.31-.42,3.28-.79,3.22-1.23,3.08-1.59,2.89-1.67,2.83-1.8,2.76-2.21,2.47-2.4,2.28-2.9,1.63-2.92,1.47-2.7,2-3.19.88-3.18.83-3.3,0Zm28.32-13.13-.44-.4.21-.36-.5-.61,1-.27.34.21.56.57Zm3.59,4.11-1.38-.31-.33-.87-.78.18.6-.24.89-.13,0-2,1.08.84-.76.58,1.07,1.22Z"/></svg>