<?xml version="1.0" standalone="no"?>
<!DOCTYPE svg PUBLIC "-//W3C//DTD SVG 20010904//EN"
 "http://www.w3.org/TR/2001/REC-SVG-20010904/DTD/svg10.dtd">
<svg version="1.0" xmlns="http://www.w3.org/2000/svg"
 width="700.000000pt" height="700.000000pt" viewBox="0 0 700.000000 700.000000"
 preserveAspectRatio="xMidYMid meet">
<metadata>
Created by potrace 1.11, written by Peter Selinger 2001-2013
</metadata>
<g transform="translate(0.000000,700.000000) scale(0.100000,-0.100000)"
fill="#000000" stroke="none">
<path d="M3375 5826 c-56 -29 -112 -57 -125 -61 -14 -4 -52 -26 -85 -49 -33
-22 -103 -63 -156 -91 -52 -27 -113 -62 -135 -76 -21 -14 -61 -34 -89 -45 -27
-10 -65 -29 -84 -41 -19 -13 -39 -23 -45 -23 -6 0 -33 -16 -60 -35 -27 -19
-56 -35 -63 -35 -8 0 -40 -18 -72 -39 -31 -22 -102 -61 -157 -87 -54 -27 -128
-67 -164 -90 -36 -23 -76 -45 -90 -49 -13 -4 -48 -23 -77 -43 l-53 -35 25 -19
c14 -11 25 -25 25 -32 0 -7 9 -21 19 -30 18 -17 23 -15 98 32 43 27 110 64
148 82 39 19 89 47 113 63 23 15 57 33 74 39 18 7 75 36 128 67 52 30 120 67
150 83 30 16 82 44 115 63 33 18 67 34 76 34 9 1 24 10 34 21 10 11 25 20 33
20 7 0 26 9 40 19 15 10 54 33 87 50 122 64 161 87 190 108 69 48 187 103 223
103 40 0 108 -28 149 -60 14 -11 32 -20 41 -20 8 0 35 -15 61 -33 45 -33 223
-137 234 -137 3 0 28 -16 57 -35 28 -19 70 -39 93 -45 23 -5 56 -17 72 -26 17
-9 84 -47 151 -84 66 -37 135 -72 153 -78 18 -6 62 -32 99 -58 36 -25 73 -49
81 -53 35 -14 130 -73 141 -86 7 -8 19 -15 27 -15 8 0 27 -8 41 -18 79 -54
118 -50 159 14 l22 34 -42 28 c-43 29 -148 82 -162 82 -4 0 -28 15 -54 34 -25
18 -73 47 -106 64 -33 16 -98 50 -145 75 -47 25 -108 57 -137 71 -28 14 -54
30 -58 36 -3 5 -63 37 -133 70 -181 86 -245 121 -260 142 -7 10 -19 18 -27 18
-8 0 -34 13 -57 28 -24 16 -68 45 -99 66 -31 20 -93 52 -137 70 -44 18 -90 41
-103 50 -39 27 -78 19 -184 -38z"/>
<path d="M1183 5273 c-4 -11 25 -45 103 -120 127 -121 112 -105 164 -165 23
-26 50 -50 60 -53 11 -3 22 -15 25 -26 4 -10 15 -19 26 -19 12 0 19 -7 19 -18
0 -10 68 -88 153 -175 144 -148 207 -196 234 -179 5 4 23 64 39 134 l28 128
-85 87 c-174 182 -305 310 -326 321 -12 7 -30 9 -42 4 -17 -6 -2 -25 120 -150
76 -79 144 -152 149 -162 28 -53 -5 -53 -54 0 -20 22 -42 40 -49 41 -7 0 -32
25 -56 55 -24 31 -51 58 -60 61 -9 4 -40 33 -70 66 -48 52 -151 137 -166 137
-3 0 -5 -9 -5 -19 0 -11 27 -45 63 -78 34 -31 105 -102 157 -157 52 -55 125
-129 163 -164 64 -62 84 -102 52 -102 -18 0 -335 302 -413 393 -29 34 -60 66
-70 71 -9 5 -39 28 -67 51 -61 51 -84 60 -92 38z"/>
<path d="M5785 5278 c-44 -25 -130 -103 -355 -325 -129 -128 -243 -233 -252
-233 -39 0 -13 40 100 150 65 63 137 135 160 160 23 25 67 67 98 94 68 61 91
93 76 108 -14 14 -54 -15 -152 -113 -42 -41 -84 -78 -92 -82 -9 -3 -35 -30
-59 -61 -24 -30 -49 -55 -56 -55 -7 -1 -29 -19 -49 -41 -21 -22 -43 -40 -51
-40 -36 0 -1 50 136 191 113 116 146 156 135 162 -8 5 -24 5 -36 1 -23 -7
-268 -244 -268 -259 0 -5 -34 -40 -75 -78 -75 -68 -75 -69 -69 -110 7 -49 41
-182 54 -215 9 -22 11 -22 47 -7 22 9 74 52 123 103 47 48 101 101 120 119 57
51 97 99 105 122 3 11 11 21 17 21 6 0 20 9 32 20 12 11 40 36 62 55 23 20 45
47 48 60 4 14 11 25 16 25 9 0 44 31 192 172 15 14 28 36 28 47 0 24 -6 25
-35 9z"/>
<path d="M1127 5223 c-4 -3 -7 -17 -7 -31 0 -17 20 -43 68 -88 83 -77 67 -62
284 -283 175 -179 216 -226 206 -236 -14 -14 -173 130 -410 373 -44 45 -85 82
-89 82 -5 0 -9 -10 -9 -22 0 -33 57 -113 113 -160 29 -24 54 -47 56 -53 2 -5
50 -55 106 -110 90 -88 125 -129 125 -149 0 -3 -11 -6 -24 -6 -18 0 -51 28
-123 104 -131 138 -221 213 -229 192 -4 -10 8 -34 32 -64 36 -43 206 -215 250
-253 11 -9 45 -43 77 -77 55 -57 62 -62 102 -62 24 0 56 5 72 11 15 6 55 16
87 23 82 17 89 32 41 93 -32 41 -663 675 -707 710 -8 7 -18 10 -21 6z"/>
<path d="M5813 5183 c-26 -27 -68 -71 -93 -98 -25 -28 -148 -149 -273 -269
-239 -229 -343 -345 -334 -371 4 -8 19 -17 34 -20 15 -3 60 -15 100 -25 125
-35 134 -32 227 63 45 45 113 111 151 148 91 85 185 192 185 211 0 8 -3 18 -7
21 -9 10 -105 -74 -222 -196 -77 -80 -110 -107 -125 -105 -39 6 -17 41 92 149
59 58 112 112 118 120 6 8 33 31 58 53 62 50 106 112 106 148 0 15 -4 28 -8
28 -7 0 -80 -74 -140 -142 -4 -5 -30 -27 -58 -50 -28 -24 -80 -74 -115 -112
-67 -73 -176 -162 -186 -152 -10 10 22 49 113 136 48 47 106 104 128 128 23
24 103 106 179 182 102 104 137 145 137 164 0 42 -17 39 -67 -11z"/>
<path d="M3220 5097 c45 -131 91 -297 85 -307 -3 -6 -41 -34 -83 -62 -68 -45
-181 -127 -206 -149 -5 -4 73 -5 173 -2 169 4 183 3 196 -14 8 -10 15 -28 15
-40 0 -13 11 -51 24 -85 14 -35 35 -96 47 -136 l23 -73 22 63 c12 35 38 107
58 162 34 93 35 99 19 113 -17 14 -17 14 0 9 9 -3 17 -1 17 5 0 8 57 10 184 8
101 -2 182 -1 179 4 -2 4 -18 14 -35 23 -18 9 -53 33 -79 53 -27 20 -75 56
-107 79 -53 39 -58 47 -53 70 6 24 50 166 86 280 8 23 10 42 6 42 -5 0 -26
-14 -47 -31 -22 -17 -46 -35 -54 -39 -12 -7 -13 -11 -2 -21 6 -7 11 -31 10
-54 -1 -35 -2 -36 -5 -8 -8 60 -25 60 -108 2 -42 -28 -78 -56 -81 -61 -3 -4
-33 15 -67 45 -54 46 -192 151 -223 170 -7 4 -4 -14 6 -46z m176 -324 c-3 -4
-17 -8 -29 -10 -17 -2 -19 -1 -7 7 17 11 47 14 36 3z m324 -28 c0 -8 -4 -15
-10 -15 -5 0 -10 7 -10 15 0 8 5 15 10 15 6 0 10 -7 10 -15z m-155 -275 c3 -5
1 -10 -4 -10 -6 0 -11 5 -11 10 0 6 2 10 4 10 3 0 8 -4 11 -10z"/>
<path d="M2073 4704 c-7 -3 -13 -16 -13 -29 0 -12 -7 -39 -15 -58 -8 -20 -15
-50 -15 -66 0 -16 -4 -33 -10 -36 -18 -11 -11 -67 14 -109 26 -44 65 -72 89
-63 21 8 65 142 71 217 5 63 5 66 -29 102 -34 37 -68 52 -92 42z"/>
<path d="M4845 4669 l-45 -42 6 -66 c6 -76 50 -210 71 -218 38 -15 115 67 115
123 0 19 -4 40 -10 47 -5 6 -12 28 -14 47 -3 19 -11 58 -19 85 -22 79 -40 83
-104 24z"/>
<path d="M2236 4483 c-9 -26 -16 -56 -16 -67 0 -12 -9 -41 -20 -65 -33 -71 -5
-135 79 -184 l30 -18 15 29 c20 39 46 145 51 210 4 53 3 55 -41 98 -60 57 -78
57 -98 -3z"/>
<path d="M4669 4487 c-46 -43 -47 -44 -43 -98 4 -56 33 -171 53 -208 15 -28
24 -27 77 9 60 42 72 93 41 180 -9 25 -23 71 -32 103 -20 70 -33 72 -96 14z"/>
<path d="M5561 4425 c-18 -19 -41 -37 -50 -40 -9 -3 -29 -27 -46 -53 l-30 -47
-2 -220 c-2 -121 -3 -229 -3 -240 0 -11 0 -117 0 -235 0 -118 0 -222 0 -230
-2 -25 -2 -881 -1 -946 2 -87 -17 -107 -189 -194 -19 -10 -48 -32 -64 -49 -16
-17 -45 -36 -65 -42 -20 -6 -43 -17 -51 -24 -8 -6 -33 -21 -55 -32 -66 -33
-138 -74 -166 -94 -15 -10 -32 -19 -37 -19 -14 0 -128 -60 -177 -93 -22 -15
-44 -27 -48 -27 -5 0 -21 -8 -35 -18 -15 -11 -42 -24 -61 -31 -19 -6 -42 -18
-51 -26 -21 -19 -89 -58 -160 -91 -30 -14 -62 -31 -70 -39 -8 -7 -69 -40 -135
-75 -66 -34 -132 -71 -146 -81 -15 -10 -47 -27 -72 -38 -25 -11 -48 -24 -51
-30 -4 -6 -14 -11 -23 -11 -9 0 -40 -16 -70 -36 -29 -19 -88 -51 -129 -70
l-77 -35 -61 30 c-33 16 -72 36 -86 44 -14 8 -45 25 -70 37 -25 13 -54 31 -65
40 -11 10 -45 30 -76 44 -31 15 -74 38 -95 52 -21 14 -47 30 -59 34 -30 11
-132 77 -140 90 -3 5 -20 10 -37 10 -17 0 -39 6 -47 14 -9 7 -43 28 -75 45
-33 17 -64 35 -70 40 -6 5 -83 46 -171 91 -88 45 -164 86 -170 91 -5 5 -15 9
-23 9 -7 0 -39 18 -70 39 -67 45 -193 111 -213 111 -8 0 -33 15 -56 34 -23 18
-57 39 -75 46 -18 7 -62 32 -98 56 -36 23 -77 45 -92 49 -14 4 -37 19 -51 33
l-26 27 2 993 c2 984 2 992 -18 998 -11 4 -46 33 -77 66 l-57 59 -6 -33 c-6
-33 -7 -216 -4 -963 2 -570 -2 -882 -13 -953 -8 -50 -7 -70 6 -102 9 -22 16
-61 16 -86 0 -39 5 -51 31 -75 17 -16 36 -29 43 -29 6 0 35 -16 63 -35 29 -19
55 -35 59 -35 3 0 19 -9 35 -21 17 -12 74 -44 127 -71 53 -28 142 -75 197
-104 55 -29 111 -59 125 -66 14 -7 44 -25 67 -40 23 -15 48 -28 55 -28 7 0 33
-14 58 -30 25 -16 49 -30 53 -30 4 0 45 -22 91 -50 46 -27 89 -50 96 -50 8 0
21 -7 30 -15 9 -8 36 -26 61 -38 24 -13 67 -36 94 -51 28 -16 93 -51 145 -78
52 -28 102 -57 110 -64 9 -7 34 -20 55 -28 22 -8 92 -44 155 -80 195 -111 301
-161 345 -161 41 0 139 51 323 169 42 27 128 73 192 103 128 60 118 54 191
106 30 20 61 37 70 37 9 0 24 9 34 20 10 11 22 20 27 20 5 0 40 18 78 39 38
22 79 42 92 46 13 4 37 17 53 29 34 24 105 64 180 100 28 14 66 34 85 45 19
11 49 26 65 34 107 52 336 174 370 196 22 15 63 38 90 50 100 45 121 57 162
95 27 24 44 49 48 70 5 33 13 295 22 756 6 353 6 292 2 897 -2 288 -4 523 -4
523 0 0 -15 -16 -34 -35z"/>
<path d="M1853 4380 c-17 -4 -61 -20 -96 -35 -79 -33 -79 -47 0 -109 l54 -43
67 15 c37 8 76 18 87 23 11 4 37 15 58 23 55 22 57 40 6 92 -40 41 -47 44 -94
43 -27 -1 -64 -4 -82 -9z"/>
<path d="M4972 4346 c-24 -26 -42 -52 -39 -59 8 -24 99 -61 194 -77 l71 -13
47 38 c50 41 72 73 58 85 -25 22 -156 63 -218 67 l-70 6 -43 -47z"/>
<path d="M2416 4318 c-8 -18 -17 -60 -21 -92 -4 -33 -14 -74 -23 -92 -15 -32
-14 -35 12 -74 23 -35 78 -80 97 -80 7 0 28 56 61 167 30 97 24 122 -43 171
-54 40 -67 40 -83 0z"/>
<path d="M4498 4315 c-57 -43 -64 -69 -39 -153 11 -37 27 -93 36 -124 9 -32
19 -58 23 -58 20 0 75 44 98 80 24 37 26 45 16 73 -6 18 -16 64 -23 102 -12
72 -32 115 -54 115 -7 0 -32 -16 -57 -35z"/>
<path d="M2060 4206 c-77 -17 -190 -56 -190 -65 0 -15 45 -74 72 -94 27 -20
61 -24 113 -13 17 3 44 9 60 12 48 10 135 52 135 65 0 17 -102 109 -120 108
-8 -1 -40 -7 -70 -13z"/>
<path d="M4802 4167 c-29 -29 -52 -56 -52 -60 0 -5 24 -19 53 -31 50 -23 75
-30 146 -41 19 -3 38 -8 42 -11 16 -10 85 28 106 59 42 62 42 63 -44 90 -83
27 -163 47 -185 47 -8 0 -37 -24 -66 -53z"/>
<path d="M2605 4153 c-26 -39 -37 -93 -19 -93 19 0 18 -5 -11 -34 -21 -21 -25
-35 -25 -83 0 -56 2 -61 44 -102 l44 -44 26 26 c15 15 26 37 26 52 0 15 5 36
12 48 6 12 17 46 24 76 15 62 6 87 -43 132 -57 51 -59 52 -78 22z"/>
<path d="M4332 4144 c-23 -20 -49 -49 -58 -65 -13 -27 -13 -35 11 -104 14 -42
25 -85 25 -96 0 -11 14 -34 31 -51 l30 -31 44 49 c33 36 44 58 45 82 0 42 -24
100 -46 109 -15 6 -15 7 -1 18 20 14 8 79 -20 107 -19 18 -20 18 -61 -18z"/>
<path d="M2231 4025 c-18 -8 -46 -15 -62 -15 -15 0 -31 -4 -34 -10 -3 -5 -18
-10 -33 -10 -46 0 -56 -13 -38 -48 20 -39 87 -95 99 -83 6 6 17 5 28 -2 15 -9
33 -7 86 11 38 12 84 23 103 24 30 3 35 7 38 32 3 23 -5 38 -39 72 -48 49 -85
56 -148 29z"/>
<path d="M4627 3992 c-26 -26 -47 -56 -47 -65 0 -19 37 -37 76 -37 14 0 52 -9
86 -21 42 -14 64 -17 71 -10 7 7 14 7 23 0 10 -8 26 1 64 37 57 53 64 87 20
92 -14 2 -32 6 -40 9 -8 4 -26 8 -40 8 -14 1 -42 10 -62 19 -66 29 -98 22
-151 -32z m273 -66 c0 -3 -4 -8 -10 -11 -5 -3 -10 -1 -10 4 0 6 5 11 10 11 6
0 10 -2 10 -4z"/>
<path d="M2786 4001 c-15 -24 -67 -198 -63 -212 2 -9 0 -23 -5 -32 -19 -35 59
-127 108 -127 30 0 37 15 68 147 23 99 23 103 6 141 -10 23 -35 51 -56 66 -42
28 -50 31 -58 17z"/>
<path d="M4162 3964 c-71 -61 -76 -78 -52 -187 31 -133 37 -147 69 -147 27 0
68 35 89 75 15 30 12 93 -9 160 -10 33 -21 77 -24 98 -3 20 -12 37 -19 37 -7
0 -31 -16 -54 -36z m3 -74 c3 -5 1 -10 -4 -10 -6 0 -11 5 -11 10 0 6 2 10 4
10 3 0 8 -4 11 -10z"/>
<path d="M2431 3857 c-31 -6 -45 -14 -49 -29 -5 -20 -6 -20 -18 -3 -10 13 -21
16 -47 11 -42 -8 -87 -41 -87 -64 0 -22 69 -87 101 -95 29 -8 123 9 161 29 14
8 34 14 45 14 24 1 53 23 53 42 0 15 -50 66 -90 89 -19 12 -35 13 -69 6z m-81
-137 c0 -5 -2 -10 -4 -10 -3 0 -8 5 -11 10 -3 6 -1 10 4 10 6 0 11 -4 11 -10z"/>
<path d="M4478 3844 c-63 -40 -86 -96 -48 -114 65 -31 203 -62 238 -53 15 3
37 16 49 27 12 12 31 30 42 40 12 11 21 25 21 31 0 20 -34 43 -83 56 -43 12
-48 12 -62 -6 -13 -18 -14 -18 -15 -2 0 18 -23 30 -75 39 -21 4 -41 -1 -67
-18z m192 -118 c0 -3 -4 -8 -10 -11 -5 -3 -10 -1 -10 4 0 6 5 11 10 11 6 0 10
-2 10 -4z"/>
<path d="M2955 3807 c-8 -12 -15 -30 -15 -40 0 -10 -7 -31 -14 -46 -8 -15 -20
-57 -27 -93 l-12 -66 33 -46 c18 -25 36 -46 40 -46 4 0 46 -38 95 -85 48 -47
91 -85 94 -85 4 0 14 -13 24 -29 22 -37 86 -103 113 -116 24 -11 164 -165 164
-180 0 -5 -139 -149 -310 -320 -220 -220 -310 -317 -310 -333 0 -12 3 -22 6
-22 21 0 129 99 344 314 135 135 250 246 256 246 6 0 17 -6 23 -14 9 -11 4
-20 -26 -46 -31 -26 -252 -245 -461 -455 -79 -79 -89 -123 -20 -91 18 9 149
135 292 282 l259 265 195 -203 c294 -305 334 -344 366 -352 37 -9 41 -4 23 31
-14 26 -434 450 -520 523 -30 26 -35 35 -26 46 6 8 17 14 23 14 6 0 121 -111
256 -246 215 -215 323 -314 344 -314 3 0 6 10 6 22 0 16 -82 104 -277 299
l-276 278 146 152 c81 83 147 158 147 165 0 8 12 22 28 31 15 10 38 30 52 44
45 48 85 62 154 54 33 -4 73 -14 88 -21 15 -8 40 -14 57 -14 38 0 91 44 91 76
0 17 6 24 20 24 11 0 20 4 20 9 0 17 -60 53 -77 47 -9 -4 -24 1 -34 10 -10 9
-27 14 -37 12 -10 -3 -30 1 -43 8 -55 30 -77 20 -186 -85 -57 -54 -103 -106
-103 -115 0 -9 -7 -16 -15 -16 -17 0 -132 -118 -153 -156 -7 -13 -21 -24 -31
-24 -11 0 -52 -35 -94 -80 -65 -69 -77 -78 -88 -64 -15 18 -17 14 71 118 42
50 75 78 93 82 15 4 27 11 27 16 0 15 275 298 290 298 4 0 22 21 40 47 l34 46
-16 71 c-8 39 -21 87 -28 106 -7 19 -17 47 -23 63 -5 15 -14 27 -20 27 -5 0
-35 -25 -65 -55 -53 -53 -54 -56 -48 -95 3 -23 16 -68 27 -102 19 -53 20 -65
9 -99 -7 -22 -27 -50 -45 -63 -17 -13 -113 -106 -213 -205 -100 -100 -186
-181 -192 -181 -13 0 -310 296 -310 310 0 5 -5 10 -11 10 -22 0 -104 85 -122
127 -19 41 -19 43 2 102 38 110 37 130 -3 182 -20 25 -47 51 -61 57 -21 10
-27 8 -40 -11z m565 -893 c11 -12 10 -18 -3 -32 -16 -15 -18 -15 -34 0 -13 14
-14 20 -3 32 7 9 16 16 20 16 4 0 13 -7 20 -16z"/>
<path d="M2560 3670 c-25 -10 -61 -19 -80 -19 -40 -1 -80 -24 -80 -47 0 -21
77 -95 109 -104 31 -9 96 9 96 27 0 22 13 25 24 5 10 -19 13 -20 60 -5 26 9
59 24 72 34 l24 18 -23 28 c-12 15 -30 40 -40 55 -15 25 -23 28 -67 27 -27 0
-70 -9 -95 -19z"/>
<path d="M4273 3641 c-24 -27 -43 -56 -43 -64 0 -16 63 -51 113 -62 21 -6 27
-4 27 9 0 9 5 16 10 16 6 0 10 -6 10 -14 0 -18 33 -29 80 -28 27 1 44 11 75
44 71 74 66 89 -30 103 -27 4 -62 14 -76 21 -14 7 -48 16 -75 19 l-49 6 -42
-50z"/>
<path d="M2771 3496 c-13 -7 -33 -11 -43 -8 -10 2 -27 -3 -37 -12 -10 -9 -25
-14 -34 -10 -17 6 -77 -30 -77 -47 0 -5 9 -9 20 -9 14 0 20 -7 20 -24 0 -48
86 -79 142 -51 70 35 200 27 230 -14 7 -9 32 -32 56 -51 23 -18 42 -38 42 -44
0 -20 282 -307 298 -304 8 2 19 10 25 18 7 13 -6 31 -63 85 -39 39 -80 73 -90
77 -11 4 -26 20 -34 35 -15 29 -129 143 -143 143 -4 0 -19 17 -32 38 -13 20
-63 72 -112 115 -93 81 -118 91 -168 63z"/>
<path d="M2403 3123 c-48 -49 -108 -105 -133 -125 l-45 -35 -101 56 c-56 31
-126 74 -158 95 -31 22 -59 37 -62 34 -3 -4 8 -37 24 -75 16 -37 33 -79 37
-92 4 -14 23 -56 41 -95 19 -39 34 -75 34 -81 0 -6 -35 -39 -77 -73 -43 -34
-105 -89 -138 -123 l-60 -61 55 6 c117 14 237 25 275 26 40 0 40 -1 61 -57 46
-125 108 -273 114 -273 7 0 18 45 46 175 9 44 23 104 31 133 l14 52 57 0 c31
1 91 6 132 11 41 6 99 14 129 17 l54 7 -99 61 c-54 33 -119 72 -144 87 -85 49
-82 39 -54 152 56 225 64 259 59 263 -2 2 -44 -36 -92 -85z m-262 -309 c10
-13 10 -17 -1 -24 -14 -9 -50 4 -50 19 0 24 32 28 51 5z"/>
<path d="M4485 3161 c4 -25 16 -70 27 -100 10 -31 28 -94 39 -140 23 -99 23
-99 -81 -163 -124 -75 -175 -108 -189 -123 -14 -13 -10 -15 33 -15 31 0 53 6
64 17 16 16 17 16 20 0 3 -14 15 -17 61 -17 32 0 86 -3 120 -6 l61 -7 10 -41
c22 -85 83 -301 88 -310 5 -9 29 50 81 199 42 119 56 143 88 147 16 2 93 0
173 -4 80 -5 148 -7 152 -5 7 2 -84 74 -139 112 -8 6 -29 22 -46 37 -18 15
-45 37 -60 50 l-28 23 26 70 c50 130 104 279 102 281 -1 1 -26 -15 -56 -35
-29 -20 -70 -46 -90 -58 -20 -12 -36 -30 -36 -40 0 -12 -7 -17 -19 -16 -11 1
-39 -12 -62 -28 l-42 -28 -43 31 c-36 26 -157 124 -243 197 -18 15 -18 14 -11
-28z"/>
</g>
</svg>
