<?xml version="1.0" encoding="UTF-8"?>
<!-- Generator: Adobe Illustrator 18.0.0, SVG Export Plug-In . SVG Version: 6.00 Build 0)  -->
<!DOCTYPE svg PUBLIC "-//W3C//DTD SVG 1.1//EN" "http://www.w3.org/Graphics/SVG/1.1/DTD/svg11.dtd">
<svg version="1.1" id="Layer_1" xmlns="http://www.w3.org/2000/svg" xmlns:xlink="http://www.w3.org/1999/xlink" x="0px" y="0px" viewBox="0 0 80.3 80.3" enable-background="new 0 0 80.3 80.3" xml:space="preserve">
<g>
	<path fill="#F0F0EF" d="M71.8,19.4L40.6,2.4c-0.5-0.3-1.2-0.3-1.7,0L7.8,19.4c-0.6,0.3-0.9,0.9-0.9,1.6v27.5v1.3v9.9   c0,0.7,0.4,1.3,0.9,1.6l31.1,16.9c0.5,0.3,1.2,0.3,1.7,0l31.2-16.9c0.6-0.3,0.9-0.9,0.9-1.6v-9.2v-2.1V21   C72.7,20.3,72.4,19.7,71.8,19.4z"/>
	<polygon fill="#E3E2E1" points="35.1,3.1 35,3 35.1,3.1  "/>
	<polygon fill="#E3E2E1" points="34.4,3.4 34.3,3.4 34.4,3.5  "/>
	<polygon fill="#E3E2E1" points="34.4,4.7 34.4,4.7 34.5,4.7  "/>
	<polygon fill="#E3E2E1" points="34.4,4.7 34.3,4.7 34.3,4.8  "/>
	<polygon fill="#E3E2E1" points="31.7,5.9 31.6,5.9 31.7,5.9  "/>
	<polygon fill="#E3E2E1" points="35.4,3.6 35.4,3.6 35.4,3.7  "/>
	<polygon fill="#E3E2E1" points="34.6,5.1 34.6,5.1 34.6,5.2  "/>
	<polygon fill="#E3E2E1" points="33.3,4.9 33.3,4.9 33.3,5  "/>
	<polygon fill="#E3E2E1" points="32.3,6.3 32.3,6.4 32.4,6.4  "/>
	<polygon fill="#E3E2E1" points="33.4,3.5 33.4,3.5 33.3,3.5 33.4,3.6  "/>
	<polygon fill="#E3E2E1" points="33.8,4.5 33.7,4.6 33.8,4.5  "/>
	<polygon fill="#E3E2E1" points="33.5,4.3 33.4,4.4 33.5,4.4  "/>
	<polygon fill="#E3E2E1" points="34.8,3.3 34.8,3.2 34.7,3.2 34.7,3.2 34.7,3.3 34.8,3.4  "/>
	<rect x="37.7" y="3.2" fill="#E3E2E1" width="0.1" height="0.1"/>
	<polygon fill="#E3E2E1" points="52,34.8 52.1,34.6 51.8,34.6  "/>
	<polygon fill="#E3E2E1" points="35.6,3 35.5,3 35.6,3.1  "/>
	<polygon fill="#E3E2E1" points="51.1,33.8 51.5,33.6 51.2,33.4  "/>
	<polygon fill="#E3E2E1" points="51.8,35.3 52,35.3 51.8,35  "/>
	<polygon fill="#E3E2E1" points="37.2,1.7 37.1,1.7 37.2,1.8  "/>
	<polygon fill="#E3E2E1" points="36.5,3.4 36.4,3.4 36.4,3.4  "/>
	<rect x="35.6" y="4.5" fill="#E3E2E1" width="0.1" height="0.1"/>
	<polygon fill="#E3E2E1" points="36.9,2 36.9,1.9 36.8,1.8 36.8,1.9 36.8,2 36.9,2  "/>
	<polygon fill="#E3E2E1" points="36.5,3.4 36.5,3.4 36.6,3.4  "/>
	<polygon fill="#E3E2E1" points="36.5,2 36.4,2.1 36.5,2.1  "/>
	<polygon fill="#E3E2E1" points="24.6,9.6 24.6,9.4 24.5,9.5 24.5,9.5 24.5,9.5  "/>
	<rect x="21.4" y="12.1" fill="#E3E2E1" width="0.1" height="0.1"/>
	<polygon fill="#E3E2E1" points="20.8,10.6 20.8,10.6 20.8,10.7  "/>
	<polygon fill="#E3E2E1" points="20.6,10.9 20.6,10.8 20.5,10.7 20.4,10.8 20.4,10.9 20.5,10.9  "/>
	<polygon fill="#E3E2E1" points="20.1,10.9 20.1,11 20.1,11  "/>
	<polygon fill="#E3E2E1" points="62.1,32.5 61.9,32.5 62.1,32.8 62.2,32.6  "/>
	<rect x="23.9" y="10.2" fill="#E3E2E1" width="0" height="0"/>
	<polygon fill="#E3E2E1" points="18.3,14 18.2,14 18.3,14.1  "/>
	<polygon fill="#E3E2E1" points="19.1,12.5 19,12.5 19.1,12.6  "/>
	<polygon fill="#E3E2E1" points="25.2,9.9 25.2,9.8 25.1,9.8 25.1,9.9 25.1,9.9  "/>
	<polygon fill="#E3E2E1" points="17.4,13.4 17.4,13.5 17.5,13.4  "/>
	<polygon fill="#E3E2E1" points="19.2,11.9 19.2,11.9 19.2,12  "/>
	<polygon fill="#E3E2E1" points="20.1,12.3 20.1,12.3 20.3,12.3  "/>
	<polygon fill="#E3E2E1" points="30.7,7.3 30.7,7.2 30.7,7.2 30.6,7.2 30.6,7.3  "/>
	<polygon fill="#E3E2E1" points="28.4,7.8 28.5,7.8 28.5,7.7 28.4,7.6 28.3,7.7 28.3,7.7 28.4,7.8  "/>
	<rect x="28.1" y="8.3" fill="#E3E2E1" width="0.1" height="0.1"/>
	<polygon fill="#E3E2E1" points="31.3,4.9 31.3,4.9 31.2,4.9 31.3,4.9  "/>
	<polygon fill="#E3E2E1" points="29,6.7 28.9,6.7 29,6.7  "/>
	<polygon fill="#E3E2E1" points="27.3,8.6 27.3,8.5 27.2,8.5 27.2,8.5 27.2,8.6  "/>
	<polygon fill="#E3E2E1" points="26.7,8.2 26.7,8.1 26.6,8.1 26.6,8.2 26.6,8.2  "/>
	<rect x="26" y="8.9" fill="#E3E2E1" width="0" height="0"/>
	<polygon fill="#E3E2E1" points="26.3,9.1 26.4,9.1 26.4,9 26.3,9 26.2,9 26.2,9 26.3,9.1  "/>
	<rect x="26.7" y="7.2" fill="#E3E2E1" width="0" height="0"/>
	<polygon fill="#E3E2E1" points="26.9,8 26.8,8 26.9,8.1  "/>
	<rect x="26" y="9.6" fill="#E3E2E1" width="0.1" height="0.1"/>
	<polygon fill="#E3E2E1" points="20.1,12.3 20,12.3 20.1,12.3  "/>
	<polygon fill="#E3E2E1" points="17.9,52.4 17.9,52.6 18.1,52.7 18.1,52.5  "/>
	<polygon fill="#E3E2E1" points="19.1,56.5 19.3,56.3 19.1,56.3  "/>
	<polygon fill="#E3E2E1" points="18.5,54.2 18.7,54.2 18.9,54.2 18.6,53.9  "/>
	<rect x="18.2" y="55.8" fill="#E3E2E1" width="0.2" height="0.2"/>
	<polygon fill="#E3E2E1" points="17.2,51.7 16.8,51.5 16.4,51.7 16.4,51.9 16.5,52.1 16.8,52.3 17,52.3 17.4,52.1 17.3,51.9  "/>
	<polygon fill="#E3E2E1" points="17.7,49.2 17.7,49.3 17.9,49.3 17.8,49.1  "/>
	<polygon fill="#E3E2E1" points="29.1,33.4 28.9,33.6 29.2,33.8  "/>
	<polygon fill="#E3E2E1" points="16.8,49.6 16.6,49.5 16.4,49.5 16.6,49.8  "/>
	<polygon fill="#E3E2E1" points="20.8,36.4 20.6,36.3 20.3,36.5 20.6,36.7  "/>
	<polygon fill="#E3E2E1" points="16.9,33.1 16.7,32.9 16.5,33 16.7,33.3  "/>
	<polygon fill="#E3E2E1" points="26.8,38.9 26.5,39.1 26.8,39.2  "/>
	<polygon fill="#E3E2E1" points="18.5,32.5 18.3,32.5 18.2,32.6 18.3,32.8  "/>
	<polygon fill="#E3E2E1" points="59.7,51.4 59.5,51.3 59.5,51.6 59.7,51.6  "/>
	<polygon fill="#E3E2E1" points="61.7,50.4 61.6,50.5 61.9,50.4  "/>
	<polygon fill="#E3E2E1" points="61.8,51.7 62,51.7 61.9,51.4 61.4,51.3 61.5,51.5  "/>
	<polygon fill="#E3E2E1" points="61.4,52 61.2,51.9 61.1,52.1 61.3,52.3  "/>
	<polygon fill="#E3E2E1" points="63.7,48.5 63.8,48.3 63.9,48.1 63.6,48 63.5,48.2 63.4,48.4 63.4,48.6  "/>
	<polygon fill="#E3E2E1" points="64.2,49.7 64.1,49.4 63.9,49.4 63.9,49.7 64.1,49.8  "/>
	<polygon fill="#E3E2E1" points="61.2,53.3 61,53.3 61.1,53.4  "/>
	<polygon fill="#E3E2E1" points="39.6,50.3 40.2,50.9 40.8,50.3 40.2,49.7  "/>
	<polygon fill="#E3E2E1" points="52.7,41.2 52.5,41 52.3,41.2 52.5,41.4  "/>
	<polygon fill="#E3E2E1" points="28.3,35.3 28.6,35.3 28.5,35  "/>
	<polygon fill="#E3E2E1" points="27.7,41.2 27.8,41.4 28,41.2 27.8,41  "/>
	<polygon fill="#E3E2E1" points="55,54.4 55,54.7 54.7,54.7 54.6,54.9 55.3,55 55.4,54.9 55.4,54.7  "/>
	<polygon fill="#E3E2E1" points="58.7,51.7 58.5,51.7 58.4,51.9 58.6,51.9  "/>
	<polygon fill="#E3E2E1" points="38.3,19 38.4,18.8 38.4,18.6 38.2,18.5 38,18.5 38,18.7  "/>
	<polygon fill="#E3E2E1" points="39.7,22.3 39.6,22.2 39.5,22.5 39.7,22.5  "/>
	<polygon fill="#E3E2E1" points="63.8,33 63.6,32.9 63.5,33.1 63.7,33.3  "/>
	<rect x="39.8" y="19.7" fill="#E3E2E1" width="0.2" height="0.2"/>
	<rect x="40.5" y="19" fill="#E3E2E1" width="0.2" height="0.2"/>
	<polygon fill="#E3E2E1" points="41.2,24.2 41,24.2 41.1,24.3  "/>
	<polygon fill="#E3E2E1" points="40.3,17.5 40,17.4 40,17.7 40.2,17.7  "/>
	<rect x="37.6" y="17.2" fill="#E3E2E1" width="0.2" height="0.2"/>
	<polygon fill="#E3E2E1" points="53.5,39.2 53.8,39.1 53.5,38.9  "/>
	<polygon fill="#E3E2E1" points="60,36.5 59.7,36.3 59.5,36.4 59.7,36.7  "/>
	<polygon fill="#E3E2E1" points="37.8,19 37.9,18.8 37.6,18.8 37.7,19  "/>
	<polygon fill="#E3E2E1" points="37,20.7 36.9,20.7 37,20.9  "/>
	<polygon fill="#E3E2E1" points="36.6,19.2 36.4,19.1 36.4,19.3 36.5,19.4  "/>
	<polygon fill="#E3E2E1" points="41.4,22.9 41.2,22.8 41.2,23 41.3,23.2  "/>
	<polygon fill="#E3E2E1" points="43.8,19.4 43.9,19.2 43.9,19 43.6,18.9 43.5,19.1 43.4,19.3 43.5,19.5  "/>
	<polygon fill="#E3E2E1" points="43.5,15.3 43.5,14.8 43.3,14.7 43.2,14.8 43.2,15.6 43.4,15.5  "/>
	<polygon fill="#E3E2E1" points="44.2,20.6 44.2,20.3 44,20.3 44,20.6 44.1,20.7  "/>
	<polygon fill="#E3E2E1" points="47.1,21.4 46.9,21.4 46.8,21.6 47.1,21.6  "/>
	<polygon fill="#E3E2E1" points="43.4,16.2 43.3,15.9 43.1,15.9 43.2,16.1  "/>
	<polygon fill="#E3E2E1" points="41.4,24.1 41.3,23.9 41.2,23.8 41,23.7 41,23.9 41.1,24.1  "/>
	<polygon fill="#E3E2E1" points="41.4,15.9 41.2,15.8 41.3,16.1  "/>
	<polygon fill="#E3E2E1" points="42.7,18.4 42.6,18.5 42.8,18.4  "/>
	<polygon fill="#E3E2E1" points="28.6,34.6 28.2,34.6 28.4,34.8  "/>
	<rect x="41.4" y="18.3" fill="#E3E2E1" width="0.2" height="0.2"/>
	<polygon fill="#E3E2E1" points="41.7,21.3 41.7,21.4 41.9,21.3  "/>
	<polygon fill="#E3E2E1" points="64.4,15 64.4,15 64.4,15.1  "/>
	<polygon fill="#E3E2E1" points="59.7,69.8 59.7,69.8 59.7,69.8  "/>
	<polygon fill="#E3E2E1" points="61.8,68.6 61.9,68.6 61.9,68.6 61.9,68.5 61.8,68.5  "/>
	<polygon fill="#E3E2E1" points="64.1,66.1 64.1,66.2 64.2,66.2 64.2,66.1  "/>
	<polygon fill="#E3E2E1" points="61.2,68.1 61.2,68.1 61.2,68  "/>
	<polygon fill="#E3E2E1" points="60.7,69 60.7,69.1 60.8,69.1 60.8,69.1 60.8,69  "/>
	<polygon fill="#E3E2E1" points="60.2,68.4 60.2,68.4 60.3,68.5 60.3,68.4  "/>
	<polygon fill="#E3E2E1" points="60.9,67.2 60.8,67.3 60.9,67.3 60.9,67.4 60.9,67.3  "/>
	<polygon fill="#E3E2E1" points="62.5,66.5 62.6,66.4 62.6,66.4  "/>
	<polygon fill="#E3E2E1" points="63.6,67.6 63.6,67.5 63.6,67.5  "/>
	<polygon fill="#E3E2E1" points="62.4,67.2 62.4,67.1 62.4,67.1  "/>
	<rect x="61.9" y="68.3" fill="#E3E2E1" width="0" height="0"/>
	<rect x="62.3" y="66.1" fill="#E3E2E1" width="0.1" height="0.1"/>
	<polygon fill="#E3E2E1" points="61.5,67.1 61.5,67 61.4,67.1  "/>
	<polygon fill="#E3E2E1" points="11.3,62.6 11.4,62.6 11.5,62.6 11.4,62.5  "/>
	<polygon fill="#E3E2E1" points="11.6,63.1 11.6,63.1 11.7,63.1 11.6,63  "/>
	<polygon fill="#E3E2E1" points="11.7,64.2 11.7,64.2 11.7,64.1 11.7,64.2  "/>
	<polygon fill="#E3E2E1" points="58.5,69.4 58.5,69.4 58.4,69.4  "/>
	<polygon fill="#E3E2E1" points="12,64 12.1,64.1 12.1,64.1 12.1,64  "/>
	<polygon fill="#E3E2E1" points="10.2,62.2 10.2,62.1 10.1,62.2  "/>
	<polygon fill="#E3E2E1" points="10.2,62.1 10.4,62.1 10.2,62.1  "/>
	<polygon fill="#E3E2E1" points="57.6,69.4 57.6,69.3 57.5,69.3  "/>
	<rect x="58.3" y="68.4" fill="#E3E2E1" width="0.1" height="0.1"/>
	<rect x="32.8" y="74.4" fill="#E3E2E1" width="0" height="0"/>
	<polygon fill="#E3E2E1" points="57.3,70.3 57.3,70.4 57.3,70.3  "/>
	<polygon fill="#E3E2E1" points="12,63.2 11.9,63.1 11.8,63.2 11.8,63.3 11.9,63.4 12,63.4 12.1,63.4 12.2,63.3 12.1,63.2  "/>
	<polygon fill="#E3E2E1" points="65,66.7 65,66.8 65.1,66.8 65.2,66.8 65.1,66.7  "/>
	
		<rect x="69.3" y="64.7" transform="matrix(-0.8938 -0.4485 0.4485 -0.8938 102.2453 153.6047)" fill="#E3E2E1" width="0.1" height="0.1"/>
	<polygon fill="#E3E2E1" points="71.7,61.6 71.8,61.7 71.8,61.6 71.8,61.6  "/>
	<rect x="71.9" y="61" fill="#E3E2E1" width="0.1" height="0.1"/>
	<polygon fill="#E3E2E1" points="69.1,63.9 69.2,63.9 69.2,63.9  "/>
	<polygon fill="#E3E2E1" points="72,62.1 72,62.2 72,62.1 72,62.1  "/>
	<polygon fill="#E3E2E1" points="69,64.4 68.9,64.5 69,64.5 69.1,64.5 69,64.4  "/>
	<polygon fill="#E3E2E1" points="73.4,26.8 73.4,26.8 73.5,26.8 73.4,26.8  "/>
	<polygon fill="#E3E2E1" points="74.9,28.8 75,28.8 74.9,28.8  "/>
	<polygon fill="#E3E2E1" points="68.8,63 68.8,62.9 68.7,62.9  "/>
	<polygon fill="#E3E2E1" points="64.6,66.8 64.6,66.8 64.7,66.8 64.7,66.8 64.7,66.8  "/>
	<polygon fill="#E3E2E1" points="72.4,62.2 72.3,62.2 72.2,62.3 72.2,62.3 72.3,62.4 72.4,62.4 72.5,62.4 72.5,62.3 72.5,62.3  "/>
	<polygon fill="#E3E2E1" points="72.1,63.2 72.1,63.2 72.1,63.2 72,63.2  "/>
	<polygon fill="#E3E2E1" points="65.7,66.3 65.8,66.4 65.8,66.3 65.8,66.2 65.8,66.3  "/>
	<polygon fill="#E3E2E1" points="9.3,61.8 9.3,61.7 9.3,61.8  "/>
	<polygon fill="#E3E2E1" points="65.2,66.2 65.3,66.2 65.3,66.2  "/>
	<polygon fill="#E3E2E1" points="64.8,65 64.8,65 64.7,65 64.8,65.1 64.9,65.1  "/>
	<polygon fill="#E3E2E1" points="64.9,65.2 64.9,65.2 64.8,65.1  "/>
	<polygon fill="#E3E2E1" points="68.5,64.5 68.4,64.5 68.3,64.5 68.3,64.6 68.3,64.7 68.5,64.7 68.6,64.7 68.6,64.6 68.6,64.5  "/>
	<polygon fill="#E3E2E1" points="68.1,64.4 68.1,64.4 68.1,64.4 68,64.3  "/>
	<rect x="68" y="63.3" fill="#E3E2E1" width="0.1" height="0.1"/>
	<polygon fill="#E3E2E1" points="66.4,64.2 66.5,64.2 66.5,64.1  "/>
	<rect x="65.8" y="66.1" fill="#E3E2E1" width="0" height="0"/>
	<polygon fill="#E3E2E1" points="67.8,63.9 67.9,63.9 67.9,63.9 67.9,63.8  "/>
	<rect x="6.7" y="50.3" fill="#E3E2E1" width="0.1" height="0.1"/>
	<polygon fill="#E3E2E1" points="6.2,43.3 6.2,43.4 6.3,43.4 6.3,43.4  "/>
	<polygon fill="#E3E2E1" points="5.7,60.2 5.7,60.2 5.7,60.2 5.7,60.1  "/>
	<polygon fill="#E3E2E1" points="6.1,44.1 6.1,44 6.1,44 6,44 6,44.1  "/>
	<polygon fill="#E3E2E1" points="5.4,59.6 5.5,59.7 5.5,59.6 5.5,59.6  "/>
	<polygon fill="#E3E2E1" points="5.5,56.6 5.4,56.6 5.4,56.6  "/>
	<polygon fill="#E3E2E1" points="5.8,61.3 5.8,61.3 5.8,61.2 5.7,61.2  "/>
	<polygon fill="#E3E2E1" points="6.2,55.8 6.3,55.8 6.2,55.7  "/>
	<polygon fill="#E3E2E1" points="5.4,56.6 5.4,56.5 5.4,56.6  "/>
	<polygon fill="#E3E2E1" points="6.1,60.3 6,60.2 5.9,60.3 5.9,60.4 6,60.5 6.1,60.5 6.2,60.5 6.2,60.4 6.2,60.3  "/>
	<polygon fill="#E3E2E1" points="6.1,61.1 6.2,61.2 6.2,61.2 6.2,61.1  "/>
	<polygon fill="#E3E2E1" points="5.8,45.4 5.8,45.3 5.8,45.4  "/>
	<polygon fill="#E3E2E1" points="6,60 5.9,59.9 5.8,60 5.9,60 5.9,60  "/>
	<rect x="5.6" y="59.1" fill="#E3E2E1" width="0.1" height="0.1"/>
	<polygon fill="#E3E2E1" points="6.1,54.1 6.2,54.1 6.2,54 6.1,54 6,53.9 6,54 6,54.1  "/>
	<polygon fill="#E3E2E1" points="5.3,52.1 5.3,52.1 5.2,52 5.2,52.1  "/>
	<rect x="5.4" y="49.2" transform="matrix(0.8935 0.449 -0.449 0.8935 22.6791 2.8155)" fill="#E3E2E1" width="0.1" height="0.1"/>
	<polygon fill="#E3E2E1" points="5,57.6 5,57.6 5,57.6  "/>
	<polygon fill="#E3E2E1" points="5.1,54.1 5.1,54.2 5.1,54.2 5.1,54.3 5.2,54.3 5.2,54.2  "/>
	<polygon fill="#E3E2E1" points="5.3,48.4 5.2,48.5 5.3,48.5  "/>
	<polygon fill="#E3E2E1" points="5.8,44.2 5.7,44.3 5.8,44.3  "/>
	<polygon fill="#E3E2E1" points="5.2,54.1 5.2,54.2 5.3,54.2 5.3,54.1  "/>
	<polygon fill="#E3E2E1" points="5.2,60.8 5.2,60.9 5.3,60.9 5.3,60.8  "/>
	<rect x="5.3" y="54.6" fill="#E3E2E1" width="0.1" height="0.1"/>
	<polygon fill="#E3E2E1" points="5.7,45.9 5.6,45.9 5.7,46  "/>
	<polygon fill="#E3E2E1" points="6.5,43.1 6.4,43.2 6.5,43.2  "/>
	<polygon fill="#E3E2E1" points="9.2,62.4 9.2,62.3 9.2,62.4  "/>
	<polygon fill="#E3E2E1" points="7.5,49.7 7.5,49.7 7.6,49.7 7.6,49.7  "/>
	<polygon fill="#E3E2E1" points="6.4,55.2 6.4,55.3 6.5,55.5 6.5,55.5 6.5,55.4 6.6,55.3 6.5,55.2  "/>
	<polygon fill="#E3E2E1" points="7.3,50.3 7.4,50.3 7.4,50.2 7.3,50.2  "/>
	<polygon fill="#E3E2E1" points="16,15.2 15.9,15.3 16,15.3  "/>
	<polygon fill="#E3E2E1" points="5.2,49 5.1,49 5,49 5,49.1 5.1,49.1  "/>
	<polygon fill="#E3E2E1" points="6.5,50.2 6.5,50.2 6.5,50.1  "/>
	<polygon fill="#E3E2E1" points="7.4,44.1 7.4,44.1 7.3,44  "/>
	<polygon fill="#E3E2E1" points="7.1,44.3 7.2,44.2 7.1,44.2 7,44.2 7,44.3 7.1,44.4  "/>
	<polygon fill="#E3E2E1" points="6.7,44.4 6.6,44.4 6.7,44.4  "/>
	<polygon fill="#E3E2E1" points="6.7,45.8 6.7,45.7 6.6,45.7  "/>
	<polygon fill="#E3E2E1" points="7.3,55.2 7.3,55.1 7.3,55.1  "/>
	<polygon fill="#E3E2E1" points="17.1,12.4 17,12.4 17,12.4 17,12.5  "/>
	<polygon fill="#E3E2E1" points="6.8,49.2 6.8,49.1 6.7,49.2 6.7,49.2 6.7,49.2  "/>
	<polygon fill="#E3E2E1" points="6.7,56.2 6.8,56.2 6.8,56.2  "/>
	<polygon fill="#E3E2E1" points="6.7,45.7 6.8,45.7 6.7,45.7  "/>
	
		<rect x="7.2" y="52.5" transform="matrix(-0.894 -0.4481 0.4481 -0.894 -9.8991 102.6328)" fill="#E3E2E1" width="0.1" height="0.1"/>
	<polygon fill="#E3E2E1" points="7.1,62.3 7.1,62.3 7.2,62.3 7.1,62.3  "/>
	<polygon fill="#E3E2E1" points="7.1,49.5 7,49.4 7,49.4 7,49.5 7,49.5 7.1,49.5  "/>
	<g>
		<g>
			<path fill="#D2B887" d="M14.2,15l0.1,0.4l0.6,0.7l0.7-0.4l0.6-0.4l0.6-0.4l0.6-0.3l0.6-0.4l0.7-0.2l0.6-0.4l0.7-0.3l0.6-0.4     l0.6-0.4l0.6-0.3l0.7-0.2l0.6-0.4l0.7-0.3l0.6-0.4l0.6-0.3l0.6-0.4L26,9.9l0.7-0.3l0.7-0.3l0.6-0.5l0.7-0.2l0-0.1l0.1-0.1l0,0.1     l0.6-0.4l0.7-0.2l0.6-0.5l0.7-0.2l0.6-0.5l0.7-0.3l0,0l0,0l0.6-0.4l0.7-0.2l0.5-0.5l0.7-0.2l0.6-0.4l0.6-0.4L36.8,4l0.6-0.3     l0.6-0.4l0.6-0.3l0.7-0.3l0.9-0.2l0.9,0.2L41.7,3l0.6,0.3l0.6,0.5L43.6,4l0.6,0.4l0.6,0.4l0.6,0.4l0.6,0.3l0.6,0.4l0.6,0.3     l0.6,0.4l0.7,0.2l0.6,0.5l0.6,0.4l0.6,0.3L51,8.2l0.7,0.2l0.6,0.3L53,9.1l0.6,0.4l0.7,0.3l0.6,0.4l0.6,0.3l0.6,0.3l0.6,0.4     l0.7,0.2l0.6,0.3l0.6,0.4l0.6,0.4l0.5,0.5l0.7,0.2l0.6,0.4l0.6,0.4l0.7,0.3l0.5,0.5l0.7,0.2l0.6,0.5l0.7,0.2l0.6,0.3l0.7-0.5     l0.1-0.3l0.7-0.8l0,0l-0.6-0.4l-0.6-0.4L65,13.2L64.4,13l-0.6-0.4l-0.7-0.2L62.5,12l-0.6-0.5l-0.6-0.3l-0.6-0.3L60,10.6l-0.6-0.4     l-0.6-0.4l-0.7-0.3l-0.7-0.2l-0.6-0.5l-0.6-0.4l-0.7-0.2L55,7.9l-0.5-0.5l-0.7-0.2l-0.6-0.4l-0.6-0.3l-0.7-0.3l-0.6-0.3l-0.7-0.3     l-0.7-0.3l-0.6-0.4l-0.7-0.3L48.1,4l-0.7-0.2l-0.6-0.5l-0.6-0.4l-0.7-0.3L45,2.2l-0.6-0.4l-0.6-0.3l-0.7-0.3L42.4,1l-0.6-0.3     l-0.6-0.4l-0.6-0.3L39.9,0l-0.6,0.3l-0.6,0.3L38,0.9l-0.6,0.3l-0.6,0.4l-0.6,0.3l-0.7,0.2l-0.6,0.4l-0.6,0.4l-0.6,0.4l-0.6,0.4     l-0.7,0.3l-0.6,0.4l-0.7,0.3l-0.7,0.3L30,5.4l-0.6,0.3l-0.6,0.4l-0.1,0l0.2,0l-0.2,0.1l-0.1-0.1l0,0L28,6.4l-0.7,0.2l-0.6,0.5     l-0.6,0.3l-0.7,0.2l-0.6,0.5l-0.6,0.4l-0.7,0.2l-0.6,0.4l-0.6,0.4l-0.6,0.4l-0.6,0.3l-0.7,0.3l-0.6,0.4l-0.7,0.3l-0.7,0.3     l-0.6,0.4l-0.6,0.4l-0.6,0.3L16,13l-0.7,0.2l-0.6,0.4L14.1,14l-0.6,0.4l-0.1,0L14.2,15z M64.5,15l0,0.2l0,0L64.5,15z M37.7,3.1     l0.1,0L37.7,3.1l0.1,0L37.7,3.1z M37.2,1.7l-0.1,0.1l0,0L37.2,1.7z M36.7,1.9l0.1-0.1l0,0.1L36.7,1.9l0.2,0.2l-0.2,0L36.7,1.9z      M36.5,2l0,0.2l0,0L36.5,2z M36.4,3.3L36.4,3.3L36.4,3.3L36.4,3.3l0,0.1l-0.1,0L36.4,3.3z M35.6,4.5l0.1,0L35.6,4.5l0.1,0     L35.6,4.5z M35.6,2.9l0,0.2l0,0L35.6,2.9z M35.5,3.5l0,0.2l0-0.1L35.5,3.5z M35.1,3L35,3.1l0,0L35.1,3z M34.6,3.2l0.1-0.1l0,0.1     L34.6,3.2l0.2,0.2l-0.2,0L34.6,3.2z M34.7,5.1l-0.1,0.2L34.7,5.1L34.7,5.1z M34.4,3.3l0,0.2l0,0L34.4,3.3z M34.3,4.6L34.3,4.6     L34.3,4.6L34.3,4.6l0,0.1l-0.1,0L34.3,4.6z M33.7,4.5l0.1,0.1L33.7,4.5L33.7,4.5z M33.5,4.3l0,0.2l0,0L33.5,4.3z M33.4,3.5     L33.4,3.5L33.4,3.5L33.4,3.5L33.4,3.5z M33.4,4.8l0,0.2l0-0.1L33.4,4.8z M32.3,6.3l0.1,0.1L32.3,6.3L32.3,6.3z M31.6,5.8l0.1,0.1     L31.6,5.8L31.6,5.8z M31.3,4.8L31.3,4.8L31.3,4.8L31.3,4.8L31.3,4.8z M30.7,7.1L30.7,7.1L30.7,7.1L30.7,7.1L30.7,7.1L30.7,7.1z      M29,6.6L29,6.8L29,6.6L29,6.6z M28.3,7.6l0.1,0l0,0.2l0-0.1l0,0.1l-0.1,0l-0.1-0.1L28.3,7.6z M28.1,8.3l0.2,0L28.1,8.3l0.1,0.1     L28.1,8.3z M27.2,8.4l0.1,0.1l-0.1,0L27.2,8.4l0,0.1L27.2,8.4z M26.9,8l-0.1,0.1L26.9,8L26.9,8z M26.7,7.1l0.1,0L26.7,7.1l0.1,0     L26.7,7.1z M26.6,8.1l0.1,0L26.6,8.1L26.6,8.1l0,0.1L26.6,8.1z M26.2,8.9l0.1,0l0,0.2l0-0.1l0,0.1l-0.1,0l-0.1-0.1L26.2,8.9z      M26,8.8l0.1,0L26,8.8l0.1,0L26,8.8z M26,9.6l0.2,0L26,9.6l0.1,0.1L26,9.6z M25.1,9.7l0.1,0.1l-0.1,0L25.1,9.7l0,0.1L25.1,9.7z      M24.5,9.4l0.1,0L24.5,9.4L24.5,9.4l0,0.1L24.5,9.4z M23.9,10.2l0.1,0L23.9,10.2l0.1,0L23.9,10.2z M21.3,12l0.1,0L21.3,12l0.1,0     L21.3,12z M20.9,10.6l-0.1,0.1l0,0L20.9,10.6z M20.4,10.8l0.1-0.1l0,0.1L20.4,10.8l0.2,0.2l-0.2,0L20.4,10.8z M20.2,10.9l0,0.2     l0,0L20.2,10.9z M20.1,12.2L20.1,12.2L20.1,12.2L20.1,12.2l0,0.1l-0.1,0L20.1,12.2z M19.3,11.8l0,0.2l0,0L19.3,11.8z M19.1,12.4     l0,0.2l0-0.1L19.1,12.4z M18.4,14l-0.1,0.2L18.4,14L18.4,14z M17.4,13.4l0.1,0.1L17.4,13.4L17.4,13.4z M17,12.3L17,12.3L17,12.3     L17,12.3L17,12.3z M16,15.2l0.1,0.1L16,15.2L16,15.2z"/>
		</g>
	</g>
	<g>
		<g>
			<path fill="#D2B887" d="M74.3,25.1l-0.5,0.3l-0.2,0.4L73,26.7l-0.2,0l-0.1,0.7l0,0.7l0,0.7l0.2,0.7l-0.2,0.7l0.2,0.7l0,0.6     l-0.1,0.6l-0.1,0.7l0.1,0.7l-0.1,0.7l-0.1,0.7l0.2,0.7l-0.1,0.7l0.1,0.7l-0.1,0.7l0.1,0.7l0,0.7l0,0.7l0,0.7l-0.1,0.7l0.1,0.7     l-0.2,0.7l0.2,0.7l-0.1,0.7l0.1,0.7l-0.1,0.7l0,0.7l0,0.7l0,0.7l0,0.7l0.1,0.7L72.7,50l0,0.7l0,0.7l0.1,0.7l-0.1,0.7l0.2,0.7     l-0.2,0.7l0,0.7l0.1,0.7l-0.1,0.7l0.1,0.7l-0.2,0.7l0,0.7l0.2,0.7l-0.2,0.6l-0.4,0.5l-0.4,0.4l-0.6,0.3l-0.6,0.3l-0.6,0.4     l-0.6,0.3l-0.6,0.3L68.1,63l-0.6,0.3l-0.7,0.2L66.2,64l-0.7,0.2l-0.6,0.4L64.3,65l-0.7,0.3l-0.6,0.4l-0.6,0.4l-0.7,0.2l-0.6,0.4     l-0.7,0.2l-0.6,0.4l-0.6,0.4l-0.6,0.4L58,68.3l-0.6,0.5L56.7,69l-0.6,0.3l-0.6,0.5L54.9,70l-0.6,0.4l-0.6,0.4L53,71.1l-0.7,0.3     l-0.6,0.5l-0.6,0.3l-0.7,0.3l-0.6,0.3l-0.6,0.5l-0.7,0.2L48,73.8l-0.6,0.4l-0.6,0.4l-0.6,0.3l-0.7,0.2l-0.5,0.5l-0.7,0.1     l-0.5,0.5L43,76.6L42.4,77l-0.7,0.3L41,77.6l-0.8,0.4l-0.8-0.3l-0.7-0.3l-0.6-0.4l-0.6-0.4l-0.7-0.2l-0.6-0.4l-0.6-0.3L35,75.2     l-0.6-0.3l-0.7-0.3l-0.6-0.4l-0.6-0.3l-0.6-0.5l-0.7-0.2l-0.6-0.4l-0.6-0.4l-0.6-0.3l-0.5-0.5L28,71.6l-0.6-0.5l-0.7-0.3     l-0.6-0.4l-0.7-0.3L25,69.7l-0.7-0.3l-0.6-0.3l-0.6-0.4l-0.6-0.3l-0.7-0.2l-0.6-0.4l-0.6-0.3l-0.6-0.3l-0.6-0.4l-0.7-0.2L18,66.1     l-0.6-0.4l-0.6-0.4L16.1,65l-0.6-0.4l-0.7-0.3l-0.7-0.2l-0.6-0.4L13,63.2l-0.7-0.3l-0.7-0.3l-0.6-0.3l-0.6-0.5l-0.6-0.3l-0.6-0.4     l-0.7-0.2l-0.5-0.5L7.6,60l0.1-0.7l-0.1-0.7l-0.1-0.7l0-0.7l0-0.7l0.1-0.7l0-0.7l-0.1-0.7l0.1-0.7l-0.1-0.7l0.1-0.7l-0.1-0.7     l0-0.7L7.6,50l0.1-0.7l-0.1-0.7l0-0.7l0.1-0.7l0-0.7l-0.1-0.7L7.7,45l0-0.7l-0.1-0.7l0-0.7l-0.1-0.7l0-0.7l0-0.7L7.6,40l0-0.7     l0-0.7l-0.1-0.7l0.2-0.7l0-0.7l-0.1-0.7L7.7,35l0-0.7l-0.2-0.7l0.1-0.7l-0.1-0.7l0-0.7l0.1-0.7l0-0.7l0-0.7l-0.1-0.7l0-0.7     l0.1-0.7l0.1-0.7l-0.2-0.1L6.6,26l-0.2-0.4l-0.5-0.3l-0.5-0.7L4.9,24l0-0.1L5,24.6l-0.2,0.7l0.1,0.7l0,0.7l-0.1,0.7L4.9,28     l-0.1,0.7l-0.1,0.7l0.1,0.7l0,0.7l-0.1,0.7l0,0.7l0.1,0.7l0,0.7l-0.1,0.7L5,35l-0.1,0.7l-0.1,0.7L5,37.1l0,0.7l0,0.7l0,0.7l0,0.7     l-0.1,0.7l0.1,0.7l-0.1,0.7l0,0.7L5,43.6l-0.2,0.7l0.1,0.7L5,45.8l-0.2,0.7l0.2,0.7l-0.1,0.7l-0.1,0.7l0.1,0.7l-0.1,0.7l0,0.7     l0.1,0.7l0,0.7L4.9,53l-0.2,0.7l0,0.7l0.1,0.7l0,0.7l0,0.7l-0.2,0.7l0.1,0l-0.1,0l0.1,0l-0.2,0.7l0.1,0.7L5,59.5l0,0.7L5,60.9     l0.3,0.6l0.5,0.4l0.3,0.3l0.1-0.1l0,0l0.6,0.3l0.6,0.4l0.6,0.4l0.7,0.3l0.6,0.4l0.6,0.4l0.7,0.3l0.6,0.4l0.7,0.2l0.6,0.4l0.6,0.4     l0.7,0.3l0.6,0.4l0.6,0.3l0.7,0.2l0.5,0.5L17,68l0.6,0.4l0.6,0.4l0.7,0.2l0.6,0.4l0.6,0.4l0.7,0.2l0.6,0.4l0.6,0.4l0.6,0.3     l0.6,0.4l0.7,0.2l0.5,0.5l0.7,0.2l0.6,0.4l0.6,0.4l0.7,0.3l0.6,0.4l0.7,0.3l0.6,0.4l0.7,0.3l0.6,0.4l0.7,0.3l0.6,0.5l0.7,0.2     l0.7,0.3l0.6,0.4l0.6,0.3l0.6,0.4l0.7,0.3l0.6,0.3l0.6,0.5l0.7,0.3l0.7,0.3l0.6,0.4l0.7,0.3l0.6,0.2l0.6,0.1l0.6-0.2l0.7-0.3     l0.6-0.4l0.6-0.4l0.6-0.3l0.6-0.4l0.7-0.3l0.6-0.4l0.6-0.4l0.6-0.4l0.6-0.4l0.7-0.2l0.6-0.4l0.7-0.3l0.6-0.3l0.7-0.3l0.7-0.3     l0.6-0.5l0.6-0.4l0.6-0.4l0.7-0.2l0.6-0.5l0.7-0.3l0.6-0.4l0.7-0.3l0.6-0.4l0.7-0.2l0.6-0.4l0.6-0.4l0.6-0.4l0.7-0.2l0.6-0.5     l0.7-0.2l0.6-0.4l0.6-0.3l0.6-0.4l0.7-0.2l0.6-0.4l0.6-0.4l0.7-0.2l0.6-0.4l0.7-0.3l0.6-0.4l0.7-0.3l0.6-0.3l0.6-0.4l0.6-0.4     l0.6-0.4l0.7-0.2l0.6-0.4l0,0l0,0.1l0.7-0.3l0.6-0.4l0.7-0.4l0.5-0.5l0.4-0.6l0.2-0.7l-0.1-0.7l0-0.7l0.1-0.7l0-0.7l0.1-0.7     l-0.1-0.7l-0.1-0.7l0.1-0.7l0.1-0.7L75.4,53l0.2-0.7l-0.1-0.7l0.1-0.7l0-0.7l-0.1-0.7l-0.1-0.7l0.1-0.7l-0.1-0.7l0.1-0.7l0.1-0.7     l-0.1-0.7l0.1-0.7l0-0.7l0.1-0.7l0-0.7l0-0.7l-0.1-0.7l0-0.7l-0.1-0.7l0-0.7l0.1-0.7l0.1-0.7l-0.1-0.7l-0.1-0.7l0.1-0.7l-0.1-0.7     l0.1-0.7l-0.1-0.7l-0.1-0.7l0.1-0.6l0.1-0.6l-0.1-0.7l0-0.7l0-0.7l0-0.7l0.1-0.7l-0.1-0.7L75.4,26l0-0.7l0.2-0.7l0-0.7l-0.1,0     l-0.5,0.7L74.3,25.1z M7.1,44.3L7.1,44.3L7.1,44.3l0.1,0L7.1,44.3L7.1,44.3L7.1,44.3z M6.6,44.5L6.6,44.5l0-0.1L6.6,44.5z      M6.5,43.2L6.5,43.2l-0.1-0.1L6.5,43.2z M6.4,50.2L6.4,50.2l0-0.1L6.4,50.2z M6.1,44.1L6.1,44.1L6.1,44.1L6,44.1L6.1,44.1     L6.1,44.1z M6,54L6,54l0.1,0l0.1,0.1l-0.1,0L6,54L6,54L6,54z M5.8,44.3l-0.1-0.1l-0.1,0.1L5.8,44.3z M5.6,46L5.6,46L5.6,46     L5.6,46z M5.4,49.3L5.4,49.3L5.4,49.3L5.4,49.3L5.4,49.3z M5.2,48.5l0-0.1l-0.1,0L5.2,48.5z M5,57.5L5,57.5l0,0.1L5,57.5z      M5.1,49.1L5.1,49.1L5.1,49.1L5.1,49.1L5.1,49.1L5.1,49.1z M5.2,54.2L5.2,54.2L5.2,54.2l0-0.1L5.2,54.2L5.2,54.2L5.2,54.2z      M5.2,52.1L5.2,52.1L5.2,52.1L5.2,52.1L5.2,52.1z M5.3,60.8L5.3,60.8L5.3,60.8l0.1,0.1L5.3,60.8z M5.3,54.6L5.3,54.6L5.3,54.6     L5.3,54.6L5.3,54.6z M5.3,54.1L5.3,54.1L5.3,54.1l0,0.1L5.3,54.1z M5.4,56.7L5.4,56.7L5.4,56.7L5.4,56.7L5.4,56.7l-0.1-0.2     L5.4,56.7z M5.5,59.6L5.5,59.6L5.5,59.6L5.5,59.6L5.5,59.6z M5.6,59L5.6,59L5.6,59L5.6,59L5.6,59z M5.7,60.1L5.7,60.1L5.7,60.1     l0.1,0L5.7,60.1z M5.7,61.2l0.1,0l0,0L5.7,61.2L5.7,61.2z M5.7,45.3L5.7,45.3l0.1,0L5.7,45.3z M5.9,60L5.9,60L5.9,60l0.1,0     L5.9,60L5.9,60z M6.2,61.1L6.2,61.1L6.2,61.1L6.2,61.1L6.2,61.1z M6.2,60.4L6.2,60.4l-0.2,0l-0.2,0l0.1-0.1l0.1,0L6.2,60.4     L6.2,60.4l0.2,0.1L6.2,60.4z M6.3,55.7L6.3,55.7l0,0.1L6.3,55.7z M6.2,43.3L6.2,43.3L6.2,43.3l0,0.2L6.2,43.3z M6.4,55.4     L6.4,55.4L6.4,55.4l-0.2,0l0.2-0.1l0.1,0l0,0L6.4,55.4z M6.8,49.2L6.8,49.2L6.8,49.2L6.8,49.2L6.8,49.2L6.8,49.2z M6.8,50.4     L6.8,50.4L6.8,50.4l-0.1,0.1L6.8,50.4z M6.8,56.2L6.8,56.2l0,0.1L6.8,56.2z M6.7,45.6L6.7,45.6l0,0.2L6.7,45.6L6.7,45.6l0.2,0     L6.7,45.6z M7,49.4L7,49.4L7,49.4L7,49.4L7,49.4L7,49.4L7,49.4z M7.1,62.2L7.1,62.2l0,0.1L7.1,62.2L7.1,62.2z M7.2,52.4L7.2,52.4     L7.2,52.4L7.2,52.4L7.2,52.4z M7.3,55.1L7.3,55.1L7.3,55.1L7.3,55.1z M7.3,50.2L7.3,50.2L7.3,50.2l0.1,0L7.3,50.2z M7.4,44     L7.4,44l0,0.1L7.4,44z M7.6,49.7L7.6,49.7L7.6,49.7l0.1,0.1L7.6,49.7z M9.1,62.4l0.1,0L9.1,62.4L9.1,62.4z M9.3,61.7L9.3,61.7     l0.1,0L9.3,61.7z M10.2,62L10.2,62l0,0.2L10.2,62L10.2,62l0.2,0L10.2,62z M11.4,62.5L11.4,62.5L11.4,62.5L11.4,62.5L11.4,62.5z      M11.6,63L11.6,63L11.6,63l0.1,0L11.6,63z M11.6,64.1l0.1,0l0,0L11.6,64.1L11.6,64.1z M12.1,64L12.1,64L12.1,64L12.1,64L12.1,64z      M12.1,63.3L12.1,63.3l-0.2,0l-0.2,0l0.1-0.1l0.1,0L12.1,63.3L12.1,63.3l0.2,0.1L12.1,63.3z M32.7,74.4L32.7,74.4L32.7,74.4     L32.7,74.4L32.7,74.4z M57.4,70.3l-0.1,0l0.1,0.1L57.4,70.3z M57.5,69.3L57.5,69.3l0.1,0L57.5,69.3z M58.3,68.4L58.3,68.4     L58.3,68.4l0.1-0.1L58.3,68.4z M58.5,69.4L58.5,69.4L58.5,69.4L58.5,69.4z M59.7,69.7L59.7,69.7l0,0.1L59.7,69.7z M60.3,68.4     L60.3,68.4L60.3,68.4L60.3,68.4L60.3,68.4z M60.8,69L60.8,69L60.8,69L60.8,69L60.8,69L60.8,69z M60.9,67.3L60.9,67.3L60.9,67.3     L60.9,67.3L60.9,67.3L60.9,67.3z M61.3,68.1l-0.1,0l0.1,0.1L61.3,68.1z M61.4,67L61.4,67l0.1,0L61.4,67z M61.8,68.5L61.8,68.5     L61.8,68.5L61.8,68.5l0.1-0.1L61.8,68.5z M61.9,68.3L61.9,68.3L61.9,68.3L61.9,68.3L61.9,68.3z M62.3,66.1L62.3,66.1L62.3,66.1     l0.1-0.1L62.3,66.1z M62.5,67.1L62.5,67.1L62.5,67.1L62.5,67.1z M62.6,66.4L62.6,66.4l0,0.1L62.6,66.4z M63.6,67.5L63.6,67.5     l0,0.1L63.6,67.5z M64.2,66.1L64.2,66.1L64.2,66.1L64.2,66.1L64.2,66.1z M64.7,66.7L64.7,66.7L64.7,66.7L64.7,66.7L64.7,66.7     L64.7,66.7z M64.8,65L64.8,65L64.8,65l0.1,0.1L64.8,65L64.8,65z M64.9,65.2L64.9,65.2L64.9,65.2L64.9,65.2z M65.1,66.7L65.1,66.7     L65.1,66.7L65.1,66.7L65.1,66.7L65.1,66.7z M65.3,66.1L65.3,66.1l0,0.1L65.3,66.1z M65.7,66.3L65.7,66.3L65.7,66.3L65.7,66.3     l0.1-0.1L65.7,66.3z M65.8,66L65.8,66L65.8,66L65.8,66L65.8,66z M66.5,64.1L66.5,64.1l0,0.1L66.5,64.1z M67.9,63.8L67.9,63.8     L67.9,63.8L67.9,63.8L67.9,63.8z M68,63.3L68,63.3L68,63.3L68,63.3L68,63.3z M68.1,64.3L68.1,64.3L68.1,64.3l0.1,0L68.1,64.3z      M68.5,64.6L68.5,64.6l-0.2,0l-0.2,0l0.1-0.1l0.1,0L68.5,64.6L68.5,64.6l0.2,0.1L68.5,64.6z M68.8,62.9L68.8,62.9L68.8,62.9     L68.8,62.9z M69,64.4L69,64.4L69,64.4L69,64.4L69,64.4L69,64.4z M69.2,63.9L69.2,63.9l0,0.1L69.2,63.9z M69.3,64.6L69.3,64.6     L69.3,64.6L69.3,64.6L69.3,64.6z M71.8,61.6L71.8,61.6L71.8,61.6L71.8,61.6L71.8,61.6z M71.9,61L71.9,61L71.9,61L71.9,61L71.9,61     z M72,62.1L72,62.1L72,62.1l0.1,0L72,62.1z M72,63.2l0.1,0l0,0L72,63.2L72,63.2z M72.5,62.3L72.5,62.3l-0.2,0l-0.2,0l0.1-0.1     l0.1,0L72.5,62.3L72.5,62.3l0.2,0.1L72.5,62.3z M73.4,26.7L73.4,26.7l0,0.1L73.4,26.7L73.4,26.7z M74.9,28.7l0,0.1l0.1-0.1     L74.9,28.7z"/>
		</g>
	</g>
	<polygon fill="#D2B887" points="48.8,60.9 49.3,61.2 49.8,61.4 50.3,61.4 50.2,61.1 49.8,60.3 48.5,59.1 48.2,58.7 40.7,51.4    40.2,52  "/>
	<polygon fill="#D2B887" points="40.2,48.2 39.3,47.5 36.6,44.7 35.5,43.8 35.1,43.3 34.8,42.7 34.5,42.7 33.2,41.5 32.9,41.4    32.8,40.8 32.3,39.9 32.9,38.4 33.3,36.6 32,35 31.4,34.7 31.2,34.7 31,34.8 30.7,35.4 30.7,36.1 30.3,36.7 30,37.9 29.8,39.1    30.7,40.4 31.6,41.2 32.6,42 32.8,42.3 33.2,42.8 34.3,43.6 34.7,44.1 34.9,44.7 35.2,44.8 35.8,45.3 36.1,45.9 36.4,45.9    36.9,46.2 38.6,48.1 39.4,49 39.7,48.7  "/>
	<polygon fill="#D2B887" points="40.8,50.3 40.9,50.2 41.4,49.6 41.2,49.4 40.9,49 40.2,49.7  "/>
	<polygon fill="#D2B887" points="39.6,50.3 38.9,51 39.3,51.1 39.6,51.4 40.2,50.9  "/>
	<polygon fill="#D2B887" points="41.4,51 49.8,59.4 51.3,60.5 51.5,60.2 51.3,59.5 42.1,50.3 41.5,50.9  "/>
	<path fill="#D2B887" d="M36.3,46.9H36l-0.2-0.1l-0.3-0.6l-0.6-0.7l-1-0.9L33.4,44l-0.2-0.1l-0.3,0l0-0.3l-0.8-1l-1.5-1.3L29.2,40   l-1.1,0.1l-0.6,0.4l-0.2-0.1l-0.6,0L26.1,41L26,40.7l-0.3-0.1l-0.3,0.3l-0.6,0.3l-0.2,0.2l0,0.3l0.7,0.1l-0.1,0.6L26,43l0.6,0.2   h0.6l0.6-0.2l0.6-0.4l0.6,0.2l0.3-0.2l0.6-0.1l0.6,0.1l1.1,0.5l0.1,0.4l0.3,0.1l0.4,0.5l0.7,0.3l0.1,0.5l1.9,2.1l3.1,3.1l0.7-0.7   L36.3,46.9z M27.8,41.4l-0.1-0.2l0.1-0.1l0.2,0.2L27.8,41.4z"/>
	<polygon fill="#D2B887" points="1.4,11.1 2.6,12.1 3.8,13.4 4.9,14.2 5.1,14.7 6.3,15.9 6.9,16.2 7,16.5 7.1,16.7 7.7,16.8    7.8,17.5 8.5,18.1 9.1,18.9 11.1,20.6 11.4,21.1 12.9,22.6 13.5,22.9 14.1,23.1 14.4,23 15.2,19.7 15.4,18.5 14.9,18 13,16.2    12.8,15.8 12.4,15.3 10.9,14 9,12 8.6,11.7 8.1,11.5 7.4,11.7 10.2,14.6 10.9,15.5 12,16.4 12.5,17.2 12.5,17.5 12.2,17.6    11.9,17.5 11,16.4 10.4,16.2 8.9,14.3 8.3,14.1 6.1,11.7 5.6,11.5 4.8,10.8 4.5,10.9 4.5,11.2 4.5,11.5 6.5,13.4 7,13.7 8.4,15.3    10.1,17.1 12.1,18.9 12.1,19.4 12,19.7 11.5,19.5 10.3,18.3 9.3,17.4 7.7,15.7 7.4,15.5 6.4,14.7 4,11.9 3.7,11.8 1.8,10.2 1.2,10    1,10.1 1,10.5  "/>
	<polygon fill="#D2B887" points="5.9,22.8 7,24.1 7.6,24.5 7.9,25 8.2,25.3 8.7,25.4 9.8,25.3 11.3,24.8 12.6,24.6 13.1,24.2    12.2,22.9 10.4,21 6.7,17.2 6.4,17.1 5.9,16.6 4.7,15.3 2.9,13.7 1.2,11.7 0.2,11 0,11.3 0,11.9 0.7,12.9 2.8,14.6 3,15.1    4.5,16.4 5.3,17.5 7.7,19.6 8,20.1 9.3,21.5 9.5,21.8 9.5,22.1 7.6,20.7 5,18 4.7,17.8 3.9,17 3.4,16.7 2.9,16 0.9,14.1 0.8,14.3    0.9,15.1 1.6,16.2 2.6,17.2 3.6,18 3.9,18.5 4.9,19.5 5.4,19.8 5.5,20.1 5.9,20.5 7,21.5 7.4,22 7.6,22.5 7.4,22.7 6.9,22.7    3.4,19.1 1.4,17.4 1.2,17.6 1.2,18.1 3.5,20.7 5.3,22.5  "/>
	<path fill="#D2B887" d="M28.9,38l0.3-0.1l0.3-0.6l0.8-3.4l-0.1-0.5l-0.3-0.6l-0.7-0.7l-0.9-0.6L28,31.8l-0.2,0.6l-0.3,1.2L27,34.8   l0.1,0.9L26.8,36l0.1,0.3l0.3,0.6l1,1L28.9,38z M29.1,33.4l0.1,0.4l-0.3-0.2L29.1,33.4z M28.3,35.3l0.1-0.3l0.1,0.3H28.3z    M28.6,34.6l-0.2,0.2l-0.1-0.1L28.6,34.6z"/>
	<polygon fill="#D2B887" points="20.6,23.8 20,23 19.4,22.7 19.1,22.9 18.7,23.8 18.4,25.5 17.9,26.4 18,27.3 18.3,27.9 18.7,28.4    19.9,29.2 20.1,29.1 20.6,28.2 20.9,26.6 21.2,26 21.1,25.1 21.3,24.9 21.2,24.2  "/>
	<polygon fill="#D2B887" points="24,27 22.8,26 22.2,25.8 22,26.1 21.7,26.7 21.3,29.2 20.8,30 21.5,31.1 22,31.6 23,32.2 23.5,31    23.8,29.8 24.4,28 24.3,27.5  "/>
	<polygon fill="#D2B887" points="13.2,25.2 12,25.4 9.6,26.4 9.8,26.9 10.2,27.4 11.7,28.5 13.3,28.1 13.9,28.1 14.5,27.7    15.6,27.4 16.1,26.9 16,26.6 15.4,25.9 14.4,25.1  "/>
	<polygon fill="#D2B887" points="16.4,19.8 16.1,19.9 15.9,20 15.9,20.6 15.4,21.8 15.4,22.8 15,23.3 15,23.9 15.1,24.5 15.8,25.5    16.3,25.9 16.9,26.1 17.1,25.8 17.6,24.8 18,23.6 18.2,21.2 17,19.9  "/>
	<path fill="#D2B887" d="M19.6,36.6l0.4,0.6l1,0.1l1.3-0.3l0.4,0l1.1-0.6l0.4,0.1l0.6-0.5l-0.1-0.5l-0.9-1l-0.6-0.2L23,34l-1.5,0.3   l-0.3,0.2l0.1,0.2l0,0.3l-0.3-0.1l-0.2-0.5l-0.3,0l-1,0.3L19,35.1l-0.3,0.4l0,0.3l0.4,0.6L19.6,36.6z M20.6,36.3l0.2,0.1l-0.2,0.3   l-0.3-0.3L20.6,36.3z"/>
	<path fill="#D2B887" d="M25.6,40l1.8-0.6l0.6-0.5l-0.2-0.6L27,37.6l-0.3-0.6L26,36.9l-1.2,0.2l-1.2,0.5l-1.2,0.1L21.8,38l-0.3,0.3   l0.2,0.7L22,39l0.6,0.7l0.4,0.4l0.9,0.2l0.6-0.1l0.6-0.3l-0.1-0.4l0.3-0.2L25.6,40z M26.8,38.9l0,0.3l-0.3-0.1L26.8,38.9z"/>
	<path fill="#D2B887" d="M17.4,34.3l0.4-0.3l0.4,0.4l1.4-0.4l0.6-0.3l0.3,0h0.7l0.6-0.2L22,33l-0.1-0.5l-1.4-1.4L20.2,31l-0.6,0   l-1.1,0.4l-0.2,0.2l-0.3-0.1l-0.3,0.1l-0.3-0.1l-0.3,0.3L16.6,32L16,32l-0.3,0.1l0,0.3l0.3,0.6L17.4,34.3z M18.3,32.5l0.2,0   l-0.2,0.3l-0.1-0.3L18.3,32.5z M16.7,32.9l0.1,0.2l-0.2,0.2L16.5,33L16.7,32.9z"/>
	<polygon fill="#D2B887" points="15.8,31.2 17.2,30.9 18.4,30.4 19,30.1 19,29.8 18.8,29.4 17.2,28 14.9,28.5 12.5,29.3 13.2,30.4    13.7,30.9 14.2,31.2 14.8,31.4 15.4,31.3 15.6,31.1 15.4,30.8 15.6,31.1  "/>
	<polygon fill="#D2B887" points="24.2,31.8 24.1,32.4 24.1,33.6 25.5,35.1 25.8,35 26.3,34.6 26.5,33.9 26.5,33.3 26.9,32.7    27.3,30.9 26.9,30 25.4,28.7 25.2,28.9 24.7,29.7 24.5,30.8 24.9,30.8 25.1,31 24.5,31.2  "/>
	<polygon fill="#D2B887" points="32.1,58.7 31.9,59.1 30.6,60.3 30.1,61.1 30.1,61.4 30.5,61.4 31,61.2 31.5,60.9 40.2,52    39.6,51.4  "/>
	<polygon fill="#D2B887" points="55.8,30.8 55.7,29.7 55.2,28.9 54.9,28.7 53.4,30 53,30.9 53.5,32.7 53.8,33.3 53.8,33.9    54.1,34.6 54.6,35 54.9,35.1 56.3,33.6 56.3,32.4 56.1,31.8 55.8,31.2 55.2,31 55.5,30.8  "/>
	<path fill="#D2B887" d="M62.5,34l0.4,0.3l1.5-1.3l0.3-0.6l0-0.3L64.4,32l-0.6,0l-0.3-0.1l-0.3-0.3l-0.3,0.1l-0.3-0.1l-0.3,0.1   l-0.2-0.2L60.8,31l-0.6,0l-0.3,0.1l-1.4,1.4L58.3,33l0.3,0.4l0.6,0.2h0.7l0.3,0l0.6,0.3l1.4,0.4L62.5,34z M63.6,32.9l0.2,0.1   l-0.2,0.3l-0.2-0.2L63.6,32.9z M61.9,32.5l0.2,0l0.1,0.1l-0.1,0.3L61.9,32.5z"/>
	<polygon fill="#D2B887" points="70.5,26.9 70.8,26.4 68.3,25.4 67.1,25.2 65.9,25.1 64.9,25.9 64.4,26.6 64.3,26.9 64.7,27.4    65.8,27.7 66.4,28.1 67.1,28.1 68.7,28.5 70.1,27.4  "/>
	<path fill="#D2B887" d="M55.7,40.2l0.6,0.1l0.9-0.2l0.4-0.4l0.6-0.7l0.3-0.1l0.2-0.7L58.5,38l-0.6-0.2l-1.2-0.1l-1.2-0.5l-1.2-0.2   l-0.6,0.1l-0.3,0.6l-0.8,0.7l-0.2,0.6l0.6,0.5l1.8,0.6l0.1-0.7l0.3,0.2l-0.1,0.4L55.7,40.2z M53.5,39.2l0-0.3l0.3,0.2L53.5,39.2z"/>
	<path fill="#D2B887" d="M52.6,32.4l-0.2-0.6l-0.2-0.1l-0.9,0.6l-0.7,0.7l-0.3,0.6L50.1,34l0.8,3.4l0.3,0.6l0.3,0.1L52,38l1-1   l0.3-0.6l0.1-0.3l-0.2-0.3l0.1-0.9l-0.5-1.2L52.6,32.4z M51.1,33.8l0.1-0.4l0.3,0.3L51.1,33.8z M51.8,35.3l0.1-0.3l0.1,0.3H51.8z    M52,34.8l-0.2-0.2l0.3,0L52,34.8z"/>
	<polygon fill="#D2B887" points="65,31.3 65.5,31.4 66.1,31.2 66.7,30.9 67.1,30.4 67.8,29.3 65.5,28.5 63.1,28 61.6,29.4    61.3,29.8 61.3,30.1 61.9,30.4 63.1,30.9 64.5,31.2 64.7,31.1 64.9,30.8 64.7,31.1  "/>
	<path fill="#D2B887" d="M60.3,37.2l0.4-0.6l0.6-0.3l0.4-0.6l0-0.3l-0.3-0.4l-0.6-0.3l-1-0.3l-0.3,0l-0.2,0.5L59,35l0-0.3l0.1-0.2   l-0.3-0.2L57.3,34L57,34.3l-0.6,0.2l-0.9,1L55.4,36l0.6,0.5l0.4-0.1l1.1,0.6l0.4,0l1.3,0.3L60.3,37.2z M59.7,36.3l0.3,0.1l-0.3,0.3   l-0.2-0.3L59.7,36.3z"/>
	<polygon fill="#D2B887" points="58.7,26.7 58.3,26.1 58.1,25.8 57.5,26 56.3,27 56.1,27.5 56,28 56.6,29.8 56.8,31 57.3,32.2    58.3,31.6 58.8,31.1 59.5,30 59.1,29.2  "/>
	<polygon fill="#D2B887" points="61.6,23.8 61.2,22.9 60.9,22.7 60.4,23 59.7,23.8 59.1,24.2 59.1,24.9 59.3,25.1 59.1,26    59.4,26.6 59.8,28.2 60.3,29.1 60.4,29.2 61.6,28.4 62.1,27.9 62.3,27.3 62.4,26.4 61.9,25.5  "/>
	<polygon fill="#D2B887" points="40.2,50.9 40.7,51.4 41,51.1 41.4,51 40.8,50.3  "/>
	<path fill="#D2B887" d="M47.1,45.1l0.1-0.5l0.7-0.3l0.4-0.5l0.3-0.1l0.1-0.4l1.1-0.5l0.6-0.1l0.6,0.1l0.3,0.2l0.6-0.2l0.6,0.4   l0.6,0.2h0.6l0.6-0.2l0.7-0.7L55,41.8l0.7-0.1l0-0.3l-0.2-0.2l-0.6-0.3l-0.3-0.3l-0.3,0.1L54.2,41l-0.6-0.6l-0.6,0l-0.2,0.1   l-0.6-0.4L51.1,40l-1.3,1.3l-1.5,1.3l-0.8,1l0,0.3l-0.3,0L46.9,44l-0.4,0.6l-1,0.9l-0.6,0.7l-0.3,0.6l-0.2,0.1H44l-2.6,2.7l0.7,0.7   l3.1-3.1L47.1,45.1z M52.5,41l0.1,0.1l-0.1,0.2l-0.2-0.2L52.5,41z"/>
	<polygon fill="#D2B887" points="65,18.5 65.1,19.7 66,23 66.3,23.1 66.9,22.9 67.4,22.6 69,21.1 69.2,20.6 71.3,18.9 71.8,18.1    72.6,17.5 72.7,16.8 73.2,16.7 73.4,16.5 73.5,16.2 74.1,15.9 75.3,14.7 75.4,14.2 76.6,13.4 77.7,12.1 79,11.1 79.3,10.5    79.4,10.1 79.1,10 78.6,10.2 76.6,11.8 76.4,11.9 73.9,14.7 72.9,15.5 72.6,15.7 71,17.4 70,18.3 68.9,19.5 68.3,19.7 68.2,19.4    68.3,18.9 70.2,17.1 72,15.3 73.4,13.7 73.9,13.4 75.8,11.5 75.9,11.2 75.9,10.9 75.5,10.8 74.8,11.5 74.2,11.7 72,14.1 71.4,14.3    69.9,16.2 69.3,16.4 68.4,17.5 68.2,17.6 67.8,17.5 67.8,17.2 68.3,16.4 69.4,15.5 70.1,14.6 73,11.7 72.3,11.5 71.8,11.7 71.3,12    69.4,14 67.9,15.3 67.5,15.8 67.4,16.2 65.4,18  "/>
	<polygon fill="#D2B887" points="80.1,11 79.1,11.7 77.5,13.7 75.7,15.3 74.4,16.6 73.9,17.1 73.6,17.2 69.9,21 68.1,22.9    67.2,24.2 67.8,24.6 69,24.8 70.6,25.3 71.6,25.4 72.2,25.3 72.5,25 72.8,24.5 73.4,24.1 74.5,22.8 75,22.5 76.9,20.7 79.2,18.1    79.1,17.6 78.9,17.4 76.9,19.1 73.5,22.7 72.9,22.7 72.8,22.5 72.9,22 73.3,21.5 74.4,20.5 74.8,20.1 74.9,19.8 75.4,19.5    76.4,18.5 76.7,18 77.8,17.2 78.8,16.2 79.5,15.1 79.5,14.3 79.4,14.1 77.4,16 77,16.7 76.4,17 75.6,17.8 75.3,18 72.7,20.7    70.9,22.1 70.9,21.8 71,21.5 72.4,20.1 72.7,19.6 75.1,17.5 75.9,16.4 77.4,15.1 77.6,14.6 79.6,12.9 80.3,11.9 80.3,11.3  "/>
	<polygon fill="#D2B887" points="40.9,49 41.8,48.1 43.4,46.2 44,45.9 44.3,45.9 44.6,45.3 45.1,44.8 45.4,44.7 45.7,44.1    46.1,43.6 47.1,42.8 47.6,42.3 47.7,42 48.7,41.2 49.6,40.4 50.5,39.1 50.3,37.9 50,36.7 49.6,36.1 49.6,35.4 49.3,34.8 49.2,34.7    48.9,34.7 48.4,35 47,36.6 47.4,38.4 48,39.9 47.6,40.8 47.4,41.4 47.1,41.5 45.8,42.7 45.6,42.7 45.3,43.3 44.8,43.8 43.7,44.7    41,47.5 40.2,48.2 40.7,48.7  "/>
	<polygon fill="#D2B887" points="39.6,50.3 40.2,49.7 39.4,49 39.1,49.4 38.9,49.6 39.5,50.2  "/>
	<polygon fill="#D2B887" points="65.3,24.5 65.4,23.9 65.3,23.3 64.9,22.8 64.9,21.8 64.5,20.6 64.4,20 64.3,19.9 63.9,19.8    63.4,19.9 62.1,21.2 62.3,23.6 62.7,24.8 63.2,25.8 63.4,26.1 64,25.9 64.5,25.5  "/>
	<polygon fill="#D2B887" points="38.2,50.3 29,59.5 28.8,60.2 29,60.5 30.5,59.4 38.9,51 38.9,50.9  "/>
	<polygon fill="#D2B887" points="39.5,50.2 38.9,49.6 38.2,50.3 38.9,50.9 38.9,51 39.6,50.3  "/>
	<polygon fill="#D2B887" points="40.9,49 40.7,48.7 40.2,48.2 39.7,48.7 39.4,49 40.2,49.7  "/>
	<polygon fill="#D2B887" points="39.6,51.4 40.2,52 40.7,51.4 40.2,50.9  "/>
	<polygon fill="#D2B887" points="40.9,50.2 40.8,50.3 41.4,51 41.5,50.9 42.1,50.3 41.4,49.6  "/>
	<path fill="#D2B887" d="M35.4,19.5l-0.6,0.4l-0.7,0.5L33.3,21l-0.7,0.5l-0.8,0.6l0.9,0l0.9-0.1l0.9,0.1l0.9-0.1l0.9,0l0.9,0   l0.9-0.1l0.2,0.7l0-0.1l0.2,0l0,0.2l-0.1,0l0,0.1l0.2,0.9l0.4,0.8l0.3,0.9l0.2,0.9l0.3,0.8l0.3,0.9l0.2-0.9l0.3-0.9l0.4-0.8   l0.3-0.9l0.3-0.9l0.3-0.9l0.1-0.4h-0.2l-0.3-0.2l-0.1-0.2l0.5,0.2l0.1,0.2l0.1-0.5l0.9,0l0.9,0l0.9,0l0.9,0l0.9,0l0.9,0.1l0.9,0   l-0.7-0.5L47,21.1l-0.7-0.6L45.6,20l-0.8-0.5l-0.7-0.6l-0.7-0.5l0.2-0.9l0.3-0.8l0.3-0.8l0.2-0.9l0.3-0.8l0.2-0.9l0.3-0.9l-0.8,0.5   l-0.7,0.6l-0.6,0.4l0.3,0.2l0.1,0.2l-0.1,0.3l-0.5-0.4l0,0l-0.6,0.4l-0.8,0.5l-0.7,0.5l-0.7,0.6l-0.7-0.6L38.7,15L38,14.4l-0.8-0.5   l-0.7-0.6l-0.7-0.5l-0.7-0.5l0.3,0.8l0.3,0.9l0.2,0.9l0.3,0.9l0.3,0.8l0.2,0.9l0.3,0.8l-0.7,0.6l-0.7,0.5l0,0L35.4,19.5L35.4,19.5z    M46.9,21.4l0.2,0l0,0.2l-0.2,0L46.9,21.4z M44,20.3h0.2l0,0.2l-0.1,0.2L44,20.6V20.3z M43.5,19.1l0.1-0.2l0.3,0l0,0.3l-0.1,0.2   l-0.3,0l0-0.2L43.5,19.1z M43.2,14.8l0.2-0.2l0.2,0.1l0,0.6l-0.1,0.2l-0.2,0.1V14.8z M43.3,15.9l0.1,0.2l-0.2,0l-0.1-0.2H43.3z    M42.7,18.4h0.2l-0.2,0.2L42.7,18.4z M41.7,21.3h0.2l-0.2,0.2L41.7,21.3z M41.4,18.3h0.2v0.2h-0.2V18.3z M41.4,15.9l-0.1,0.2   l-0.1-0.3L41.4,15.9z M41.2,22.8l0.2,0.2l-0.1,0.2L41.2,23L41.2,22.8z M41,23.7l0.2,0l0.1,0.1l0,0.2h-0.2L41,23.9V23.7z M41.2,24.2   l-0.1,0.1L41,24.2H41.2z M40.5,19h0.2v0.2h-0.2V19z M40,17.4l0.2,0.1l-0.1,0.2H40V17.4z M39.8,19.7h0.2v0.2h-0.2V19.7z M39.6,22.2   l0.1,0.1v0.2h-0.2L39.6,22.2z M38.2,18.5l0.2,0.1l0,0.2L38.3,19L38,18.7l0-0.2L38.2,18.5z M37.6,17.2h0.2v0.2h-0.2V17.2z    M37.9,18.8l0,0.2l-0.2,0l-0.1-0.2L37.9,18.8z M37,20.7l0,0.3l-0.1-0.3H37z M36.4,19.1l0.2,0.1l0,0.2l-0.1-0.1V19.1z"/>
	<path fill="#D2B887" d="M56.7,55.1l0.9,0l0.9,0.1l0.9,0l0.2,0.9l0.2,0.9l0.3,0.9l0.2,0.9l0.3,0.9l0.2,0.9l0.3,0.9l0.3-0.9l0.3-0.9   l0.4-0.8l0.3-0.9l0.3-0.9l0.3-0.9l0.4-0.8l0.9-0.1l0.9,0.1l0.9,0l0.2,0v-0.1l0.2,0.1l0.6,0l0.9,0.1l0.9,0l0.9,0.1L69,55.1l-0.7-0.5   l-0.7-0.6l-0.7-0.6l0,0.2l-0.2,0l0-0.2l0.1,0l-0.6-0.5l-0.7-0.5l-0.7-0.6l0.3-0.9l0.3-0.9l0.4-0.8l0.3-0.8l0.3-0.9l0.3-0.9l0.4-0.9   l-0.8,0.5l-0.8,0.5l-0.7,0.6l-0.8,0.4l-0.7,0.6l-0.8,0.5l-0.7,0.5l-0.7-0.5l-0.7-0.5l-0.7-0.6L58.8,47l-0.7-0.6l-0.7-0.6l-0.8-0.6   l0.2,0.9l0.2,0.9l0.3,0.8l0.3,0.9l0.2,0.9l0.2,0.9l0.2,0.9L57.6,52l-0.7,0.5l-0.8,0.4l-0.7,0.5L54.6,54l-0.8,0.4L53.1,55L54,55   l0.9,0l0.9,0l0.7,0l0,0l0.1,0L56.7,55.1z M63.9,49.4h0.2l0,0.2l-0.1,0.2l-0.2-0.2V49.4z M63.5,48.2l0.1-0.2l0.3,0l0,0.3l-0.1,0.2   l-0.3,0l0-0.2L63.5,48.2z M61.7,50.4h0.2l-0.2,0.2L61.7,50.4z M61.9,51.4l0.1,0.2h-0.2l-0.3-0.2l-0.1-0.2L61.9,51.4z M61.2,51.9   l0.2,0.2l-0.1,0.2l-0.2-0.2L61.2,51.9z M61.2,53.3l-0.1,0.1L61,53.3H61.2z M59.5,51.3l0.1,0.1v0.2h-0.2L59.5,51.3z M58.5,51.7   l0.2,0l0,0.2l-0.2,0L58.5,51.7z M55.3,55l-0.6-0.1l0.1-0.2l0.3,0l0-0.3l0.3,0.2l0,0.2L55.3,55z"/>
	<path fill="#D2B887" d="M25.5,54.8l0.9,0l0.9-0.1l-0.8-0.5l-0.8-0.5l-0.8-0.5l-0.8-0.5l-0.8-0.4l-0.8-0.5l-0.7-0.5l0.2-0.9l0.2-0.9   l0.3-0.9l0.1-0.9l0.3-0.9l0.2-0.9l0.2-0.9l-0.7,0.6l-0.7,0.6L21.3,47l-0.6,0.6l-0.7,0.6l-0.7,0.5l-0.7,0.6l-0.7-0.5L17,48.4   l-0.8-0.5l-0.8-0.4L14.6,47l-0.7-0.6L13,46l0.4,0.9l0.4,0.8l0.3,0.9l0.3,0.9l0.4,0.8l0.4,0.8l0.4,0.9l-0.7,0.6l-0.7,0.5l-0.7,0.6   l-0.7,0.6l-0.6,0.7l-0.7,0.6l-0.7,0.6l0.9,0l0.9-0.1l0.9-0.2l0.9,0l0.9-0.1l0.9,0l0.9-0.1l0.3,0.9l0.3,0.8l0.4,0.8l0.3,0.9l0.4,0.8   l0.3,0.9l0.3,0.8l0.2-0.9l0.3-0.9l0.1-0.9l0.3-0.9l0.1-0.9l0.2-0.9l0.3-0.9l0.9,0l0.9-0.1l0.9-0.1l0.9,0L25.5,54.8l-0.1-0.3   l0.2,0.2L25.5,54.8L25.5,54.8z M16.6,49.5l0.2,0.1l-0.2,0.2l-0.2-0.2L16.6,49.5z M17,52.3l-0.2,0l-0.3-0.2l-0.1-0.2l0-0.3l0.5-0.1   l0.3,0.2l0.1,0.2l0.1,0.2L17,52.3z M17.7,49.3v-0.2l0.1-0.1l0.1,0.2L17.7,49.3z M17.9,52.6l0-0.2l0.1,0.1l0,0.2L17.9,52.6z    M18.4,56h-0.2v-0.2h0.2V56z M18.7,54.2l-0.2-0.1l0.1-0.3l0.2,0.3L18.7,54.2z M19.1,56.5l-0.1-0.1h0.2L19.1,56.5z"/>
</g>
</svg>
