<?xml version="1.0" encoding="UTF-8" standalone="no"?>
<!-- Generator: Adobe Illustrator 18.0.0, SVG Export Plug-In . SVG Version: 6.00 Build 0)  -->

<svg
   xmlns:dc="http://purl.org/dc/elements/1.1/"
   xmlns:cc="http://creativecommons.org/ns#"
   xmlns:rdf="http://www.w3.org/1999/02/22-rdf-syntax-ns#"
   xmlns:svg="http://www.w3.org/2000/svg"
   xmlns="http://www.w3.org/2000/svg"
   xmlns:sodipodi="http://sodipodi.sourceforge.net/DTD/sodipodi-0.dtd"
   xmlns:inkscape="http://www.inkscape.org/namespaces/inkscape"
   version="1.1"
   id="Layer_1"
   x="0px"
   y="0px"
   viewBox="0 0 215.99999 215.99999"
   enable-background="new 0 0 80.3 80.3"
   xml:space="preserve"
   sodipodi:docname="default-beer-image.svg"
   width="216"
   height="216"
   inkscape:version="0.92.2 5c3e80d, 2017-08-06"><metadata
     id="metadata1401"><rdf:RDF><cc:Work
         rdf:about=""><dc:format>image/svg+xml</dc:format><dc:type
           rdf:resource="http://purl.org/dc/dcmitype/StillImage" /><dc:title></dc:title></cc:Work></rdf:RDF></metadata><defs
     id="defs1399" /><sodipodi:namedview
     pagecolor="#ffffff"
     bordercolor="#666666"
     borderopacity="1"
     objecttolerance="10"
     gridtolerance="10"
     guidetolerance="10"
     inkscape:pageopacity="0"
     inkscape:pageshadow="2"
     inkscape:window-width="1359"
     inkscape:window-height="832"
     id="namedview1397"
     showgrid="false"
     inkscape:zoom="1.0390859"
     inkscape:cx="40.150002"
     inkscape:cy="40.150002"
     inkscape:window-x="1875"
     inkscape:window-y="49"
     inkscape:window-maximized="0"
     inkscape:current-layer="Layer_1" /><g
     id="g1394"
     transform="matrix(1.8283582,0,0,1.8283582,34.591418,34.5)"><path
       d="M 71.8,19.4 40.6,2.4 C 40.1,2.1 39.4,2.1 38.9,2.4 L 7.8,19.4 C 7.2,19.7 6.9,20.3 6.9,21 v 27.5 1.3 9.9 c 0,0.7 0.4,1.3 0.9,1.6 l 31.1,16.9 c 0.5,0.3 1.2,0.3 1.7,0 L 71.8,61.3 c 0.6,-0.3 0.9,-0.9 0.9,-1.6 V 50.5 48.4 21 c 0,-0.7 -0.3,-1.3 -0.9,-1.6 z"
       id="path904"
       inkscape:connector-curvature="0"
       style="fill:#f0f0ef" /><polygon
       points="35.1,3.1 35,3 "
       id="polygon906"
       style="fill:#e3e2e1" /><polygon
       points="34.4,3.5 34.4,3.4 34.3,3.4 "
       id="polygon908"
       style="fill:#e3e2e1" /><polygon
       points="34.5,4.7 34.4,4.7 "
       id="polygon910"
       style="fill:#e3e2e1" /><polygon
       points="34.3,4.8 34.4,4.7 34.3,4.7 "
       id="polygon912"
       style="fill:#e3e2e1" /><polygon
       points="31.7,5.9 31.6,5.9 "
       id="polygon914"
       style="fill:#e3e2e1" /><polygon
       points="35.4,3.7 35.4,3.6 "
       id="polygon916"
       style="fill:#e3e2e1" /><polygon
       points="34.6,5.2 34.6,5.1 "
       id="polygon918"
       style="fill:#e3e2e1" /><polygon
       points="33.3,5 33.3,4.9 "
       id="polygon920"
       style="fill:#e3e2e1" /><polygon
       points="32.4,6.4 32.3,6.3 32.3,6.4 "
       id="polygon922"
       style="fill:#e3e2e1" /><polygon
       points="33.3,3.5 33.4,3.6 33.4,3.5 "
       id="polygon924"
       style="fill:#e3e2e1" /><polygon
       points="33.8,4.5 33.7,4.6 "
       id="polygon926"
       style="fill:#e3e2e1" /><polygon
       points="33.5,4.4 33.5,4.3 33.4,4.4 "
       id="polygon928"
       style="fill:#e3e2e1" /><polygon
       points="34.7,3.2 34.7,3.3 34.8,3.4 34.8,3.3 34.8,3.2 "
       id="polygon930"
       style="fill:#e3e2e1" /><rect
       x="37.700001"
       y="3.2"
       width="0.1"
       height="0.1"
       id="rect932"
       style="fill:#e3e2e1" /><polygon
       points="51.8,34.6 52,34.8 52.1,34.6 "
       id="polygon934"
       style="fill:#e3e2e1" /><polygon
       points="35.6,3.1 35.6,3 35.5,3 "
       id="polygon936"
       style="fill:#e3e2e1" /><polygon
       points="51.2,33.4 51.1,33.8 51.5,33.6 "
       id="polygon938"
       style="fill:#e3e2e1" /><polygon
       points="51.8,35 51.8,35.3 52,35.3 "
       id="polygon940"
       style="fill:#e3e2e1" /><polygon
       points="37.2,1.8 37.2,1.7 37.1,1.7 "
       id="polygon942"
       style="fill:#e3e2e1" /><polygon
       points="36.4,3.4 36.5,3.4 "
       id="polygon944"
       style="fill:#e3e2e1" /><rect
       x="35.599998"
       y="4.5"
       width="0.1"
       height="0.1"
       id="rect946"
       style="fill:#e3e2e1" /><polygon
       points="36.8,1.9 36.8,2 36.9,2 36.9,1.9 36.8,1.8 "
       id="polygon948"
       style="fill:#e3e2e1" /><polygon
       points="36.6,3.4 36.5,3.4 "
       id="polygon950"
       style="fill:#e3e2e1" /><polygon
       points="36.5,2.1 36.5,2 36.4,2.1 "
       id="polygon952"
       style="fill:#e3e2e1" /><polygon
       points="24.6,9.6 24.6,9.4 24.5,9.5 "
       id="polygon954"
       style="fill:#e3e2e1" /><rect
       x="21.4"
       y="12.1"
       width="0.1"
       height="0.1"
       id="rect956"
       style="fill:#e3e2e1" /><polygon
       points="20.8,10.7 20.8,10.6 "
       id="polygon958"
       style="fill:#e3e2e1" /><polygon
       points="20.5,10.7 20.4,10.8 20.4,10.9 20.5,10.9 20.6,10.9 20.6,10.8 "
       id="polygon960"
       style="fill:#e3e2e1" /><polygon
       points="20.1,11 20.1,10.9 "
       id="polygon962"
       style="fill:#e3e2e1" /><polygon
       points="62.1,32.5 61.9,32.5 62.1,32.8 62.2,32.6 "
       id="polygon964"
       style="fill:#e3e2e1" /><rect
       x="23.9"
       y="10.2"
       width="0"
       height="0"
       id="rect966"
       style="fill:#e3e2e1" /><polygon
       points="18.3,14.1 18.3,14 18.2,14 "
       id="polygon968"
       style="fill:#e3e2e1" /><polygon
       points="19.1,12.6 19.1,12.5 19,12.5 "
       id="polygon970"
       style="fill:#e3e2e1" /><polygon
       points="25.1,9.9 25.2,9.9 25.2,9.8 25.1,9.8 "
       id="polygon972"
       style="fill:#e3e2e1" /><polygon
       points="17.5,13.4 17.4,13.4 17.4,13.5 "
       id="polygon974"
       style="fill:#e3e2e1" /><polygon
       points="19.2,12 19.2,11.9 "
       id="polygon976"
       style="fill:#e3e2e1" /><polygon
       points="20.3,12.3 20.1,12.3 "
       id="polygon978"
       style="fill:#e3e2e1" /><polygon
       points="30.6,7.3 30.7,7.3 30.7,7.2 30.6,7.2 "
       id="polygon980"
       style="fill:#e3e2e1" /><polygon
       points="28.5,7.7 28.4,7.6 28.3,7.7 28.4,7.8 28.5,7.8 "
       id="polygon982"
       style="fill:#e3e2e1" /><rect
       x="28.1"
       y="8.3000002"
       width="0.1"
       height="0.1"
       id="rect984"
       style="fill:#e3e2e1" /><polygon
       points="31.2,4.9 31.3,4.9 "
       id="polygon986"
       style="fill:#e3e2e1" /><polygon
       points="29,6.7 28.9,6.7 "
       id="polygon988"
       style="fill:#e3e2e1" /><polygon
       points="27.2,8.6 27.3,8.6 27.3,8.5 27.2,8.5 "
       id="polygon990"
       style="fill:#e3e2e1" /><polygon
       points="26.6,8.2 26.7,8.2 26.7,8.1 26.6,8.1 "
       id="polygon992"
       style="fill:#e3e2e1" /><rect
       x="26"
       y="8.8999996"
       width="0"
       height="0"
       id="rect994"
       style="fill:#e3e2e1" /><polygon
       points="26.4,9 26.3,9 26.2,9 26.3,9.1 26.4,9.1 "
       id="polygon996"
       style="fill:#e3e2e1" /><rect
       x="26.700001"
       y="7.1999998"
       width="0"
       height="0"
       id="rect998"
       style="fill:#e3e2e1" /><polygon
       points="26.9,8.1 26.9,8 26.8,8 "
       id="polygon1000"
       style="fill:#e3e2e1" /><rect
       x="26"
       y="9.6000004"
       width="0.1"
       height="0.1"
       id="rect1002"
       style="fill:#e3e2e1" /><polygon
       points="20.1,12.3 20,12.3 "
       id="polygon1004"
       style="fill:#e3e2e1" /><polygon
       points="17.9,52.4 17.9,52.6 18.1,52.7 18.1,52.5 "
       id="polygon1006"
       style="fill:#e3e2e1" /><polygon
       points="19.1,56.3 19.1,56.5 19.3,56.3 "
       id="polygon1008"
       style="fill:#e3e2e1" /><polygon
       points="18.5,54.2 18.7,54.2 18.9,54.2 18.6,53.9 "
       id="polygon1010"
       style="fill:#e3e2e1" /><rect
       x="18.200001"
       y="55.799999"
       width="0.2"
       height="0.2"
       id="rect1012"
       style="fill:#e3e2e1" /><polygon
       points="17.3,51.9 17.2,51.7 16.8,51.5 16.4,51.7 16.4,51.9 16.5,52.1 16.8,52.3 17,52.3 17.4,52.1 "
       id="polygon1014"
       style="fill:#e3e2e1" /><polygon
       points="17.7,49.2 17.7,49.3 17.9,49.3 17.8,49.1 "
       id="polygon1016"
       style="fill:#e3e2e1" /><polygon
       points="29.2,33.8 29.1,33.4 28.9,33.6 "
       id="polygon1018"
       style="fill:#e3e2e1" /><polygon
       points="16.8,49.6 16.6,49.5 16.4,49.5 16.6,49.8 "
       id="polygon1020"
       style="fill:#e3e2e1" /><polygon
       points="20.8,36.4 20.6,36.3 20.3,36.5 20.6,36.7 "
       id="polygon1022"
       style="fill:#e3e2e1" /><polygon
       points="16.9,33.1 16.7,32.9 16.5,33 16.7,33.3 "
       id="polygon1024"
       style="fill:#e3e2e1" /><polygon
       points="26.8,39.2 26.8,38.9 26.5,39.1 "
       id="polygon1026"
       style="fill:#e3e2e1" /><polygon
       points="18.5,32.5 18.3,32.5 18.2,32.6 18.3,32.8 "
       id="polygon1028"
       style="fill:#e3e2e1" /><polygon
       points="59.7,51.4 59.5,51.3 59.5,51.6 59.7,51.6 "
       id="polygon1030"
       style="fill:#e3e2e1" /><polygon
       points="61.9,50.4 61.7,50.4 61.6,50.5 "
       id="polygon1032"
       style="fill:#e3e2e1" /><polygon
       points="61.4,51.3 61.5,51.5 61.8,51.7 62,51.7 61.9,51.4 "
       id="polygon1034"
       style="fill:#e3e2e1" /><polygon
       points="61.4,52 61.2,51.9 61.1,52.1 61.3,52.3 "
       id="polygon1036"
       style="fill:#e3e2e1" /><polygon
       points="63.8,48.3 63.9,48.1 63.6,48 63.5,48.2 63.4,48.4 63.4,48.6 63.7,48.5 "
       id="polygon1038"
       style="fill:#e3e2e1" /><polygon
       points="63.9,49.7 64.1,49.8 64.2,49.7 64.1,49.4 63.9,49.4 "
       id="polygon1040"
       style="fill:#e3e2e1" /><polygon
       points="61.1,53.4 61.2,53.3 61,53.3 "
       id="polygon1042"
       style="fill:#e3e2e1" /><polygon
       points="39.6,50.3 40.2,50.9 40.8,50.3 40.2,49.7 "
       id="polygon1044"
       style="fill:#e3e2e1" /><polygon
       points="52.7,41.2 52.5,41 52.3,41.2 52.5,41.4 "
       id="polygon1046"
       style="fill:#e3e2e1" /><polygon
       points="28.5,35 28.3,35.3 28.6,35.3 "
       id="polygon1048"
       style="fill:#e3e2e1" /><polygon
       points="27.7,41.2 27.8,41.4 28,41.2 27.8,41 "
       id="polygon1050"
       style="fill:#e3e2e1" /><polygon
       points="55,54.7 54.7,54.7 54.6,54.9 55.3,55 55.4,54.9 55.4,54.7 55,54.4 "
       id="polygon1052"
       style="fill:#e3e2e1" /><polygon
       points="58.7,51.7 58.5,51.7 58.4,51.9 58.6,51.9 "
       id="polygon1054"
       style="fill:#e3e2e1" /><polygon
       points="38.4,18.6 38.2,18.5 38,18.5 38,18.7 38.3,19 38.4,18.8 "
       id="polygon1056"
       style="fill:#e3e2e1" /><polygon
       points="39.7,22.3 39.6,22.2 39.5,22.5 39.7,22.5 "
       id="polygon1058"
       style="fill:#e3e2e1" /><polygon
       points="63.8,33 63.6,32.9 63.5,33.1 63.7,33.3 "
       id="polygon1060"
       style="fill:#e3e2e1" /><rect
       x="39.799999"
       y="19.700001"
       width="0.2"
       height="0.2"
       id="rect1062"
       style="fill:#e3e2e1" /><rect
       x="40.5"
       y="19"
       width="0.2"
       height="0.2"
       id="rect1064"
       style="fill:#e3e2e1" /><polygon
       points="41.1,24.3 41.2,24.2 41,24.2 "
       id="polygon1066"
       style="fill:#e3e2e1" /><polygon
       points="40.3,17.5 40,17.4 40,17.7 40.2,17.7 "
       id="polygon1068"
       style="fill:#e3e2e1" /><rect
       x="37.599998"
       y="17.200001"
       width="0.2"
       height="0.2"
       id="rect1070"
       style="fill:#e3e2e1" /><polygon
       points="53.5,38.9 53.5,39.2 53.8,39.1 "
       id="polygon1072"
       style="fill:#e3e2e1" /><polygon
       points="60,36.5 59.7,36.3 59.5,36.4 59.7,36.7 "
       id="polygon1074"
       style="fill:#e3e2e1" /><polygon
       points="37.8,19 37.9,18.8 37.6,18.8 37.7,19 "
       id="polygon1076"
       style="fill:#e3e2e1" /><polygon
       points="37,20.9 37,20.7 36.9,20.7 "
       id="polygon1078"
       style="fill:#e3e2e1" /><polygon
       points="36.6,19.2 36.4,19.1 36.4,19.3 36.5,19.4 "
       id="polygon1080"
       style="fill:#e3e2e1" /><polygon
       points="41.4,22.9 41.2,22.8 41.2,23 41.3,23.2 "
       id="polygon1082"
       style="fill:#e3e2e1" /><polygon
       points="43.9,19.2 43.9,19 43.6,18.9 43.5,19.1 43.4,19.3 43.5,19.5 43.8,19.4 "
       id="polygon1084"
       style="fill:#e3e2e1" /><polygon
       points="43.3,14.7 43.2,14.8 43.2,15.6 43.4,15.5 43.5,15.3 43.5,14.8 "
       id="polygon1086"
       style="fill:#e3e2e1" /><polygon
       points="44,20.6 44.1,20.7 44.2,20.6 44.2,20.3 44,20.3 "
       id="polygon1088"
       style="fill:#e3e2e1" /><polygon
       points="47.1,21.4 46.9,21.4 46.8,21.6 47.1,21.6 "
       id="polygon1090"
       style="fill:#e3e2e1" /><polygon
       points="43.4,16.2 43.3,15.9 43.1,15.9 43.2,16.1 "
       id="polygon1092"
       style="fill:#e3e2e1" /><polygon
       points="41.2,23.8 41,23.7 41,23.9 41.1,24.1 41.4,24.1 41.3,23.9 "
       id="polygon1094"
       style="fill:#e3e2e1" /><polygon
       points="41.3,16.1 41.4,15.9 41.2,15.8 "
       id="polygon1096"
       style="fill:#e3e2e1" /><polygon
       points="42.8,18.4 42.7,18.4 42.6,18.5 "
       id="polygon1098"
       style="fill:#e3e2e1" /><polygon
       points="28.4,34.8 28.6,34.6 28.2,34.6 "
       id="polygon1100"
       style="fill:#e3e2e1" /><rect
       x="41.400002"
       y="18.299999"
       width="0.2"
       height="0.2"
       id="rect1102"
       style="fill:#e3e2e1" /><polygon
       points="41.9,21.3 41.7,21.3 41.7,21.4 "
       id="polygon1104"
       style="fill:#e3e2e1" /><polygon
       points="64.4,15.1 64.4,15 "
       id="polygon1106"
       style="fill:#e3e2e1" /><polygon
       points=""
       id="polygon1108"
       style="fill:#e3e2e1" /><polygon
       points="61.8,68.5 61.8,68.6 61.9,68.6 61.9,68.5 "
       id="polygon1110"
       style="fill:#e3e2e1" /><polygon
       points="64.1,66.1 64.1,66.2 64.2,66.2 64.2,66.1 "
       id="polygon1112"
       style="fill:#e3e2e1" /><polygon
       points="61.2,68 61.2,68.1 "
       id="polygon1114"
       style="fill:#e3e2e1" /><polygon
       points="60.8,69 60.7,69 60.7,69.1 60.8,69.1 "
       id="polygon1116"
       style="fill:#e3e2e1" /><polygon
       points="60.3,68.5 60.3,68.4 60.2,68.4 "
       id="polygon1118"
       style="fill:#e3e2e1" /><polygon
       points="60.9,67.4 60.9,67.3 60.9,67.2 60.8,67.3 60.9,67.3 "
       id="polygon1120"
       style="fill:#e3e2e1" /><polygon
       points="62.6,66.4 62.5,66.5 "
       id="polygon1122"
       style="fill:#e3e2e1" /><polygon
       points="63.6,67.5 63.6,67.6 "
       id="polygon1124"
       style="fill:#e3e2e1" /><polygon
       points="62.4,67.1 62.4,67.2 "
       id="polygon1126"
       style="fill:#e3e2e1" /><rect
       x="61.900002"
       y="68.300003"
       width="0"
       height="0"
       id="rect1128"
       style="fill:#e3e2e1" /><rect
       x="62.299999"
       y="66.099998"
       width="0.1"
       height="0.1"
       id="rect1130"
       style="fill:#e3e2e1" /><polygon
       points="61.4,67.1 61.5,67.1 61.5,67 "
       id="polygon1132"
       style="fill:#e3e2e1" /><polygon
       points="11.3,62.6 11.4,62.6 11.5,62.6 11.4,62.5 "
       id="polygon1134"
       style="fill:#e3e2e1" /><polygon
       points="11.7,63.1 11.6,63 11.6,63.1 "
       id="polygon1136"
       style="fill:#e3e2e1" /><polygon
       points="11.7,64.1 11.7,64.2 "
       id="polygon1138"
       style="fill:#e3e2e1" /><polygon
       points="58.4,69.4 58.5,69.4 "
       id="polygon1140"
       style="fill:#e3e2e1" /><polygon
       points="12.1,64.1 12.1,64 12,64 "
       id="polygon1142"
       style="fill:#e3e2e1" /><polygon
       points="10.1,62.2 10.2,62.2 10.2,62.1 "
       id="polygon1144"
       style="fill:#e3e2e1" /><polygon
       points="10.2,62.1 10.4,62.1 "
       id="polygon1146"
       style="fill:#e3e2e1" /><polygon
       points="57.5,69.3 57.6,69.4 57.6,69.3 "
       id="polygon1148"
       style="fill:#e3e2e1" /><rect
       x="58.299999"
       y="68.400002"
       width="0.1"
       height="0.1"
       id="rect1150"
       style="fill:#e3e2e1" /><rect
       x="32.799999"
       y="74.400002"
       width="0"
       height="0"
       id="rect1152"
       style="fill:#e3e2e1" /><polygon
       points="57.3,70.3 57.3,70.4 "
       id="polygon1154"
       style="fill:#e3e2e1" /><polygon
       points="12.1,63.2 12,63.2 11.9,63.1 11.8,63.2 11.8,63.3 11.9,63.4 12,63.4 12.1,63.4 12.2,63.3 "
       id="polygon1156"
       style="fill:#e3e2e1" /><polygon
       points="65.2,66.8 65.1,66.7 65,66.7 65,66.8 65.1,66.8 "
       id="polygon1158"
       style="fill:#e3e2e1" /><rect
       x="69.300003"
       y="64.699997"
       transform="matrix(-0.8938,-0.4485,0.4485,-0.8938,102.2453,153.6047)"
       width="0.1"
       height="0.1"
       id="rect1160"
       style="fill:#e3e2e1" /><polygon
       points="71.8,61.7 71.8,61.6 71.7,61.6 "
       id="polygon1162"
       style="fill:#e3e2e1" /><rect
       x="71.900002"
       y="61"
       width="0.1"
       height="0.1"
       id="rect1164"
       style="fill:#e3e2e1" /><polygon
       points="69.2,63.9 69.1,63.9 "
       id="polygon1166"
       style="fill:#e3e2e1" /><polygon
       points="72,62.1 72,62.2 "
       id="polygon1168"
       style="fill:#e3e2e1" /><polygon
       points="69,64.4 68.9,64.5 69,64.5 69.1,64.5 "
       id="polygon1170"
       style="fill:#e3e2e1" /><polygon
       points="73.5,26.8 73.4,26.8 "
       id="polygon1172"
       style="fill:#e3e2e1" /><polygon
       points="74.9,28.8 75,28.8 "
       id="polygon1174"
       style="fill:#e3e2e1" /><polygon
       points="68.7,62.9 68.8,63 68.8,62.9 "
       id="polygon1176"
       style="fill:#e3e2e1" /><polygon
       points="64.7,66.8 64.6,66.8 "
       id="polygon1178"
       style="fill:#e3e2e1" /><polygon
       points="72.5,62.3 72.4,62.2 72.3,62.2 72.2,62.3 72.3,62.4 72.4,62.4 72.5,62.4 72.5,62.3 "
       id="polygon1180"
       style="fill:#e3e2e1" /><polygon
       points="72.1,63.2 72,63.2 "
       id="polygon1182"
       style="fill:#e3e2e1" /><polygon
       points="65.8,66.2 65.8,66.3 65.7,66.3 65.8,66.4 65.8,66.3 "
       id="polygon1184"
       style="fill:#e3e2e1" /><polygon
       points="9.3,61.8 9.3,61.7 "
       id="polygon1186"
       style="fill:#e3e2e1" /><polygon
       points="65.3,66.2 65.2,66.2 "
       id="polygon1188"
       style="fill:#e3e2e1" /><polygon
       points="64.9,65.1 64.8,65 64.7,65 64.8,65.1 "
       id="polygon1190"
       style="fill:#e3e2e1" /><polygon
       points="64.8,65.1 64.9,65.2 "
       id="polygon1192"
       style="fill:#e3e2e1" /><polygon
       points="68.6,64.5 68.5,64.5 68.4,64.5 68.3,64.5 68.3,64.6 68.3,64.7 68.5,64.7 68.6,64.7 68.6,64.6 "
       id="polygon1194"
       style="fill:#e3e2e1" /><polygon
       points="68.1,64.4 68,64.3 "
       id="polygon1196"
       style="fill:#e3e2e1" /><rect
       x="68"
       y="63.299999"
       width="0.1"
       height="0.1"
       id="rect1198"
       style="fill:#e3e2e1" /><polygon
       points="66.5,64.1 66.4,64.2 66.5,64.2 "
       id="polygon1200"
       style="fill:#e3e2e1" /><rect
       x="65.800003"
       y="66.099998"
       width="0"
       height="0"
       id="rect1202"
       style="fill:#e3e2e1" /><polygon
       points="67.9,63.9 67.9,63.8 67.8,63.9 "
       id="polygon1204"
       style="fill:#e3e2e1" /><rect
       x="6.6999998"
       y="50.299999"
       width="0.1"
       height="0.1"
       id="rect1206"
       style="fill:#e3e2e1" /><polygon
       points="6.2,43.4 6.3,43.4 6.2,43.3 "
       id="polygon1208"
       style="fill:#e3e2e1" /><polygon
       points="5.7,60.2 5.7,60.1 "
       id="polygon1210"
       style="fill:#e3e2e1" /><polygon
       points="6,44.1 6.1,44.1 6.1,44 6,44 "
       id="polygon1212"
       style="fill:#e3e2e1" /><polygon
       points="5.5,59.7 5.5,59.6 5.4,59.6 "
       id="polygon1214"
       style="fill:#e3e2e1" /><polygon
       points="5.4,56.6 5.5,56.6 "
       id="polygon1216"
       style="fill:#e3e2e1" /><polygon
       points="5.8,61.2 5.7,61.2 5.8,61.3 "
       id="polygon1218"
       style="fill:#e3e2e1" /><polygon
       points="6.2,55.7 6.2,55.8 6.3,55.8 "
       id="polygon1220"
       style="fill:#e3e2e1" /><polygon
       points="5.4,56.6 5.4,56.5 "
       id="polygon1222"
       style="fill:#e3e2e1" /><polygon
       points="6.2,60.3 6.1,60.3 6,60.2 5.9,60.3 5.9,60.4 6,60.5 6.1,60.5 6.2,60.5 6.2,60.4 "
       id="polygon1224"
       style="fill:#e3e2e1" /><polygon
       points="6.2,61.2 6.2,61.1 6.1,61.1 "
       id="polygon1226"
       style="fill:#e3e2e1" /><polygon
       points="5.8,45.4 5.8,45.3 "
       id="polygon1228"
       style="fill:#e3e2e1" /><polygon
       points="5.9,60 6,60 5.9,59.9 5.8,60 "
       id="polygon1230"
       style="fill:#e3e2e1" /><rect
       x="5.5999999"
       y="59.099998"
       width="0.1"
       height="0.1"
       id="rect1232"
       style="fill:#e3e2e1" /><polygon
       points="6.2,54.1 6.2,54 6.1,54 6,53.9 6,54 6,54.1 6.1,54.1 "
       id="polygon1234"
       style="fill:#e3e2e1" /><polygon
       points="5.2,52 5.2,52.1 5.3,52.1 "
       id="polygon1236"
       style="fill:#e3e2e1" /><rect
       x="5.4000001"
       y="49.200001"
       transform="matrix(0.8935,0.449,-0.449,0.8935,22.6791,2.8155)"
       width="0.1"
       height="0.1"
       id="rect1238"
       style="fill:#e3e2e1" /><polygon
       points=""
       id="polygon1240"
       style="fill:#e3e2e1" /><polygon
       points="5.1,54.3 5.2,54.3 5.2,54.2 5.1,54.1 5.1,54.2 "
       id="polygon1242"
       style="fill:#e3e2e1" /><polygon
       points="5.3,48.5 5.3,48.4 5.2,48.5 "
       id="polygon1244"
       style="fill:#e3e2e1" /><polygon
       points="5.8,44.3 5.8,44.2 5.7,44.3 "
       id="polygon1246"
       style="fill:#e3e2e1" /><polygon
       points="5.2,54.1 5.2,54.2 5.3,54.2 5.3,54.1 "
       id="polygon1248"
       style="fill:#e3e2e1" /><polygon
       points="5.2,60.8 5.2,60.9 5.3,60.9 5.3,60.8 "
       id="polygon1250"
       style="fill:#e3e2e1" /><rect
       x="5.3000002"
       y="54.599998"
       width="0.1"
       height="0.1"
       id="rect1252"
       style="fill:#e3e2e1" /><polygon
       points="5.7,46 5.7,45.9 5.6,45.9 "
       id="polygon1254"
       style="fill:#e3e2e1" /><polygon
       points="6.5,43.2 6.5,43.1 6.4,43.2 "
       id="polygon1256"
       style="fill:#e3e2e1" /><polygon
       points="9.2,62.4 9.2,62.3 "
       id="polygon1258"
       style="fill:#e3e2e1" /><polygon
       points="7.5,49.7 7.6,49.7 "
       id="polygon1260"
       style="fill:#e3e2e1" /><polygon
       points="6.4,55.3 6.5,55.5 6.5,55.4 6.6,55.3 6.5,55.2 6.4,55.2 "
       id="polygon1262"
       style="fill:#e3e2e1" /><polygon
       points="7.3,50.3 7.4,50.3 7.4,50.2 7.3,50.2 "
       id="polygon1264"
       style="fill:#e3e2e1" /><polygon
       points="16,15.3 16,15.2 15.9,15.3 "
       id="polygon1266"
       style="fill:#e3e2e1" /><polygon
       points="5,49.1 5.1,49.1 5.2,49 5.1,49 5,49 "
       id="polygon1268"
       style="fill:#e3e2e1" /><polygon
       points="6.5,50.1 6.5,50.2 "
       id="polygon1270"
       style="fill:#e3e2e1" /><polygon
       points="7.3,44 7.4,44.1 "
       id="polygon1272"
       style="fill:#e3e2e1" /><polygon
       points="7.1,44.2 7,44.2 7,44.3 7.1,44.4 7.1,44.3 7.2,44.2 "
       id="polygon1274"
       style="fill:#e3e2e1" /><polygon
       points="6.7,44.4 6.6,44.4 "
       id="polygon1276"
       style="fill:#e3e2e1" /><polygon
       points="6.6,45.7 6.7,45.8 6.7,45.7 "
       id="polygon1278"
       style="fill:#e3e2e1" /><polygon
       points="7.3,55.1 7.3,55.2 "
       id="polygon1280"
       style="fill:#e3e2e1" /><polygon
       points="17,12.4 17,12.5 17.1,12.4 "
       id="polygon1282"
       style="fill:#e3e2e1" /><polygon
       points="6.8,49.2 6.8,49.1 6.7,49.2 "
       id="polygon1284"
       style="fill:#e3e2e1" /><polygon
       points="6.8,56.2 6.7,56.2 "
       id="polygon1286"
       style="fill:#e3e2e1" /><polygon
       points="6.7,45.7 6.8,45.7 "
       id="polygon1288"
       style="fill:#e3e2e1" /><rect
       x="7.1999998"
       y="52.5"
       transform="matrix(-0.894,-0.4481,0.4481,-0.894,-9.8991,102.6328)"
       width="0.1"
       height="0.1"
       id="rect1290"
       style="fill:#e3e2e1" /><polygon
       points="7.2,62.3 7.1,62.3 "
       id="polygon1292"
       style="fill:#e3e2e1" /><polygon
       points="7.1,49.5 7,49.4 7,49.5 "
       id="polygon1294"
       style="fill:#e3e2e1" /><g
       id="g1300"><g
         id="g1298"><path
           d="m 14.2,15 0.1,0.4 0.6,0.7 0.7,-0.4 0.6,-0.4 0.6,-0.4 0.6,-0.3 0.6,-0.4 0.7,-0.2 0.6,-0.4 0.7,-0.3 0.6,-0.4 0.6,-0.4 0.6,-0.3 0.7,-0.2 0.6,-0.4 0.7,-0.3 0.6,-0.4 L 25,10.6 25.6,10.2 26,9.9 26.7,9.6 27.4,9.3 28,8.8 28.7,8.6 V 8.5 L 28.8,8.4 V 8.5 L 29.4,8.1 30.1,7.9 30.7,7.4 31.4,7.2 32,6.7 32.7,6.4 v 0 0 L 33.3,6 34,5.8 34.5,5.3 35.2,5.1 35.8,4.7 36.4,4.3 36.8,4 37.4,3.7 38,3.3 38.6,3 l 0.7,-0.3 0.9,-0.2 0.9,0.2 0.6,0.3 0.6,0.3 0.6,0.5 0.7,0.2 0.6,0.4 0.6,0.4 0.6,0.4 0.6,0.3 0.6,0.4 0.6,0.3 0.6,0.4 0.7,0.2 0.6,0.5 0.6,0.4 0.6,0.3 0.7,0.2 0.7,0.2 0.6,0.3 0.7,0.4 0.6,0.4 0.7,0.3 0.6,0.4 0.6,0.3 0.6,0.3 0.6,0.4 0.7,0.2 0.6,0.3 0.6,0.4 0.6,0.4 0.5,0.5 0.7,0.2 0.6,0.4 0.6,0.4 0.7,0.3 0.5,0.5 0.7,0.2 0.6,0.5 0.7,0.2 0.6,0.3 0.7,-0.5 0.1,-0.3 0.7,-0.8 v 0 L 66.3,14 65.7,13.6 65,13.2 64.4,13 63.8,12.6 63.1,12.4 62.5,12 61.9,11.5 61.3,11.2 60.7,10.9 60,10.6 59.4,10.2 58.8,9.8 58.1,9.5 57.4,9.3 56.8,8.8 56.2,8.4 55.5,8.2 55,7.9 54.5,7.4 53.8,7.2 53.2,6.8 52.6,6.5 51.9,6.2 51.3,5.9 50.6,5.6 49.9,5.3 49.3,4.9 48.6,4.6 48.1,4 47.4,3.8 46.8,3.3 46.2,2.9 45.5,2.6 45,2.2 44.4,1.8 43.8,1.5 43.1,1.2 42.4,1 41.8,0.7 41.2,0.3 40.6,0 H 39.9 L 39.3,0.3 38.7,0.6 38,0.9 37.4,1.2 36.8,1.6 36.2,1.9 35.5,2.1 34.9,2.5 34.3,2.9 33.7,3.3 33.1,3.7 32.4,4 31.8,4.4 31.1,4.7 30.4,5 30,5.4 29.4,5.7 28.8,6.1 h -0.1 0.2 L 28.7,6.2 28.6,6.1 v 0 l -0.6,0.3 -0.7,0.2 -0.6,0.5 -0.6,0.3 -0.7,0.2 -0.6,0.5 -0.6,0.4 -0.7,0.2 -0.6,0.4 -0.6,0.4 -0.6,0.4 -0.6,0.3 -0.7,0.3 -0.6,0.4 -0.7,0.3 -0.7,0.3 -0.6,0.4 -0.6,0.4 -0.6,0.3 -0.6,0.4 -0.7,0.2 -0.6,0.4 -0.6,0.4 -0.6,0.4 h -0.1 z m 50.3,0 v 0.2 0 z M 37.7,3.1 h 0.1 -0.1 0.1 z M 37.2,1.7 37.1,1.8 v 0 z m -0.5,0.2 0.1,-0.1 v 0.1 h -0.1 l 0.2,0.2 H 36.7 Z M 36.5,2 v 0.2 0 z m -0.1,1.3 v 0 0 0 0.1 h -0.1 z m -0.8,1.2 h 0.1 -0.1 0.1 z m 0,-1.6 v 0.2 0 z M 35.5,3.5 V 3.7 3.6 Z M 35.1,3 35,3.1 v 0 z m -0.5,0.2 0.1,-0.1 v 0.1 h -0.1 l 0.2,0.2 h -0.2 z m 0.1,1.9 -0.1,0.2 z M 34.4,3.3 v 0.2 0 z m -0.1,1.3 v 0 0 0 0.1 H 34.2 Z M 33.7,4.5 33.8,4.6 Z M 33.5,4.3 v 0.2 0 z M 33.4,3.5 Z m 0,1.3 V 5 4.9 Z m -1.1,1.5 0.1,0.1 z m -0.7,-0.5 0.1,0.1 z m -0.3,-1 z M 30.7,7.1 Z M 29,6.6 v 0.2 z m -0.7,1 h 0.1 V 7.8 7.7 7.8 H 28.3 L 28.2,7.7 Z m -0.2,0.7 h 0.2 -0.2 l 0.1,0.1 z m -0.9,0.1 0.1,0.1 H 27.2 V 8.4 8.5 Z M 26.9,8 26.8,8.1 Z M 26.7,7.1 h 0.1 -0.1 0.1 z m -0.1,1 h 0.1 -0.1 v 0 0.1 z m -0.4,0.8 h 0.1 V 9.1 9 9.1 H 26.2 L 26.1,9 Z M 26,8.8 h 0.1 -0.1 0.1 z m 0,0.8 H 26.2 26 l 0.1,0.1 z m -0.9,0.1 0.1,0.1 H 25.1 V 9.7 9.8 Z M 24.5,9.4 h 0.1 -0.1 v 0 0.1 z m -0.6,0.8 H 24 23.9 24 Z M 21.3,12 h 0.1 -0.1 0.1 z m -0.4,-1.4 -0.1,0.1 v 0 z m -0.5,0.2 0.1,-0.1 v 0.1 h -0.1 l 0.2,0.2 h -0.2 z m -0.2,0.1 v 0.2 0 z m -0.1,1.3 v 0 0 0 0.1 H 20 Z m -0.8,-0.4 v 0.2 0 z m -0.2,0.6 v 0.2 -0.1 z m -0.7,1.6 -0.1,0.2 z m -1,-0.6 0.1,0.1 z M 17,12.3 Z m -1,2.9 0.1,0.1 z"
           id="path1296"
           inkscape:connector-curvature="0"
           style="fill:#d2b887" /></g></g><g
       id="g1306"><g
         id="g1304"><path
           d="m 74.3,25.1 -0.5,0.3 -0.2,0.4 -0.6,0.9 h -0.2 l -0.1,0.7 v 0.7 0.7 l 0.2,0.7 -0.2,0.7 0.2,0.7 v 0.6 l -0.1,0.6 -0.1,0.7 0.1,0.7 -0.1,0.7 -0.1,0.7 0.2,0.7 -0.1,0.7 0.1,0.7 -0.1,0.7 0.1,0.7 v 0.7 0.7 0.7 l -0.1,0.7 0.1,0.7 -0.2,0.7 0.2,0.7 -0.1,0.7 0.1,0.7 -0.1,0.7 v 0.7 0.7 0.7 0.7 l 0.1,0.7 -0.1,1.1 v 0.7 0.7 l 0.1,0.7 -0.1,0.7 0.2,0.7 -0.2,0.7 v 0.7 l 0.1,0.7 -0.1,0.7 0.1,0.7 -0.2,0.7 v 0.7 l 0.2,0.7 -0.2,0.6 -0.4,0.5 -0.4,0.4 -0.6,0.3 -0.6,0.3 -0.6,0.4 -0.6,0.3 -0.6,0.3 -0.7,0.8 -0.6,0.3 -0.7,0.2 -0.6,0.5 -0.7,0.2 -0.6,0.4 -0.6,0.4 -0.7,0.3 -0.6,0.4 -0.6,0.4 -0.7,0.2 -0.6,0.4 -0.7,0.2 -0.6,0.4 -0.6,0.4 -0.6,0.4 -0.6,0.2 -0.6,0.5 -0.7,0.2 -0.6,0.3 -0.6,0.5 -0.6,0.2 -0.6,0.4 -0.6,0.4 -0.7,0.3 -0.7,0.3 -0.6,0.5 -0.6,0.3 -0.7,0.3 -0.6,0.3 -0.6,0.5 -0.7,0.2 -0.5,0.3 -0.6,0.4 -0.6,0.4 -0.6,0.3 -0.7,0.2 -0.5,0.5 -0.7,0.1 -0.5,0.5 L 43,76.6 42.4,77 41.7,77.3 41,77.6 40.2,78 39.4,77.7 38.7,77.4 38.1,77 37.5,76.6 36.8,76.4 36.2,76 35.6,75.7 35,75.2 34.4,74.9 33.7,74.6 33.1,74.2 32.5,73.9 31.9,73.4 31.2,73.2 30.6,72.8 30,72.4 29.4,72.1 28.9,71.6 H 28 L 27.4,71.1 26.7,70.8 26.1,70.4 25.4,70.1 25,69.7 24.3,69.4 23.7,69.1 23.1,68.7 22.5,68.4 21.8,68.2 21.2,67.8 20.6,67.5 20,67.2 19.4,66.8 18.7,66.6 18,66.1 17.4,65.7 16.8,65.3 16.1,65 15.5,64.6 14.8,64.3 14.1,64.1 13.5,63.7 13,63.2 12.3,62.9 11.6,62.6 11,62.3 10.4,61.8 9.8,61.5 9.2,61.1 8.5,60.9 8,60.4 7.6,60 7.7,59.3 7.6,58.6 7.5,57.9 V 57.2 56.5 L 7.6,55.8 V 55.1 L 7.5,54.4 7.6,53.7 7.5,53 7.6,52.3 7.5,51.6 V 50.9 L 7.6,50 7.7,49.3 7.6,48.6 V 47.9 L 7.7,47.2 V 46.5 L 7.6,45.8 7.7,45 V 44.3 L 7.6,43.6 V 42.9 L 7.5,42.2 V 41.5 40.8 L 7.6,40 V 39.3 38.6 L 7.5,37.9 7.7,37.2 V 36.5 L 7.6,35.8 7.7,35 V 34.3 L 7.5,33.6 7.6,32.9 7.5,32.2 V 31.5 L 7.6,30.8 V 30.1 29.4 L 7.5,28.7 V 28 L 7.6,27.3 7.7,26.6 7.5,26.5 6.6,26 6.4,25.6 5.9,25.3 5.4,24.6 4.9,24 V 23.9 L 5,24.6 4.8,25.3 4.9,26 v 0.7 l -0.1,0.7 0.1,0.6 -0.1,0.7 -0.1,0.7 0.1,0.7 v 0.7 l -0.1,0.7 v 0.7 l 0.1,0.7 v 0.7 L 4.7,34.3 5,35 4.9,35.7 4.8,36.4 5,37.1 v 0.7 0.7 0.7 0.7 L 4.9,40.6 5,41.3 4.9,42 v 0.7 L 5,43.6 4.8,44.3 4.9,45 5,45.8 4.8,46.5 5,47.2 4.9,47.9 4.8,48.6 4.9,49.3 4.8,50 v 0.7 l 0.1,0.7 v 0.7 0.9 l -0.2,0.7 v 0.7 l 0.1,0.7 v 0.7 0.7 L 4.6,57.2 H 4.7 4.6 4.7 l -0.2,0.7 0.1,0.7 0.4,0.9 v 0.7 0.7 l 0.3,0.6 0.5,0.4 0.3,0.3 0.1,-0.1 v 0 l 0.6,0.3 0.6,0.4 0.6,0.4 0.7,0.3 0.6,0.4 0.6,0.4 0.7,0.3 0.6,0.4 0.7,0.2 0.6,0.4 0.6,0.4 0.7,0.3 0.6,0.4 0.6,0.3 0.7,0.2 0.5,0.5 0.8,0.3 0.6,0.4 0.6,0.4 0.7,0.2 0.6,0.4 0.6,0.4 0.7,0.2 0.6,0.4 0.6,0.4 0.6,0.3 0.6,0.4 0.7,0.2 0.5,0.5 0.7,0.2 0.6,0.4 0.6,0.4 0.7,0.3 0.6,0.4 0.7,0.3 0.6,0.4 0.7,0.3 0.6,0.4 0.7,0.3 0.6,0.5 0.7,0.2 0.7,0.3 0.6,0.4 0.6,0.3 0.6,0.4 0.7,0.3 0.6,0.3 0.6,0.5 0.7,0.3 0.7,0.3 0.6,0.4 0.7,0.3 0.6,0.2 0.6,0.1 0.6,-0.2 0.7,-0.3 0.6,-0.4 0.6,-0.4 0.6,-0.3 0.6,-0.4 0.7,-0.3 0.6,-0.4 0.6,-0.4 0.6,-0.4 0.6,-0.4 0.7,-0.2 0.6,-0.4 0.7,-0.3 0.6,-0.3 0.7,-0.3 0.7,-0.3 0.6,-0.5 0.6,-0.4 0.6,-0.4 0.7,-0.2 0.6,-0.5 0.7,-0.3 0.6,-0.4 0.7,-0.3 0.6,-0.4 0.7,-0.2 0.6,-0.4 0.6,-0.4 0.6,-0.4 0.7,-0.2 0.6,-0.5 0.7,-0.2 0.6,-0.4 0.6,-0.3 0.6,-0.4 0.7,-0.2 0.6,-0.4 0.6,-0.4 0.7,-0.2 0.6,-0.4 0.7,-0.3 0.6,-0.4 0.7,-0.3 0.6,-0.3 0.6,-0.4 0.6,-0.4 0.6,-0.4 0.7,-0.2 0.6,-0.4 v 0 0.1 l 0.7,-0.3 0.6,-0.4 0.7,-0.4 0.5,-0.5 0.4,-0.6 0.2,-0.7 -0.1,-0.7 V 59 l 0.1,-0.7 v -0.7 l 0.1,-0.7 -0.1,-0.7 -0.1,-0.7 0.1,-0.7 0.1,-0.7 V 53 l 0.2,-0.7 -0.1,-0.7 0.1,-0.7 v -0.7 l -0.1,-0.7 -0.1,-0.7 0.1,-0.7 -0.1,-0.7 0.1,-0.7 0.1,-0.7 -0.1,-0.7 0.1,-0.7 v -0.7 l 0.1,-0.7 V 42.5 41.8 L 75.6,41.1 V 40.4 L 75.5,39.7 V 39 l 0.1,-0.7 0.1,-0.7 -0.1,-0.7 -0.1,-0.7 0.1,-0.7 -0.1,-0.7 0.1,-0.7 -0.1,-0.7 -0.1,-0.7 0.1,-0.6 0.1,-0.6 -0.1,-0.7 V 30.1 29.4 28.7 L 75.6,28 75.5,27.3 75.4,26 v -0.7 l 0.2,-0.7 V 23.9 H 75.5 L 75,24.6 Z M 7.1,44.3 v 0 0 h 0.1 z m -0.5,0.2 v 0 -0.1 z M 6.5,43.2 v 0 L 6.4,43.1 Z m -0.1,7 v 0 -0.1 z M 6.1,44.1 v 0 0 H 6 Z M 6,54 v 0 h 0.1 l 0.1,0.1 H 6.1 Z M 5.8,44.3 5.7,44.2 5.6,44.3 Z M 5.6,46 Z M 5.4,49.3 Z M 5.2,48.5 V 48.4 H 5.1 Z m -0.2,9 v 0 0.1 z m 0.1,-8.4 z m 0.1,5.1 v 0 0 -0.1 z m 0,-2.1 z m 0.1,8.7 v 0 0 l 0.1,0.1 z m 0,-6.2 z m 0,-0.5 v 0 0 0.1 z m 0.1,2.6 v 0 0 0 0 L 5.3,56.5 Z m 0.1,2.9 z M 5.6,59 Z m 0.1,1.1 v 0 0 h 0.1 z m 0,1.1 h 0.1 v 0 z m 0,-15.9 v 0 H 5.8 Z M 5.9,60 v 0 0 H 6 Z m 0.3,1.1 z m 0,-0.7 v 0 H 6 5.8 L 5.9,60.3 H 6 l 0.2,0.1 v 0 l 0.2,0.1 z m 0.1,-4.7 v 0 0.1 z M 6.2,43.3 v 0 0 0.2 z m 0.2,12.1 v 0 0 H 6.2 l 0.2,-0.1 h 0.1 v 0 z m 0.4,-6.2 z m 0,1.2 v 0 0 l -0.1,0.1 z m 0,5.8 v 0 0.1 z M 6.7,45.6 v 0 0.2 -0.2 0 H 6.9 Z M 7,49.4 Z m 0.1,12.8 v 0 0.1 z m 0.1,-9.8 z m 0.1,2.7 z m 0,-4.9 v 0 0 H 7.4 Z M 7.4,44 v 0 0.1 z m 0.2,5.7 v 0 0 l 0.1,0.1 z m 1.5,12.7 h 0.1 z m 0.2,-0.7 v 0 h 0.1 z m 0.9,0.3 v 0 0.2 -0.2 0 h 0.2 z m 1.2,0.5 z m 0.2,0.5 v 0 0 h 0.1 z m 0,1.1 h 0.1 v 0 z M 12.1,64 Z m 0,-0.7 v 0 h -0.2 -0.2 l 0.1,-0.1 h 0.1 l 0.2,0.1 v 0 l 0.2,0.1 z m 20.6,11.1 z m 24.7,-4.1 h -0.1 l 0.1,0.1 z m 0.1,-1 v 0 h 0.1 z m 0.8,-0.9 v 0 0 l 0.1,-0.1 z m 0.2,1 z m 1.2,0.3 v 0 0.1 z m 0.6,-1.3 z m 0.5,0.6 z m 0.1,-1.7 z m 0.4,0.8 h -0.1 l 0.1,0.1 z M 61.4,67 v 0 h 0.1 z m 0.4,1.5 v 0 0 0 l 0.1,-0.1 z m 0.1,-0.2 z m 0.4,-2.2 v 0 0 L 62.4,66 Z m 0.2,1 z m 0.1,-0.7 v 0 0.1 z m 1,1.1 v 0 0.1 z m 0.6,-1.4 z m 0.5,0.6 z M 64.8,65 v 0 0 l 0.1,0.1 z m 0.1,0.2 z m 0.2,1.5 z m 0.2,-0.6 v 0 0.1 z m 0.4,0.2 v 0 0 0 l 0.1,-0.1 z M 65.8,66 Z m 0.7,-1.9 v 0 0.1 z m 1.4,-0.3 z M 68,63.3 Z m 0.1,1 v 0 0 h 0.1 z m 0.4,0.3 v 0 h -0.2 -0.2 l 0.1,-0.1 h 0.1 l 0.2,0.1 v 0 l 0.2,0.1 z m 0.3,-1.7 z m 0.2,1.5 z m 0.2,-0.5 v 0 0.1 z m 0.1,0.7 z m 2.5,-3 z M 71.9,61 Z m 0.1,1.1 v 0 0 h 0.1 z m 0,1.1 h 0.1 v 0 z m 0.5,-0.9 v 0 h -0.2 -0.2 l 0.1,-0.1 h 0.1 l 0.2,0.1 v 0 l 0.2,0.1 z m 0.9,-35.6 v 0 0.1 z m 1.5,2 v 0.1 L 75,28.7 Z"
           id="path1302"
           inkscape:connector-curvature="0"
           style="fill:#d2b887" /></g></g><polygon
       points="40.7,51.4 40.2,52 48.8,60.9 49.3,61.2 49.8,61.4 50.3,61.4 50.2,61.1 49.8,60.3 48.5,59.1 48.2,58.7 "
       id="polygon1308"
       style="fill:#d2b887" /><polygon
       points="32.9,41.4 32.8,40.8 32.3,39.9 32.9,38.4 33.3,36.6 32,35 31.4,34.7 31.2,34.7 31,34.8 30.7,35.4 30.7,36.1 30.3,36.7 30,37.9 29.8,39.1 30.7,40.4 31.6,41.2 32.6,42 32.8,42.3 33.2,42.8 34.3,43.6 34.7,44.1 34.9,44.7 35.2,44.8 35.8,45.3 36.1,45.9 36.4,45.9 36.9,46.2 38.6,48.1 39.4,49 39.7,48.7 40.2,48.2 39.3,47.5 36.6,44.7 35.5,43.8 35.1,43.3 34.8,42.7 34.5,42.7 33.2,41.5 "
       id="polygon1310"
       style="fill:#d2b887" /><polygon
       points="41.4,49.6 41.2,49.4 40.9,49 40.2,49.7 40.8,50.3 40.9,50.2 "
       id="polygon1312"
       style="fill:#d2b887" /><polygon
       points="39.6,51.4 40.2,50.9 39.6,50.3 38.9,51 39.3,51.1 "
       id="polygon1314"
       style="fill:#d2b887" /><polygon
       points="49.8,59.4 51.3,60.5 51.5,60.2 51.3,59.5 42.1,50.3 41.5,50.9 41.4,51 "
       id="polygon1316"
       style="fill:#d2b887" /><path
       d="M 36.3,46.9 H 36 l -0.2,-0.1 -0.3,-0.6 -0.6,-0.7 -1,-0.9 -0.5,-0.6 -0.2,-0.1 h -0.3 v -0.3 l -0.8,-1 -1.5,-1.3 -1.4,-1.3 -1.1,0.1 -0.6,0.4 -0.2,-0.1 H 26.7 L 26.1,41 26,40.7 l -0.3,-0.1 -0.3,0.3 -0.6,0.3 -0.2,0.2 v 0.3 l 0.7,0.1 -0.1,0.6 0.8,0.6 0.6,0.2 h 0.6 l 0.6,-0.2 0.6,-0.4 0.6,0.2 0.3,-0.2 0.6,-0.1 0.6,0.1 1.1,0.5 0.1,0.4 0.3,0.1 0.4,0.5 0.7,0.3 0.1,0.5 1.9,2.1 3.1,3.1 0.7,-0.7 z m -8.5,-5.5 -0.1,-0.2 0.1,-0.1 0.2,0.2 z"
       id="path1318"
       inkscape:connector-curvature="0"
       style="fill:#d2b887" /><polygon
       points="7.1,16.7 7.7,16.8 7.8,17.5 8.5,18.1 9.1,18.9 11.1,20.6 11.4,21.1 12.9,22.6 13.5,22.9 14.1,23.1 14.4,23 15.2,19.7 15.4,18.5 14.9,18 13,16.2 12.8,15.8 12.4,15.3 10.9,14 9,12 8.6,11.7 8.1,11.5 7.4,11.7 10.2,14.6 10.9,15.5 12,16.4 12.5,17.2 12.5,17.5 12.2,17.6 11.9,17.5 11,16.4 10.4,16.2 8.9,14.3 8.3,14.1 6.1,11.7 5.6,11.5 4.8,10.8 4.5,10.9 4.5,11.2 4.5,11.5 6.5,13.4 7,13.7 8.4,15.3 10.1,17.1 12.1,18.9 12.1,19.4 12,19.7 11.5,19.5 10.3,18.3 9.3,17.4 7.7,15.7 7.4,15.5 6.4,14.7 4,11.9 3.7,11.8 1.8,10.2 1.2,10 1,10.1 1,10.5 1.4,11.1 2.6,12.1 3.8,13.4 4.9,14.2 5.1,14.7 6.3,15.9 6.9,16.2 7,16.5 "
       id="polygon1320"
       style="fill:#d2b887" /><polygon
       points="12.6,24.6 13.1,24.2 12.2,22.9 10.4,21 6.7,17.2 6.4,17.1 5.9,16.6 4.7,15.3 2.9,13.7 1.2,11.7 0.2,11 0,11.3 0,11.9 0.7,12.9 2.8,14.6 3,15.1 4.5,16.4 5.3,17.5 7.7,19.6 8,20.1 9.3,21.5 9.5,21.8 9.5,22.1 7.6,20.7 5,18 4.7,17.8 3.9,17 3.4,16.7 2.9,16 0.9,14.1 0.8,14.3 0.9,15.1 1.6,16.2 2.6,17.2 3.6,18 3.9,18.5 4.9,19.5 5.4,19.8 5.5,20.1 5.9,20.5 7,21.5 7.4,22 7.6,22.5 7.4,22.7 6.9,22.7 3.4,19.1 1.4,17.4 1.2,17.6 1.2,18.1 3.5,20.7 5.3,22.5 5.9,22.8 7,24.1 7.6,24.5 7.9,25 8.2,25.3 8.7,25.4 9.8,25.3 11.3,24.8 "
       id="polygon1322"
       style="fill:#d2b887" /><path
       d="m 28.9,38 0.3,-0.1 0.3,-0.6 0.8,-3.4 -0.1,-0.5 -0.3,-0.6 -0.7,-0.7 -0.9,-0.6 -0.3,0.3 -0.2,0.6 -0.3,1.2 -0.5,1.2 0.1,0.9 -0.3,0.3 0.1,0.3 0.3,0.6 1,1 z m 0.2,-4.6 0.1,0.4 -0.3,-0.2 z m -0.8,1.9 0.1,-0.3 0.1,0.3 z m 0.3,-0.7 -0.2,0.2 -0.1,-0.1 z"
       id="path1324"
       inkscape:connector-curvature="0"
       style="fill:#d2b887" /><polygon
       points="18.3,27.9 18.7,28.4 19.9,29.2 20.1,29.1 20.6,28.2 20.9,26.6 21.2,26 21.1,25.1 21.3,24.9 21.2,24.2 20.6,23.8 20,23 19.4,22.7 19.1,22.9 18.7,23.8 18.4,25.5 17.9,26.4 18,27.3 "
       id="polygon1326"
       style="fill:#d2b887" /><polygon
       points="22,31.6 23,32.2 23.5,31 23.8,29.8 24.4,28 24.3,27.5 24,27 22.8,26 22.2,25.8 22,26.1 21.7,26.7 21.3,29.2 20.8,30 21.5,31.1 "
       id="polygon1328"
       style="fill:#d2b887" /><polygon
       points="14.5,27.7 15.6,27.4 16.1,26.9 16,26.6 15.4,25.9 14.4,25.1 13.2,25.2 12,25.4 9.6,26.4 9.8,26.9 10.2,27.4 11.7,28.5 13.3,28.1 13.9,28.1 "
       id="polygon1330"
       style="fill:#d2b887" /><polygon
       points="15.1,24.5 15.8,25.5 16.3,25.9 16.9,26.1 17.1,25.8 17.6,24.8 18,23.6 18.2,21.2 17,19.9 16.4,19.8 16.1,19.9 15.9,20 15.9,20.6 15.4,21.8 15.4,22.8 15,23.3 15,23.9 "
       id="polygon1332"
       style="fill:#d2b887" /><path
       d="m 19.6,36.6 0.4,0.6 1,0.1 1.3,-0.3 h 0.4 l 1.1,-0.6 0.4,0.1 0.6,-0.5 -0.1,-0.5 -0.9,-1 -0.6,-0.2 -0.2,-0.3 -1.5,0.3 -0.3,0.2 0.1,0.2 V 35 L 21,34.9 20.8,34.4 h -0.3 l -1,0.3 -0.5,0.4 -0.3,0.4 v 0.3 l 0.4,0.6 z m 1,-0.3 0.2,0.1 -0.2,0.3 -0.3,-0.3 z"
       id="path1334"
       inkscape:connector-curvature="0"
       style="fill:#d2b887" /><path
       d="M 25.6,40 27.4,39.4 28,38.9 27.8,38.3 27,37.6 26.7,37 26,36.9 l -1.2,0.2 -1.2,0.5 -1.2,0.1 -0.6,0.3 -0.3,0.3 0.2,0.7 H 22 l 0.6,0.7 0.4,0.4 0.9,0.2 0.6,-0.1 0.6,-0.3 -0.1,-0.4 0.3,-0.2 z m 1.2,-1.1 v 0.3 l -0.3,-0.1 z"
       id="path1336"
       inkscape:connector-curvature="0"
       style="fill:#d2b887" /><path
       d="m 17.4,34.3 0.4,-0.3 0.4,0.4 1.4,-0.4 0.6,-0.3 h 0.3 0.7 L 21.8,33.5 22,33 21.9,32.5 20.5,31.1 20.2,31 h -0.6 l -1.1,0.4 -0.2,0.2 -0.3,-0.1 -0.3,0.1 -0.3,-0.1 -0.3,0.3 -0.5,0.2 H 16 l -0.3,0.1 v 0.3 L 16,33 Z m 0.9,-1.8 h 0.2 l -0.2,0.3 -0.1,-0.3 z m -1.6,0.4 0.1,0.2 -0.2,0.2 -0.1,-0.3 z"
       id="path1338"
       inkscape:connector-curvature="0"
       style="fill:#d2b887" /><polygon
       points="12.5,29.3 13.2,30.4 13.7,30.9 14.2,31.2 14.8,31.4 15.4,31.3 15.6,31.1 15.4,30.8 15.6,31.1 15.8,31.2 17.2,30.9 18.4,30.4 19,30.1 19,29.8 18.8,29.4 17.2,28 14.9,28.5 "
       id="polygon1340"
       style="fill:#d2b887" /><polygon
       points="26.9,32.7 27.3,30.9 26.9,30 25.4,28.7 25.2,28.9 24.7,29.7 24.5,30.8 24.9,30.8 25.1,31 24.5,31.2 24.2,31.8 24.1,32.4 24.1,33.6 25.5,35.1 25.8,35 26.3,34.6 26.5,33.9 26.5,33.3 "
       id="polygon1342"
       style="fill:#d2b887" /><polygon
       points="40.2,52 39.6,51.4 32.1,58.7 31.9,59.1 30.6,60.3 30.1,61.1 30.1,61.4 30.5,61.4 31,61.2 31.5,60.9 "
       id="polygon1344"
       style="fill:#d2b887" /><polygon
       points="53.8,33.9 54.1,34.6 54.6,35 54.9,35.1 56.3,33.6 56.3,32.4 56.1,31.8 55.8,31.2 55.2,31 55.5,30.8 55.8,30.8 55.7,29.7 55.2,28.9 54.9,28.7 53.4,30 53,30.9 53.5,32.7 53.8,33.3 "
       id="polygon1346"
       style="fill:#d2b887" /><path
       d="m 62.5,34 0.4,0.3 1.5,-1.3 0.3,-0.6 V 32.1 L 64.4,32 h -0.6 l -0.3,-0.1 -0.3,-0.3 -0.3,0.1 -0.3,-0.1 -0.3,0.1 -0.2,-0.2 -1.3,-0.5 h -0.6 l -0.3,0.1 -1.4,1.4 -0.2,0.5 0.3,0.4 0.6,0.2 h 0.7 0.3 l 0.6,0.3 1.4,0.4 z m 1.1,-1.1 0.2,0.1 -0.2,0.3 -0.2,-0.2 z m -1.7,-0.4 h 0.2 l 0.1,0.1 -0.1,0.3 z"
       id="path1348"
       inkscape:connector-curvature="0"
       style="fill:#d2b887" /><polygon
       points="64.7,27.4 65.8,27.7 66.4,28.1 67.1,28.1 68.7,28.5 70.1,27.4 70.5,26.9 70.8,26.4 68.3,25.4 67.1,25.2 65.9,25.1 64.9,25.9 64.4,26.6 64.3,26.9 "
       id="polygon1350"
       style="fill:#d2b887" /><path
       d="m 55.7,40.2 0.6,0.1 0.9,-0.2 0.4,-0.4 0.6,-0.7 0.3,-0.1 0.2,-0.7 -0.2,-0.2 -0.6,-0.2 -1.2,-0.1 -1.2,-0.5 -1.2,-0.2 -0.6,0.1 -0.3,0.6 -0.8,0.7 -0.2,0.6 0.6,0.5 1.8,0.6 0.1,-0.7 0.3,0.2 -0.1,0.4 z m -2.2,-1 v -0.3 l 0.3,0.2 z"
       id="path1352"
       inkscape:connector-curvature="0"
       style="fill:#d2b887" /><path
       d="m 52.6,32.4 -0.2,-0.6 -0.2,-0.1 -0.9,0.6 -0.7,0.7 -0.3,0.6 -0.2,0.4 0.8,3.4 0.3,0.6 0.3,0.1 0.5,-0.1 1,-1 0.3,-0.6 0.1,-0.3 -0.2,-0.3 0.1,-0.9 -0.5,-1.2 z m -1.5,1.4 0.1,-0.4 0.3,0.3 z m 0.7,1.5 0.1,-0.3 0.1,0.3 z M 52,34.8 51.8,34.6 h 0.3 z"
       id="path1354"
       inkscape:connector-curvature="0"
       style="fill:#d2b887" /><polygon
       points="61.6,29.4 61.3,29.8 61.3,30.1 61.9,30.4 63.1,30.9 64.5,31.2 64.7,31.1 64.9,30.8 64.7,31.1 65,31.3 65.5,31.4 66.1,31.2 66.7,30.9 67.1,30.4 67.8,29.3 65.5,28.5 63.1,28 "
       id="polygon1356"
       style="fill:#d2b887" /><path
       d="m 60.3,37.2 0.4,-0.6 0.6,-0.3 0.4,-0.6 V 35.4 L 61.4,35 60.8,34.7 59.8,34.4 H 59.5 L 59.3,34.9 59,35 v -0.3 l 0.1,-0.2 -0.3,-0.2 -1.5,-0.3 -0.3,0.3 -0.6,0.2 -0.9,1 -0.1,0.5 0.6,0.5 0.4,-0.1 1.1,0.6 h 0.4 l 1.3,0.3 z m -0.6,-0.9 0.3,0.1 -0.3,0.3 -0.2,-0.3 z"
       id="path1358"
       inkscape:connector-curvature="0"
       style="fill:#d2b887" /><polygon
       points="56.8,31 57.3,32.2 58.3,31.6 58.8,31.1 59.5,30 59.1,29.2 58.7,26.7 58.3,26.1 58.1,25.8 57.5,26 56.3,27 56.1,27.5 56,28 56.6,29.8 "
       id="polygon1360"
       style="fill:#d2b887" /><polygon
       points="59.1,26 59.4,26.6 59.8,28.2 60.3,29.1 60.4,29.2 61.6,28.4 62.1,27.9 62.3,27.3 62.4,26.4 61.9,25.5 61.6,23.8 61.2,22.9 60.9,22.7 60.4,23 59.7,23.8 59.1,24.2 59.1,24.9 59.3,25.1 "
       id="polygon1362"
       style="fill:#d2b887" /><polygon
       points="41.4,51 40.8,50.3 40.2,50.9 40.7,51.4 41,51.1 "
       id="polygon1364"
       style="fill:#d2b887" /><path
       d="m 47.1,45.1 0.1,-0.5 0.7,-0.3 0.4,-0.5 0.3,-0.1 0.1,-0.4 1.1,-0.5 0.6,-0.1 0.6,0.1 0.3,0.2 0.6,-0.2 0.6,0.4 0.6,0.2 h 0.6 l 0.6,-0.2 0.7,-0.7 v -0.7 l 0.7,-0.1 V 41.4 L 55.5,41.2 54.9,40.9 54.6,40.6 54.3,40.7 54.2,41 53.6,40.4 H 53 l -0.2,0.1 -0.6,-0.4 -1.1,-0.1 -1.3,1.3 -1.5,1.3 -0.8,1 v 0.3 h -0.3 l -0.3,0.1 -0.4,0.6 -1,0.9 -0.6,0.7 -0.3,0.6 -0.2,0.1 H 44 l -2.6,2.7 0.7,0.7 3.1,-3.1 z m 5.4,-4.1 0.1,0.1 -0.1,0.2 -0.2,-0.2 z"
       id="path1366"
       inkscape:connector-curvature="0"
       style="fill:#d2b887" /><polygon
       points="71.3,18.9 71.8,18.1 72.6,17.5 72.7,16.8 73.2,16.7 73.4,16.5 73.5,16.2 74.1,15.9 75.3,14.7 75.4,14.2 76.6,13.4 77.7,12.1 79,11.1 79.3,10.5 79.4,10.1 79.1,10 78.6,10.2 76.6,11.8 76.4,11.9 73.9,14.7 72.9,15.5 72.6,15.7 71,17.4 70,18.3 68.9,19.5 68.3,19.7 68.2,19.4 68.3,18.9 70.2,17.1 72,15.3 73.4,13.7 73.9,13.4 75.8,11.5 75.9,11.2 75.9,10.9 75.5,10.8 74.8,11.5 74.2,11.7 72,14.1 71.4,14.3 69.9,16.2 69.3,16.4 68.4,17.5 68.2,17.6 67.8,17.5 67.8,17.2 68.3,16.4 69.4,15.5 70.1,14.6 73,11.7 72.3,11.5 71.8,11.7 71.3,12 69.4,14 67.9,15.3 67.5,15.8 67.4,16.2 65.4,18 65,18.5 65.1,19.7 66,23 66.3,23.1 66.9,22.9 67.4,22.6 69,21.1 69.2,20.6 "
       id="polygon1368"
       style="fill:#d2b887" /><polygon
       points="68.1,22.9 67.2,24.2 67.8,24.6 69,24.8 70.6,25.3 71.6,25.4 72.2,25.3 72.5,25 72.8,24.5 73.4,24.1 74.5,22.8 75,22.5 76.9,20.7 79.2,18.1 79.1,17.6 78.9,17.4 76.9,19.1 73.5,22.7 72.9,22.7 72.8,22.5 72.9,22 73.3,21.5 74.4,20.5 74.8,20.1 74.9,19.8 75.4,19.5 76.4,18.5 76.7,18 77.8,17.2 78.8,16.2 79.5,15.1 79.5,14.3 79.4,14.1 77.4,16 77,16.7 76.4,17 75.6,17.8 75.3,18 72.7,20.7 70.9,22.1 70.9,21.8 71,21.5 72.4,20.1 72.7,19.6 75.1,17.5 75.9,16.4 77.4,15.1 77.6,14.6 79.6,12.9 80.3,11.9 80.3,11.3 80.1,11 79.1,11.7 77.5,13.7 75.7,15.3 74.4,16.6 73.9,17.1 73.6,17.2 69.9,21 "
       id="polygon1370"
       style="fill:#d2b887" /><polygon
       points="45.7,44.1 46.1,43.6 47.1,42.8 47.6,42.3 47.7,42 48.7,41.2 49.6,40.4 50.5,39.1 50.3,37.9 50,36.7 49.6,36.1 49.6,35.4 49.3,34.8 49.2,34.7 48.9,34.7 48.4,35 47,36.6 47.4,38.4 48,39.9 47.6,40.8 47.4,41.4 47.1,41.5 45.8,42.7 45.6,42.7 45.3,43.3 44.8,43.8 43.7,44.7 41,47.5 40.2,48.2 40.7,48.7 40.9,49 41.8,48.1 43.4,46.2 44,45.9 44.3,45.9 44.6,45.3 45.1,44.8 45.4,44.7 "
       id="polygon1372"
       style="fill:#d2b887" /><polygon
       points="39.4,49 39.1,49.4 38.9,49.6 39.5,50.2 39.6,50.3 40.2,49.7 "
       id="polygon1374"
       style="fill:#d2b887" /><polygon
       points="63.9,19.8 63.4,19.9 62.1,21.2 62.3,23.6 62.7,24.8 63.2,25.8 63.4,26.1 64,25.9 64.5,25.5 65.3,24.5 65.4,23.9 65.3,23.3 64.9,22.8 64.9,21.8 64.5,20.6 64.4,20 64.3,19.9 "
       id="polygon1376"
       style="fill:#d2b887" /><polygon
       points="29,59.5 28.8,60.2 29,60.5 30.5,59.4 38.9,51 38.9,50.9 38.2,50.3 "
       id="polygon1378"
       style="fill:#d2b887" /><polygon
       points="38.2,50.3 38.9,50.9 38.9,51 39.6,50.3 39.5,50.2 38.9,49.6 "
       id="polygon1380"
       style="fill:#d2b887" /><polygon
       points="40.2,48.2 39.7,48.7 39.4,49 40.2,49.7 40.9,49 40.7,48.7 "
       id="polygon1382"
       style="fill:#d2b887" /><polygon
       points="39.6,51.4 40.2,52 40.7,51.4 40.2,50.9 "
       id="polygon1384"
       style="fill:#d2b887" /><polygon
       points="41.4,51 41.5,50.9 42.1,50.3 41.4,49.6 40.9,50.2 40.8,50.3 "
       id="polygon1386"
       style="fill:#d2b887" /><path
       d="m 35.4,19.5 -0.6,0.4 -0.7,0.5 -0.8,0.6 -0.7,0.5 -0.8,0.6 h 0.9 l 0.9,-0.1 0.9,0.1 0.9,-0.1 h 0.9 0.9 l 0.9,-0.1 0.2,0.7 v -0.1 h 0.2 v 0.2 h -0.1 v 0.1 l 0.2,0.9 0.4,0.8 0.3,0.9 0.2,0.9 0.3,0.8 0.3,0.9 0.2,-0.9 0.3,-0.9 0.4,-0.8 0.3,-0.9 0.3,-0.9 0.3,-0.9 0.1,-0.4 h -0.2 l -0.3,-0.2 -0.1,-0.2 0.5,0.2 0.1,0.2 0.1,-0.5 h 0.9 0.9 0.9 0.9 0.9 l 0.9,0.1 h 0.9 L 47.7,21.4 47,21.1 46.3,20.5 45.6,20 l -0.8,-0.5 -0.7,-0.6 -0.7,-0.5 0.2,-0.9 0.3,-0.8 0.3,-0.8 0.2,-0.9 0.3,-0.8 0.2,-0.9 0.3,-0.9 -0.8,0.5 -0.7,0.6 -0.6,0.4 0.3,0.2 0.1,0.2 -0.1,0.3 -0.5,-0.4 v 0 l -0.6,0.4 -0.8,0.5 -0.7,0.5 -0.7,0.6 -0.7,-0.6 -0.7,-0.6 -0.7,-0.6 -0.8,-0.5 -0.7,-0.6 -0.7,-0.5 -0.7,-0.5 0.3,0.8 0.3,0.9 0.2,0.9 0.3,0.9 0.3,0.8 0.2,0.9 0.3,0.8 -0.7,0.6 -0.7,0.5 v 0 z m 11.5,1.9 h 0.2 v 0.2 H 46.9 Z M 44,20.3 h 0.2 v 0.2 L 44.1,20.7 44,20.6 Z m -0.5,-1.2 0.1,-0.2 h 0.3 v 0.3 l -0.1,0.2 h -0.3 v -0.2 z m -0.3,-4.3 0.2,-0.2 0.2,0.1 v 0.6 l -0.1,0.2 -0.2,0.1 v -0.8 z m 0.1,1.1 0.1,0.2 h -0.2 l -0.1,-0.2 z m -0.6,2.5 h 0.2 l -0.2,0.2 z m -1,2.9 h 0.2 l -0.2,0.2 z m -0.3,-3 h 0.2 v 0.2 h -0.2 z m 0,-2.4 -0.1,0.2 -0.1,-0.3 z M 41.2,22.8 41.4,23 41.3,23.2 41.2,23 Z M 41,23.7 h 0.2 l 0.1,0.1 V 24 H 41.1 L 41,23.9 Z m 0.2,0.5 -0.1,0.1 L 41,24.2 Z M 40.5,19 h 0.2 v 0.2 h -0.2 z m -0.5,-1.6 0.2,0.1 -0.1,0.2 H 40 Z m -0.2,2.3 H 40 v 0.2 h -0.2 z m -0.2,2.5 0.1,0.1 v 0.2 h -0.2 z m -1.4,-3.7 0.2,0.1 v 0.2 L 38.3,19 38,18.7 v -0.2 z m -0.6,-1.3 h 0.2 v 0.2 h -0.2 z m 0.3,1.6 V 19 H 37.7 L 37.6,18.8 Z M 37,20.7 V 21 l -0.1,-0.3 z m -0.6,-1.6 0.2,0.1 v 0.2 l -0.1,-0.1 v -0.2 z"
       id="path1388"
       inkscape:connector-curvature="0"
       style="fill:#d2b887" /><path
       d="m 56.7,55.1 h 0.9 l 0.9,0.1 h 0.9 l 0.2,0.9 0.2,0.9 0.3,0.9 0.2,0.9 0.3,0.9 0.2,0.9 0.3,0.9 0.3,-0.9 0.3,-0.9 0.4,-0.8 0.3,-0.9 0.3,-0.9 0.3,-0.9 0.4,-0.8 0.9,-0.1 0.9,0.1 h 0.9 0.2 v -0.1 l 0.2,0.1 h 0.6 l 0.9,0.1 h 0.9 L 69.8,55.6 69,55.1 68.3,54.6 67.6,54 66.9,53.4 v 0.2 h -0.2 v -0.2 h 0.1 l -0.6,-0.5 -0.7,-0.5 -0.7,-0.6 0.3,-0.9 0.3,-0.9 0.4,-0.8 0.3,-0.8 0.3,-0.9 0.3,-0.9 0.4,-0.9 -0.8,0.5 -0.8,0.5 -0.7,0.6 -0.8,0.4 -0.7,0.6 -0.8,0.5 -0.7,0.5 -0.7,-0.5 -0.7,-0.5 -0.7,-0.6 -0.9,-0.7 -0.7,-0.6 -0.7,-0.6 -0.8,-0.6 0.2,0.9 0.2,0.9 0.3,0.8 0.3,0.9 0.2,0.9 0.2,0.9 0.2,0.9 -0.6,0.6 -0.7,0.5 -0.8,0.4 -0.7,0.5 -0.8,0.6 -0.8,0.4 -0.7,0.6 h 0.9 0.9 0.9 0.7 v 0 h 0.1 z m 7.2,-5.7 h 0.2 v 0.2 L 64,49.8 63.8,49.6 V 49.4 Z M 63.5,48.2 63.6,48 h 0.3 v 0.3 l -0.1,0.2 h -0.3 v -0.2 z m -1.8,2.2 h 0.2 l -0.2,0.2 z m 0.2,1 0.1,0.2 h -0.2 l -0.3,-0.2 -0.1,-0.2 z m -0.7,0.5 0.2,0.2 -0.1,0.2 -0.2,-0.2 z m 0,1.4 -0.1,0.1 -0.1,-0.1 z m -1.7,-2 0.1,0.1 v 0.2 h -0.2 z m -1,0.4 h 0.2 v 0.2 h -0.2 z m -3.2,3.3 -0.6,-0.1 0.1,-0.2 h 0.3 v -0.3 l 0.3,0.2 v 0.2 z"
       id="path1390"
       inkscape:connector-curvature="0"
       style="fill:#d2b887" /><path
       d="m 25.5,54.8 h 0.9 l 0.9,-0.1 -0.8,-0.5 -0.8,-0.5 -0.8,-0.5 -0.8,-0.5 -0.8,-0.4 -0.8,-0.5 -0.7,-0.5 0.2,-0.9 0.2,-0.9 0.3,-0.9 0.1,-0.9 0.3,-0.9 0.2,-0.9 0.2,-0.9 -0.7,0.6 -0.7,0.6 -0.6,0.8 -0.6,0.6 -0.7,0.6 -0.7,0.5 -0.7,0.6 L 17.9,48.8 17,48.4 16.2,47.9 15.4,47.5 14.6,47 13.9,46.4 13,46 l 0.4,0.9 0.4,0.8 0.3,0.9 0.3,0.9 0.4,0.8 0.4,0.8 0.4,0.9 -0.7,0.6 -0.7,0.5 -0.7,0.6 -0.7,0.6 -0.6,0.7 -0.7,0.6 -0.7,0.6 h 0.9 l 0.9,-0.1 0.9,-0.2 h 0.9 l 0.9,-0.1 h 0.9 l 0.9,-0.1 0.3,0.9 0.3,0.8 0.4,0.8 0.3,0.9 0.4,0.8 0.3,0.9 0.3,0.8 0.2,-0.9 0.3,-0.9 0.1,-0.9 0.3,-0.9 0.1,-0.9 0.2,-0.9 0.3,-0.9 h 0.9 l 0.9,-0.1 0.9,-0.1 h 0.9 l 1,-0.3 -0.1,-0.3 0.2,0.2 z m -8.9,-5.3 0.2,0.1 -0.2,0.2 -0.2,-0.2 z m 0.4,2.8 h -0.2 l -0.3,-0.2 -0.1,-0.2 v -0.3 l 0.5,-0.1 0.3,0.2 0.1,0.2 0.1,0.2 z m 0.7,-3 v -0.2 l 0.1,-0.1 0.1,0.2 z m 0.2,3.3 v -0.2 l 0.1,0.1 v 0.2 z m 0.5,3.4 h -0.2 v -0.2 h 0.2 z m 0.3,-1.8 -0.2,-0.1 0.1,-0.3 0.2,0.3 z m 0.4,2.3 -0.1,-0.1 h 0.2 z"
       id="path1392"
       inkscape:connector-curvature="0"
       style="fill:#d2b887" /></g></svg>