<svg width="281" height="67" viewBox="0 0 281 67" xmlns="http://www.w3.org/2000/svg"><title>B89F1768-316D-46E5-9F85-C04C32DB6677</title><g fill="#D2B887" fill-rule="evenodd"><path d="M35.34 1.2l-1.714.4-.285.171-1.712.572-1.428.685h-.228l-.115.287h-.285l-.456.4h-.172l-1.314.799-1.312 1.314-.742.458-1.314 1.371-.342.685-.857.8-.741.514-.8 1.143-1.084 1.428-1.085 1.543-1.028 1.485-.914 1.544-.741 1.656-.285.228-.515 1.144-.628 1.714-.342.343-.057.343-.286.229-.57 1.37-.629 1.715-.342.286-.4.114-.741-.114-1.2-.572-.342-.342-.4-.115v-.115h-.286l-.513-.571-.228-.057-1.37-1.257-.058-.342h-.113v-.23h-.172v-.285H7.08v-.286h-.115v-.229l-.17-.056-.115-.515-.115-.058v-.284h-.113v-.23h-.115L6.051 19.2l-.113-.858.057-2 .171-1.714.228-.285.171-.572.629-.685v-.23l1.256-1.313 1.312-1.315.514-.799.058-.4-.115-.515-.286-.285-.113-.4-.742-.8-1.084-1.486-.8-.286-.857.23-.286.286h-.227l-.286.343-.4.17-.056.172-1.371 1.256-.114.4-.4.23-.114.4-.285.114v.284l-.57.573-.172.4-.686 1.713-.513.743-.229.8-.4 1.828L0 17.084l.115 1.771h.114l.171 1.2.114.058v.4l.114.113v.458l.229 1.372.171.285.113.629.458.742.57.686.115.4.171.113.172.401.627.685.058.344.343.342.741.457.686.742h.171l.4.515.398.114.343.343.4.114.286.344h.286v.114h.227v.114h.286l.343.343.4.057 1.54.857.685.572.286.686-.286 1.828-.4 1.77-.228 1.886-.057 1.772-.058 1.885.286 1.771.629 1.6.057.629.343.286.057.228h.114v.286l.914.914.17.4 1.142.799 1.427.859.4.056 1.94.115 1.656-.058.115-.113 1.085-.172.17-.172 1.6-.457v-.114h.285v-.115h.228l.114-.286.514-.114.514-.456.8-.458v-.114l.342-.057.17-.23.629-.227.456.115.171.228.059.799-.401.686v.229l-.285.114-.114.57h-.114v.23l-.285.114v.286l-.914.686-.914.457-.742.114-.343.343-.684.171-.401.285-1.255.458-1.199.628-.399.058-.229.286-.4.113-1.541.972-1.54 1.086-1.372 1.257-.056.342-.171.058-.514.799-.628 1.315v.4l-.114.228v.571l-.114.286v.914l.285.8.684 1.657 1.2 1.372.742.571.456.057.514.4.799.228 1.941.115 1.77-.286 1.828-.285.741-.343.8-.573 1.427-1.142.57-.628 1.2-1.428.17-.059v-.285l.343-.343 1.656-3.314.057-.342h.114v-.23h.115l.456-1.027.228-1.315.286-.457.742-1.655.743-1.488.684-.57 1.656-.914.514-.4.399-.057.114-.285h.286l.114-.23h.286l.171-.343.342-.056.228-.344.4-.057.4-.286.514-.114.115-.229.342-.056.513-.572.971-.742 1.255-1.2.8-.457.115-.23.456-.17.686-.686 1.256-1.37L45.5 40.91l.97-1.486.628-.686.457-.742.971-1.486.171-.114.685-1.486-.228-.8-.457-.514h-.228v-.114h-.286v-.171h-.227v-.115l-.801-.17-.514.285-.627.8-.97 1.6-1.086 1.427-.798.972-.058.343-.514.456-1.312 1.086-1.315 1.314-1.311 1.201-1.371 1.2-1.37 1.027v.115l-.343.056-.285.343-.684-.172-.058-.113-.113-.171.113-.686.571-1.829.742-1.542.171-.685.342-.629.457-1.03.685-1.599.629-1.713.457-.8.113-.4.571-1.772-.285-.8-.628-.285h-.456l-.857.228-1.884.4-.8.286-1.77.686-.514.628-.399.857-.628 1.828-.457.743-1.141 1.429-1.314 1.314-1.312 1.257-1.37 1.2-.4.114-1.257.972-.342.114-.172.171-1.255.629-.857.228-1.997.115-.8-.23-.284-.342h-.287l-.798-1.257-.23-.8-.227-1.828.17-2 .343-1.829.4-1.943.4-.799.571-.514.742-.114 1.997.114 1.827-.228 1.885-.287 1.826-.172.685-.286.515-.056.285-.171.57-.115 1.77-.513 1.713-.629 1.713-.858 1.313-.685.114-.171 1.656-.858.285-.285.4-.114.286-.4.286-.057 1.026-.971 1.37-1.144 1.143-1.371.17-.057.058-.342.742-.628 1.027-1.43.914-1.6.171-.114.171-.571.285-.286.23-.457.57-1.657.4-.742v-.287l.286-.857.056-.685.342-1.943-.227-3.542-.572-1.772-.742-1.485h-.114v-.229l-.114-.114-1.37-1.428-.343-.058-.285-.285-.229-.057-.342-.343-.628-.23-.285-.342h-.171l-.115-.171-1.314-.343-.114-.172h-2.054l-.228-.113-1.029-.058-1.655.286zm-2.113 3.885l-.115-.286.115-.17h.114l.114.284-.114.229-.114-.057zm9.934 2.229l.113-.058.286-.056.228.114v.228l-.171.115-.456.056v-.4zm-22.78 19.54l-.114-.684.286-.859.686-1.37.055-.344.23-.285.742-1.657.57-.743.057-.342.343-.286.056-.343.172-.114.628-1.2.914-1.6.628-.685.514-.8.97-1.372.8-.628.056-.343 2.626-2.514 1.427-1.086.115-.228h.285v-.114h.286V9.14h.228l.286-.227 1.655-.8.914-.114 1.826-.115.858.17.398.287.4.114.114.4.514.4.4 1.257.057 1.03-.115 1.027-.399 1.772-.4 1.2-.798 1.714-.286.285-.114.4-.458.514-1.256 1.428-.457.801-.684.57-1.256 1.315-.627.344-.286.342-.343.057-1.37.914-.97.515-.172.172h-.228l-1.542.684-1.713.458v.171l-.513.115-.913.4-.914.114-1.827.114-.114.171h-.627l-1.2.057-.4-.342zM43.56 8.343l.514.114-.286.286h-.228v-.4zm-16.214.8l-.17-.4.056-.4.342.057.286.286.171.456-.17.116h-.458l-.057-.116zm15.871.686v-.172l.286-.228.571-.057-.058.114-.742.4-.057-.057zm.514 1.656l.057-.285.286-.4.227.229-.114.4-.399.17-.057-.114zm-.285.686l.114-.285.228-.058v.229l-.171.171h-.229l.058-.057zm-19.183.686l.23-.228.456.114-.171.229-.515.056v-.171zM23.12 13.94v-.685h.23v-.114l.342.114.285.286.17.4-.227.228h-.4l-.285-.229-.628.401-.285-.058.056-.285-.342-.23-.056-.227.17-.172h.172l.342.286.057.285h.4zm-1.027 1.543l.058-.056.056-.23h.229l.113.172.058.515-.229.112-.398-.112.056.457.286.4h.171l-.057.17-.571.458-.4.17.515-.628-.515-.915v-.226l-.57-.058v-.285l.113-.058.171.114.515-.114.114.229.285-.115zm-1.027.915l.172-.172.227.4h-.172l-.227-.228zm-1.028 2l-.4-.4-.057-.458-.228-.4.056-.114.115-.286.343-.227h.285v.285l-.114.171-.4.171.114.229.743.514.17.457-.341.114-.286-.056zm2.455-.858l.114-.4.171.115.057.228-.114.172h-.228v-.115zm-3.369 1.142v-.113l.514-.115-.114.342-.4-.114zm2.285.344l.056-.172h.628v.114l-.113.172-.457.058-.114-.172zm-.743.8l.229-.342h.113l.171-.115.23.115-.23.342v.286l.4.114-.056.228-.23.058-.913-.114-.628.628h-.285l-.229-.4-.342.285v.514l.342.23-.056.113.285.344.057.456.286-.058v-.799l.342-.286-.057.286.229.573.056.456-.685.343-.286-.057-.57-.687-.685-.113-.343-.572.057-.172.514-.113.058-.171-.115-.172H18.1l-.287-.23v-.914h.287l.171.115.342.8.571-.343.57-.743h.115l.285.286.514-.17zm-3.711 2.458l.627-.344.172.114.057.285-1.255.287-.343-.171-.057-.23.114-.113h.229l.399.227.057-.055zm1.143.628v-.286l.113-.171h.114l.115.171v.286l-.115.17h-.114l-.113-.17zm-2.228 2l.286-.23-.4-.513v-.286h.172l.342-.057.229-.286v-.286l1.883.171.343.171-.114.23-.4.057v.457l-.113.171-.287.057-.343-.114-.513-.628-.228-.058-.457.343.057.343.343.228-.171.115.284.457.8.572v.628l-.57.171-.343.229v.342l-.4.687-.342-.972-.172.057-.285-.228.285-.629-.114-.171h-.228l-.172.171v.514l-.399-.4h-.114l.342-.4.171-.4h.23l.284.286.286-.057.228-.344-.114-.114h-.286v-.284zm23.007-.687l-.113-.285.113-.172h.115l.114.286-.114.228-.115-.057zm-20.723 1.886l-.286-.285-.171-.4.514-.744h.229v.115l.056.056.343 1.144-.114.228-.57-.114zm-2.798-1.314l.4.115v.113h-.342l-.058-.228zm-7.991 2l.342-.457.227.171.059.229-.401.228h-.227v-.171zm23.92-.057h.228v.114l-.228.114v-.228zm-12.96.228h.286v-.228h-.286v.228zm.286.629l-.171-.172v-.286l.798.286.115.172v.286l-.229-.23h-.114l-.399-.056zm-3.882-.343l.056-.058.343-.057.172.115.056.228-.513.17-.114-.398zm-1.941 0h.343l.056.228h-.286l-.113-.228zm2.055.685l.628-.114.343.171.056.285-.171.172-.399.058-.457-.115.114.343.8.858-.058.228-.228.114.114.629-.114.17-.343-.285-.228-.399-.458-.23.115-.17.056-.458-.57-.114-.228-.286-.286-.114.286-.8.914.114.114-.057zm-2.57-.056l.23.227-.115.171-.513.115v-.4l.114.058.285-.171zm14.615.113l1.03.285-.172.515h-.858v-.8zm-9.477 1.43v-.687l.4-.743h.172l.457.285-.115.572.4.858-.172.114-1.142-.4zm4.682.913v-.229l.114-.114.514-.114.514-.285v-.115l-.172-.115-.456-.056-.114-.229.056-.113.23-.173.741.114-.057.63-.228.8-.97.113-.172-.114zm-5.766-.457l-.171-.171v-.171l.17-.287.23-.057.513.23-.114.399-.228.114-.4-.057zm-6.28-.057l.056-.114.686-.515h.286l-.229.743-.799-.114zm3.255 1.371l-1.256-1.028-.057-.229.114-.057.4-.228.285-.343.284.056-.056.458.286.4.627-.115.228.686.23.285.456-.114v.23l-.286.056.172.285-.514.343.227.516-.114.17-.513-.17v-.172l.228-.286v-.286l-.114-.115h-.514l-.113-.342zm6.222-.685l-.17-.4h.17l.343-.4.342.114.057.4.172.171-.172.343-.742-.228zm-2.34.514l-.058-.229.114-.457.342-.229.401.115.115.514-.287.286-.514.114-.113-.114zm7.25-.401l.057-.113.229-.172.4.285.056.343h-.171l-.571-.343zm-8.678 2.172v-.114l.343-.515.4.115v.286l-.343.286-.4-.058zm.229 1.828l.057-.115.114-.171.229.171-.115.23-.285-.115zm18.954 1.486v-.8l.456-.057.4.114v.287l-.229.342-.57.172-.057-.058zm-22.209.4l-.171-.228-.056-.515.17-.4 1.028.458v.285l-.172.343-.741.114-.058-.057zm1.313-.171l.114-.23.342-.17.23.114v.229l-.172.114-.514.057v-.114zm18.383 1.77h.286v-.228h-.286v.228zm-2.055 2.115l.114-.286h.285l-.17.4h-.229v-.114zm-.342 3.942v-1.371l-.172-.171.229-.63-.514-.285.057-.285-.23-.286-.055-.457.114-.058.628.058v.457l.457.342.056.229-.114.743.114.4.286.286v.285l-.4.4.114.401-.114.228h-.171l-.285-.286zm1.997-2.57l-.056-.058-.17-.344.226-.513.514.229.4-.058.4.743-.058.172-.456.228v.4l-.229-.286-.285.115-.17-.343h-.116v-.286zm-3.938-.058l-.17-.457.112-.058h.571l.4.286.172.4-.457.114-.172.172-.456-.457zm3.882 1.885l-.229-.285-.685-.514-.056-.515h.4l.17.115.4.685.4.172.342-.057-.057.228-.629.286-.056-.115zm-17.87-.456l-.17-.457.113-.115.343-.056.171.113.172.4-.172.457-.457-.342zm13.873-.286l-.056-.229.57.114.057.229h-.17l-.4-.114zm.343.857v-.229l.057-.057.057-.114h.229l.171.171v.229l-.4.114-.114-.114zm-12.046.628l.286-.285.513-.058-.171.457-.228.057-.4-.17zm15.813.343l-.057-.456.057-.059.572-.056.171.115-.057.227-.286.286-.4-.057zm-18.04.343v-.115l.172-.513.171-.115.457-.056-.114.456-.172.228-.342.171-.172-.056zm13.36-.4h.227v-.286h-.228v.286zm2.169.857l-.114-.286.114-.171h.114l.114.286-.114.228-.114-.057zm-1.256-.058l.171-.343.457-.056v.286l-.171.171-.457.057v-.115zm1.484 1.601l.057-.971.686-.458.8-.344h.57v.287l-.4.4v.286l-.399.742-1.028.23.057.228.4.229.227.57.458.058.571.399.456-.285.171.114-.4.515-.398.8h-.743l-.685-.4-.285.057-.628-.286-.457-.058.114.287h.229l.285.228v.114l-.628.286.114.286.742.342v.286h-.342l.17.457.286.342.057.23-.513.8v-.229l.114-.056-.058-.115-.113-.114-.628.17-.343.572-.457.057-.343.229-.399-.171-.285-.286-.514-.057-.457.343h-.285v-.229l.399-.114.058-.687.17-.114-.513-.114-.114-.685.513-.344.572-.056.284.4.23-.058v-.457l.17-.171.8-.343v-.627l.514-.115-.115-.514.286-.286-.171-.629.171-.115.228-.628v-.286h.17l.344.23.228-.172zm-.742-.686l.058-.513.17-.058.229.457-.171.228h-.171l-.115-.114zm-13.702.628v-.399l-.17-.343-.058-.457h.343l.171.457.514.686v.285l-.8-.229zm12.274 1.429v-.286l.116-.171.456-.058.114.115v.286l-.114.172-.456.056-.116-.114zm2.57 1.771l.057-.114.286-.114.227.114-.114.171-.228.058-.228-.115zm-2.684 4.628l-.114-.342.457-.172.058-.171-.17-.458.74.23.057.228-.228.799.114.457-.057.115-.857.171-.114.172v.343l-.457-.057-.342-.229h-.228l-.457.515h-.228l-.114-.401-.4-.228-.114.114-.285-.458-.23-.171v-.113l-.113-1.487.457.515.4.172.056.513.343.229.285-.114-.4-.914.286-.115.8.4.398.8.343.228.114-.57zm-3.31 1.486l-.058-.286.114-.114.4.114v.172l-.285.229-.172-.115zm-7.365 5.599l-.685-.685-.114-.629.114-.685.343-.685 1.083-.973 1.428-1.2.457-.17 1.428-.628 1.085-.23-.4-.114h.627l.4.8-.229.514-.342.342-.056.4-.172.115-.8 1.43-.342.285v.228l-.286.171-.513.743-.743.685-.742.457-.8.171-.741-.342zm8.62-3.828v-.114l1.029-1.315-.059 1.03-.284.627-.4.057-.285-.285zm-.798-.515v-.456l.114-.171.171.285v.23l-.171.17-.114-.058zm.114 2.23v-.4l.114-.058.57-.057.115.23.057.855-.171.458h-.115l-.57-1.028zm-1.029 1.313l-.228-.4.114-.685.4.057.228.285-.228.858h-.114l-.172-.115zm5.71-12.17h.285l.343.228.17-.113.458.113.286-.227.513.227v-.17l-.114-.23-.914-.057-.342-.227-.457-.058-.228.515zm-2.056 2.457h.228v-.286h-.228v.286zm-1.027.4v.228h.342l-.114-.229h-.228z"/><path d="M68.277 24.17l-.17-.401h-.343l.056.285.172.172h.17l.115-.057zm-1.199 1.656v.629l.4.172.685-.172v-.4l.171-.115.058-.228-.17-.171-.402-.058-.627.286-.115.057zm.286 2.857l-.057-.228-.229-.172-.114.172.057.171.172.057h.171zm-.914 2.171l.115.057.171-.171-.171-.4-.115.4v.114zm-.912-1.257l.342-.229v-.399l-.23-.058-.112.515v.171zm.399 1.771l-.4-.227-.456.056-.171.457.113-.058.229.4.399.344v.228l-.342.229h-.286l.229.571-.114.343.57-.287.114-.856.171-.114.23-.4-.171-.113-.115-.458v-.115zm-2.74 1.714l.799.401v-.286l.114-.115-.172-.457-.457-.457-.285.8v.114zm.685 1.544l-.286.057-.17.4-.344.342.343.17.056.344h.401l.114.114.057.687.228.057.343-.23v-.228l-.514-.4v-.284l.114-.115.572.228.114-.4-.4-.857v-.4l-.514-.4v.514l-.114.286v.115zm-.686-3.372h.285l.286-.228-.114-.572-.285-.114v.285l-.286.457.057.059.057.113zm-.514 15.142l.23.114.284-.114v-.115l-.17-.114-.286.114-.058.115zm.172-9.828l.171-.457v-.456l-.17-.173h-.229l-.058-.114.172-.4-.114-.114-.229.057-.228.342-.114.458.114.685.513.172h.172zm-.4-2.456l.457.399.228-.057.057-.457-.285-.286h-.285l-.172-.114v-.114h-.399v.228l.4.4zm.114 6.455l-.057.171-.285.172-.286-.228v-.115l.172-.113.342.057.114.056zm-2.17-2.856l.4-.057.116-.171-.515-.173v.4zm-.284 8.399l.057.228.743.572-.115-.514-.286-.343h-.285l-.114.057zm-.4-7.2l-.229.114v.115l.23.114.627-.229.286-.285v-.228L60 38.224l-.23.573-.056.113zm3.368-1.942h-.228l-.228.171-.343.8-.228.058-.171-.687-.229-.114-.113.229.113.457-.514.342.171.402.628.914-.285.398-.741-.513h-.286l-.514.685-.4.23.057.227.229.23.513.056.4-.743.115-.057.57.287.057.227-.456.115-.686.514h-.342l-.171.172.399.17.114.458h-.228L60 41.71h-.115v1.2l-.684.23v.227l.399.171.285.286v.286l.229.342.514-.227.286.342-.515 1.028.913.4-.056-.228-.171-.114-.057-.286h1.141l.057-.227.342-.287v-.115l-.17-.114-.229-.4-.171-.056-.172.342-.284-.114-.343-.343v-.4l.514-.057.113-.285-1.084-.058-.23-.343.344-.228-.114-.686.57-.286.23.057.284.343-.057.23-.684.113-.057.343.228.057 1.084-.743.228.915.286.17.228-.17h-.114l-.286-.514.172-.171v-.858l.228-.915-.228-.342v-.172l.228-.115.114-.284-.114-.515.57-.17.115-.343-.513.056-.286-.171v-.229l.228-.344.571-.513v-.457l-.628-.057-.057.057zm-3.597 8l-.057-.23-.227-.17-.115.17.056.172.172.058h.171zm-.799-4.628l.058.684.398.058.343-.285v-.23l-.456-.285-.058-.344h-.399l-.114.115.171.229.057.058zm-.742 1.94h.172l.342.63.342.115.23-.115.171-.285-.572-.344-.228-.8h-.229l-.228.687v.113zm-.514.345h.229l.114-.344h-.343v.344zm-5.08-10.742h.286v-.229h-.286v.229zm.172-3.086l.113-.514-.285.058-.114.171.17.285h.116zm-.8 5.428v-.228l-.514-.171v.286l.114.171h.286l.114-.058zm-.629.915l.229.113.114-.227-.228-.172-.057.172-.058.114zm-1.428 1.542h.23v-.343l-.23-.056v.399zm-.17.914l.114-.171-.057-.172-.571-.17.057.227.343.286h.113zm-.228 9.6v-.171l.8-.172.114-.172-.344-.285-.399-.572-.8-.229.172.972.342.572.115.057zm.114-2.115l-.229-.457-.228-.114-.285.057.571.514h.171zm-.514-6.057l.285-.914-.342-.228h-.171v.915l.114.171.114.056zm-.4 2.686l.172-.114-.058-.171-.227-.057.056.285.057.057zm-1.027-1.657l.115.343.227.058.343-.286-.343-.23h-.227l-.115.115zm-.628 6.228l.628.286.17.685.23.171.399-.513-.171-.114-.115-.4-.398-.115v-.514l-.515.057-.228.343v.114zm0-1.543l.628.115.4.514h.228l.17-.629-.398-.17h-.285l-.23-.343h-.399l-.114.342v.171zm0-3.256l.114.171.399.057.172-.57-.057-.172-.571.286v.114l-.057.114zm-.4 3.486l.285.113-.17-.343h-.115v.23zm-1.027-.63l.285-.057.228-.342-.513-.115v.515zm13.187-24.225l-.4 1.314-.17.17-.514 1.601-.686 1.6-.056.4-.228.285-.457 1.543-.514.857-.286.914-.457.8-.285.8-.17.171-.345 1.258-.456 1.256-.342.342-.571 1.716-.285.799-.23.344v.228l-.285.286v.456l-.227.458-.172.915-.514.914-.286.8-.342 1.656-.113.114v.4l-.172.4.343.914.513.515.743.113.855-.227.743-.4.571-.458.114-.228.4-.114 1.256-1.372.456-.457v-.228l.914-.8v-.23l.399-.627 1.027-1.544.971-1.484.171-.115.629-1.657.057-.286.457-.742.513-1.2.685-1.715.286-.857.285-.4.114-.914.4-.685.57-1.772.629-1.428v-.228l.286-.286v-.229l.285-.285.229-.629.285-.4.285-1.314.4-.857.57-.743.628-.4 1.828.057h.4l.17-.114.856.171 1.6-.171.627.572v.8l-.57 1.942-.629 1.714-.685 1.714-.285.857-.171.171-.114.458-.286.457-.171.572-.171.171-.343 1.37-.4.572-.057.4-.285.4-.17.572-.173.17-.17.572-.286.229-.058.4-.285.4-.457 1.429-.457 1.37-.284.286-.172.914-.171.171-.514 1.829-.685 1.658-.23.97-.056.972.115.914.457.628.742.343h.455l1.085-.228.8-.457 2.512-2.629 1.313-1.427.285-.287v-.228l.97-1.43.229-.17.172-.4.685-.743.798-1.427.286-.23v-.285h.115v-.286l1.141-1.486.857-.228.57.057v.114l.4.172.799.8.115.457-.171.856-.913 1.372-.058.342h-.172l-.913 1.658-.914 1.543-.912 1.085-.059.286h-.284v.114l-.8.8v.229h-.113l-.115.399-.342.23-.286.627-.799.572-1.256 1.314-1.37 1.143-.971.742-.456.115-.23.285h-.227v.115h-.286v.172h-.228v.114h-.286v.114h-.228l-.513.229-1.827.227-1.885.172-.913-.057-.97-.286v-.114h-.23v-.171l-.455-.057-1.257-1.257-.742-1.714-.4-.457h-.456l-.4.227-.57.687-1.085.971-.342.056-.914.629v.115l-.4.285-.513.115v.114l-1.485.571-.4.171-.913.115-.17.115-1.828.057-.513-.057-.115-.172-.857-.229-.856-.457-1.199-.97-.057-.402-.228-.113-.228-1.086-.514-1.37.114-1.83.229-1.942.285-.8.17-.172.058-.4.114-.056.057-1.544.172-.172.57-1.655.286-.858.171-.172.056-.4h.115v-.227l.286-.4v-.23h.114l.514-1.428.571-1.77.457-.858v-.229l.456-.8.343-1.028h.114l.228-.914.229-.4.113-.515.342-.342v-.4l.743-2.228.171-.115.23-.4.17-.686.629-1.599h.114l.057-.342.57-.744 1.6-.228 1.883.114.914-.057.856.171.514.343.342.457.114.115z"/><path d="M96.706 26.568l.114-.114.685.23.057-.23-.171-.4-.685.287-.057.171.057.056zm.285.4v.23l-.4.228-.17.228.057.173.742-.458.171-.571-.342.114-.058.057zm-.285 2.458v-.229l-.171-.171h-.228l.056.228.229.172h.114zm-.228-4.686l-.513-.514-.172.457.057.457.457.515.114-.172.684-.228v-1.658l-.4-.17-.113.228.114.686-.114.342-.114.057zm-1.942 3.486l.514.629.514.056.115-.227-.115-.686.17-.344-.055-.343-.457-.056-.343.227-.343.63v.114zm-.17 4h.57v-.229h-.57v.23zm-.515-5.943l.286.914h.799l.114-.629.4-.285-.343-.228-1.14.171-.116.057zm.4 2.23l-.172-.344-.342-.058v.23l.4.171h.114zm.4-5.716l-.229.058-.343.344-.228-.287.171-.115v-.114l-.513.114-.229.343.058.572h.286l.741-.4.457.058.114.856h.628l.115-.171v-.286l.114-.172-.171-.457-.286-.343-.114-.684-.686-.058.171.571-.057.171zm-1.428 9.828l.401-.056.113-.172v-.286l-.399.172-.115.229v.113zm-.228-2.343l.4-.227-.057-.401-.23-.114-.227.457.056.23.058.055zm-.685-7.485h.286v-.228h-.286v.228zm0-1.828l.171.4h.627l-.17-.4-.343-.114-.171.057-.114.057zm-.742 11.428l.742.115-.114-.516-.4-.056-.228.286v.171zM89.456 23.2l.513-.06.171-.227-.457-.115-.227.23v.172zm-2.798.112l.4.115.342-.227.229.398-.23.515.23-.057.17-.343h.115l-.228-.915h-.514l-.4.172-.114.23v.112zm-1.712 1.716l-.686.628-.057.229.228-.057.172-.344.228-.114h.628l-.057-.229-.343-.113h-.113zm-1.142 2.056h.228l.171-.515h-.228l-.171.173v.342zm7.993-2.857h-1.428l-1.142.4L87.8 25.77l-.457.342-.513.8-.343.286-.914 1.429-.913 1.543-.115.4h-.114v.286h-.113v.227l-.457.801-.342 1.143.513.628.97.171 1.77-.171H87l.399-.285.457-.115 1.37-.857h.23l1.31-1.486.573-1.142.799-1.658.627-1.77v-1.314l-.684-.686-.171-.058-.114-.057zm-8.678 3.256l.285.115.115-.286-.23-.114-.113.172-.057.113zm-1.542 4l.285.115.115-.229-.23-.17-.113.17-.057.115zm.285-1.542l-.056-.514-.172-.4-.285-.115.056.915.286.171.171-.057zm-.799 5.656l.171.115.23-.057.113-.285-.457.113-.057.114zM79.98 32.57l.285.286-.114-.744-.229-.228-.171.228v.172l.229.286zm-.457 1.085l.286.4-.171.629.227.284h.286v-.913l.171-.514-.4-.23-.113-.399h-.171l.056.115-.171.57v.058zm0 2.971l.171-.4-.171-.457-.4-.172-.113.23.056.457.342.342h.115zm-.513 3.885l.513.286h.4l-.172-.4-.172-.114-.113-.457.057-.172-.513-.4h-.286l.286.743v.514zm-.914-4.514l.285-.057.629-1.085-.4-.171h-.4l-.114 1.2v.113zm-.23 6.857v-.514l-.284.057-.114.171.228.286h.17zm13.53-24.34l.573-.171 1.541.057.856.457.8.171.628.571.742.171.514.686.684.686.401.229.113.4.285.113.057.344.172.17.228 1.715.172 1.828-.115.915-.285.857-.114.857-.628 1.6-.286.285-.342 1.029-.228.057-.172.571-.171.115-.342.57v.172l-1.313 1.372-1.028.914-.4.115-1.256.799-.57.343h-.23v.114l-.913.23-.742.342-1.313.172-.97.227-1.827-.056-1.77.171-1.313-.058-.4.172-.685.686-.228 1.771-.057 1.028.114.915.17.114.344.8.285.4 1.541 1.2.743.285 1.084.172 1.942-.057 1.655-.343 1.656-.686.97-.342 1.484-.972.173-.172h.227l.171-.285h.23l.798-.8h.228l.628-.685.572-.344.57-.743.685-.57.514-.743 1.199-1.315 1.085-1.428.57-.744.058-.227.285-.286.457-.8.457-.457.684-.17.629.17.628.457.514.629.113.628-.113.629-.913 1.485-.572.686-.342.628-.342.23-.23.799-.628.628v.286l-1.255 1.314-1.313 1.314-1.256 1.315-1.313 1.2-.628.457-.342.057-1.486 1.085-.513.286-.342.343h-.23l-.056.171-.742.171-.4.23-1.027.17v.114l-1.713.514-1.656.287h-.342v.17l-1.713.23-1.884-.115-1.313-.114-.171-.171-1.827-.344-1.712-.8-1.256-.856-.286-.286-.057-.285-.343-.23-.057-.285-.342-.229-.172-.57-.285-.229-.4-1.6-.227-1.886-.115-1.714.171-1.828.228-.914.058-1.143.227-.571.172-.857.171-.343.23-1.2.17-.114v-.629l.571-1.371.742-1.543.343-.628v-.171l.514-.972.342-.23.114-.399.914-1.428.456-.628.114-.4 1.257-1.2.685-.515 1.199-1.371.457-.514.57-.23 1.084-.742.457-.172.343-.342 1.713-.629.856-.286 1.77-.113h.456z"/><path d="M114.288 44.967h.286l.456-.343-.228-.171v.115l-.514.285v.114zm-.628-14.513l-.114.514.057.344.286.057.342-.857.057-.572-.342-.228h-.286l-.114.171.114.457v.114zm.229 6.114v.114l-.343.286-.057.228.685.114.114-.171-.114-.57h-.285zm0 9.141l-.343-.113-.114.228.4.115.057-.115v-.115zm-.23-17.083l.115-.515-.285.057-.114.172.171.286h.114zm-.398 15.142h.399l-.057-.171-.342-.06v.23zm.628-1.543l-.057-.229-.343-.343-.228-.057v.287l.228.284.229.058h.17zm-.514-9.942l.285-.057.628.172.286-.23v-.172l-.571.172-.057-.172-.343-.17-.114-.343h-.228l.056.743.058.057zm-.23 2.056l.116.058.17-.457-.114-.229-.114.057-.057.458v.113zm.744 1.829l-.057-.914-.515-.4h-.171l-.171.457.17.514.458.4h.229l.057-.057zm-1.028 8.913h.228l.172-.17v-.343h-.23l-.17.17v.343zm-.114-7.256v.286l.456.457.058.285-.4.115.114.513.4.172.171-.343v-.914l.114-.57-.171-.115-.686.057-.056.057zm-.286 4.914l.171.171.057.285.172.058.342-.285.172-.743-.4-.115v.23l-.457.285-.057.114zm0-1.657l.514-.114.286-.286-.058-.4-.342-.228-.457.056v.914l.057.058zm-.115 4.514l.401.113.228-.113-.057-.286-.17-.115-.116.172-.286.115v.114zm.115-17.599l.228.114.114-.114-.114-.284-.343.17h.115v.114zm.8-5.428l-.286-.057-.629.344.058.228.285.227.514.059.457-.171-.057-.23-.286-.286-.056-.114zm-.629 6.857l.171.228.058.401-.57.285-.058.343.628.057v.286l.4.343-.115-.857.057-.914.172-.4-.23-.287-.398.458-.115.057zm-.685 12.398v.401l.514-.058.228-.228.058-.23-.743.059-.057.056zm.172-14.226l.227-.057.286-.572-.228-.114-.229.057-.228.343.057.228.115.115zm-.172-1.429l.971.228.343-.17-.343-.172-.057-.23.17-.399h.23l-.115-.457-.514-.171-.685 1.257v.114zm-.514 5.999l.286-.057.228-.342-.228-.115v.115l-.286.227v.172zm.514 7.715l-.057-.516-.342-.228-.171.572.4.172h.17zm-.628-16l.114.343.23.057.284-.171v-.114l-.514-.23-.114.116zm-.113 18.456h.227v-.229h-.227v.23zm.913-9.028l-.286.286v.228l-.343.172-.228 1.885-.056.8.342.23h.285l.4-.344.456-.114v-.743l-.456-.057-.286-.172.057-.171-.285-.57 1.028-.8-.058-.287.286-.514-.228-.115-.115.229-.457.057h-.056zm-.686 11.884v-.513l-.285.057-.114.171.228.285h.171zm-.399-14.969l.228-.058.171-.343h-.227l-.172.286v.115zm0-1.6l.172-.171-.172-.172-.114.286.114.057zm-.229-2.571l.229-.058v-.228l-.229-.114v.4zm-.286 13.828h.286l.115-.402-.115-.227h-.114l-.172.514v.115zm.286-3.087l-.286.4.286-.057.115-.228-.115-.115zm0-12.399l-.286-.285.115-.114-.457-.114v.228l.514.228.114.057zm-1.198 2.172l.17.115.458-.057v-.458l-.343-.058-.285.343v.115zm6.222 16.341l.514-.057.685-.457 1.314-1.257.684-.571.628-.743.115-.4.913-1.257.057-.343h.114l.914-1.143.057-.228.342-.286v-.286h.115v-.228h.17l.116-.4.57-.744.399-.799.286-.342.342-.171h.97l1.2 1.028.115 1.143-.858 1.599-.457.915-.912 1.256-.628.629-.114.4-.286.114v.286h-.114v.229h-.114l-.971 1.313-2.284 2.743-.913.971-.57.228-.171.172h-.286l-.229.344-.285.056-.686.629-1.598.914-1.598.743-1.77.514-1.713.229-1.027-.058-1.713.114-1.827-.285-.742-.057-.114-.171-1.656-.628-.571-.172-.342-.344-.401-.114-1.026-1.028v-.286l-.286-.342v-.458l.514-.743 1.427-.97.856-.343h.342l1.543.628.513.228.913.058.914-.172.798-.456.743-1.03v-.285h.115l.343-1.828.285-1.887-.114-1.714-.057-1.77v-1.829l-.23-1.77.172-1.773-.171-.685-.228-.171-.457.057-.343.285-.913 1.486-.742 1.656-.628.915-.913 1.543-.8.171-.799-.114-.742-.458v-.228l-.343-.228-.114-.686.114-.4 1.027-1.714.4-1.028.342-.343.115-.4.285-.285.058-.4.742-1.144.057-.4.343-.342.057-.4.513-.686.628-1.428.115-.4.913-1.485.457-.515.628-1.715.228-.513.343-.23.17-.57h.115l.114-.4.342-.343v-.286h.115v-.228l.684-.515.457-.057 1.828.572 1.426.514.971.914.229.743v.857l-.286 1.885-.229 1.944-.057 1.714-.114 1.885-.113 1.77.227 1.83v3.6l.115 1.77.171 1.828-.171 1.83.115 1.37.171.286.113.114z"/><path d="M137.065 12.399h-.342l-.171.4h.286l.227-.285v-.115zm-2.284 4.286l.4.171.114.343h-.4l-.114-.343v-.171zm-.399-.687l-.17.4-.744.343-.399.057.057-.514.572-.343h.57l.114.057zm-1.427-1.028v-.285l.286-.458h-.4l-.286.458.058.171.228.114h.114zm.286 5.828l-.4-.114-.286.285-.227-.171-.286.343-.228.058.057.284.342.172.115.172.627.114.4.286.4.114.056-.171-.228-.286v-.287l.228-.342.058-.457h-.628zm2.969-8.113v-.4h-.286l-.457.285-.172-.056-.685.799-.284-.228-.457-.172-.058.172.571.743v.514l.228.114.171.4-.399.171-.914.057-.627.286-.4-.114-.057.514-.227.228.284.516-.057.284-.513.4-.057.4.284-.057.343.285-.113.402 1.027-.402.343.287h.285l.057-.4.171-.114h.286l-.115.685.228.171 1.199-.742.4.113-.285-.57.114-.172-.343-.286.114-.628-.399-.4-.457-.057-.058-.343.457-.114.457-.4h-.628l-.17-.115.227-.114.229-.343.342-.114v-.229h-.285l-.57.343-.173-.057.8-1.028.457-.172.286.343.228.058.115-.172-.115-.457-.228-.114h-.114zm-3.141 6.97l-.171-.171-.228-.858-.4-.113-.514-.4-.342.513.799.401.115.228-.058.457-.113.172v.286l.684.114.285-.171.115-.4.227-.115.628-.057v.228l.286.287.115-.23-.8-1.313-.342-.058-.114.23.056.685-.114.171-.114.114zm-2.284 6.229l.343.285-.114.458h-.286l-.114-.458.114-.229.057-.056zm-.4-6.857l.172.4.343.285v.572l-.286.685.685.115.115.4h-.743l-.17.113v.287l.284.286.4.057.457-.23v-.856l.285-.742-.399-.172-.23-.343.116-.343-.458-.8v-.228l-.17-.058-.343.457-.058.115zm-.285 4l.23-.058.055-.228-.227.057-.058.115v.114zm.285 3.37l.115.172-.057.457-.114.171-.457.058v-.514l.4-.344h.113zm-.799 3.6l.457-.057.057-.342h-.284l-.23.285v.113zm0-1.142l.457-.115.171-.4-.342-.172h-.4l.058.572.056.115zm.514-5.828l-.514.113-.114 1.315.23.057.512.457h.286l.057-.457.343-.229.114.4-.114.915-.686.286-.742-.401-.228.115-.056.228.398.8-.17.457-.057.857.285-.056.57-.458.4.115.4-.572.228-.057.286.114.114-1.828.172-1.43-1.143-.113-.4-.229-.17-.286v-.113zm-.741 7.485l-.171-.344-.23-.057v.229l.286.172h.115zm-.8-2.172v-.114l.286-.17-.058-.23-.4-.285.172-.172.629.057v-.286l-.743-.228-.228.343v.742l.228.286.114.057zm-.628 3.314v.286l.343.171v.229l.285.229-.057-.972h-.513l-.058.057zm.343 2.228l-.114-.114h-.743l.058.515.285.286.343-.059.114-.113.057-.343v-.172zm-2.17 2.457l.286.058.342-.23-.057-.342-.17-.114h-.287l-.114.171v.457zm-1.426 3.771l.112-.685-.398.228.056.343.23.114zm-.401 3.487h.229l.172-.172-.059-.4-.171-.115-.285.343v.229l.114.115zm-.627 2.57l.114.057.228-.343.17-.686-.227-.17-.285 1.028v.114zm.285-6.456l-.171-.115h-.514l.114.343.229.057.285-.171.057-.114zm-1.085-.4h.228v-.4h-.228v.4zm17.356-31.026l.114.971-.229.915-.685 1.543-.57 1.599-.343.743-.114.514.056.514.23.286.342.172v.114l1.884-.057.457.057.627.514.171.628-.228.915-.457.742-.514.572h-.227l-.4.286-.857.057-1.884-.171-.912.285-.8.743-.172.742h-.114l-.57 1.657-.744 1.657-.342.857-.742 1.143-.171 1.43-.8 1.541-.513 1.714-.628 1.657-.686 1.658-.74 1.657-.401.8-.4 1.257-.171.17-.228.916-.171.113-.171.914-.4.972-.286 1.886v.971l.343.8.343.228h.228l.342.172 1.314-.115 1.541-.857.913-.63 1.313-1.198 1.141-1.2.972-1.143.114-.343.285-.172.4-.742.285-.229v-.228l.4-.285.171-.457.686-.629.513-.743.171-.628h.115v-.23h.171v-.284l.685-.858.457-.743.799-.285h.628l.856.4.4.743.057.857-.228.8-.686.856-.228.458-.285.228v.286l-.4.229-.171.571-.286.343-.113.685-1.143 1.372-.799.856-.057.343-.4.23v.285h-.115l-.456.8-.171.115-.228.457-.514.227-1.085 1.03-.343.114-1.085 1.143-.398.113-1.314 1.143-1.484.857-.742.343-1.713.457-1.998.172-1.999-.172-.342-.057-.114-.171-.855-.23-.686-.399-.686-.744h-.114l-.057-.342-.342-.285-.114-.458-.229-.285-.17-1.486h-.115l-.114-1.885.228-1.714v-.457l.456-1.428.686-1.772.57-1.771.115-.686h.114v-.285h.172l.114-.687.742-1.599.228-.457.171-.8.457-.8.457-1.314v-.172l.286-.228v-.286l.398-.857.23-.914.341-.8.286-.4v-.23h.171l.172-.913.17-.4.287-.228.228-.914h.17l.173-.914.684-1.6v-.514l-.342-.572-.799-.172-1.885-.114-.685-.515-.286-.398.23-.972.8-1.086.798-.457.857-.114 1.94.057.8-.172.4-.286.285-.057.114-.4.285-.114.058-.686.285-.4.229-.856.799-1.6.17-.115.457-1.714.171-.457.343-.286.058-.228h.227v-.171l.743-.23h1.999l.399-.113 1.085-.057 1.027.17.799.344.058.057zM187.588 0l-1.942.057-1.655.172-1.827.17-1.77.23-1.713.4-.627.342-1.713.571-1.142.915-.342.057-.685.515-.4.057-1.142.857-1.256 1.313-.685.459-1.2 1.37-.227.515-.571.685-1.086 1.429-.912 1.713-.057.457-.114.115-.286 1.315h-.114v.285l-.171.113-.4.858-.171.742V17.6l-.171.114v.171l-.171 1.772.17 1.885.229 1.885.399 1.658.572 1.313.228.115.114.457.513.457.743.115.628-.286.628-.571.857-.458.284-.342.8-.516.343-.799.171-.114-.115-.514-.285-.571v-.343l-.343-1.772-.171-1.714.171-1.828.457-1.828.628-1.715.743-1.6.57-.8.058-.286 1.027-1.199 1.256-1.2h.228L177.197 8l1.598-1.086.858-.229 1.712-.514 1.77-.572.856-.114h1.884l.914-.229.57.343h.456l.172.114h.4l.342.172.857.115.856.4 1.598.685 1.314 1.029 1.256 1.257.399.685.57 1.714.402 1.944v.97l-.23 1.772h-.113v.343l-.172.171-.228 1.028h-.171v.23l-.172.113-.342.571-.743.686v.171l-.342.4-.913.686-1.485.857-.628.172-.399.229-1.428.284-1.997.114-1.828-.17-.742-.514-.228-.457.456-1.314.571-1.486.685-1.6.914-1.371 1.142-1.487 1.37-1.085.57-.743.115-.8-.115-.228-.57-1.714-.4-.4-.684-.457h-.914v.114l-1.085.171-.172.171-.514.116-1.369.857v.113l-.342.058-1.2 1.027-1.314 1.373-.513.8-.685 1.314-.571.856-.114.401-.855 1.657-.172.8-.171.113-.058.23-.628 1.714-.684 1.599-.687 1.715-.627 1.714-.286.286-.056.457-.342.57-.572 1.658-.627 1.657-.572 1.6-.286.285-.17.458-.686 1.543-.57 1.6-.8 1.314-.742.456-.514.057-.856-.342-.686-.515-1.541-.97-.97-.287-1.655-.457-1.827-.228-1.828-.115-1.712.458-1.656.685-.342.343-.4.172-.57.685-.4.115-1.142 1.312-.286.802-.171.114-.228.4-.628 1.371-.057 1.314-.171.971.17.23.229.97.685 1.657.056.457h.115l.172.572.685 1.029h.113l.572.684 1.14.801 1.086.286.742.4.628.171.913.056 1.885.23 1.712-.172.914.114.914-.114.17-.114 1.657-.8 1.54-.686 1.143-1.028h.285l.228-.286.4-.115 1.256-1.2.228-.056.97.115.286.285h.23l.513.4.4.514.342.057 1.084.97.684.172.344.344.742.343 1.598.8 1.827.856.742.172.115.113 1.656.23 1.826.228 1.884-.056.742-.172 1.656-.4.114-.115 1.028-.228 1.485-.514v-.114l.342-.115.4-.4h.285l.229-.4.398-.228.115-.114.742-.858 1.37-1.085.115-.4.514-.514.742-1.2.284-.915.286-.342.286-.857.513-1.486.058-.857-.115-.172.057-.685.23-.856.113-1.83-.114-1.828-.229-1.771-.228-.743-.742-1.6-.056-.4-.286-.285-.4-.743-1.2-1.429-1.54-1.485-.172-.343.114-.743 1.314-.856.457-.06 1.027-.798h.229l.114-.228h.284l.115-.286h.286l.285-.342.228-.058.342-.285 1.315-1.259.17-.398.172-.115.342-.629.229-.114.628-1.314.227-1.086.286-.342v-.4l.171-.115v-.685l.057-1.885-.057-1.885-.228-1.601-.57-1.714-.458-.63-.228-.8-.285-.342-.23-.857-.626-.628-.172-.458-.97-.913-1.256-1.371h-.229l-.8-.686-.398-.114-.172-.173-.4-.113-.342-.287-.572-.17-.17-.172-1.141-.515-.858-.228-.855-.4-1.772-.17L187.588 0zm-4.053 14.056l-.057-.686.113-.17h.4l.057.57.171.058.286-.23h.4l-.058.23-.342.171-.914.113-.056-.056zm1.597.056l.057-.227.286-.343.457-.057.23.114-.06.571-.97.057v-.115zm13.588.573l-.114-.171.114-.915h.457l.172.115-.515 1.027-.114-.056zm-17.07.513l-.114-.285.114-.172.343.286-.057.286-.286.057v-.172zm2.57 1.43l-.115-.686.571.056.057.458-.457.4-.456.114-.171-.058-.058-.513-.113-.114.17-.115.457.515.114-.057zm-2.57.171h.514v.285l-.4.057-.114-.342zm-1.484 1.429l.171-.115-.057-.115-.057-.514h.4l.285-.171.342.114v.286l-.286-.114-.627.227.171.287.23.115.113-.115.113.17-.342.23-.513.113.057-.398zm2.627.17v-.17l.057-.23.17-.114.458.057.342.172-.114.17-.514.172-.4-.056zm-1.77.916l.399-.517.457-.114.685.172.343.286.057.229-.114.228-.571.343.17.229.057.343-.456.799v.285l-.228-.056-.172-.342h-.114v-.172l.343-.457-.114-.229-.4-.285v-.115l.285-.285-.114-.457-.513.228v-.113zm-1.37 1.199l.627-.343.228.171-.114.4.228.856-.228-.056-.342-.286-.228-.685h-.115l-.171.343-.227.056-.23-.57.114-.23.343.23.057.171.058-.057zm.97.342l.114-.285h.4l-.058.285-.17.114h-.287v-.114zm-2.455.229l.058-.171.455-.058.229.344v.284l.114.058.571.171-.113.229-.171.057-.743-.114.056-.172-.114-.342h-.113l-.23-.286zm3.425 1.085l.286-.285h.114l.684.229v.57l.23.344.399.114-.57.514-.06.514-.283-.114-.23-.4-.913-.114-.114.171.058.514.171.343.514-.114-.114.629-.515.056-.399-.114-.114-.172-.97.514-.344-.113-.112.228v.515l.284-.114 1.256.4v.228l-.229.4-.798-.114-.4.171-.629.572.229.228.4.171v.228l-.629.287.343.4.057.228-.627.4-.743.857-.456-.057.114-.343.457-.114.114-.171-.23-.458-.341-.286-.514-.057.114-.342.628.057.172-.114v-.229h.17l.344.229.398-.229v-.286l-.114-.114-.284.114-.914-.227-.114-.172.285-.344.514.23.114-.344-.114-.456-.514-.743h-.4l-.399-.401.056-.228.343-.229.914-.285-.228.343.114.227.627.287.229-.287-.115-.457.172-.171.857-.343.4.23.17-.23v-.571l-.285-.228-.285.514h-1.2l-.342-.114v-.914l.628.114.4-.171.8-.972.854.228.172.171.457-.228zm-3.025.458l.227-.287.115.057.057.114-.057.172-.229.058-.113-.114zm11.246.914l.23-.514h.113l.171.343-.17.285h-.23l-.114-.114zm-1.199 0l.114-.115v-.114l.285.114-.114.23-.285-.115zm-.57.8l-.058-.286h.114l.286.285h.114l-.114.23-.342-.23zm-5.368.513h.23v-.399h-.23v.399zm7.651.23l.457-.23.17.401-.113.113.742.63v.4l-.342-.115-.4-.514h-.685l.171-.685zm-5.709 1.086l.114-.401h.228l.286.343-.115.4h-.228l-.285-.342zm5.366.685l-.17-.343v-.514h.228l.171.456.285.287-.057.17h-.114l-.343-.056zm-1.655.285l-.229-.342-.4-.171.114-.173.4-.057.057.115.686.571v.515l-.571.342-.057-.8zm-11.703 15.942l-.286-.057-.17-.171-.8-.915-.058-1.028h.115l.171-.515.342-.571v-.229h.171l.628-1.428.514-.629v-.285l.115-.115.4-1.313.114-.058v-.229l.228-.4.856-1.599.4-1.372.457-.856.056-.458.4-1.028.228-.171.058-.514.171-.171v-.401l.286-.229.056-.514.171-.113.515-.801.114-.057.57-.228.629.114.628.342 1.712.458v.113l1.656.858 1.598.914.228.343h.23l.97.971 1.028 1.428.399.8.798 1.828.115.859-.057.685-.172 1.77-.342 1.886-.513 1.543-.286.114v.286h-.114l-.057.286-.628 1.2-1.257 1.028-.798.4-.342.286-.572.228-1.77.458-.172.114-.855-.114-.856.114-.856-.057-1.77-.515-1.657-.458-.285-.285h-.286l-.056-.171h-.23l-.227-.343-.285-.057-.228-.342-.629-.23-.285-.285h-.228v-.114zm15.47-15.999l-.114-.171.342.057.058.228h-.285v-.114zm-15.47.63l.057-.115.056-.172.23.115-.115.285-.228-.113zm-.515.513l.343.114-.114.229h-.229v-.343zm18.098 1.885l-.229-.228-.056-.228.342.057.057.457-.114-.058zm-19.297.4l.058-.113.342-.4.228.171.058.229-.514.227-.172-.113zm1.371 1.314l-.057-.286.228-.856 1.314.114v.228l-.172.115-.457.057-.057.4-.285.228-.457.115-.057-.115zm.856.401l.114-.516h.115l.17.286-.056.23-.343.115v-.115zm-1.656.343l-.056-.458.285.115-.114.4-.115-.057zm.057.685l.571-.286.23.515-.4.285-.287-.057-.114-.171-.513-.057-.856.171.343-.686.57.286h.456zm-1.598.858l.229-.344.343.629h-.286l-.286-.285zm2.684.457h.228v-.286h-.228v.286zm-1.37-.115l.342.115v.113h-.4l.057-.228zm-.058 2.743v-.515l.114-.17.115.113v.286l.171.343-.171.114h-.115l-.114-.171zm-1.483.057l-.058-.286.114-.228.4.171.113.228-.056.171-.457.058-.056-.114zm-1.999.514h.227l.286.285-.057.171-.456.058v-.514zm1.599 1.429l.057-.4.912.286-.513.628h-.114l-.342-.514zm1.769.057l-.057-.285.228.055.057.173-.114.114-.114-.057zm20.896.57v-.113l.285-.286v-.114l.228.171v.514l-.513-.171zm-36.196 5.486l-.057-.115-1.37-.914-.685-.684-.172-.4-.057-.514.171-.402.058-.513.284-.744.572-.799.627-.342.4-.058.057-.057.115-.057 1.428-.229.798.058 1.884.685 1.713 1.085.514.629v.857l-1.142 1.314-.742.514-1.542.343-.228.172-.856.228-1.77-.057zm9.19-4.286v-.113l.515-.686h.114l.344.743.057.457-1.03-.4zm2.057.629v-.171l.4-.343.227.228-.456.4-.171-.114zm-2.97.343v-.228h.115l.4-.115v.4l-.515-.057zm3.255.171l.114-.228.228.114.058.228-.4-.114zm2.34.915v-.4l.115-.057.286-.057.227.115-.284.684-.343-.285zm21.18-.113h.229v-.286h-.228v.286zm-22.093.398h.23v-.285h-.23v.285zm-1.313.743l.057-.115.456-.113-.114.342-.399-.114zm21.295 0l.057-.115.742.172.285.286-.114.456-.342-.056-.057-.629h-.114l-.342.057-.115-.17zm-1.142 3.77v-.284l.285.057v.457h-.113l-.172-.23zm-5.31 2.972h.286v-.285h-.285v.285zM222.866 25.255l.456-.057.457-.343-.457-.172-.742-.057v.287l.23.227.056.115zm-.286.629l-.343-.115-.056.228.228.114.171-.114v-.113zm-1.142-4.8l.171.115.23-.058.114-.172-.229-.114-.286.114v.115zm-.171 6h.286v-.515h-.286v.514zm.286 1.542l-.115-.344-.284-.056.056.228.228.172h.115zm-1.142-5.2v-.286l-.114-.171-.285-.056.057.457.228.056h.114zm-1.598-2.171l.399.115.171-.286-.457-.057-.113.228zm-6.68 4.4l.114-.229-.113-.286h-.171l-.115.171.115.286.17.058zm-1.942 1.143l.572-.172.17.058v-.4l-.456.056-.286.344v.114zm8.108-2.572l-.971-.056-1.312.456-.343.057-1.257 1.086h-.228l-1.199 1.428-.97 1.543-.856 1.543-.057.286h-.172v.228h-.114l-.057.4-.686 1.428-.057.401.4.514.343.171h2.112l.685-.057.342-.285.457-.115 1.2-.685.114-.171.343-.058 1.198-1.372.628-1.085.741-1.657.686-1.829.114-1.257-.628-.685-.456-.229zm-10.22 7.257l.286.114.114-.286-.228-.114-.114.172-.057.114zm-.113-.914l.684-.857.115-.344-.4-.114-.457.057-.171.915.114.286.115.057zm-.628 2.342v.229l.115.057.17-.342-.17-.115v.115l-.115.056zm-1.428 6.172l.057.457.743.228.114-.685-.114-.115-.343.17-.343-.055h-.114zm-.4-3.886v.228l.4.171.285-.171v-.228l-.57-.057-.115.057zm-.741 3.886l.342.113-.058-.228-.17-.115-.114.23zm-.172-3.2h.286v-.514h-.286v.513zm-.114 6.97h.286v-.286h-.286v.286zm-.229-1.942l-.342-.114-.057.227.171.115.228-.115v-.113zm13.702-22.398l.114-.114h1.827l.743.227.113.171.914.23.685.514.685.228 1.257 1.315.342.286.172.4.227.114v.286l.286.228.17 1.714.173 1.828-.115.915-.228.628-.286 1.543-.513 1.142-.286.286-.342 1.029-.286.114-.057.4-.913 1.372-1.371 1.313-1.484 1.03-.799.456-.286.057-.228.285h-.285v.115l-1.656.514-.97.23h-.457l-.4.171h-1.77l-3.653.113-.229.058-.685.628-.171.4-.172 1.771.058 1.715h.114l.114.4 1.028 1.314.855.629.572.285 1.94.342 1.884-.056.8-.172 1.77-.686 1.712-.742 1.257-.972h.285l.114-.228h.228l.628-.686.514-.172.571-.742.514-.229.4-.571.742-.571 1.085-1.43 1.141-1.428 1.084-1.427.743-.972.458-.742.969-.058.8.114.8.743.227.743-.343 1.143-.342.343-.17.456-.572.63-1.027 1.485-.058.4-.627.628v.286l-2.513 2.628-2.34 2.342-.743.458-.114.172-.399.057-.343.342-1.427.972-.228.057-.286.343h-.285v.114l-.914.228-.115.172-.913.17-1.712.515-.228.058-.114.171-1.827.229h-.114v.114l-1.314.114-.398.171-1.886-.171h-.856l-1.426-.457-.914-.115-1.713-.8-.685-.399-.343-.343-.456-.171-.228-.514-.286-.115-.115-.4-.741-1.029-.457-1.599-.229-1.828-.114-1.772.171-1.828.229-.914.057-.915.4-1.657.513-1.656.058-.686.113-.114.23-.8.684-1.258.686-1.484.285-.458.113-.4.343-.228.23-.686h.112l.857-1.486.286-.342.17-.458 1.257-1.2.685-.57 1.198-1.315.458-.514.685-.343.8-.571.627-.23.285-.342.856-.4 1.714-.515 1.77-.113h.57z"/><path d="M249.011 26.568l.115-.114.685.23.057-.23-.171-.4-.686.287-.056.171.056.056zm.286.4v.23l-.4.228-.17.228.057.173.741-.458.172-.571-.343.114-.057.057zm-.286 2.458v-.229l-.17-.171h-.229l.057.228.228.172h.114zm-.227-4.686l-.514-.514-.171.457.056.457.457.515.114-.172.685-.228v-1.658l-.4-.17-.114.228.114.686-.114.342-.113.057zm-1.941 3.486l.513.629.514.056.114-.227-.114-.686.171-.344-.057-.343-.457-.056-.342.227-.342.63v.114zm-.172 4h.57v-.229h-.57v.23zm-.513-5.943l.285.914h.799l.114-.629.4-.285-.343-.228-1.141.171-.114.057zm.399 2.23l-.171-.344-.343-.058v.23l.4.171h.114zm.4-5.716l-.23.058-.341.344-.228-.287.17-.115v-.114l-.513.114-.23.343.059.572h.285l.742-.4.457.058.114.856h.628l.114-.171v-.286l.115-.172-.172-.457-.285-.343-.115-.684-.684-.058.17.571-.056.171zm-1.428 9.828l.4-.056.114-.172v-.286l-.4.172-.114.229v.113zm-.228-2.343l.4-.227-.057-.401-.23-.114-.228.457.057.23.058.055zm-.685-7.485h.286v-.228h-.286v.228zm0-1.828l.171.4h.628l-.172-.4-.342-.114-.172.057-.113.057zm-.743 11.428l.743.115-.115-.516-.399-.056-.229.286v.171zm-2.111-9.198l.514-.06.17-.227-.456-.115-.228.23v.172zm-2.798.112l.4.115.342-.227.23.398-.23.515.23-.057.17-.343h.113l-.228-.915h-.513l-.4.172-.114.23v.112zm-1.712 1.716l-.686.628-.057.229.228-.057.172-.344.228-.114h.629l-.058-.229-.342-.113h-.114zm-1.143 2.056h.228l.172-.515h-.228l-.172.173v.342zm7.993-2.857h-1.427l-1.142.4-1.427 1.143-.457.342-.514.8-.342.286-.914 1.429-.913 1.543-.114.4h-.115v.286h-.114v.227l-.457.801-.342 1.143.513.628.972.171 1.769-.171h.229l.4-.285.456-.115 1.37-.857h.229l1.312-1.486.571-1.142.8-1.658.627-1.77v-1.314l-.685-.686-.17-.058-.115-.057zm-8.677 3.256l.284.115.115-.286-.228-.114-.115.172-.056.113zm-1.542 4l.286.115.114-.229-.23-.17-.112.17-.058.115zm.286-1.542l-.057-.514-.171-.4-.286-.115.057.915.285.171.172-.057zm-.8 5.656l.17.115.23-.057.114-.285-.456.113-.058.114zm-1.085-3.027l.286.286-.114-.744-.229-.228-.171.228v.172l.228.286zm-.457 1.085l.286.4-.17.629.227.284h.286v-.913l.171-.514-.4-.23-.114-.399h-.17l.056.115-.172.57v.058zm0 2.971l.172-.4-.172-.457-.399-.172-.114.23.057.457.342.342h.114zm-.513 3.885l.513.286h.4l-.171-.4-.172-.114-.113-.457.056-.172-.513-.4h-.286l.286.743v.514zm-.914-4.514l.286-.057.628-1.085-.399-.171h-.4l-.115 1.2v.113zm-.228 6.857v-.514l-.286.057-.113.171.228.286h.171zm13.53-24.34l.572-.171 1.54.057.857.457.8.171.628.571.741.171.514.686.686.686.4.229.113.4.286.113.057.344.17.17.23 1.715.17 1.828-.113.915-.286.857-.114.857-.628 1.6-.285.285-.343 1.029-.229.057-.17.571-.172.115-.342.57v.172l-1.313 1.372-1.028.914-.4.115-1.256.799-.57.343h-.229v.114l-.914.23-.741.342-1.314.172-.97.227-1.827-.056-1.77.171-1.313-.058-.4.172-.685.686-.228 1.771-.057 1.028.114.915.17.114.343.8.286.4 1.541 1.2.743.285 1.084.172 1.941-.057 1.657-.343 1.655-.686.971-.342 1.484-.972.171-.172h.229l.17-.285h.229l.799-.8h.228l.628-.685.572-.344.57-.743.686-.57.513-.743 1.199-1.315 1.085-1.428.57-.744.058-.227.285-.286.457-.8.457-.457.685-.17.628.17.628.457.514.629.113.628-.113.629-.914 1.485-.57.686-.343.628-.342.23-.23.799-.627.628v.286l-1.256 1.314-1.313 1.314-1.256 1.315-1.313 1.2-.628.457-.343.057-1.484 1.085-.514.286-.342.343h-.23l-.056.171-.742.171-.4.23-1.027.17v.114l-1.713.514-1.656.287h-.342v.17l-1.712.23-1.885-.115-1.313-.114-.172-.171-1.826-.344-1.713-.8-1.255-.856-.286-.286-.057-.285-.342-.23-.058-.285-.342-.229-.172-.57-.285-.229-.4-1.6-.228-1.886-.115-1.714.172-1.828.228-.914.057-1.143.228-.571.172-.857.171-.343.229-1.2.171-.114v-.629l.57-1.371.743-1.543.342-.628v-.171l.515-.972.342-.23.114-.399.913-1.428.457-.628.115-.4 1.256-1.2.685-.515 1.198-1.371.457-.514.57-.23 1.086-.742.456-.172.342-.342 1.713-.629.857-.286 1.77-.113h.456z"/><path d="M261.17 14.113l-.399.514-.4.172-1.257 1.314-1.026 1.6-.23.8-.113 2.057.114.742.286.286.285.8.285.286.228 1.085-.056.858-.685 1.428-.856 1.714-.057.343-.343.343-.172.686h-.171l-.057.342-.171.171-.629 1.315-.17.114-.115.4-.228.113-.114.23-.685 1.485-.114.8.8.971.798.4.742-.058.342-.342.344-.056.114-.4.228-.058.057-.285.457-.744h.114l.057-.342.171-.171.8-1.772.455-.742.058-.343.285-.229.515-1.372.114-.056v-.286l.171-.172.229-.799.628-.743.342-.171.456-.057.742.457 1.257 1.313.285.8-.057.971-.514 1.658-.742 1.657-.628 1.714-.456 1.029-.457.857-.228.857-.514 1.713-.343 1.83-.457 1.713v1.771l.514 1.829.172.285v.23l.342.57v.229l.8.514.113.228.343.286.856.4 1.542.4 1.826-.285.914.057.742-.114.799-.458 1.657-.97 1.368-1.2.8-.458.743-1.086.514-.457.114-.456.685-.63.399-.742.571-.686.971-1.543.114-.343 1.199-1.428.17-.628h.172v-.229h.115v-.285h.17l.058-.344.628-.742v-.17l.457-.687.114-.514-.058-.8-.229-.456-.284-.287-.914-.514h-.799l-.685.57-.8 1.316-.799 1.6-.513.684v.23l-.286.114-.113.4-.8.97v.173l-.285.4-1.143 1.427-.057.115-.114.172-.913 1.257-1.255 1.428-.343.172-1.257.799-.799-.114-.628-.571-.228-.572v-1.142l.115-.858.342-.913.514-1.714h.113v-.401l.628-1.771.286-.285v-.229h.114v-.286l.628-1.486 1.256-2.857.343-1.6-.115-.856.115-.229-.115-.971-.342-.915-1.085-1.484-1.199-1.372-.285-.058-.229-.342-.399-.114-.228-.23-1.371-1.313-.856-.514-.628-.515-.514-.8.23-.97.455-.687.343-.8.57-1.714-.341-.8-.343-.286-1.142-.856-.8-.457-.856-.058-1.198.286zm6.11 12.57l.455-.114.286-.285h.228l.114.114v.343l-.513.342.057.114 1.313 1.144.057.513-1.14.172-.287.4.171.343v.286l-.399.514h-.286l-.229.457-.228.057-.4-.114-.228-.857-.342-.172.057-.228.513-.058v.686l.115.114h.285l.286-.285.057-.4-.115-.514.4-.114-.056-.63.113-.514-.057-.8-1.141.343-.171-.057.399-1.085.171.114.228.4.287-.229zm1.597 3.6l.057-.114h.457l.172.114-.057.057-.458.114-.17-.171zm-.913 1.657l.172-.286-.115-.685.4.057.17.513.058.972-.286.23-1.027-.116-.686-.457-.171.059.058-.23 1.085-.4.113.343.115.057.114-.057zm-.457 2.628h.514l-.057-.4-.513-.629.056-.285.115-.057 1.027-.171-.4.915.058.513-.115.572-.114.114-.399.057-.457-.115-.229.286.114.114.4-.114-.056.228-.344.287.115.685-.229.286-.171.057.4.343.114.286-.571-.058-.228-.343.057-.742-.4-.628v-.458l.343-.8.228-.115.571.287.171-.115zm-1.598-.514l-.228-.629.113-.057.172-.114.513.057.343.228-.343.287-.171.628-.856-.058-.171-.342.457.114.17-.114zm-.514 1.028h.399l-.113.4h-.286v-.4zm-1.656 1.829l.058-.114.171-.4.285-.229.514-.057.171 1.028-.17.343h-.4l-.172-.685-.344.171-.113-.057zm1.656-.4h.286v-.228h-.286v.228zm.17 2.342h.743l-.057-.342-.342-.23v-.228l.114-.056.343-.058.342.23-.571 1.085-.456.114-.115-.515zm-2.112-.685h.286v-.229h-.286v.23zm-.513.57l.342.058.343.686-.685.286v-1.03zm1.427.859v-.115l.286-.343.4.058.228.4-.628.285-.286-.285zm1.143 1.371l-.115-.572.115-.228.17-.058.343.23.172.457-.343.227h-.286l-.056-.056zm-3.197.457l.342-.114.228.057.057.17-.114.115-.513.057v-.285zm1.712 1.2l.114-.4.4-.172-.172.515-.399.171.057-.114zm.114 2.456v-.114l.114-.343.343-.285.457.057-.058.514-.228.342-.285.058-.343-.23zm4.11-16.455h.286v-.285h-.286v.285z"/></g></svg>